<svg width="24" height="26" viewBox="0 0 24 26" fill="none" xmlns="http://www.w3.org/2000/svg">
<path d="M7.42082 1.68919C7.23983 1.76228 7.05883 1.83537 6.87783 1.945C6.66064 2.05464 6.44345 2.16427 6.22625 2.27391C5.35747 2.82208 4.3439 3.51644 3.65611 4.24734C1.30317 6.76896 0.289593 10.7524 1.66516 14.0049C1.84616 14.4069 2.02715 14.8089 2.28055 15.1743C2.78733 15.9783 3.51132 16.7458 4.38009 17.367C4.88688 17.7325 5.46607 18.0614 6.11765 18.3538C6.15385 18.3538 6.15385 18.3538 6.19005 18.3903C6.87783 18.6827 7.56562 18.9385 8.2534 19.1212C11.2217 19.9617 14.1177 19.8521 16.3982 19.7425C18.6426 19.6328 20.2353 19.5232 20.6335 20.3272C20.8507 20.8023 20.6335 21.4601 20.3077 22.0083C20.2353 22.1544 20.2715 22.1544 20.3439 22.0814C22.0453 20.5099 23.3122 18.4634 23.8914 16.161C23.8914 16.088 23.9276 16.0149 23.9276 15.9783C23.6742 15.4667 23.0226 15.2109 22.1539 15.1012C21.2127 14.9551 20.0181 14.9916 18.7511 14.9916C17.7014 14.9916 16.6154 15.0281 15.6018 14.9551C6.08145 14.2607 5.46607 8.12112 6.80544 5.3437C8.50679 1.90846 12.1629 1.14101 13.5747 0.958284C13.6109 0.958284 13.6471 0.921739 13.6471 0.885194C13.6471 0.848649 13.6109 0.812104 13.5747 0.812104C13.1041 0.739014 12.6335 0.739014 12.1267 0.739014C10.4615 0.739014 8.86879 1.06792 7.42082 1.68919Z" fill="white"/>
<path d="M0 13.2009C0 13.7125 0.0361991 14.2242 0.108597 14.7358C0.361991 16.4534 0.977377 18.1345 1.91855 19.5963C2.38914 20.3637 2.93213 21.0581 3.58371 21.6794C4.3439 22.4468 5.24887 23.1412 6.19005 23.6893C6.62444 23.9452 7.09503 24.1644 7.56562 24.3837L7.71041 24.4568C7.78281 24.4933 7.85521 24.4933 7.92761 24.5299C8.00001 24.5664 8.07241 24.5664 8.1086 24.603C8.1086 24.603 8.1086 24.603 8.1448 24.603C8.181 24.603 8.2172 24.6395 8.2534 24.6395C8.2896 24.6395 8.362 24.6761 8.3982 24.6761L8.57919 24.7491C8.65159 24.7857 8.76019 24.7857 8.83259 24.8222C9.84616 25.1146 10.9321 25.2608 12.0543 25.2973C12.0905 25.2973 12.1267 25.2973 12.1991 25.2973H12.2353C12.3801 25.2973 12.5249 25.2973 12.7059 25.2973C13.2489 25.2973 13.7557 25.2242 14.2987 25.1511C15.3122 24.9684 16.2896 24.6761 17.267 24.2375C17.267 24.0548 17.1946 23.8355 17.0498 23.7259C16.9412 23.6162 16.7964 23.5432 16.6878 23.4701C16.4344 23.3604 16.0724 23.2873 15.6742 23.2143C14.5159 23.0315 12.9231 22.995 11.2941 22.7757C10.6063 22.7026 9.95476 22.593 9.26698 22.4103C9.12218 22.3737 9.01358 22.3372 8.86879 22.3006C6.69684 21.6794 4.92308 20.6195 3.58371 19.3039C2.71493 18.4634 2.02715 17.5498 1.48416 16.563C0.868779 15.4667 0.470589 14.2972 0.253394 13.2009C0.253394 13.1643 0.253394 13.0547 0.180996 13.0547C0 13.0547 0 13.1643 0 13.2009Z" fill="white"/>
<path d="M13.2851 2.09118C12.5249 2.38354 11.8733 2.78554 11.3665 3.29717C10.5701 4.06462 10.0272 5.01479 9.84616 6.03805C9.62897 7.28059 9.95476 8.59621 10.8959 9.8022C11.1493 10.1311 11.4389 10.46 11.7647 10.7524C14.2625 12.9451 18.534 13.676 21.3937 12.5431C22.5883 12.068 23.4932 11.3005 23.9638 10.3869C23.6742 9.10784 23.2398 7.9384 22.5883 6.84205C22.2987 7.24404 21.8643 7.60949 21.2127 7.82876C19.6561 8.41349 16.8688 7.9384 15.9638 6.84205C15.095 5.78224 15.638 4.43007 17.1946 3.84535C17.7376 3.66262 19.2217 3.55299 19.9819 3.69917C19.9819 3.69917 20.0181 3.69917 19.9819 3.66262C19.0407 2.82208 17.991 2.20082 16.905 1.72573C16.6516 1.6161 16.362 1.54301 16.1086 1.54301C16.0362 1.54301 15.9638 1.54301 15.8552 1.54301C15.0588 1.6161 14.1177 1.76228 13.2851 2.09118Z" fill="white"/>
</svg>
