<svg width="452" height="387" viewBox="0 0 452 387" fill="none" xmlns="http://www.w3.org/2000/svg">
<path opacity="0.2" d="M220.386 84.4683C186.437 76.8797 100.906 -56.7865 75.2235 144.766C1.56202 304.665 154.504 452.959 357.372 356.274C523.726 256.753 437.695 92.6918 346.007 84.4679C265.275 77.4949 287.904 99.5608 220.386 84.4683Z" fill="url(#paint0_linear)"/>
<circle r="8.50538" transform="matrix(1 0 0 -1 359.189 139.357)" fill="white"/>
<circle r="4.57982" transform="matrix(1 0 0 -1 4.57982 52.9951)" fill="white" fill-opacity="0.6"/>
<g opacity="0.6">
<path d="M337.598 221.14C337.598 211.023 345.8 202.821 355.917 202.821C366.035 202.821 374.237 211.023 374.237 221.14C374.237 231.257 366.035 239.459 355.917 239.459C345.8 239.459 337.598 231.257 337.598 221.14Z" fill="white"/>
<g clip-path="url(#clip0)">
<path fill-rule="evenodd" clip-rule="evenodd" d="M350.328 216.75H348.695C348.228 216.75 348.135 216.968 348.135 217.209C348.135 217.64 348.688 219.774 350.713 222.597C352.062 224.525 353.963 225.57 355.693 225.57C356.731 225.57 356.86 225.338 356.86 224.938V223.481C356.86 223.017 356.958 222.924 357.287 222.924C357.529 222.924 357.944 223.045 358.913 223.974C360.02 225.076 360.203 225.57 360.825 225.57H362.458C362.925 225.57 363.158 225.338 363.024 224.88C362.877 224.423 362.348 223.761 361.646 222.976C361.266 222.528 360.695 222.046 360.522 221.805C360.28 221.496 360.349 221.358 360.522 221.082C360.522 221.082 362.511 218.294 362.719 217.347C362.823 217.003 362.719 216.75 362.225 216.75H360.592C360.177 216.75 359.986 216.968 359.882 217.209C359.882 217.209 359.051 219.223 357.875 220.532C357.494 220.91 357.321 221.031 357.114 221.031C357.01 221.031 356.86 220.91 356.86 220.566V217.347C356.86 216.934 356.739 216.75 356.393 216.75H353.827C353.567 216.75 353.411 216.941 353.411 217.123C353.411 217.515 354 217.605 354.06 218.707V221.1C354.06 221.624 353.965 221.719 353.757 221.719C353.204 221.719 351.857 219.696 351.059 217.381C350.902 216.932 350.745 216.75 350.328 216.75Z" fill="#50E217"/>
</g>
</g>
<path d="M319.884 34.9002C325.277 26.4655 336.487 23.9996 344.921 29.3925C353.356 34.7853 355.822 45.9948 350.429 54.4295C345.036 62.8642 333.827 65.3301 325.392 59.9372C316.957 54.5444 314.491 43.3349 319.884 34.9002Z" fill="white"/>
<g clip-path="url(#clip1)">
<path d="M338.379 39.3882C340.041 40.4505 340.233 40.5826 340.87 41.032C341.459 41.4476 341.724 41.7596 341.889 41.985C342.107 42.2835 342.228 42.5509 342.307 42.9078C342.385 43.2648 342.387 43.5583 342.315 43.9208C342.26 44.1946 342.15 44.5888 341.79 45.2132C341.401 45.8884 341.281 46.0892 340.219 47.7506C339.157 49.412 339.025 49.6047 338.575 50.2417C338.16 50.8306 337.848 51.0953 337.622 51.2601C337.324 51.4783 337.056 51.5994 336.699 51.6779C336.342 51.7564 336.049 51.7587 335.686 51.6859C335.413 51.6309 335.018 51.5216 334.394 51.1615C333.719 50.772 333.518 50.6525 331.856 49.5902C330.195 48.5279 330.002 48.3958 329.365 47.9464C328.776 47.5309 328.512 47.2189 328.347 46.9935C328.129 46.6949 328.008 46.4275 327.929 46.0706C327.851 45.7137 327.848 45.4202 327.921 45.0576C327.976 44.7839 328.085 44.3896 328.446 43.7653C328.835 43.09 328.955 42.8892 330.017 41.2278C331.079 39.5665 331.211 39.3737 331.661 38.7368C332.076 38.1478 332.388 37.8832 332.614 37.7184C332.912 37.5001 333.18 37.3791 333.537 37.3005C333.893 37.222 334.187 37.2197 334.55 37.2925C334.823 37.3475 335.218 37.4568 335.842 37.817C336.517 38.2065 336.718 38.326 338.379 39.3882ZM339.096 38.2671C337.406 37.1867 337.19 37.0584 336.507 36.6644C335.825 36.2712 335.306 36.0871 334.812 35.9879C334.301 35.8853 333.818 35.8762 333.251 36.001C332.684 36.1257 332.249 36.3367 331.828 36.6442C331.421 36.9416 331.027 37.3267 330.573 37.9696C330.119 38.6139 329.976 38.8212 328.896 40.511C327.815 42.2009 327.687 42.4173 327.293 43.1003C326.9 43.7819 326.716 44.3014 326.617 44.7956C326.514 45.3064 326.505 45.7894 326.63 46.3565C326.754 46.9236 326.965 47.3582 327.273 47.7788C327.57 48.1857 327.955 48.58 328.598 49.0337C329.243 49.4883 329.45 49.6309 331.14 50.7113C332.83 51.7917 333.046 51.9201 333.729 52.3141C334.411 52.7073 334.93 52.8913 335.424 52.9905C335.935 53.0931 336.418 53.1022 336.985 52.9775C337.552 52.8527 337.987 52.6418 338.407 52.3343C338.814 52.0368 339.209 51.6518 339.662 51.0088C340.117 50.3646 340.26 50.1573 341.34 48.4674C342.42 46.7776 342.549 46.5611 342.943 45.8781C343.336 45.1965 343.52 44.677 343.619 44.1829C343.722 43.672 343.731 43.189 343.606 42.6219C343.481 42.0549 343.27 41.6203 342.963 41.1997C342.666 40.7928 342.28 40.3984 341.637 39.9448C340.993 39.4902 340.786 39.3475 339.096 38.2671ZM337.161 41.2941C335.396 40.1659 333.051 40.6817 331.923 42.4464C330.795 44.211 331.31 46.5561 333.075 47.6844C334.84 48.8126 337.185 48.2967 338.313 46.5321C339.441 44.7675 338.925 42.4223 337.161 41.2941ZM333.792 46.5633C332.646 45.8309 332.311 44.3086 333.044 43.1632C333.776 42.0177 335.299 41.6828 336.444 42.4152C337.589 43.1475 337.924 44.6698 337.192 45.8153C336.46 46.9607 334.937 47.2956 333.792 46.5633ZM341.309 43.7688C341.046 44.1812 340.498 44.3017 340.085 44.0381C339.673 43.7744 339.553 43.2264 339.816 42.814C340.08 42.4017 340.628 42.2811 341.04 42.5448C341.453 42.8084 341.573 43.3564 341.309 43.7688Z" fill="#17DA17"/>
</g>
<path opacity="0.9" d="M268.751 218.974C260.886 240.291 248.99 258.826 233.391 274.059C215.635 291.398 192.384 305.176 164.284 315.004C163.362 315.325 162.4 315.589 161.433 315.783C160.156 316.035 158.857 316.171 157.568 316.189H157.316C155.943 316.189 154.563 316.051 153.195 315.783C152.228 315.589 151.279 315.325 150.362 315.01C122.228 305.198 98.9484 291.427 81.1744 274.088C65.5683 258.855 53.675 240.331 45.8206 219.014C31.5384 180.255 32.3511 137.558 33.0053 103.247L33.0164 102.72C33.1482 99.887 33.233 96.9109 33.2799 93.6245C33.5188 77.4892 46.3475 64.1403 62.485 63.2405C96.1308 61.3629 122.159 50.3895 144.398 28.7128L144.592 28.5342C148.285 25.1473 152.938 23.4862 157.568 23.5554C162.034 23.6135 166.481 25.2723 170.042 28.5342L170.232 28.7128C192.476 50.3895 218.504 61.3629 252.15 63.2405C268.287 64.1403 281.116 77.4892 281.355 93.6245C281.402 96.9332 281.486 99.9049 281.618 102.72L281.625 102.943C282.277 137.319 283.085 180.101 268.751 218.974Z" fill="url(#paint1_linear)"/>
<path d="M268.749 218.974C260.883 240.291 248.988 258.826 233.388 274.059C215.632 291.398 192.382 305.176 164.282 315.004C163.36 315.325 162.397 315.589 161.431 315.783C160.154 316.035 158.854 316.171 157.566 316.189V23.5554C162.031 23.6135 166.479 25.2723 170.04 28.5342L170.229 28.7128C192.473 50.3895 218.501 61.3629 252.147 63.2405C268.285 64.1403 281.113 77.4892 281.352 93.6244C281.399 96.9332 281.484 99.9048 281.616 102.72L281.622 102.943C282.274 137.319 283.082 180.101 268.749 218.974Z" fill="#00AA63"/>
<path d="M230.242 169.871C230.242 209.998 197.661 242.662 157.567 242.805H157.31C117.098 242.805 84.377 210.085 84.377 169.871C84.377 129.659 117.098 96.9399 157.31 96.9399H157.567C197.661 97.0828 230.242 129.746 230.242 169.871Z" fill="white"/>
<path d="M230.24 169.871C230.24 209.998 197.66 242.662 157.566 242.805V96.9399C197.66 97.0828 230.24 129.746 230.24 169.871Z" fill="white"/>
<path d="M190.412 159.37L157.566 192.221V167.932L178.271 147.228C181.625 143.873 187.063 143.873 190.412 147.228C193.766 150.582 193.766 156.021 190.412 159.37Z" fill="#6FA5AA"/>
<path d="M190.417 159.37L157.571 192.221L150.473 199.318C148.796 200.995 146.597 201.832 144.4 201.832C142.201 201.832 140.004 200.995 138.325 199.318L123.065 184.051C119.712 180.698 119.712 175.266 123.065 171.91C126.414 168.557 131.853 168.557 135.206 171.91L144.4 181.104L178.276 147.228C181.63 143.873 187.068 143.873 190.417 147.228C193.771 150.582 193.771 156.021 190.417 159.37Z" fill="#96C2C9"/>
<defs>
<linearGradient id="paint0_linear" x1="27.0484" y1="79.5" x2="325.598" y2="22.8892" gradientUnits="userSpaceOnUse">
<stop offset="0.00643869" stop-color="#FFFF00"/>
<stop offset="0.118416" stop-color="#D1F800"/>
<stop offset="0.253006" stop-color="#92EF00"/>
<stop offset="0.386064" stop-color="#5EE700"/>
<stop offset="0.505767" stop-color="#35E100"/>
<stop offset="0.60015" stop-color="#18DD00"/>
<stop offset="0.665018" stop-color="#06DA00"/>
<stop offset="0.744208" stop-color="#00D900"/>
</linearGradient>
<linearGradient id="paint1_linear" x1="14.1943" y1="61.2571" x2="205.202" y2="33.7158" gradientUnits="userSpaceOnUse">
<stop offset="0.00643869" stop-color="#FFFF00"/>
<stop offset="0.118416" stop-color="#D1F800"/>
<stop offset="0.253006" stop-color="#92EF00"/>
<stop offset="0.386064" stop-color="#5EE700"/>
<stop offset="0.505767" stop-color="#35E100"/>
<stop offset="0.60015" stop-color="#18DD00"/>
<stop offset="0.665018" stop-color="#06DA00"/>
<stop offset="0.744208" stop-color="#00D900"/>
</linearGradient>
<clipPath id="clip0">
<rect width="16.2838" height="16.2838" fill="white" transform="translate(347.456 212.679)"/>
</clipPath>
<clipPath id="clip1">
<rect width="16.113" height="16.113" fill="white" transform="translate(332.67 33.3616) rotate(32.5935)"/>
</clipPath>
</defs>
</svg>
