<?xml version="1.0" standalone="no"?>
<!DOCTYPE svg PUBLIC "-//W3C//DTD SVG 20010904//EN"
 "http://www.w3.org/TR/2001/REC-SVG-20010904/DTD/svg10.dtd">
<svg version="1.0" xmlns="http://www.w3.org/2000/svg"
 width="110.000000pt" height="44.000000pt" viewBox="0 0 110.000000 44.000000"
 preserveAspectRatio="xMidYMid meet">

<g transform="translate(0.000000,44.000000) scale(0.100000,-0.100000)"
fill="#000000" stroke="transparent">
<path d="M0 220 l0 -220 550 0 550 0 0 220 0 220 -550 0 -550 0 0 -220z m474
-1 c-24 -26 -111 -79 -128 -79 -3 0 -6 17 -8 37 -6 74 -101 86 -123 15 l-11
-32 -37 25 c-20 14 -41 34 -47 45 -11 20 -7 20 187 20 l197 0 -30 -31z m536
22 c0 -21 -124 -101 -155 -101 -3 0 -3 10 0 23 9 33 -29 77 -64 77 -36 0 -60
-18 -69 -55 l-8 -30 -50 47 -49 48 198 0 c113 0 197 -4 197 -9z"/>
</g>
</svg>
