<svg width="33" height="35" viewBox="0 0 33 35" fill="none" xmlns="http://www.w3.org/2000/svg">
<g filter="url(#filter0_d)">
<path d="M24.6306 10.9929C24.6306 11.2693 24.7688 10.223 25.2031 9.53206C25.3707 9.03468 25.7289 8.62422 26.1991 8.39099C26.4319 8.2755 26.6852 8.207 26.9445 8.1894C27.2037 8.17179 27.4639 8.20544 27.7102 8.28839C27.9565 8.37135 28.184 8.502 28.3798 8.67289C28.5756 8.84378 28.7358 9.05156 28.8513 9.28437C28.9668 9.51717 29.0353 9.77043 29.0529 10.0297C29.0705 10.289 29.0368 10.5492 28.9539 10.7955C28.9539 12.0984 28.9539 12.0391 28.9539 12.9077C28.9539 13.7763 28.9539 14.5265 28.9539 15.2767C28.878 16.4315 28.7197 17.5793 28.4801 18.7116C28.1626 19.671 27.7248 20.5864 27.1772 21.4358C26.2175 22.5081 25.4255 23.7194 24.8281 25.0286C24.6728 25.6746 24.6064 26.3388 24.6306 27.0027C24.6314 27.6158 24.711 28.2262 24.8675 28.8189C24.0606 28.9077 23.2463 28.9077 22.4394 28.8189C21.6695 28.7004 20.7022 27.1607 20.4653 26.6869C20.4053 26.5568 20.3092 26.4466 20.1885 26.3694C20.0678 26.2922 19.9275 26.2512 19.7843 26.2512C19.641 26.2512 19.5007 26.2922 19.38 26.3694C19.2593 26.4466 19.1633 26.5568 19.1032 26.6869C18.6689 27.437 17.7213 28.7991 17.0304 28.8781C15.7275 29.036 12.9835 28.8781 10.8515 28.8781C10.8515 28.8781 11.2069 26.904 10.3975 26.1934C9.58811 25.4827 8.75899 24.6536 8.12729 24.1008L6.48879 22.2847C5.3356 21.2102 4.49049 19.8472 4.04093 18.3365C3.62637 16.4808 3.66585 15.5728 4.04093 14.8424C4.45557 14.2356 5.08234 13.806 5.79786 13.6382C6.37145 13.5371 6.96104 13.5777 7.51532 13.7566C7.90277 13.9188 8.23762 14.1853 8.48262 14.5265C8.93666 15.1385 9.07485 15.4346 8.91692 14.7634C8.75899 14.0922 8.5221 13.1052 8.10754 11.7036C7.77195 10.6178 7.43635 10.0058 7.17972 9.27544C6.92309 8.54502 6.5875 7.85409 6.19268 6.94601C5.83504 6.01879 5.53829 5.0692 5.30434 4.10333C5.21493 3.70554 5.21275 3.29311 5.29795 2.8944C5.38314 2.49569 5.55369 2.12016 5.79786 1.79365C6.14487 1.45224 6.5759 1.20854 7.04734 1.08721C7.51879 0.965882 8.01391 0.971239 8.48262 1.10272C9.22752 1.42551 9.85481 1.97008 10.279 2.66225C10.8693 3.61697 11.3463 4.63722 11.7004 5.70235C12.3511 7.39708 12.8145 9.1579 13.0822 10.9534C13.034 9.89395 13.1203 8.83265 13.3389 7.79487C13.4484 7.47978 13.6279 7.19356 13.8638 6.95767C14.0997 6.72178 14.3859 6.54232 14.701 6.43275C15.2875 6.24476 15.9112 6.20408 16.5172 6.31431C17.1212 6.44851 17.6551 6.79972 18.0175 7.30135C18.4706 8.45512 18.7307 9.67564 18.7873 10.9139C18.8448 9.85572 19.0304 8.80839 19.3401 7.79487C19.6711 7.33126 20.1524 6.99646 20.7022 6.8473C21.3549 6.72927 22.0236 6.72927 22.6763 6.8473C23.2103 7.02842 23.6779 7.36534 24.0187 7.81462C24.4361 8.86175 24.6892 9.96713 24.7688 11.0916" fill="white"/>
<path d="M24.6306 10.9929C24.6306 11.2693 24.7688 10.223 25.2031 9.53206C25.3707 9.03468 25.7289 8.62422 26.1991 8.39099C26.4319 8.2755 26.6852 8.207 26.9445 8.1894C27.2037 8.17179 27.4639 8.20544 27.7102 8.28839C27.9565 8.37135 28.184 8.502 28.3798 8.67289C28.5756 8.84378 28.7358 9.05156 28.8513 9.28437C28.9668 9.51717 29.0353 9.77043 29.0529 10.0297C29.0705 10.289 29.0369 10.5492 28.9539 10.7955C28.9539 12.0984 28.9539 12.0391 28.9539 12.9077C28.9539 13.7763 28.9539 14.5265 28.9539 15.2767C28.878 16.4315 28.7197 17.5793 28.4801 18.7116C28.1626 19.671 27.7248 20.5864 27.1772 21.4358C26.2175 22.5081 25.4255 23.7194 24.8281 25.0286C24.6728 25.6746 24.6064 26.3388 24.6306 27.0027C24.6314 27.6158 24.711 28.2262 24.8675 28.8189C24.0606 28.9077 23.2463 28.9077 22.4394 28.8189C21.6695 28.7004 20.7022 27.1607 20.4653 26.6869C20.4053 26.5568 20.3092 26.4466 20.1885 26.3694C20.0678 26.2922 19.9275 26.2512 19.7843 26.2512C19.641 26.2512 19.5007 26.2922 19.38 26.3694C19.2593 26.4466 19.1633 26.5568 19.1032 26.6869C18.6689 27.437 17.7213 28.7991 17.0304 28.8781C15.7275 29.036 12.9835 28.8781 10.8515 28.8781C10.8515 28.8781 11.2069 26.904 10.3975 26.1934C9.58811 25.4827 8.75899 24.6536 8.12729 24.1008L6.48879 22.2847C5.3356 21.2102 4.49049 19.8472 4.04093 18.3365C3.62637 16.4808 3.66585 15.5728 4.04093 14.8424C4.45557 14.2356 5.08234 13.806 5.79786 13.6382C6.37145 13.5371 6.96104 13.5777 7.51532 13.7566C7.90277 13.9188 8.23762 14.1853 8.48262 14.5265C8.93666 15.1385 9.07485 15.4346 8.91692 14.7634C8.75899 14.0922 8.5221 13.1052 8.10754 11.7036C7.77195 10.6178 7.43635 10.0058 7.17972 9.27544C6.92309 8.54502 6.5875 7.85409 6.19268 6.94601C5.83504 6.01879 5.53829 5.0692 5.30434 4.10333C5.21493 3.70554 5.21275 3.29311 5.29795 2.8944C5.38314 2.49569 5.55369 2.12016 5.79786 1.79365C6.14487 1.45224 6.5759 1.20854 7.04734 1.08721C7.51879 0.965882 8.01391 0.971239 8.48262 1.10272C9.22752 1.42551 9.85481 1.97008 10.279 2.66225C10.8693 3.61697 11.3463 4.63722 11.7004 5.70235C12.3511 7.39708 12.8145 9.1579 13.0822 10.9534C13.034 9.89395 13.1203 8.83265 13.3389 7.79487C13.4484 7.47978 13.6279 7.19356 13.8638 6.95767C14.0997 6.72178 14.3859 6.54232 14.701 6.43275C15.2875 6.24476 15.9112 6.20408 16.5172 6.31431C17.1212 6.44851 17.6551 6.79972 18.0175 7.30135C18.4706 8.45512 18.7307 9.67564 18.7873 10.9139C18.8448 9.85572 19.0304 8.80839 19.3401 7.79487C19.6711 7.33126 20.1524 6.99646 20.7022 6.8473C21.3549 6.72928 22.0236 6.72928 22.6763 6.8473C23.2103 7.02842 23.6779 7.36534 24.0187 7.81462C24.3792 8.83783 24.5854 9.90898 24.6306 10.9929Z" stroke="black" stroke-width="0.987043" stroke-linejoin="round"/>
<path d="M22.7152 22.9952V16.1649" stroke="black" stroke-width="0.987043" stroke-linecap="round"/>
<path d="M18.729 23.0149L18.7092 16.1649" stroke="black" stroke-width="0.987043" stroke-linecap="round"/>
<path d="M14.7983 16.2246L14.8378 22.976" stroke="black" stroke-width="0.987043" stroke-linecap="round"/>
</g>
<defs>
<filter id="filter0_d" x="0.618984" y="0.50647" width="31.5641" height="34.1996" filterUnits="userSpaceOnUse" color-interpolation-filters="sRGB">
<feFlood flood-opacity="0" result="BackgroundImageFix"/>
<feColorMatrix in="SourceAlpha" type="matrix" values="0 0 0 0 0 0 0 0 0 0 0 0 0 0 0 0 0 0 127 0"/>
<feOffset dy="2.63211"/>
<feGaussianBlur stdDeviation="1.31606"/>
<feColorMatrix type="matrix" values="0 0 0 0 0 0 0 0 0 0 0 0 0 0 0 0 0 0 0.25 0"/>
<feBlend mode="normal" in2="BackgroundImageFix" result="effect1_dropShadow"/>
<feBlend mode="normal" in="SourceGraphic" in2="effect1_dropShadow" result="shape"/>
</filter>
</defs>
</svg>
