<svg width="131" height="35" viewBox="0 0 131 35" fill="none" xmlns="http://www.w3.org/2000/svg">
<path d="M120.899 6.9043H112.03V27.7625H116.679V21.8543H120.899C126.559 21.8543 130.075 18.973 130.075 14.369C130.075 9.76491 126.56 6.9043 120.899 6.9043ZM120.8 18.3812H116.679V10.3774H120.8C123.778 10.3774 125.419 11.7985 125.419 14.3793C125.419 16.96 123.779 18.3812 120.8 18.3812Z" fill="white"/>
<path d="M102.833 10.3774L107.7 6.9043H91.4089V27.7625H107.7V24.2893H96.0581V18.9501H105.988V15.477H96.0581V10.3774H102.833Z" fill="white"/>
<path d="M79.1148 15.0354H73.4573V10.3774H82.4891L87.3563 6.9043H68.8081V27.7625H78.5153C83.9595 27.7625 87.0826 25.3744 87.0826 21.2097C87.0826 17.2284 84.2521 15.0354 79.1148 15.0354ZM78.3055 24.2893H73.4573V18.5073H78.3055C81.2569 18.5073 82.6313 19.4742 82.6313 21.3978C82.6301 23.3637 81.1752 24.2893 78.3055 24.2893Z" fill="white"/>
<path d="M60.8281 23.2468C59.6362 23.8833 58.2476 24.2206 56.8152 24.2206C52.6233 24.2206 49.5819 21.3244 49.5819 17.334C49.5819 13.3436 52.6245 10.4474 56.8152 10.4474C58.4004 10.4474 59.8222 10.8787 61.0437 11.7286L64.3778 9.34973L64.1574 9.16277C62.2108 7.50651 59.6089 6.63135 56.6351 6.63135C53.4088 6.63135 50.48 7.68429 48.39 9.59748C46.287 11.521 45.1294 14.2279 45.1294 17.2193C45.1294 20.2244 46.2834 22.9715 48.3781 24.9535C50.48 26.9424 53.4017 28.0378 56.6054 28.0378C59.9573 28.0378 62.8837 26.9068 64.8671 24.848C63.3363 23.756 61.8589 22.7019 61.8589 22.7019L60.8281 23.2468Z" fill="white"/>
<path d="M17.7313 30.3612C17.5025 30.3612 17.2761 30.3555 17.0496 30.3442L16.8455 34.3035C17.1388 34.3172 17.4345 34.3251 17.7313 34.3251C22.6276 34.3251 27.0604 32.4045 30.2682 29.2981L27.3678 26.4905C24.8991 28.8802 21.4906 30.3612 17.7313 30.3612Z" fill="white"/>
<path d="M4.09489 17.1636C4.09489 16.9421 4.10076 16.7229 4.11249 16.5037L0.0222934 16.306C0.00821353 16.59 0 16.8762 0 17.1636C0 21.9032 1.98409 26.1942 5.19312 29.2994L8.09356 26.4917C5.62372 24.1021 4.09489 20.8026 4.09489 17.1636Z" fill="white"/>
<path d="M17.7291 30.3615C13.7257 30.3615 10.1201 28.6828 7.62327 26.0137L4.58203 28.6771C7.82626 32.1458 12.5148 34.3254 17.7291 34.3254V30.3615Z" fill="white"/>
<path d="M35.4611 17.1637C35.4611 16.1142 35.3637 15.0863 35.1771 14.0891L31.3603 16.8116C31.3638 16.9286 31.365 17.0456 31.365 17.1637C31.365 21.039 29.6308 24.5292 26.8735 26.9462L29.625 29.8901C33.2095 26.7508 35.4611 22.2122 35.4611 17.1637Z" fill="white"/>
<path d="M17.7276 3.96502C17.9564 3.96502 18.1829 3.97297 18.4093 3.9832L18.6135 0.0215802C18.3201 0.00795077 18.0245 0 17.7276 0C12.8313 0 8.39853 1.92061 5.19067 5.02698L8.09112 7.83464C10.5598 5.44495 13.9695 3.96502 17.7276 3.96502Z" fill="white"/>
<path d="M31.759 6.67065C32.5967 7.71785 33.3125 8.86158 33.8839 10.0825L17.7284 21.6073L10.9795 17.5117V12.5847L17.7284 16.6803L31.759 6.67065Z" fill="white"/>
<path d="M8.58636 7.38022L5.83493 4.43628C2.2516 7.57672 0 12.1153 0 17.1627H4.09606C4.09489 13.2874 5.82906 9.79717 8.58636 7.38022Z" fill="white"/>
<path d="M25.4171 6.26839L28.8655 3.80829C25.8219 1.42768 21.9488 0 17.7307 0V3.96502C20.5807 3.96502 23.2277 4.81573 25.4171 6.26839Z" fill="white"/>
</svg>
