<svg width="164" height="44" viewBox="0 0 164 44" fill="none" xmlns="http://www.w3.org/2000/svg">
<path d="M152.43 8.70508H141.248V35.0031H147.11V27.554H152.43C159.566 27.554 164 23.9213 164 18.1165C164 12.3117 159.568 8.70508 152.43 8.70508ZM152.305 23.1751H147.11V13.084H152.305C156.06 13.084 158.129 14.8757 158.129 18.1296C158.129 21.3834 156.062 23.1751 152.305 23.1751Z" fill="white"/>
<path d="M129.653 13.084L135.789 8.70508H115.249V35.0031H135.789V30.6242H121.111V23.8924H133.631V19.5135H121.111V13.084H129.653Z" fill="white"/>
<path d="M99.7488 18.9568H92.6159V13.084H104.003L110.14 8.70508H86.7542V35.0031H98.993C105.857 35.0031 109.795 31.9922 109.795 26.7413C109.795 21.7218 106.226 18.9568 99.7488 18.9568ZM98.7285 30.6242H92.6159V23.3342H98.7285C102.45 23.3342 104.182 24.5533 104.182 26.9785C104.181 29.4572 102.347 30.6242 98.7285 30.6242Z" fill="white"/>
<path d="M76.6924 29.3096C75.1896 30.1122 73.4389 30.5374 71.6329 30.5374C66.3478 30.5374 62.5132 26.8859 62.5132 21.8548C62.5132 16.8236 66.3493 13.1721 71.6329 13.1721C73.6316 13.1721 75.4241 13.7159 76.9643 14.7875L81.1678 11.7882L80.89 11.5525C78.4357 9.46424 75.1553 8.36084 71.4058 8.36084C67.3382 8.36084 63.6455 9.68839 61.0104 12.1006C58.3589 14.5257 56.8994 17.9386 56.8994 21.7101C56.8994 25.499 58.3544 28.9625 60.9954 31.4615C63.6455 33.9691 67.3292 35.3501 71.3685 35.3501C75.5944 35.3501 79.2842 33.9242 81.7848 31.3284C79.8548 29.9517 77.992 28.6227 77.992 28.6227L76.6924 29.3096Z" fill="white"/>
<path d="M22.3554 38.2797C22.067 38.2797 21.7814 38.2725 21.4959 38.2582L21.2385 43.2501C21.6084 43.2673 21.9812 43.2773 22.3554 43.2773C28.5286 43.2773 34.1175 40.8558 38.162 36.9393L34.5051 33.3994C31.3926 36.4123 27.0952 38.2797 22.3554 38.2797Z" fill="white"/>
<path d="M5.16285 21.6398C5.16285 21.3605 5.17025 21.0841 5.18504 20.8078L0.0281076 20.5586C0.0103556 20.9166 0 21.2775 0 21.6398C0 27.6155 2.50154 33.0256 6.5475 36.9407L10.2044 33.4008C7.09041 30.3878 5.16285 26.2279 5.16285 21.6398Z" fill="white"/>
<path d="M22.3527 38.2798C17.3052 38.2798 12.7593 36.1633 9.61126 32.7981L5.77686 36.1561C9.86719 40.5295 15.7786 43.2775 22.3527 43.2775V38.2798Z" fill="white"/>
<path d="M44.7093 21.6401C44.7093 20.3169 44.5865 19.021 44.3513 17.7637L39.539 21.1962C39.5435 21.3437 39.5449 21.4912 39.5449 21.6401C39.5449 26.5261 37.3585 30.9266 33.8821 33.9739L37.3511 37.6856C41.8704 33.7276 44.7093 28.0053 44.7093 21.6401Z" fill="white"/>
<path d="M22.3508 4.99911C22.6393 4.99911 22.9248 5.00914 23.2103 5.02203L23.4677 0.0272084C23.0978 0.0100244 22.7251 0 22.3508 0C16.1776 0 10.5887 2.42151 6.54419 6.33803L10.2011 9.87794C13.3136 6.86501 17.6125 4.99911 22.3508 4.99911Z" fill="white"/>
<path d="M40.0416 8.4104C41.0979 9.7307 42.0003 11.1727 42.7207 12.7121L22.3519 27.2426L13.8428 22.0788V15.8668L22.3519 21.0306L40.0416 8.4104Z" fill="white"/>
<path d="M10.8257 9.305L7.35669 5.59326C2.83883 9.55274 0 15.275 0 21.6388H5.16433C5.16285 16.7528 7.3493 12.3523 10.8257 9.305Z" fill="white"/>
<path d="M32.0458 7.90321L36.3935 4.8015C32.5562 1.80002 27.6729 0 22.3547 0V4.99911C25.948 4.99911 29.2854 6.07168 32.0458 7.90321Z" fill="white"/>
</svg>
