<svg width="18" height="20" viewBox="0 0 18 20" fill="none" xmlns="http://www.w3.org/2000/svg">
<path d="M1.91816 6.66992C1.22797 6.66992 0.668457 7.22944 0.668457 7.91963V13.7516C0.668457 14.4418 1.22797 15.0013 1.91816 15.0013C2.60835 15.0013 3.16787 14.4418 3.16787 13.7516V7.91963C3.16787 7.22944 2.60835 6.66992 1.91816 6.66992Z" fill="white"/>
<path d="M16.0815 6.66992C15.3913 6.66992 14.8318 7.22944 14.8318 7.91963V13.7516C14.8318 14.4418 15.3913 15.0013 16.0815 15.0013C16.7717 15.0013 17.3312 14.4418 17.3312 13.7516V7.91963C17.3312 7.22944 16.7717 6.66992 16.0815 6.66992Z" fill="white"/>
<path d="M13.5821 6.66992H4.41756C4.1875 6.66992 4.00098 6.85644 4.00098 7.0865V13.7516C4.00078 14.7415 4.69734 15.5948 5.66727 15.7928V18.7504C5.66727 19.4406 6.22678 20.0001 6.91697 20.0001C7.60716 20.0001 8.16668 19.4406 8.16668 18.7504V15.8344H9.83297V18.7504C9.83297 19.4406 10.3925 20.0001 11.0827 20.0001C11.7729 20.0001 12.3324 19.4406 12.3324 18.7504V15.7928C13.3023 15.5948 13.9989 14.7415 13.9987 13.7516V7.0865C13.9986 6.85644 13.8121 6.66992 13.5821 6.66992Z" fill="white"/>
<path d="M12.0283 1.73096L13.0439 0.716199C13.2094 0.556354 13.214 0.292665 13.0541 0.127157C12.8943 -0.0383117 12.6306 -0.0428809 12.4651 0.116925C12.4616 0.120284 12.4582 0.123682 12.4549 0.127157L11.2718 1.31024C9.82287 0.680817 8.17767 0.680817 6.72872 1.31024L5.54567 0.126337C5.3802 -0.0335081 5.11648 -0.0288998 4.95663 0.136569C4.80073 0.298016 4.80073 0.553932 4.95663 0.71534L5.97139 1.73092C4.7343 2.54948 3.99338 3.93669 4.00104 5.42006C4.00104 5.65012 4.18755 5.83664 4.41762 5.83664H13.5822C13.8122 5.83664 13.9987 5.65012 13.9987 5.42006C14.0063 3.93673 13.2654 2.54952 12.0283 1.73096Z" fill="white"/>
</svg>
