<svg width="498" height="424" viewBox="0 0 498 424" fill="none" xmlns="http://www.w3.org/2000/svg">
<path opacity="0.6" d="M124.408 50.8286C94.3418 89.0532 6.6534 222.729 93.4956 305.602C180.338 388.475 215.687 303.338 350.419 389.96C402.755 423.607 457.616 344.767 439.486 279.266C421.356 213.765 416.511 217.081 430.515 172.752C475.469 30.4506 264.89 119.074 234.756 72.5574C218.441 47.3713 171.924 -9.57782 124.408 50.8286Z" fill="url(#paint0_linear)"/>
<path d="M245.196 399.793C233.144 360.211 224.109 335.503 224.109 335.503L323.626 342.978C323.626 342.978 327.793 367.22 331.124 399.793H245.196Z" fill="#C78F27"/>
<path d="M209.712 399.793C216.245 365.887 222.617 335.394 222.617 335.394L257.938 337.909L270.342 400L209.712 399.793Z" fill="#C78F27"/>
<path d="M317.033 244.645C317.53 249.47 318.898 254.575 316.949 259.243C315.342 263.098 311.888 264.733 308.063 265.883C308.012 266.46 307.177 266.825 306.868 266.225C306.799 266.244 306.731 266.266 306.661 266.284C305.827 266.511 305.473 265.267 306.303 265.042C302.397 256.488 298.627 247.833 294.487 239.392C293.37 237.119 295.901 233.566 297.156 231.706C298.828 229.228 300.92 226.968 303.352 225.155C306.342 222.928 308.856 224.164 310.63 226.464C311.847 226.248 313.078 226.285 314.258 226.848C315.531 227.457 316.272 228.494 316.743 229.674C317.577 229.588 318.414 229.693 319.218 230.109C321.059 231.063 321.412 233.001 321.373 234.847C323.63 238.188 319.82 241.796 317.033 244.645Z" fill="#FFA587"/>
<path d="M325.849 310.312C317.619 318.189 309.049 311.307 306.198 304.948C304.38 300.893 303.951 296.424 303.569 292.074C303.067 286.358 302.713 280.629 302.456 274.897C302.024 265.271 301.865 255.635 301.743 246.001C301.227 245.78 301.315 245.095 301.729 244.927C301.715 243.635 301.697 242.34 301.681 241.047C301.674 240.302 302.877 240.303 302.886 241.047C302.901 242.417 302.921 243.789 302.938 245.159C305.992 246.041 309.064 246.283 312.26 245.887C312.513 245.856 312.784 246.092 312.841 246.311C316.1 258.817 323.465 271.155 326.972 285.911C328.838 293.763 333.152 303.322 325.849 310.312Z" fill="#FFA587"/>
<path d="M303.385 231.843L310.025 227.672C310.405 227.434 310.51 226.946 310.262 226.583C310.015 226.222 309.509 226.118 309.128 226.357L302.488 230.529C302.109 230.766 302.004 231.254 302.252 231.617C302.407 231.847 302.67 231.971 302.937 231.971C303.091 231.971 303.246 231.93 303.385 231.843Z" fill="#ED835C"/>
<path d="M309.088 234.003L316.242 230.729C316.65 230.543 316.823 230.074 316.628 229.682C316.434 229.291 315.948 229.123 315.536 229.312L308.381 232.586C307.974 232.772 307.8 233.241 307.996 233.632C308.137 233.917 308.43 234.08 308.737 234.08C308.855 234.08 308.974 234.055 309.088 234.003Z" fill="#ED835C"/>
<path d="M313.084 237.98L320.332 235.422C320.756 235.273 320.974 234.821 320.82 234.414C320.663 234.007 320.191 233.797 319.768 233.948L312.52 236.503C312.096 236.653 311.876 237.106 312.032 237.513C312.154 237.83 312.468 238.028 312.801 238.028C312.896 238.029 312.991 238.012 313.084 237.98Z" fill="#ED835C"/>
<path d="M342.657 241.65C342.799 240.969 345.226 223.391 345.329 222.643C345.368 222.357 345.158 222.093 344.859 222.055C344.561 222.018 344.288 222.217 344.245 222.505C343.544 227.59 341.7 240.908 341.587 241.446C341.528 241.728 341.719 242.005 342.016 242.061C342.052 242.068 342.087 242.071 342.124 242.071C342.379 242.071 342.607 241.899 342.657 241.65Z" fill="black"/>
<path d="M276.395 144.041H287.534L285.612 138.361C281.402 137.482 275.269 138.636 275.269 138.636L276.395 144.041Z" fill="#8BA8AC"/>
<path d="M217.531 345.842C254.312 357.35 291.884 359.39 329.983 352.964C331.533 352.702 330.873 350.443 329.333 350.702C291.672 357.053 254.53 354.953 218.182 343.58C216.679 343.109 216.042 345.376 217.531 345.842Z" fill="#77541B"/>
<path d="M241.094 136.004L244.44 151.554L231.162 156.189C235.278 164.589 243.759 208.941 261.688 208.846C279.616 208.751 303.119 150.802 303.119 150.802C303.119 150.802 295.081 145.61 286.199 143.828C275.473 141.674 275.204 118.303 275.204 118.303L241.094 136.004Z" fill="#F39E7E"/>
<path d="M271.131 210.339C292.121 202.666 286.442 157.199 286.442 157.199C265.073 180.727 236.732 165.132 236.732 165.132C230.21 176.619 250.139 218.013 271.131 210.339Z" fill="#FDEEF6"/>
<path d="M296.296 159.933C288.585 170.298 274.123 174.933 261.547 176.959C248.97 178.986 235.453 176.35 227.77 165.886C226.863 164.649 228.911 163.372 229.813 164.602C237.985 175.732 252.699 176.656 265.455 173.82C276.25 171.421 287.83 167.305 294.483 158.362C295.395 157.136 297.199 158.718 296.296 159.933Z" fill="#B4AFAC"/>
<path d="M304.944 186.803C304.944 186.803 343.943 329.986 328.7 334.916C250.565 360.182 215.389 334.834 215.389 334.834L235.145 184.445L304.944 186.803Z" fill="#FDEEF6"/>
<path d="M231.625 246.697C228.061 300.99 233.723 362.151 232.625 367.446C215.39 372.792 215.835 370.033 200.689 372.784C195.223 373.776 208.468 259.292 207.819 249.883C204.286 198.719 217.206 142.018 217.206 142.018L244.376 150.805C244.376 150.805 243.726 152.939 244.174 153.487C244.958 154.448 245.506 154.592 245.506 154.592C245.506 154.592 246.512 157.2 247.059 159.927C246.951 161.475 234.588 201.602 231.625 246.697Z" fill="#21A19A"/>
<path d="M347.785 374.916C343.658 380.377 272.629 382.436 273.619 375.517C269.982 367.987 267.638 162.623 267.872 159.208C268.239 156.73 268.239 150.91 268.239 150.91L288.663 143.923C288.663 143.923 325.071 130.307 341.981 144.078C363.728 156.971 339.387 226.88 332.479 291.733C330.988 305.727 351.927 369.436 347.785 374.916Z" fill="#21A19A"/>
<path d="M205.288 145.933C210.466 143.045 217.205 142.018 217.205 142.018C217.205 142.018 223.563 175.015 210.331 205.246C196.908 235.912 163.873 263.816 161.176 263.138C148.256 259.884 131.14 250.559 127.947 240.194C127.195 237.751 150.003 208.677 151.444 206.536C160.651 192.871 197.445 150.307 205.288 145.933Z" fill="#21A19A"/>
<path d="M285.614 138.361L288.664 143.922C288.133 151.809 274.686 161.85 274.686 161.85L268.243 150.911C281.728 144.805 285.612 138.361 285.614 138.361Z" fill="#31C2A7"/>
<path d="M243.871 148.755L242.117 151.993C241.765 155.856 243.874 163.578 243.874 163.578L245.663 154.776C244.843 153.067 243.871 148.755 243.871 148.755Z" fill="#31C2A7"/>
<path d="M276.524 201.883C276.494 203.218 275.502 204.538 273.973 204.266C272.708 204.039 271.865 202.752 272.527 201.616C272.551 201.574 272.58 201.543 272.605 201.507C272.604 201.219 272.649 200.933 272.764 200.652C273.003 200.068 273.531 199.628 274.165 199.465C274.903 199.275 275.682 199.556 276.098 200.172C276.424 200.654 276.538 201.315 276.524 201.883Z" fill="#31C2A7"/>
<path d="M275.395 168.616C275.365 169.952 274.373 171.273 272.845 170.999C271.58 170.773 270.737 169.486 271.398 168.35C271.422 168.309 271.45 168.277 271.476 168.24C271.475 167.953 271.52 167.666 271.635 167.386C271.874 166.801 272.403 166.361 273.035 166.2C273.776 166.01 274.554 166.289 274.97 166.906C275.296 167.388 275.41 168.049 275.395 168.616Z" fill="#31C2A7"/>
<path d="M278.315 229.358C278.285 230.695 277.294 232.015 275.766 231.741C274.501 231.515 273.658 230.228 274.318 229.093C274.342 229.051 274.371 229.02 274.397 228.983C274.396 228.696 274.441 228.409 274.556 228.128C274.795 227.544 275.323 227.105 275.954 226.942C276.695 226.752 277.473 227.032 277.889 227.649C278.214 228.13 278.327 228.791 278.315 229.358Z" fill="#31C2A7"/>
<path d="M278.991 259.378C278.961 260.714 277.969 262.034 276.441 261.761C275.176 261.534 274.333 260.247 274.993 259.112C275.017 259.07 275.045 259.039 275.072 259.003C275.071 258.715 275.115 258.429 275.23 258.147C275.47 257.564 275.998 257.124 276.63 256.961C277.372 256.771 278.15 257.052 278.567 257.668C278.892 258.149 279.004 258.81 278.991 259.378Z" fill="#31C2A7"/>
<path d="M265.672 56.2853C283.261 60.4732 294.467 76.8387 291.958 91.8634C289.45 106.888 279.711 119.612 272.339 128.106C264.966 136.6 254.043 138.952 250.213 139.185C246.382 139.418 228.539 144.14 220.631 136.637C215.096 131.383 215.272 105.9 218.022 99.2319C220.421 93.4127 222.256 93.0589 223.026 87.853C223.796 82.646 228.654 71.6057 228.654 71.6057C232.108 65.0929 248.085 52.0965 265.672 56.2853Z" fill="#F39E7E"/>
<path d="M226.807 95.0541C227.415 95.8858 228.584 96.1133 229.534 95.6473C230.432 95.2074 230.879 94.3646 231.09 93.4377C231.73 92.4205 232.058 91.199 231.681 90.0926C231.347 89.1146 230.339 88.4912 229.295 88.6706C228.37 88.8299 227.649 89.4853 227.217 90.3231C226.543 91.6369 225.904 93.8185 226.807 95.0541Z" fill="#6E3F30"/>
<path d="M249.462 102.664C250.117 103.462 251.298 103.625 252.22 103.109C253.092 102.621 253.489 101.755 253.645 100.818C254.225 99.7668 254.48 98.5292 254.038 97.4449C253.648 96.4869 252.603 95.9187 251.573 96.1542C250.658 96.3627 249.976 97.0581 249.594 97.9169C248.997 99.2667 248.489 101.48 249.462 102.664Z" fill="#6E3F30"/>
<path d="M223.211 105.974C223.394 109.458 228.642 110.871 231.483 111.587C233.005 111.971 233.618 109.703 232.098 109.319C229.494 108.662 223.894 107.25 226.813 103.871C228.652 101.741 230.661 99.726 232.58 97.6597C233.623 96.5343 231.896 94.8798 230.849 96.0062C228.929 98.0746 226.953 100.107 225.082 102.217C224.124 103.298 223.134 104.476 223.211 105.974Z" fill="#CE6D46"/>
<path d="M293.744 104.538C286.802 114.441 275.64 124.178 275.64 124.178C275.64 124.178 273.891 117.808 275.615 115.009C276.646 113.334 279.389 113.966 281.477 112.064C284.345 109.452 285.605 104.462 284.458 99.4854C283.849 96.8448 280.425 95.7926 278.154 96.1213C276.943 96.2967 276.128 97.2267 275.705 98.329C275.276 99.4433 274.715 101.332 274.08 103.62C271.675 104.178 268.871 103.609 266.778 102.09C267.716 96.7396 270.676 85.3356 270.396 83.0618C270.034 80.1286 268.425 73.9075 263.015 73.5667C257.605 73.225 247.809 77.964 241.389 75.125C235.361 72.4594 232.854 73.4976 228.313 72.3913C228.322 72.5546 225.542 79.0393 225.542 79.0393C225.542 79.0393 216.914 76.0079 214.936 72.5827C212.528 68.4109 213.179 63.5927 215.476 59.5342C217.475 55.9997 221.062 53.5165 224.942 52.1406C227.244 51.3239 229.655 51.0232 232.09 50.927C232.567 48.7043 233.803 45.5306 237.004 43.2658C242.156 39.6212 248.211 40.5962 254.111 41.1915C254.145 41.1514 256.36 39.065 258.983 38.4678C264.787 37.145 271.838 40.3157 275.252 42.7658C277.731 44.5456 279.237 46.1379 280.667 48.7494C282.229 49.4729 283.832 50.0572 285.234 50.8248C300.129 58.981 303.774 70.6617 304.27 79.3039C304.772 88.0513 300.355 95.1062 293.744 104.538Z" fill="#522C26"/>
<path d="M277.87 110.908C276.475 111.606 275.359 109.521 276.755 108.822C279.302 107.546 280.309 104.463 278.994 102.015C278.273 100.674 280.446 99.6027 281.168 100.946C283.092 104.527 281.589 109.044 277.87 110.908Z" fill="#CE6D46"/>
<path d="M269.68 69.2436C267.396 66.7203 265.757 63.6708 263.191 61.388C260.112 58.6492 256.138 57.4256 251.984 57.5038C250.444 57.5329 250.593 55.2461 252.117 55.217C256.212 55.1388 260.224 56.2481 263.506 58.6442C266.867 61.0984 268.755 64.727 271.48 67.7384C272.487 68.8517 270.691 70.3589 269.68 69.2436Z" fill="#73453E"/>
<path d="M274.374 69.5262C272.519 66.4968 270.83 63.3843 269.306 60.1895C268.667 58.8497 270.803 57.8285 271.443 59.1714C272.968 62.3661 274.656 65.4787 276.511 68.5081C277.29 69.7808 275.149 70.7909 274.374 69.5262Z" fill="#73453E"/>
<path d="M255.694 95.5191C253.201 93.3185 250.2 92.0278 247.39 90.2881C245.83 89.3221 243.844 87.6035 245.431 85.8047C247.199 83.7994 250.895 85.3738 252.777 86.4049C255.484 87.8881 257.631 89.9694 259.487 92.3434C261.459 94.8677 258.06 97.6095 255.694 95.5191Z" fill="#522C26"/>
<path d="M231.075 85.0479C230.122 85.6121 228.854 85.7093 227.779 85.9458C226.782 86.1652 225.902 86.545 225.036 87.0681C224.199 87.5732 223.058 87.1262 222.55 86.4217C221.986 85.6401 222.169 84.6079 222.876 83.9706C224.984 82.0756 228.486 80.2538 231.3 81.783C232.707 82.5476 232.224 84.3654 231.075 85.0479Z" fill="#522C26"/>
<path d="M265.942 135.26C263.041 138.406 258.897 140.054 254.874 141.489C250.325 143.111 245.633 144.197 240.827 144.819C239.311 145.014 238.773 142.784 240.294 142.587C244.534 142.039 248.702 141.144 252.749 139.803C256.9 138.428 261.362 136.792 264.336 133.566C265.352 132.462 266.95 134.165 265.942 135.26Z" fill="#CE6D46"/>
<path d="M215.686 116.565C215.686 116.565 213.98 129.305 215.283 134.509C216.919 141.044 220.324 144.949 226.754 145.997C230.425 146.595 238.561 146.938 242.09 145.689C250.557 142.695 259.353 138.33 264.111 130.977C269.849 122.11 271.807 113.66 274.331 102.962C272.337 101.262 269.436 100.464 267.44 98.7639C266.48 102.946 266.057 106.209 263.717 109.855C262.072 112.421 259.371 114.733 257.579 117.213C255.019 120.755 255.135 126.25 252.828 126.225C250.186 126.195 250.302 120.821 246.245 117.537C244.162 115.991 241.691 115.244 239.137 114.73C236.141 114.007 233.087 113.36 230.02 112.978C227.897 112.713 224.469 112.206 222.419 112.894C218.333 114.262 215.652 116.826 215.686 116.565Z" fill="#522C26"/>
<path d="M237.653 125.597C233.411 128.297 228.005 128.28 223.731 125.661C222.435 124.867 223.713 122.933 225.01 123.727C228.632 125.946 232.965 125.843 236.525 123.577C237.806 122.762 238.92 124.789 237.653 125.597Z" fill="#73453E"/>
<path d="M301.775 181.731C301.024 167.087 326.396 131.858 341.981 144.078C362.828 160.424 379.847 235.902 379.847 235.902C367.107 244.387 334.967 245.243 334.967 245.243C334.967 245.243 302.524 196.375 301.775 181.731Z" fill="#21A19A"/>
<path d="M377.868 231.125C378.391 232.502 376.225 233.465 375.7 232.08C365.696 205.657 358.966 177.842 344.052 153.374C343.276 152.101 345.453 151.158 346.221 152.418C361.136 176.886 367.865 204.7 377.868 231.125Z" fill="#107F8C"/>
<path d="M313.169 187.98C321.209 208.524 329.041 229.145 336.663 249.835C337.174 251.216 335.007 252.18 334.494 250.791C326.872 230.101 319.04 209.48 311 188.936C310.463 187.562 312.63 186.599 313.169 187.98Z" fill="#107F8C"/>
<path d="M312.326 194.499C312.911 195.86 310.744 196.818 310.158 195.455C308.331 191.203 306.2 187.111 303.754 183.156C302.969 181.888 305.146 180.945 305.923 182.2C308.369 186.155 310.5 190.247 312.326 194.499Z" fill="#107F8C"/>
<path d="M334.373 250.567C334.373 250.567 348.797 239.784 363.268 245.243C378.588 249.631 382.5 239.951 382.5 239.951L376.618 216.165L327.966 230.23L334.373 250.567Z" fill="#31C2A7"/>
<path d="M133.752 233.671L119.442 249.78C119.442 249.78 134.678 284.276 146.446 276.612C158.214 268.947 165.152 261.142 165.152 261.142L133.752 233.671Z" fill="#F19984"/>
<path d="M126.945 237.883C146.158 243.752 164.308 265.463 164.308 265.463L182.872 245.906C182.872 245.906 171.499 231.44 161.038 223.165C150.578 214.89 143.554 214.958 143.554 214.958L126.945 237.883Z" fill="#31C2A7"/>
<path d="M211.823 247.217C211.108 247.205 210.536 246.639 210.55 245.953C210.884 227.38 215.418 201.896 215.465 201.641C215.585 200.965 216.258 200.508 216.961 200.628C217.666 200.744 218.139 201.386 218.018 202.063C217.972 202.315 213.472 227.615 213.141 245.996C213.127 246.676 212.551 247.218 211.846 247.218C211.837 247.219 211.83 247.219 211.823 247.217Z" fill="#107F8C"/>
<path d="M211.666 203.086C210.958 202.992 210.463 202.364 210.561 201.685C210.845 199.713 211.406 194.043 210.606 191.526C210.396 190.87 210.782 190.175 211.466 189.974C212.148 189.775 212.875 190.142 213.084 190.799C214.217 194.353 213.174 201.714 213.129 202.025C213.039 202.647 212.483 203.098 211.847 203.098C211.789 203.097 211.728 203.094 211.666 203.086Z" fill="#107F8C"/>
<path d="M152.579 211.262C152.01 210.845 151.902 210.065 152.338 209.52L169.095 188.54C169.529 187.996 170.34 187.892 170.91 188.31C171.479 188.727 171.587 189.507 171.151 190.052L154.395 211.032C154.14 211.352 153.756 211.519 153.366 211.519C153.09 211.519 152.815 211.436 152.579 211.262Z" fill="#107F8C"/>
<path d="M148.771 274.944C142.735 280.93 131.922 280.914 125.768 275.19C122.103 271.77 121.281 266.456 120.014 261.935C116.767 250.322 112.834 227.313 109.821 209.402C108.886 203.923 108.044 198.938 107.346 194.889C107.346 194.889 107.346 194.889 107.35 194.867C106.87 192.243 103.042 181.312 102.714 179.601L117.951 168.357C117.951 168.357 119.523 170.274 121.908 175.371C123.766 179.341 126.109 184.408 128.596 189.836C134.078 201.821 140.224 215.676 143.217 223.733C147.172 234.486 151.262 244.955 153.184 256.259C154.361 263.051 153.983 269.775 148.771 274.944Z" fill="#F19984"/>
<path d="M92.1917 162.694C92.1917 162.694 69.4829 157.195 72.6639 163.951C75.847 170.708 96.9093 174.927 96.9093 174.927" fill="#F19984"/>
<path d="M336.741 245.173C336.741 245.173 343.456 266.533 359.509 276.612C371.277 284.276 386.512 249.78 386.512 249.78L372.203 233.671L336.741 245.173Z" fill="#F19984"/>
<path d="M102.713 179.601C102.713 179.601 85.1485 166.423 84.7474 161.207C84.3473 155.991 85.0033 148.06 86.7312 144.272C88.5624 140.257 91.1835 134.057 94.5191 134.355C98.5911 134.719 93.5569 145.769 94.2172 146.961C94.8774 148.152 97.7951 136.109 99.782 133.63C101.77 131.152 104.863 133.743 104.863 133.743C104.863 133.743 108.374 133.483 109.179 136.529C109.983 139.573 110.06 143.61 110.06 143.61C110.06 143.61 113.426 142.172 114.246 144.543C115.066 146.916 113.065 157.297 113.872 160.174C114.679 163.05 117.205 166.07 119.177 171.169C121.148 176.267 118.656 183.285 118.656 183.285L102.713 179.601Z" fill="#F39E7E"/>
<path d="M102.421 157.584C102.504 157.363 102.537 157.119 102.507 156.87C102.5 156.824 101.954 152.358 102.549 148.161C103.157 143.873 105.789 135.298 105.816 135.212C106.07 134.388 105.578 133.521 104.72 133.277C103.861 133.033 102.964 133.522 102.704 134.33C102.592 134.69 99.9774 143.216 99.336 147.739C98.6821 152.344 99.2618 157.043 99.2848 157.241C99.3935 158.094 100.2 158.702 101.091 158.598C101.717 158.527 102.217 158.119 102.421 157.584Z" fill="#E27E66"/>
<path d="M109.123 157.246C109.185 157.081 109.22 156.903 109.221 156.716C109.221 155.256 110.473 148.914 111.262 145.259C111.445 144.417 110.881 143.595 110.004 143.419C109.124 143.246 108.263 143.808 108.086 144.629C107.871 145.627 105.976 154.457 105.976 156.717C105.976 157.577 106.703 158.276 107.599 158.274C108.299 158.274 108.896 157.846 109.123 157.246Z" fill="#E27E66"/>
<path d="M94.6857 155.729C94.7724 155.5 94.8038 155.249 94.7682 154.988L94.6105 153.885C94.5562 153.316 95.0221 150.678 95.4922 148.58C95.6792 147.739 95.1224 146.911 94.247 146.731C93.3694 146.552 92.518 147.073 92.3185 147.928C91.9821 149.432 91.2174 153.066 91.395 154.308L91.5538 155.41C91.675 156.263 92.493 156.859 93.3809 156.743C93.9983 156.66 94.4862 156.256 94.6857 155.729Z" fill="#E27E66"/>
<path d="M351.377 249.657C353.3 238.353 357.389 227.884 361.344 217.131C364.337 209.074 370.484 195.218 375.965 183.234C378.452 177.805 380.796 172.738 382.653 168.769C385.038 163.672 386.61 161.755 386.61 161.755L401.848 172.999C401.52 174.71 397.692 185.641 397.211 188.265C397.216 188.287 397.216 188.287 397.216 188.287C396.519 192.336 395.677 197.321 394.741 202.8C391.728 220.712 387.795 243.719 384.547 255.333C383.28 259.854 382.459 265.167 378.793 268.588C372.639 274.312 361.827 274.328 355.791 268.342C350.578 263.173 350.201 256.449 351.377 249.657Z" fill="#F19984"/>
<path d="M407.651 168.326C407.651 168.326 428.714 164.106 431.897 157.349C435.079 150.594 412.369 156.092 412.369 156.092" fill="#F19984"/>
<path d="M385.906 176.682C385.906 176.682 383.415 169.666 385.385 164.566C387.357 159.467 389.883 156.448 390.69 153.572C391.497 150.695 389.495 140.313 390.316 137.941C391.136 135.569 394.501 137.008 394.501 137.008C394.501 137.008 394.579 132.97 395.383 129.926C396.188 126.88 399.699 127.14 399.699 127.14C399.699 127.14 402.791 124.549 404.78 127.028C406.767 129.506 409.684 141.549 410.345 140.358C411.004 139.166 405.97 128.116 410.043 127.752C413.378 127.455 415.999 133.655 417.831 137.669C419.559 141.457 420.215 149.388 419.815 154.604C419.413 159.82 401.849 172.999 401.849 172.999L385.906 176.682Z" fill="#F39E7E"/>
<path d="M403.473 151.996C404.365 152.101 405.171 151.492 405.28 150.639C405.303 150.441 405.882 145.742 405.228 141.138C404.587 136.615 401.972 128.089 401.86 127.729C401.599 126.921 400.703 126.433 399.844 126.676C398.987 126.92 398.495 127.786 398.748 128.61C398.775 128.695 401.407 137.271 402.015 141.559C402.611 145.756 402.064 150.222 402.058 150.268C402.028 150.518 402.06 150.761 402.144 150.982C402.344 151.517 402.845 151.925 403.473 151.996Z" fill="#E27E66"/>
<path d="M396.964 151.671C397.86 151.673 398.587 150.974 398.587 150.114C398.587 147.856 396.692 139.025 396.477 138.026C396.302 137.205 395.44 136.643 394.559 136.816C393.682 136.992 393.119 137.814 393.302 138.656C394.09 142.311 395.343 148.654 395.343 150.113C395.344 150.3 395.378 150.478 395.441 150.644C395.667 151.244 396.263 151.672 396.964 151.671Z" fill="#E27E66"/>
<path d="M411.179 150.14C412.067 150.256 412.885 149.66 413.006 148.807L413.165 147.705C413.343 146.463 412.577 142.83 412.241 141.325C412.043 140.469 411.191 139.949 410.313 140.128C409.437 140.308 408.88 141.136 409.067 141.977C409.537 144.076 410.003 146.714 409.949 147.282L409.791 148.385C409.756 148.645 409.787 148.896 409.874 149.125C410.074 149.654 410.562 150.058 411.179 150.14Z" fill="#E27E66"/>
<path d="M426.818 64.4735L415.15 45.6668L415.147 45.6698C411.427 39.0698 402.977 36.274 395.737 39.4096C391.391 41.2916 388.399 44.836 387.353 49.0429L374.785 54.4864C370.804 52.4561 366.054 52.2657 361.709 54.1477C354.468 57.2833 351.071 65.223 353.772 72.2649L353.765 72.2598L360.754 93.0898C361.571 95.5239 363.955 97.1554 366.62 97.1053L369.389 97.0522C371.979 97.0031 374.246 95.3716 375.026 93.0026L380.519 76.3295L400.641 67.6141L417.312 74.688C419.681 75.6931 422.455 75.139 424.206 73.3071L426.079 71.35C427.881 69.465 428.182 66.6711 426.818 64.4735Z" fill="#D8005D"/>
<g opacity="0.3">
<path opacity="0.3" d="M368.047 76.7623C373.473 76.7623 377.872 72.5427 377.872 67.3374C377.872 62.1322 373.473 57.9126 368.047 57.9126C362.621 57.9126 358.222 62.1322 358.222 67.3374C358.222 72.5427 362.621 76.7623 368.047 76.7623Z" fill="url(#paint1_linear)"/>
</g>
<g opacity="0.3">
<path opacity="0.3" d="M402.536 61.8239C407.963 61.8239 412.361 57.6042 412.361 52.399C412.361 47.1938 407.963 42.9741 402.536 42.9741C397.11 42.9741 392.711 47.1938 392.711 52.399C392.711 57.6042 397.11 61.8239 402.536 61.8239Z" fill="url(#paint2_linear)"/>
</g>
<path d="M401.586 49.8028C402.674 49.2012 403.048 47.8673 402.421 46.8234C401.793 45.7795 400.403 45.421 399.315 46.0225C398.226 46.6241 397.853 47.9581 398.48 49.002C399.107 50.0459 400.497 50.4044 401.586 49.8028Z" fill="#17DA17"/>
<path d="M406.186 57.9816C407.046 57.1033 407 55.7226 406.085 54.8977C405.169 54.0729 403.73 54.1162 402.87 54.9946C402.01 55.8729 402.055 57.2536 402.971 58.0785C403.887 58.9033 405.326 58.86 406.186 57.9816Z" fill="#17DA17"/>
<path d="M408.067 52.1908C409.165 51.6061 409.561 50.278 408.951 49.2245C408.342 48.1709 406.957 47.7909 405.859 48.3756C404.761 48.9603 404.365 50.2884 404.974 51.3419C405.584 52.3955 406.968 52.7755 408.067 52.1908Z" fill="#17DA17"/>
<path d="M398.95 56.1153C400.095 55.6195 400.604 54.3273 400.087 53.2292C399.57 52.1311 398.223 51.6428 397.079 52.1386C395.934 52.6344 395.425 53.9266 395.942 55.0247C396.459 56.1228 397.806 56.6111 398.95 56.1153Z" fill="#17DA17"/>
<path d="M371.729 64.5206L368.753 65.8093L366.553 62.1756C366.329 61.8038 365.849 61.6615 365.442 61.8379L364.453 62.2668C364.233 62.362 364.045 62.4973 363.967 62.7157C363.888 62.9342 363.915 63.1888 364.027 63.3932L366.003 67.0008L362.294 68.6072C361.855 68.7976 361.459 69.2936 361.657 69.7145L361.998 70.438C362.196 70.8599 362.912 71.0423 363.351 70.8519L367.2 69.1844L369.215 72.8602C369.43 73.252 369.923 73.4103 370.344 73.2279L371.763 72.6136C371.989 72.5164 372.147 72.304 372.222 72.0775C372.297 71.851 372.278 71.6256 372.155 71.4201L370.051 67.9488L372.786 66.7643C373.226 66.5739 373.249 66.0719 373.05 65.65L372.71 64.9264C372.51 64.5065 372.168 64.3302 371.729 64.5206Z" fill="#17DA17"/>
<path d="M382.064 57.8668C382.178 58.1083 382.066 58.3919 381.815 58.5001L379.215 59.6264C378.963 59.7357 378.667 59.6285 378.554 59.387C378.44 59.1455 378.552 58.8619 378.804 58.7536L381.404 57.6272C381.655 57.518 381.951 57.6252 382.064 57.8668Z" fill="#17DA17"/>
<path d="M388.176 55.22C388.29 55.4615 388.178 55.7452 387.926 55.8534L385.326 56.9797C385.074 57.0889 384.778 56.9817 384.666 56.7402C384.552 56.4987 384.664 56.2151 384.915 56.1069L387.515 54.9805C387.766 54.8713 388.062 54.9785 388.176 55.22Z" fill="#17DA17"/>
<path d="M137.462 363.331L146.921 343.416H146.917C150.45 336.721 148.03 328.467 141.217 324.548C137.128 322.195 132.386 321.857 128.188 323.43L116.362 316.626C115.833 312.331 113.289 308.479 109.2 306.126C102.387 302.207 93.6503 304.054 89.1583 310.196L89.1593 310.188L75.2999 327.568C73.6796 329.599 73.6409 332.408 75.2037 334.481L76.8271 336.633C78.345 338.647 81.035 339.503 83.5088 338.769L100.921 333.596L119.854 344.489L123.297 361.66C123.787 364.1 125.841 365.97 128.408 366.307L131.152 366.668C133.792 367.013 136.357 365.658 137.462 363.331Z" fill="#D8005D"/>
<g opacity="0.3">
<path opacity="0.3" d="M111.319 319.067C111.584 313.868 107.405 309.447 101.985 309.193C96.5653 308.939 91.9571 312.948 91.6924 318.147C91.4276 323.346 95.6064 327.766 101.026 328.02C106.446 328.274 111.054 324.266 111.319 319.067Z" fill="#151730"/>
</g>
<g opacity="0.3">
<path opacity="0.3" d="M143.652 338.681C144.449 333.533 140.745 328.739 135.378 327.974C130.011 327.209 125.013 330.762 124.216 335.911C123.418 341.059 127.122 345.853 132.489 346.618C137.856 347.383 142.854 343.83 143.652 338.681Z" fill="#151730"/>
</g>
<path d="M138.681 334.017C139.218 332.927 138.732 331.627 137.597 331.112C136.461 330.597 135.106 331.063 134.569 332.152C134.032 333.241 134.518 334.542 135.653 335.057C136.789 335.572 138.144 335.106 138.681 334.017Z" fill="#17DA17"/>
<path d="M133.804 341.479C133.989 340.287 133.131 339.178 131.889 339C130.646 338.823 129.49 339.646 129.305 340.838C129.12 342.029 129.978 343.139 131.22 343.316C132.462 343.493 133.619 342.671 133.804 341.479Z" fill="#17DA17"/>
<path d="M140.357 340.553C140.912 339.472 140.449 338.164 139.322 337.631C138.195 337.099 136.832 337.544 136.277 338.624C135.722 339.705 136.185 341.013 137.312 341.546C138.439 342.078 139.802 341.633 140.357 340.553Z" fill="#17DA17"/>
<path d="M131.882 335.895C132.528 334.862 132.178 333.522 131.101 332.902C130.024 332.282 128.627 332.618 127.981 333.651C127.335 334.684 127.684 336.024 128.761 336.644C129.839 337.264 131.236 336.929 131.882 335.895Z" fill="#17DA17"/>
<path d="M106.025 319.935L103.226 318.324L105.084 314.519C105.275 314.131 105.124 313.672 104.74 313.451L103.809 312.915C103.602 312.797 103.378 312.726 103.147 312.788C102.915 312.851 102.712 313.016 102.6 313.222L100.636 316.835L97.1461 314.827C96.7324 314.59 96.0826 314.56 95.834 314.956L95.4078 315.638C95.1602 316.035 95.4109 316.702 95.8246 316.941L99.4464 319.025L97.4459 322.708C97.2328 323.101 97.378 323.581 97.7739 323.808L99.109 324.577C99.321 324.699 99.5926 324.702 99.8298 324.633C100.066 324.564 100.25 324.42 100.354 324.205L102.128 320.568L104.701 322.048C105.115 322.286 105.558 322.018 105.805 321.621L106.231 320.94C106.482 320.542 106.437 320.172 106.025 319.935Z" fill="#17DA17"/>
<path d="M117.614 324.289C117.472 324.516 117.166 324.59 116.928 324.454L114.482 323.046C114.246 322.909 114.168 322.616 114.31 322.388C114.453 322.162 114.759 322.088 114.996 322.224L117.442 323.632C117.679 323.768 117.756 324.063 117.614 324.289Z" fill="#17DA17"/>
<path d="M123.364 327.597C123.222 327.824 122.916 327.898 122.679 327.762L120.232 326.354C119.996 326.217 119.919 325.924 120.061 325.696C120.203 325.47 120.509 325.396 120.746 325.532L123.193 326.94C123.429 327.076 123.506 327.371 123.364 327.597Z" fill="#17DA17"/>
<path d="M119.945 90.7036C119.769 90.5854 119.615 90.4361 119.492 90.2597L94.7153 54.8861C94.3486 54.362 94.312 53.6876 94.6223 53.1314C94.9325 52.5753 95.5374 52.2275 96.1955 52.2295L139.186 52.3357C139.801 52.3367 140.371 52.6424 140.695 53.1434C141.018 53.6445 141.048 54.2698 140.775 54.7979L122.562 90.0653C122.28 90.6104 121.718 90.9702 121.086 91.0103C120.673 91.0364 120.272 90.9241 119.945 90.7036ZM99.5332 55.6487L120.734 85.9185L136.32 55.7399L99.5332 55.6487Z" fill="white"/>
<path d="M402.107 393.801C386.543 393.801 373.878 381.653 373.878 366.722C373.878 351.789 386.542 339.641 402.107 339.641C417.672 339.641 430.337 351.788 430.337 366.722C430.337 381.653 417.674 393.801 402.107 393.801ZM402.107 344.025C389.061 344.025 378.449 354.205 378.449 366.722C378.449 379.236 389.061 389.417 402.107 389.417C415.153 389.417 425.766 379.236 425.766 366.722C425.766 354.206 415.153 344.025 402.107 344.025Z" fill="white"/>
<defs>
<linearGradient id="paint0_linear" x1="56.1273" y1="210.996" x2="443.024" y2="210.996" gradientUnits="userSpaceOnUse">
<stop offset="0.0064" stop-color="#FFFF00"/>
<stop offset="0.1184" stop-color="#D1F800"/>
<stop offset="0.253" stop-color="#92EF00"/>
<stop offset="0.3861" stop-color="#5EE700"/>
<stop offset="0.5058" stop-color="#35E100"/>
<stop offset="0.6001" stop-color="#18DD00"/>
<stop offset="0.665" stop-color="#06DA00"/>
<stop offset="0.7442" stop-color="#00D900"/>
</linearGradient>
<linearGradient id="paint1_linear" x1="359.092" y1="71.2285" x2="376.742" y2="62.9211" gradientUnits="userSpaceOnUse">
<stop stop-color="#7CB4FB"/>
<stop offset="1" stop-color="#4768DE"/>
</linearGradient>
<linearGradient id="paint2_linear" x1="393.581" y1="56.291" x2="411.231" y2="47.9836" gradientUnits="userSpaceOnUse">
<stop stop-color="#7CB4FB"/>
<stop offset="1" stop-color="#4768DE"/>
</linearGradient>
</defs>
</svg>
