<svg width="498" height="424" viewBox="0 0 498 424" fill="none" xmlns="http://www.w3.org/2000/svg">
<path opacity="0.6" d="M56.525 321.281C41.6896 280.564 62.7295 110.014 128.584 57.8693C188.765 10.2168 275.648 62.9411 336.73 36.7171C419.532 1.16919 466.57 96.3308 421.663 166.309C376.757 236.287 324.506 278.441 310.65 320.533C285.194 397.861 99.8102 440.079 56.525 321.281Z" fill="url(#paint0_linear)"/>
<path d="M312.941 176.337C312.941 176.337 338.674 191.655 340.804 217.58C342.933 243.504 340.981 351.107 289.379 377.591C237.776 404.074 169.474 397.971 143.329 395.076C117.183 392.181 102.687 373.087 99.4488 359.941C96.2103 346.795 90.98 297.824 118.485 282.027C145.989 266.231 174.875 242.031 203.741 218.466C232.607 194.901 282.076 156.434 312.941 176.337Z" fill="url(#paint1_linear)"/>
<path d="M131.155 290.004C131.155 290.004 139.164 290.41 140.145 306.215C140.145 306.215 121.575 322.184 96.4917 325.985C94.6082 326.271 99.1243 313.654 99.8034 311.945C103.034 303.812 113.206 298.575 131.155 290.004Z" fill="#FAF3F2"/>
<path d="M221.345 271.42H204.446C204.446 271.42 161.23 225.636 127.819 213.433C122.318 211.425 116.16 213.984 113.877 219.187C108.543 231.345 102.617 256.735 119.819 294.102C121.825 298.461 127.437 300.397 131.623 297.833C132.875 297.065 133.774 296.038 134.32 294.749L132.315 248.487C132.315 248.487 156.739 287.622 184.249 292.772C194.771 294.741 231.031 295.568 221.345 271.42Z" fill="#D8005D"/>
<path d="M57.9633 386.794C65.0451 380.841 76.3282 374.161 92.6177 372.246L98.1267 375.478C98.1267 375.478 94.6137 380.449 88.1966 385.699C82.2986 388.984 73.191 393.436 65.6407 394.401C58.3009 395.339 57.2172 391.083 57.9633 386.794Z" fill="#FAF3F2"/>
<path d="M99.8037 311.944C104.166 313.299 106.086 319.228 117.156 315.307C127.867 311.514 135.829 306.622 139.925 303.801C140.017 304.565 140.093 305.364 140.146 306.215C140.146 306.215 120.566 324.081 95.4816 327.881C93.5982 328.166 92.1059 326.364 92.785 324.654C94.0028 321.588 96.1989 316.937 99.8037 311.944Z" fill="#FAF3F2"/>
<path d="M220.727 283.15L141.589 283.971C141.589 283.971 96.3941 319.84 88.1967 374.534C88.1967 374.534 86.8364 378.557 95.0049 379.245C95.0049 379.245 122.329 362.126 140.146 331.859C161.992 294.747 205.271 311.453 205.271 311.453C219.491 301.618 239.585 299.615 254.723 296.338L220.727 283.15Z" fill="#D8005D"/>
<path d="M218.858 221.996C218.858 221.996 210.339 262.953 168.596 279.155L153.748 277.476L150.244 282.835L185.074 283.899C185.074 283.899 214.846 272.587 230.62 241.764C231.141 240.747 239.827 223.542 218.858 221.996Z" fill="#F5A983"/>
<path d="M199.009 272.178C199.009 272.178 213.108 267.443 222.445 254.954C224.039 247.975 225.417 240.289 226.064 232.672C226.064 232.672 218.977 226.829 214.546 224.308C213.112 223.492 212.57 221.765 213.296 220.325C216.553 213.852 236.249 188.438 237.725 188.085C245.744 186.166 265.859 164.388 289.023 194.783C298.964 207.827 281.319 259.225 263.408 295.498L245.419 298.048L199.009 272.178Z" fill="#FAF3F2"/>
<path d="M251.624 238.207C251.624 238.207 224.708 268.78 190.295 273.249C190.295 273.249 181.401 265.47 174.788 268.247C168.174 271.024 159.106 283.281 159.106 283.281H203.292C203.292 283.281 245.072 281.87 265.95 257.566C264.269 249.062 259.238 243.982 251.624 238.207Z" fill="#F5A983"/>
<path d="M279.295 185.644C274.288 188.545 268.355 189.632 262.551 189.431C256.866 189.234 249.858 188.249 246.434 183.349L246.692 183.343C248.543 185.928 251.552 187.42 254.655 188.204C257.726 188.941 260.883 189.297 264.049 189.263C267.249 189.276 270.433 188.829 273.493 187.935C275.419 187.362 277.266 186.574 278.999 185.588L279.295 185.644Z" fill="#1F2144"/>
<path d="M288.647 172.771C288.639 172.431 288.629 172.065 288.622 171.748C288.627 169.263 288.659 166.679 289.581 164.321C290.501 161.964 291.747 159.945 292.202 157.464C292.598 154.709 292.757 151.926 292.674 149.145C292.696 146.155 292.029 143.198 290.718 140.486C287.935 134.882 283.348 130.284 277.636 127.369C264.088 120.411 246.705 121.205 236.573 133.237C235.409 134.624 234.394 136.124 233.548 137.71C231.028 142.344 229.089 147.247 227.77 152.317C226.332 157.927 225.201 164.609 228.5 169.821C229.648 171.682 231.174 173.301 232.989 174.583C233.365 179.409 237.912 184.242 241.774 186.872C244.768 188.922 248.359 188.325 251.574 185.31C254.56 184.636 259.465 185.718 260.574 183.165C261.654 184.398 262.938 185.451 264.373 186.284C267.147 187.796 270.287 184.415 273.392 184.401C275.871 184.394 281.069 186.246 281.069 186.246C282.196 185.704 283.271 185.068 284.282 184.346C287.842 181.365 288.553 177.035 288.647 172.771Z" fill="#522C26"/>
<path d="M275.014 184.57C275.014 184.57 269.93 187.304 261.83 187.07C253.729 186.836 251.595 185.311 251.595 185.311L250.69 180.532L250.303 178.535L249.687 175.337L273.287 161.901L275.014 184.57Z" fill="#F5A983"/>
<path d="M271.142 171.597C267.737 177.398 251.263 179.217 247.685 178.288C242.628 176.99 235.571 168.283 235.417 161.13C235.325 157.37 236.51 151.103 237.735 145.548C237.735 145.548 237.734 145.512 237.734 145.499C237.927 144.668 238.12 143.838 238.307 143.05C238.325 142.94 238.349 142.832 238.38 142.725C239.487 138.089 240.475 134.552 240.475 134.552L254.771 125.76C254.771 125.76 271.735 134.92 272.017 135.302C272.299 135.684 279.546 152.434 279.546 152.434C279.546 152.434 274.526 165.817 271.142 171.597Z" fill="#F5A983"/>
<path d="M279.505 152.499C279.505 152.499 282.233 152.091 283.641 155.23C284.902 158.024 282.011 162.883 277.996 165.091C274.504 167.013 270.266 166.726 270.303 166.479C270.342 166.231 270.641 158.297 270.824 157.658C271.006 157.018 279.505 152.499 279.505 152.499Z" fill="#FF924F"/>
<path d="M258.031 183.633C255.981 184.488 253.815 185.052 251.596 185.309L250.692 180.53L250.304 178.534C252.466 178.452 254.612 178.131 256.698 177.578C260.089 176.661 261.018 176.986 262.056 178.24C263.094 179.495 261.349 182.089 258.031 183.633Z" fill="#ED9368"/>
<path d="M247.047 163.05C246.935 163.006 246.84 162.933 246.771 162.838C246.28 162.181 245.902 161.453 245.651 160.682C245.375 159.658 246.957 156.679 247.916 154.984C248.005 154.832 248.151 154.721 248.325 154.672C248.499 154.623 248.685 154.641 248.845 154.723C248.924 154.764 248.995 154.821 249.051 154.887C249.108 154.953 249.151 155.031 249.175 155.115C249.201 155.197 249.209 155.284 249.198 155.37C249.189 155.455 249.16 155.539 249.116 155.614C248.044 157.495 246.933 159.85 246.981 160.363C247.191 160.965 247.492 161.535 247.876 162.051C247.982 162.192 248.026 162.367 247.996 162.539C247.967 162.711 247.869 162.863 247.722 162.965C247.629 163.037 247.516 163.082 247.397 163.098C247.277 163.112 247.157 163.095 247.047 163.05Z" fill="#D56B49"/>
<path d="M244.33 167.211L244.07 167.098C243.908 167.02 243.783 166.884 243.723 166.718C243.663 166.553 243.675 166.373 243.754 166.216C243.791 166.136 243.846 166.064 243.913 166.007C243.981 165.948 244.061 165.904 244.146 165.876C244.233 165.848 244.324 165.837 244.415 165.845C244.505 165.853 244.593 165.879 244.673 165.921C246.107 166.533 247.659 166.854 249.229 166.863C250.457 166.906 251.679 166.653 252.779 166.126C252.931 166.028 253.118 165.994 253.295 166.028C253.475 166.063 253.631 166.164 253.733 166.31C253.834 166.455 253.871 166.632 253.835 166.805C253.799 166.976 253.693 167.127 253.542 167.223C252.226 167.896 250.75 168.226 249.261 168.182C247.566 168.183 245.888 167.852 244.33 167.211Z" fill="#D56B49"/>
<path d="M238.271 153.596C239.361 153.331 239.853 154.181 239.932 155.026C240.063 156.435 238.979 157.872 237.869 156.725C237.167 155.998 237.393 153.813 238.271 153.596Z" fill="#361A09"/>
<path d="M260.249 155.591C261.339 155.326 261.823 156.177 261.91 157.014C262.041 158.423 260.957 159.859 259.847 158.72C259.144 157.96 259.377 155.765 260.249 155.591Z" fill="#361A09"/>
<path d="M266.8 148.79C266.03 147.396 263.979 147.174 262.555 146.98C261.566 146.847 258.972 146.729 259.224 148.297C259.353 149.099 260.495 149.109 261.128 149.13C262.878 149.238 264.618 149.433 266.345 149.718C266.427 149.726 266.509 149.715 266.587 149.687C266.663 149.66 266.733 149.615 266.788 149.556C266.844 149.497 266.884 149.428 266.907 149.353C266.93 149.278 266.933 149.197 266.919 149.119C266.895 149.004 266.855 148.893 266.8 148.79Z" fill="#522C26"/>
<path d="M242.104 146.954C241.823 147.821 240.569 147.694 239.861 147.605C239.152 147.515 237.923 147.501 237.084 147.47C237.076 147.452 237.076 147.431 237.083 147.413C237.269 146.583 237.469 145.76 237.648 144.965C238.009 144.957 238.459 145.011 238.605 145.008C239.746 145.003 242.621 145.248 242.104 146.954Z" fill="#522C26"/>
<path d="M278.553 143.668C278.234 142.334 278.179 140.705 277.713 139.409C275.809 134.08 269.924 130.282 264.761 128.28C259.099 126.079 254.283 123.47 248.594 127.057L248.392 127.202C246.997 127.347 245.706 127.974 244.756 128.964C243.997 129.049 243.257 129.249 242.563 129.557C241.182 130.36 240.011 131.457 239.14 132.762C236.927 135.869 236.295 139.786 235.973 143.421C235.95 143.597 235.989 143.773 236.083 143.922C236.178 144.073 236.323 144.189 236.494 144.251C236.665 144.314 236.854 144.319 237.028 144.265C237.203 144.212 237.354 144.104 237.457 143.959C238.65 142.196 240.003 140.538 241.499 139.004C242.831 137.767 244.387 136.687 245.59 135.382C246.415 134.477 247.051 133.426 247.464 132.29C252.678 132.172 258.349 131.128 263.029 133.888C268.375 137.05 269.318 144.567 270.669 149.873C270.698 150.028 270.776 150.171 270.892 150.282C271.009 150.393 271.159 150.465 271.322 150.491C271.484 150.517 271.65 150.494 271.797 150.426C271.946 150.356 272.068 150.246 272.147 150.108C272.323 150.136 272.502 150.102 272.653 150.013C274.466 148.962 278.093 147.716 278.734 145.598C278.859 144.951 278.797 144.284 278.553 143.668Z" fill="#522C26"/>
<path d="M288.896 134.294C286.618 128.856 282.352 124.402 276.896 121.766C271.142 119.041 264.647 118.094 258.308 119.06C253.216 119.871 248.5 122.149 244.788 125.59C243.437 125.677 242.109 125.848 240.956 125.988C237.655 126.387 233.85 127.241 231.229 129.326C228.213 131.731 226.329 136.256 226.577 140.359C226.482 140.685 226.373 141.006 226.293 141.36C225.366 145.568 227.545 149.492 227.331 153.732C227.112 157.669 227.258 162.416 229.832 165.676C229.917 165.77 230.03 165.835 230.157 165.863C230.282 165.891 230.415 165.878 230.534 165.827C230.653 165.778 230.751 165.693 230.815 165.585C230.879 165.477 230.905 165.352 230.889 165.228C230.599 161.205 229.56 157.543 229.768 153.437C229.809 152.494 229.752 151.55 229.596 150.618C229.688 150.532 229.766 150.433 229.824 150.323C230.253 149.18 230.52 147.987 230.619 146.776L230.665 146.81C230.8 146.905 230.957 146.969 231.122 146.997C231.287 147.023 231.457 147.014 231.617 146.969C231.778 146.923 231.927 146.843 232.05 146.735C232.174 146.626 232.27 146.492 232.331 146.342C232.481 145.915 232.632 145.46 232.784 144.991C232.82 144.98 232.854 144.965 232.885 144.946C234.508 143.915 235.136 141.903 235.794 140.236C236.099 139.459 236.388 138.684 236.664 137.9C237.374 136.868 238.166 135.848 238.966 134.856C240.753 133.291 242.733 131.827 244.041 129.991C244.143 129.85 244.206 129.685 244.221 129.514C244.275 129.337 244.271 129.146 244.207 128.972C244.937 128.68 245.621 128.402 246.343 128.153L246.388 128.152C246.462 128.117 246.521 128.059 246.558 127.988C246.595 127.917 246.61 127.836 246.596 127.759C246.583 127.68 246.544 127.608 246.485 127.553C246.426 127.497 246.351 127.461 246.269 127.449C246.143 127.452 246.011 127.455 245.886 127.458C245.931 127.45 245.972 127.435 246.011 127.412L246.359 127.206C246.852 127.196 247.358 127.148 247.829 127.173C247.316 127.732 246.94 128.393 246.729 129.111C246.701 129.193 246.697 129.283 246.72 129.366C246.741 129.449 246.788 129.526 246.853 129.585C246.919 129.646 247.001 129.686 247.088 129.704C247.177 129.721 247.269 129.714 247.354 129.683C249.004 129.166 250.129 127.941 251.708 127.22C253.477 126.494 255.298 125.893 257.16 125.425C259.214 124.806 261.308 124.325 263.432 123.985C263.537 124.177 263.713 124.325 263.927 124.398L264.114 124.464C264.191 124.648 264.339 124.799 264.526 124.885C264.712 124.971 264.926 124.986 265.125 124.928C265.197 124.92 265.272 124.919 265.346 124.924C266.467 125.315 267.572 125.7 268.715 126.054C272.143 127.233 275.517 128.562 278.309 130.822C281.313 133.246 283.187 137.065 286.715 138.757C286.798 138.797 286.873 138.853 286.954 138.886C287.079 138.95 287.219 138.981 287.36 138.978C287.502 138.975 287.64 138.937 287.762 138.869C288.74 143.336 288.247 147.836 288.588 152.438C288.601 152.932 289.336 152.887 289.496 152.524C292.284 147.05 291.147 139.65 288.896 134.294Z" fill="#522C26"/>
<path d="M279.687 147.941C279.687 147.941 281.261 136.202 271.499 128.212C260.753 119.412 248.167 120.805 245.99 122.59C245.543 122.953 245.199 123.419 244.99 123.942C244.78 124.467 244.711 125.033 244.79 125.59C244.79 125.59 257.311 123.944 266.561 130.893C275.017 137.247 274.353 148.527 274.353 148.527L279.687 147.941Z" fill="#73453E"/>
<path d="M269.003 151.607C266.296 157.646 266.365 164.026 270.624 167.579C275.696 171.849 281.031 169.138 283.498 164.747C285.966 160.358 286.115 151.466 282.944 148.786C278.468 145.047 271.963 145.066 269.003 151.607Z" fill="#361A09"/>
<path d="M284.643 150.54C283.64 149.546 274.975 146.388 272.257 155.571C269.539 164.752 276.785 167.342 278.803 167.74C282.559 168.488 285.604 165.47 287.109 160.451C289.035 154.076 285.655 151.555 284.643 150.54Z" fill="#28AA65"/>
<path d="M270.922 199.221C270.922 199.221 278.618 187.902 289.137 198.538" stroke="#1F2144" stroke-width="0.75" stroke-miterlimit="10"/>
<path d="M230.511 213.039C230.511 213.039 226.534 220.302 226.063 232.671" stroke="#1F2144" stroke-width="0.75" stroke-miterlimit="10"/>
<path d="M161.331 285.654L141.491 222.187C140.682 219.597 138.284 217.76 135.472 217.576L108.687 215.818C105.965 215.639 103.94 218.191 104.843 220.661L127.021 281.273C127.735 283.225 129.563 284.605 131.71 284.814L158.086 287.624L161.331 285.654Z" fill="url(#paint2_linear)"/>
<path d="M158.086 287.622C158.13 287.622 158.173 287.621 158.215 287.619L214.42 284.893C215.809 284.826 216.878 283.691 216.808 282.359C216.738 281.025 215.55 279.978 214.165 280.067L157.962 282.792C156.572 282.86 155.503 283.994 155.573 285.327C155.642 286.619 156.754 287.622 158.086 287.622Z" fill="url(#paint3_linear)"/>
<path d="M159.547 156.084C149.003 156.084 140.455 147.884 140.455 137.769C140.455 127.654 149.003 119.454 159.547 119.454C170.091 119.454 178.64 127.654 178.64 137.769C178.64 147.884 170.091 156.084 159.547 156.084Z" fill="white"/>
<path d="M156.507 133.999C157.686 133.98 157.787 134.911 157.794 135.122H157.793V137.011H154.916L155.268 139.685H157.793V146.404H160.729V139.685H163.274V137.011H160.729V135.122H160.728C160.718 133.312 160.015 132.694 160.015 132.694C158.983 131.443 157.363 131.481 157.363 131.481H156.923H154.789V133.999H156.507Z" fill="#17DA17"/>
<path d="M118.091 189.744C121.796 189.744 124.8 186.863 124.8 183.309C124.8 179.755 121.796 176.874 118.091 176.874C114.387 176.874 111.383 179.755 111.383 183.309C111.383 186.863 114.387 189.744 118.091 189.744Z" fill="white"/>
<path d="M180.188 92.7241C196.432 92.7241 209.6 80.0918 209.6 64.5091C209.6 48.9265 196.432 36.2942 180.188 36.2942C163.943 36.2942 150.775 48.9265 150.775 64.5091C150.775 80.0918 163.943 92.7241 180.188 92.7241Z" fill="white"/>
<path d="M179.969 81.5051C164.164 73.4782 164.295 53.8545 164.295 53.8545C175.454 53.8545 180.17 47.4849 180.17 47.4849H180.203C180.203 47.4849 184.917 53.8545 196.075 53.8545C196.075 53.8545 196.208 73.4782 180.4 81.5051H179.969Z" fill="#17DA17"/>
<path d="M180.4 82.6151H179.969C179.782 82.6151 179.597 82.5715 179.429 82.4873C163.189 74.2397 163.135 54.6754 163.14 53.8477C163.144 53.2379 163.658 52.7449 164.295 52.7449C174.665 52.7449 179.049 47.0791 179.231 46.8376C179.664 46.2584 180.714 46.2584 181.143 46.8405C181.322 47.0791 185.704 52.7449 196.075 52.7449C196.71 52.7449 197.225 53.2379 197.233 53.8477C197.236 54.6754 197.184 74.2397 180.945 82.4873C180.775 82.5715 180.59 82.6151 180.4 82.6151ZM165.496 54.9407C165.757 59.0403 167.571 73.7219 180.185 80.3578C192.796 73.7219 194.615 59.0403 194.875 54.9407C186.677 54.616 182.028 50.9916 180.185 49.162C178.342 50.9916 173.692 54.616 165.496 54.9407Z" fill="#17DA17"/>
<path d="M70.2765 259.044C62.2969 259.044 55.8281 252.838 55.8281 245.184C55.8281 237.529 62.2969 231.324 70.2765 231.324C78.2561 231.324 84.7249 237.529 84.7249 245.184C84.7249 252.838 78.2561 259.044 70.2765 259.044Z" fill="white"/>
<path d="M73.8564 242.581C73.2268 244.332 72.1649 245.864 71.7283 245.864C71.5642 245.864 71.4889 245.792 71.4889 245.395V243.584C71.5374 242.75 72.0008 242.682 72.0008 242.386C72.0008 242.249 71.878 242.104 71.6736 242.104H69.6498C69.3763 242.104 69.2814 242.243 69.2814 242.555V244.991C69.2814 245.251 69.1627 245.342 69.0812 245.342C68.9171 245.342 68.7809 245.251 68.4805 244.965C67.5528 243.975 66.8974 242.452 66.8974 242.452C66.8158 242.269 66.6652 242.104 66.337 242.104H65.0501C64.66 242.104 64.5784 242.295 64.66 242.555C64.8241 243.272 66.3927 245.382 66.3927 245.382C66.5289 245.59 66.5836 245.694 66.3927 245.928C66.2565 246.111 65.8066 246.476 65.5063 246.814C64.9531 247.408 64.5361 247.909 64.4195 248.255C64.3132 248.601 64.4979 248.777 64.8653 248.777H66.1533C66.6446 248.777 66.7891 248.403 67.6622 247.57C68.4259 246.866 68.754 246.775 68.9449 246.775C69.2039 246.775 69.2814 246.845 69.2814 247.197V248.298C69.2814 248.601 69.3825 248.777 70.2009 248.777C71.5663 248.777 73.0648 247.987 74.1299 246.527C75.7264 244.392 76.1629 242.777 76.1629 242.452C76.1629 242.269 76.0886 242.104 75.7212 242.104H74.4332C74.104 242.104 73.9802 242.242 73.8564 242.581Z" fill="#50E217"/>
<path d="M94.3515 123.221C87.6991 127.301 78.8587 125.436 74.6057 119.054C70.3517 112.673 72.2972 104.191 78.9496 100.112C85.602 96.0319 94.4423 97.8971 98.6963 104.279C102.949 110.66 101.004 119.141 94.3515 123.221Z" fill="white"/>
<path d="M440.363 281.121C433.711 285.201 424.87 283.335 420.617 276.954C416.363 270.572 418.309 262.092 424.961 258.011C431.614 253.932 440.454 255.797 444.708 262.178C448.961 268.56 447.016 277.041 440.363 281.121Z" fill="white"/>
<path d="M432.046 264.718C432.538 264.446 432.849 264.363 433.065 264.321C433.351 264.266 433.582 264.268 433.864 264.327C434.146 264.387 434.356 264.479 434.592 264.643C434.769 264.768 435.016 264.968 435.344 265.413C435.698 265.895 435.802 266.041 436.64 267.298C437.477 268.555 437.572 268.707 437.88 269.218C438.163 269.69 438.249 269.989 438.292 270.196C438.35 270.47 438.348 270.692 438.286 270.962C438.224 271.232 438.129 271.434 437.957 271.66C437.827 271.83 437.618 272.067 437.154 272.381C436.651 272.72 436.5 272.82 435.189 273.624C433.878 274.428 433.721 274.518 433.188 274.813C432.696 275.085 432.384 275.169 432.168 275.21C431.882 275.266 431.651 275.264 431.369 275.204C431.088 275.145 430.877 275.053 430.642 274.888C430.463 274.764 430.218 274.564 429.89 274.118C429.536 273.636 429.431 273.491 428.593 272.233C427.755 270.976 427.661 270.824 427.354 270.314C427.07 269.841 426.984 269.543 426.941 269.336C426.883 269.061 426.885 268.84 426.947 268.569C427.009 268.299 427.104 268.097 427.277 267.871C427.407 267.701 427.615 267.464 428.079 267.151C428.582 266.811 428.734 266.711 430.044 265.907C431.355 265.103 431.513 265.013 432.046 264.718ZM427.475 266.328C426.968 266.671 426.663 266.969 426.429 267.277C426.187 267.595 426.021 267.925 425.923 268.353C425.823 268.782 425.831 269.147 425.912 269.535C425.99 269.909 426.135 270.302 426.446 270.818C426.756 271.334 426.857 271.498 427.709 272.777C428.561 274.055 428.674 274.212 429.032 274.699C429.39 275.185 429.702 275.477 430.022 275.702C430.354 275.935 430.697 276.094 431.143 276.188C431.591 276.282 431.972 276.275 432.375 276.198C432.765 276.123 433.175 275.984 433.712 275.686C434.251 275.388 434.421 275.291 435.755 274.474C437.087 273.656 437.25 273.548 437.759 273.204C438.266 272.861 438.569 272.563 438.804 272.255C439.047 271.937 439.213 271.608 439.311 271.179C439.41 270.75 439.403 270.385 439.321 269.998C439.243 269.624 439.098 269.231 438.788 268.716C438.477 268.199 438.376 268.036 437.523 266.757C436.672 265.479 436.56 265.321 436.2 264.834C435.843 264.348 435.532 264.056 435.211 263.831C434.879 263.599 434.537 263.439 434.089 263.345C433.642 263.251 433.261 263.258 432.859 263.335C432.469 263.41 432.059 263.549 431.521 263.847C430.983 264.145 430.812 264.242 429.479 265.06C428.147 265.876 427.982 265.984 427.475 266.328ZM430.097 271.312C430.987 272.647 432.836 273.037 434.228 272.184C435.619 271.33 436.026 269.556 435.136 268.221C434.247 266.885 432.397 266.495 431.005 267.349C429.614 268.202 429.206 269.977 430.097 271.312ZM430.98 270.769C430.404 269.903 430.668 268.75 431.571 268.197C432.474 267.644 433.675 267.896 434.252 268.763C434.83 269.63 434.566 270.782 433.663 271.335C432.759 271.89 431.558 271.636 430.98 270.769ZM427.945 268.295C428.271 268.096 428.703 268.187 428.911 268.499C429.119 268.811 429.024 269.226 428.699 269.425C428.374 269.624 427.941 269.533 427.734 269.221C427.525 268.909 427.62 268.495 427.945 268.295Z" fill="#17DA17"/>
<path d="M273.356 85.2467C280.893 85.2467 287.004 79.3853 287.004 72.155C287.004 64.9246 280.893 59.0632 273.356 59.0632C265.819 59.0632 259.708 64.9246 259.708 72.155C259.708 79.3853 265.819 85.2467 273.356 85.2467Z" fill="white"/>
<path d="M269.311 67.2467L269.098 67.7516L268.523 69.1118C269.192 69.3722 269.895 69.4989 270.613 69.489C271.074 69.483 271.528 69.4197 271.969 69.3019L270.19 73.4866C269.795 74.4311 269.81 75.4686 270.232 76.4101C270.576 77.1763 271.156 77.804 271.895 78.2218C272.068 78.3198 272.251 78.4069 272.442 78.4801C273.284 78.8078 274.194 78.8563 275.053 78.6276C275.214 78.5841 275.374 78.5316 275.53 78.4693C276.599 78.0426 277.407 77.2149 277.776 76.1576C278.057 75.3527 278.045 74.4766 277.747 73.6777C277.353 72.6203 276.523 71.7957 275.443 71.3759C275.253 71.3017 275.059 71.2423 274.863 71.1967L274.65 71.6997L274.059 73.0995C274.258 73.1124 274.457 73.155 274.652 73.2302C275.64 73.6143 276.113 74.6974 275.697 75.6398C275.431 76.2427 274.862 76.6387 274.229 76.7328C273.932 76.7773 273.62 76.7556 273.32 76.6566C273.084 76.5794 272.876 76.4625 272.699 76.318C272.088 75.82 271.847 74.9864 272.164 74.237L273.347 71.4314L275.51 66.3111L273.556 65.5518C273.476 65.7369 273.38 65.9102 273.269 66.0715C272.821 66.7249 272.143 67.1793 271.385 67.3734C270.723 67.5427 270.001 67.5149 269.317 67.2486C269.317 67.2486 269.31 67.2467 269.311 67.2467Z" fill="#17DA17"/>
<path d="M185.074 283.901C185.074 283.901 219.442 292.593 219.065 325.989C218.687 359.387 253.651 371.762 280.03 357.407C306.409 343.052 281.124 271.218 317.245 261.348C353.366 251.477 404.452 243.879 404.452 159.569" stroke="url(#paint4_linear)" stroke-width="2" stroke-miterlimit="10"/>
<path d="M431.292 53.5046H364.483V152.426H431.292V53.5046Z" fill="url(#paint5_linear)"/>
<path d="M362.116 47.1686V159.438C362.116 163.025 364.93 165.936 368.401 165.936H427.362C430.832 165.936 433.648 163.025 433.648 159.438V47.1686C433.648 43.5908 430.832 40.6812 427.362 40.6812H368.401C364.93 40.6812 362.116 43.5908 362.116 47.1686ZM431.291 152.426H364.483V53.5046H431.291V152.426Z" fill="#103B52"/>
<path d="M405.49 48.5335H390.272C389.755 48.5335 389.337 48.1237 389.337 47.6267C389.337 47.1307 389.755 46.7297 390.272 46.7297H405.49C406.017 46.7297 406.435 47.1307 406.435 47.6267C406.435 48.1227 406.017 48.5335 405.49 48.5335Z" fill="#56538E"/>
<path d="M402.109 159.809C402.109 162.052 400.219 163.864 397.882 163.864C395.555 163.864 393.664 162.051 393.664 159.809C393.664 157.568 395.555 155.755 397.882 155.755C400.219 155.755 402.109 157.569 402.109 159.809Z" fill="#56538E"/>
<path d="M402.089 55.9268H393.675V58.0167H402.089V55.9268Z" fill="#B1B2F5"/>
<path d="M426.408 55.9268H418.023V58.0167H426.408V55.9268Z" fill="#B1B2F5"/>
<path d="M377.593 55.9268H369.198V58.0167H377.593V55.9268Z" fill="#B1B2F5"/>
<path opacity="0.6" d="M397.535 130.943C371.836 117.892 372.05 85.9853 372.05 85.9853C390.193 85.9853 397.861 75.6289 397.861 75.6289H397.915C397.915 75.6289 405.578 85.9853 423.722 85.9853C423.722 85.9853 423.938 117.892 398.235 130.943H397.535Z" fill="url(#paint6_linear)"/>
<path d="M398.233 132.747H397.534C397.229 132.747 396.928 132.676 396.656 132.54C370.251 119.13 370.164 87.3207 370.172 85.9743C370.178 84.9833 371.014 84.1813 372.049 84.1813C388.911 84.1813 396.039 74.9694 396.333 74.5754C397.038 73.6329 398.744 73.6329 399.442 74.5803C399.735 74.9684 406.86 84.1804 423.721 84.1804C424.754 84.1804 425.59 84.9822 425.604 85.9732C425.609 87.3186 425.523 119.129 399.12 132.539C398.845 132.676 398.542 132.747 398.233 132.747ZM374.002 87.7513C374.426 94.4169 377.376 118.288 397.884 129.078C418.387 118.288 421.345 94.4169 421.769 87.7513C408.439 87.2236 400.881 81.3302 397.884 78.3562C394.887 81.3302 387.326 87.2236 374.002 87.7513Z" fill="white"/>
<path d="M344.014 355.935C342.244 364.943 333.195 370.867 323.804 369.168C314.412 367.469 308.235 358.791 310.006 349.784C311.777 340.771 320.825 334.845 330.217 336.544C339.607 338.243 345.785 346.923 344.014 355.935Z" fill="white"/>
<path d="M325.138 361.782C317.65 356.052 319.749 345.736 319.749 345.736C325.622 346.798 328.764 343.895 328.764 343.895L328.781 343.897C328.781 343.897 330.604 347.699 336.477 348.761C336.477 348.761 334.517 359.103 325.365 361.823L325.138 361.782Z" fill="#17DA17"/>
<path d="M325.249 362.407L325.023 362.366C324.924 362.348 324.831 362.307 324.752 362.247C317.057 356.361 319.053 346.058 319.142 345.622C319.207 345.301 319.529 345.091 319.863 345.152C325.321 346.139 328.215 343.574 328.335 343.464C328.623 343.201 329.175 343.3 329.341 343.648C329.411 343.791 331.132 347.19 336.59 348.177C336.924 348.238 337.144 348.547 337.085 348.868C337.002 349.304 334.949 359.597 325.549 362.392C325.451 362.419 325.349 362.424 325.249 362.407ZM320.269 346.422C319.982 348.605 319.418 356.505 325.37 361.199C332.694 358.906 335.17 351.352 335.731 349.219C331.45 348.267 329.378 345.917 328.597 344.779C327.438 345.566 324.615 347.031 320.269 346.422Z" fill="#17DA17"/>
<path d="M90.868 112.281H88.8999V107.612C88.8999 105.82 87.3787 104.36 85.5087 104.36C83.6407 104.36 82.1194 105.82 82.1194 107.612V112.281H80.1514V107.612C80.1514 104.778 82.555 102.472 85.5087 102.472C88.4654 102.472 90.868 104.778 90.868 107.612V112.281Z" fill="#17DA17"/>
<path d="M78.6948 110.657V117.929C78.6948 118.626 79.282 119.187 80.0075 119.187H91.009C91.7345 119.187 92.3217 118.626 92.3217 117.929V110.657C92.3217 109.961 91.7345 109.397 91.009 109.397H80.0075C79.282 109.397 78.6948 109.961 78.6948 110.657Z" fill="#17DA17"/>
<path d="M86.6506 113.242C86.6506 112.639 86.1398 112.148 85.5092 112.148C84.8776 112.148 84.3667 112.638 84.3667 113.242C84.3667 113.672 84.6268 114.041 85.0014 114.221V115.956C85.0014 116.223 85.2285 116.441 85.5082 116.441C85.7869 116.441 86.0139 116.223 86.0139 115.956V114.221C86.3906 114.042 86.6506 113.672 86.6506 113.242Z" fill="white"/>
<defs>
<linearGradient id="paint0_linear" x1="245.519" y1="29.0178" x2="245.519" y2="395.317" gradientUnits="userSpaceOnUse">
<stop offset="0.0064" stop-color="#FFFF00"/>
<stop offset="0.1184" stop-color="#D1F800"/>
<stop offset="0.253" stop-color="#92EF00"/>
<stop offset="0.3861" stop-color="#5EE700"/>
<stop offset="0.5058" stop-color="#35E100"/>
<stop offset="0.6001" stop-color="#18DD00"/>
<stop offset="0.665" stop-color="#06DA00"/>
<stop offset="0.7442" stop-color="#00D900"/>
</linearGradient>
<linearGradient id="paint1_linear" x1="317.541" y1="394.333" x2="80.1924" y2="105.414" gradientUnits="userSpaceOnUse">
<stop offset="0.0064" stop-color="#FFFF00"/>
<stop offset="0.1184" stop-color="#D1F800"/>
<stop offset="0.253" stop-color="#92EF00"/>
<stop offset="0.3861" stop-color="#5EE700"/>
<stop offset="0.5058" stop-color="#35E100"/>
<stop offset="0.6001" stop-color="#18DD00"/>
<stop offset="0.665" stop-color="#06DA00"/>
<stop offset="0.7442" stop-color="#00D900"/>
</linearGradient>
<linearGradient id="paint2_linear" x1="161.33" y1="251.715" x2="104.624" y2="251.715" gradientUnits="userSpaceOnUse">
<stop stop-color="#32387F"/>
<stop offset="1" stop-color="#1A1643"/>
</linearGradient>
<linearGradient id="paint3_linear" x1="154.448" y1="275.494" x2="199.517" y2="288.37" gradientUnits="userSpaceOnUse">
<stop stop-color="#32387F"/>
<stop offset="1" stop-color="#1A1643"/>
</linearGradient>
<linearGradient id="paint4_linear" x1="184.81" y1="261.932" x2="405.483" y2="261.932" gradientUnits="userSpaceOnUse">
<stop stop-color="#32387F"/>
<stop offset="1" stop-color="#1A1643"/>
</linearGradient>
<linearGradient id="paint5_linear" x1="364.483" y1="102.965" x2="431.291" y2="102.965" gradientUnits="userSpaceOnUse">
<stop offset="0.0064" stop-color="#FFFF00"/>
<stop offset="0.1184" stop-color="#D1F800"/>
<stop offset="0.253" stop-color="#92EF00"/>
<stop offset="0.3861" stop-color="#5EE700"/>
<stop offset="0.5058" stop-color="#35E100"/>
<stop offset="0.6001" stop-color="#18DD00"/>
<stop offset="0.665" stop-color="#06DA00"/>
<stop offset="0.7442" stop-color="#00D900"/>
</linearGradient>
<linearGradient id="paint6_linear" x1="372.049" y1="103.286" x2="423.721" y2="103.286" gradientUnits="userSpaceOnUse">
<stop offset="0.0064" stop-color="#FFFF00"/>
<stop offset="0.1184" stop-color="#D1F800"/>
<stop offset="0.253" stop-color="#92EF00"/>
<stop offset="0.3861" stop-color="#5EE700"/>
<stop offset="0.5058" stop-color="#35E100"/>
<stop offset="0.6001" stop-color="#18DD00"/>
<stop offset="0.665" stop-color="#06DA00"/>
<stop offset="0.7442" stop-color="#00D900"/>
</linearGradient>
</defs>
</svg>
