<svg width="498" height="424" viewBox="0 0 498 424" fill="none" xmlns="http://www.w3.org/2000/svg">
<path opacity="0.6" d="M348.581 392.175C309.658 405.226 146.621 386.717 96.7723 328.786C51.2187 275.847 101.621 199.418 76.5517 145.685C42.5696 72.846 133.54 31.468 200.435 70.9713C267.331 110.475 307.628 156.437 347.866 168.626C421.788 191.02 462.147 354.098 348.581 392.175Z" fill="url(#paint0_linear)"/>
<path d="M392.983 395.926C385.761 396.289 380.423 395.734 373.924 392.591C373.869 392.564 374.056 390.569 374.067 390.517C374.989 386.358 378.373 383.859 384.519 381.975C391.383 383.157 393.819 389.933 392.983 395.926Z" fill="#E7FFFF"/>
<path d="M417.98 356.691C418.352 360.026 422.901 370.867 422.962 372.553C423.018 374.111 421.978 376.759 415.853 376.959C409.953 377.152 406.688 374.22 406.688 374.22L401.709 359.203C402.353 357.662 417.663 353.858 417.98 356.691Z" fill="#F39E7E"/>
<path d="M423.421 389.235C423.303 389.986 416.191 391.886 415.99 391.937C408.949 393.688 400.962 395.528 392.984 395.928C393.82 389.934 391.384 383.159 384.519 381.976C387.525 381.055 390.642 380.366 393.304 379.861C393.46 379.831 398.966 378.368 401.331 377.173C405.874 374.88 405.403 371.551 406.415 371.43C407.21 371.231 409.092 371.368 410.456 372.481C410.881 372.828 410.771 375.746 410.771 375.746C410.771 375.746 412.542 372.955 413.332 372.893C414.764 372.781 416.019 373.196 417.796 373.119C421.198 372.972 423.024 371.805 423.092 372.05C424.615 377.583 424.257 383.922 423.421 389.235Z" fill="#005E7F"/>
<path d="M393.985 395.871C393.444 395.905 392.901 395.933 392.36 395.955C393.246 389.483 390.508 383.772 384.032 382.128C384.913 381.857 385.164 381.763 386.239 381.476C391.981 383.866 394.743 389.671 393.985 395.871Z" fill="#107F8C"/>
<path d="M424.046 384.153C422.102 381.49 417.826 383.258 415.753 385.385C413.511 387.683 411.676 390.554 411.101 393.676C411.039 394.017 410.797 394.212 410.522 394.288C410.486 394.295 410.449 394.303 410.412 394.311C409.934 394.382 409.404 394.1 409.51 393.516C410.283 389.321 413.198 384.549 417.098 382.322C419.303 381.065 422.175 380.917 424.145 382.146C424.118 382.834 424.065 383.47 424.046 384.153Z" fill="#107F8C"/>
<path d="M422.85 390.628C420.174 391.736 417.85 392.487 415.042 393.234C414.969 393.302 401.191 396.794 393 397.154C383.518 397.569 378.965 396.761 374.266 394.294C373.45 393.865 373.922 392.591 373.922 392.591C377.426 394.418 386.957 396.019 394.151 395.727C400.948 395.451 414.237 392.01 414.374 391.974C417.263 391.217 420.511 390.017 423.422 389.073C423.767 388.961 423.699 390.277 422.85 390.628Z" fill="#E7FFFF"/>
<path d="M398.935 384.432C397.444 383.245 395.955 382.059 394.465 380.872C393.753 380.305 394.575 379.162 395.291 379.733C396.781 380.92 398.272 382.107 399.761 383.293C400.474 383.86 399.651 385.003 398.935 384.432Z" fill="#E7FFFF"/>
<path d="M402.647 382.759C401.266 381.565 399.801 380.485 398.24 379.516C397.46 379.029 398.396 377.97 399.168 378.45C400.727 379.421 402.193 380.499 403.573 381.694C404.265 382.291 403.339 383.358 402.647 382.759Z" fill="#E7FFFF"/>
<path d="M405.593 380.095C404.357 379.514 403.17 378.86 402.025 378.127C401.249 377.63 402.05 376.474 402.825 376.97C403.97 377.701 405.158 378.357 406.394 378.938C407.229 379.331 406.418 380.483 405.593 380.095Z" fill="#E7FFFF"/>
<path d="M408.129 377.963C406.894 377.382 405.706 376.727 404.562 375.995C403.786 375.498 404.586 374.342 405.361 374.837C406.506 375.569 407.694 376.224 408.93 376.805C409.766 377.198 408.955 378.351 408.129 377.963Z" fill="#E7FFFF"/>
<path d="M329.732 85.6339C332.555 84.0597 336.229 83.4995 336.229 83.4995C336.229 83.4995 339.695 101.486 332.482 117.966C325.165 134.682 307.157 149.893 305.687 149.523C298.644 147.749 289.314 142.666 287.573 137.016C287.164 135.685 299.596 119.835 300.382 118.669C305.4 111.221 325.456 88.018 329.732 85.6339Z" fill="#21A19A"/>
<path d="M290.737 133.461L279.483 144.665C279.483 144.665 289.542 162.196 295.956 158.018C302.371 153.84 307.854 148.436 307.854 148.436L290.737 133.461Z" fill="#F19984"/>
<path d="M287.026 135.756C297.499 138.956 307.394 150.789 307.394 150.789L317.513 140.129C317.513 140.129 311.314 132.244 305.612 127.733C299.91 123.222 296.081 123.259 296.081 123.259L287.026 135.756Z" fill="#31C2A7"/>
<path d="M301 121.245C300.69 121.018 300.631 120.592 300.868 120.296L310.003 108.859C310.24 108.563 310.682 108.506 310.993 108.733C311.303 108.96 311.362 109.386 311.124 109.683L301.991 121.119C301.852 121.293 301.641 121.385 301.429 121.385C301.279 121.385 301.129 121.34 301 121.245Z" fill="#107F8C"/>
<path d="M302.05 151.261C301.042 155.695 296.025 158.664 291.462 157.704C288.74 157.127 286.77 154.89 284.831 153.143C279.853 148.654 271.15 139.071 264.396 131.597C262.324 129.315 260.443 127.236 258.909 125.55C258.909 125.55 258.909 125.55 258.904 125.539C257.897 124.455 257.043 123.548 256.378 122.846L255.471 109.686C255.471 109.686 257.192 110.79 259.822 112.496C261.87 113.825 264.472 115.529 267.248 117.361C273.373 121.409 280.365 126.139 284.162 129.051C289.211 132.947 294.237 136.674 298.508 141.385C301.086 144.208 302.921 147.429 302.05 151.261Z" fill="#F19984"/>
<path d="M262.743 123.132C262.743 123.132 258.494 124.533 255.4 123.441C252.306 122.35 250.471 120.947 248.726 120.5C246.981 120.055 240.691 121.188 239.252 120.734C237.812 120.281 238.679 118.402 238.679 118.402C238.679 118.402 236.231 118.365 234.385 117.922C232.538 117.478 232.689 115.519 232.689 115.519C232.689 115.519 231.114 113.797 232.613 112.684C234.111 111.571 241.407 109.923 240.685 109.558C239.961 109.192 233.272 112.018 233.044 109.746C232.858 107.886 236.612 106.414 239.043 105.386C241.336 104.416 246.143 104.037 249.304 104.252C252.467 104.468 260.485 114.244 260.485 114.244L262.743 123.132Z" fill="#F19984"/>
<path d="M246.407 107.599C246.407 107.599 233.641 107.457 236.223 110.649C238.806 113.842 250.53 113.508 250.53 113.508" fill="#F19984"/>
<path d="M245.475 107.623L249.551 107.597" stroke="#E27E66" stroke-width="2.1427" stroke-miterlimit="10" stroke-linecap="round"/>
<path d="M243.817 107.598C243.817 107.598 232.328 107.455 234.652 110.648C236.977 113.842 247.527 113.508 247.527 113.508" fill="#CD8272"/>
<path d="M241.144 81.0857C241.161 80.8134 241.18 80.5409 241.204 80.2704C241.403 78.0171 242.736 74.8679 242.238 72.6591C242.212 72.5456 242.186 72.433 242.161 72.3204C240.864 66.5873 239.078 60.7498 238.53 54.8887C238.075 49.9727 239.342 45.3336 242.919 41.6904C244.095 40.4884 245.414 39.487 246.836 38.6609C248.295 37.8075 249.862 37.1457 251.495 36.6427C253.116 36.137 254.811 35.7948 256.52 35.5951C262.81 33.4444 269.229 34.5438 274.645 37.6014C279.258 39.2474 283.451 41.6804 286.331 45.7576C287.44 47.3272 288.288 49.0839 288.712 50.9414C289.19 53.033 288.651 55.1202 289.004 57.1919C289.384 59.4134 291.366 60.8043 292.534 62.6364C293.569 64.2614 293.741 66.1388 293.419 67.989C293.065 70.0281 291.834 72.4602 291.033 74.8733C291.229 75.7421 291.482 76.5973 291.816 77.4325C293.207 80.9077 296.189 82.7697 298.63 85.4678C301.218 88.3348 301.095 92.3866 304.022 94.9894C304.106 95.0657 304.196 95.1465 304.281 95.2291C305.44 96.314 306.593 97.7275 307.133 99.1156C306.478 99.3607 305.86 99.6693 305.281 100.059C303.303 101.402 302.313 102.88 299.879 103.7C297.898 104.367 295.836 104.853 293.821 105.419C289.575 106.596 286.324 108.427 282.488 110.45C282.054 109.768 281.658 109.06 281.296 108.343C281.179 108.117 281.069 107.896 280.958 107.668C280.476 106.684 280.034 105.685 279.586 104.692C278.317 101.889 277.042 99.0883 275.779 96.2849C275.643 95.9908 275.516 95.7011 275.381 95.407C275.075 94.7306 274.761 94.0506 274.454 93.3689C274.146 92.6871 273.833 92.0062 273.516 91.3335C271.642 92.0516 269.665 92.5228 267.788 92.777C265.381 93.1001 262.413 93.456 259.991 92.7289C259.986 92.7361 259.988 92.7416 259.989 92.747C259.955 92.8578 259.851 92.9621 259.731 92.9857C256.768 93.4923 253.438 93.87 250.7 92.9041C249.331 94.3376 247.273 95.0302 245.305 93.742C241.644 91.3416 240.909 84.965 241.144 81.0857Z" fill="#6A433E"/>
<path d="M266.382 83.1981L266.715 99.0147L257.232 102.835L247.937 98.8949L249.495 70.5845L264.155 77.8454L266.382 83.1981Z" fill="#FFA587"/>
<path d="M277.522 79.9098L279.15 79.5112C279.529 79.4186 279.757 79.0491 279.66 78.6868L277.099 69.0554C277.003 68.6923 276.618 68.4736 276.24 68.5662L274.611 68.9647C274.233 69.0573 274.005 69.4268 274.101 69.7891L276.662 79.4205C276.759 79.7836 277.143 80.0024 277.522 79.9098Z" fill="#8F0051"/>
<path d="M277.566 57.584C277.566 57.584 277.394 72.6906 276.702 75.0556C276.01 77.4205 269.61 86.5644 264.664 85.6648C259.717 84.7651 249.375 76.9739 249.375 76.9739L244.553 62.1024C244.553 62.1024 245.186 54.0742 246.105 52.9412C247.024 51.8083 258.528 41.6503 260.217 42.0698C261.907 42.4892 266.306 43.457 268.896 45.7003C271.487 47.9427 277.566 57.584 277.566 57.584Z" fill="#FFA587"/>
<path d="M260.652 66.1677C260.772 64.934 260.374 63.889 259.764 63.8345C259.153 63.78 258.56 64.736 258.441 65.9698C258.321 67.2036 258.719 68.2485 259.329 68.3029C259.94 68.3574 260.532 67.4015 260.652 66.1677Z" fill="#36303A"/>
<path d="M273.308 66.7887C273.189 68.0225 272.596 68.9775 271.985 68.923C271.374 68.8677 270.976 67.8237 271.096 66.5899C271.216 65.3561 271.809 64.4011 272.419 64.4556C273.031 64.5101 273.428 65.5549 273.308 66.7887Z" fill="#36303A"/>
<path d="M271.885 59.6766C273.851 59.2236 276.945 59.5567 278.106 61.3715C278.168 61.4677 278.182 61.6021 278.12 61.7028C277.605 62.5272 275.893 61.6575 275.163 61.5477C274.034 61.377 272.974 61.436 271.847 61.4251C271.45 61.4215 271.037 61.4633 270.743 61.1319C270.036 60.3357 271.267 59.8182 271.885 59.6766Z" fill="#6A433E"/>
<path d="M261.99 61.1282C261.67 61.436 261.263 61.3615 260.867 61.3352C259.744 61.2599 258.695 61.1209 257.556 61.2044C256.821 61.258 255.045 61.9934 254.6 61.1336C254.546 61.0283 254.571 60.8958 254.641 60.805C255.946 59.0874 259.054 58.992 260.973 59.5921C261.578 59.7809 262.76 60.3892 261.99 61.1282Z" fill="#6A433E"/>
<path d="M244.031 65.9897C243.37 62.312 242.921 58.5735 243.749 54.9521C243.565 54.549 243.082 54.3474 242.837 53.9752C242.593 53.6029 242.962 52.913 243.335 53.169C243.162 50.332 242.991 47.4541 243.615 44.6761C244.24 41.8981 245.77 39.1854 248.304 37.712C250.654 36.3457 253.62 36.2004 256.279 36.865C257.262 35.3543 259.457 35.1464 261.304 35.3234C264.727 35.653 268.061 36.7641 270.969 38.5226C271.646 38.9321 272.425 39.3625 272.96 39.9389C273.474 40.4927 274.242 40.8494 274.837 41.3324C276.153 42.3991 277.255 43.6965 278.15 45.1064C279.009 46.4591 279.683 47.918 280.192 49.4242C281.467 53.2054 281.762 57.2162 282.046 61.1817C282.271 64.2902 282.494 67.3986 282.718 70.5071C282.784 71.4195 282.847 72.3555 282.569 73.2306C282.291 74.1058 281.591 74.9175 280.653 75.08C280.931 75.4041 280.575 75.9897 280.144 75.9179C278.62 72.4781 278.409 68.6597 277.81 64.9657C277.213 61.2716 276.445 59.4223 273.591 56.8758C269.174 52.9339 261.781 53.1054 257.785 48.7695C256.927 51.1091 254.519 52.5145 252.608 54.1849C250.958 55.6266 249.242 55.3787 248.276 57.3088C247.515 56.7959 246.379 57.2053 245.863 57.9479C245.346 58.6905 245.298 59.6393 245.334 60.5317C245.393 61.9879 245.631 63.4377 246.042 64.8403C246.349 65.8862 246.759 66.9212 247.44 67.7891C247.778 68.2194 248.179 68.6052 248.467 69.0673C248.787 69.5811 248.957 70.1677 249.107 70.7487C249.511 72.3047 249.251 79.1154 248.51 79.346C246.015 76.1522 245.192 72.0732 244.436 68.1486C244.298 67.4305 244.161 66.7105 244.031 65.9897Z" fill="#6A433E"/>
<path d="M266.675 86.1659C267.63 85.9317 268.035 85.6421 268.096 85.594C268.288 85.446 268.319 85.1764 268.164 84.9921C268.011 84.8087 267.733 84.7796 267.541 84.9222C267.519 84.9385 266.764 85.4524 264.725 85.5822C263.189 85.6794 256.384 81.17 252.456 78.3039C252.259 78.1604 251.978 78.1987 251.83 78.3857C251.681 78.5736 251.72 78.8423 251.915 78.9858C252.982 79.7647 262.41 86.5871 264.784 86.4364C265.573 86.3865 266.194 86.2839 266.675 86.1659Z" fill="#ED835C"/>
<path d="M266.948 73.467C267.286 73.3844 267.598 73.2311 267.831 72.9678C268.607 72.0917 267.813 66.3795 267.436 63.9638C267.4 63.7295 267.172 63.5688 266.929 63.6043C266.688 63.6397 266.517 63.8574 266.554 64.0908C267.114 67.675 267.498 71.8792 267.144 72.4212C266.717 72.9015 265.362 72.6264 264.922 72.4911C264.688 72.4194 264.436 72.5419 264.36 72.7671C264.284 72.9922 264.413 73.2328 264.647 73.3055C264.818 73.3599 265.989 73.7022 266.948 73.467Z" fill="#FFA587"/>
<path d="M246.608 68.0795C246.901 69.1834 247.722 69.937 248.44 69.7609C249.158 69.5856 249.503 68.548 249.208 67.444C248.915 66.3401 248.094 65.5874 247.376 65.7626C246.659 65.9378 246.314 66.9764 246.608 68.0795Z" fill="white"/>
<path d="M250.48 80.697L252.108 80.2985C252.487 80.2059 252.715 79.8364 252.618 79.4742L250.057 69.8419C249.961 69.4788 249.576 69.2599 249.198 69.3525L247.569 69.7512C247.191 69.8438 246.963 70.2132 247.059 70.5754L249.62 80.2069C249.717 80.5709 250.101 80.7896 250.48 80.697Z" fill="#8F0051"/>
<path d="M257.454 47.7195C257.609 47.6823 257.706 47.5334 257.672 47.3827C257.653 47.3028 257.222 45.3954 256.321 44.4249C255.97 44.0472 255.632 43.8611 255.333 43.6968C254.872 43.4426 254.506 43.2429 254.199 42.3341C253.977 41.6841 253.799 41.0195 253.641 40.4331C253.403 39.5479 253.198 38.7826 252.915 38.2806C252.415 37.3927 251.208 36.9986 251.156 36.9823C251 36.9324 250.832 37.0132 250.781 37.1621C250.728 37.3109 250.813 37.4735 250.968 37.5234C250.977 37.5271 252.004 37.8638 252.39 38.5511C252.638 38.9914 252.835 39.725 253.064 40.5738C253.224 41.1675 253.405 41.842 253.632 42.5093C254.011 43.626 254.532 43.9129 255.035 44.1898C255.32 44.3469 255.589 44.4939 255.874 44.8017C256.67 45.6587 257.084 47.4807 257.088 47.4988C257.122 47.6532 257.281 47.7513 257.442 47.7186C257.447 47.7213 257.452 47.7204 257.454 47.7195Z" fill="#36303A"/>
<path d="M298.058 105.161C298.059 105.16 298.062 105.16 298.063 105.16C298.221 105.118 298.315 104.961 298.271 104.809C298.225 104.645 297.098 100.76 294.831 97.8953C294.117 96.9938 293.409 96.1641 292.659 95.2844C291.051 93.3997 289.389 91.4495 287.567 88.6451C286.19 86.5244 286.089 84.8568 285.983 83.091C285.89 81.5431 285.793 79.9426 284.761 78.0697C283.703 76.1496 282.694 75.0864 281.883 74.2321C281.033 73.3361 280.419 72.6897 280.099 71.4841C279.858 70.578 279.88 69.307 279.905 67.8354C279.947 65.3597 279.999 62.2785 278.862 59.12C277.027 54.0297 271.453 52.4238 271.217 52.3575C271.059 52.3139 270.894 52.4001 270.848 52.5518C270.802 52.7025 270.892 52.8613 271.05 52.9058C271.105 52.9213 276.567 54.5001 278.298 59.3062C279.402 62.3693 279.35 65.3942 279.309 67.8254C279.283 69.3379 279.26 70.6443 279.521 71.6248C279.878 72.9684 280.568 73.6956 281.442 74.6161C282.23 75.4468 283.21 76.48 284.234 78.3365C285.205 80.0996 285.294 81.5685 285.388 83.1237C285.494 84.8831 285.604 86.7024 287.06 88.9466C288.903 91.7827 290.578 93.7464 292.196 95.6456C292.943 96.5208 293.647 97.347 294.354 98.2403C296.55 101.016 297.685 104.92 297.695 104.959C297.74 105.11 297.901 105.199 298.058 105.161Z" fill="#36303A"/>
<path d="M282.946 63.1111C283.074 63.0793 283.169 62.9677 283.169 62.8342C283.169 62.6018 283.117 57.0748 278.267 51.3562C273.399 45.6168 265.657 45.2954 265.58 45.2927C265.414 45.2864 265.278 45.4107 265.273 45.5678C265.267 45.7257 265.396 45.8574 265.559 45.8638C265.634 45.8665 273.114 46.1832 277.806 51.7166C282.515 57.269 282.574 62.7789 282.574 62.8333C282.574 62.9913 282.707 63.1184 282.872 63.1184C282.897 63.1202 282.922 63.1165 282.946 63.1111Z" fill="#36303A"/>
<path d="M247.573 55.7647C247.628 55.7511 247.681 55.722 247.721 55.6775C247.736 55.6612 249.24 54.0571 251.906 52.5219C254.689 50.9186 255.996 48.4447 256.05 48.3394C256.123 48.1977 256.063 48.0271 255.917 47.9562C255.77 47.8863 255.591 47.9426 255.517 48.0842C255.505 48.1078 254.227 50.5173 251.599 52.0316C248.851 53.6149 247.339 55.23 247.276 55.2981C247.167 55.4161 247.179 55.5958 247.301 55.7002C247.378 55.7665 247.48 55.7874 247.573 55.7647Z" fill="#36303A"/>
<path d="M274.361 90.8268C274.372 90.8232 274.382 90.8214 274.393 90.8177C274.546 90.7624 274.625 90.598 274.566 90.45C274.555 90.4201 273.401 87.4723 272.959 85.3107C272.519 83.1518 272.447 82.4928 272.447 82.4864C272.431 82.3293 272.285 82.215 272.122 82.2304C271.952 82.2486 271.839 82.3857 271.854 82.5418C271.857 82.5681 271.926 83.2208 272.374 85.4205C272.826 87.6302 273.96 90.5291 274.009 90.6516C274.063 90.7878 274.216 90.8613 274.361 90.8268Z" fill="#36303A"/>
<path d="M267.181 66.3794C267.741 69.9636 268.063 72.1616 267.291 72.6355C266.863 73.1157 265.509 72.8406 265.069 72.7053" stroke="#ED835C" stroke-opacity="0.2" stroke-width="1.5775" stroke-miterlimit="10" stroke-linecap="round"/>
<path d="M281.744 376.791C281.744 376.791 279.297 376.059 277.845 373.711C276.392 371.363 275.627 369.164 275.627 369.164C275.627 369.164 275.933 368.797 274.557 369.897C273.18 370.998 271.345 374.081 271.421 376.353C271.498 378.626 269.739 380.46 273.41 380.9C277.08 381.341 281.515 379.653 281.745 379.433C281.975 379.214 281.744 376.791 281.744 376.791Z" fill="#FFA587"/>
<path d="M279.45 349.845L276.314 378.397H266.928L265.482 347.303L279.45 349.845Z" fill="#FFA587"/>
<path d="M234.493 345.925L228.284 376.464L218.849 374.133L220.88 341.991L234.493 345.925Z" fill="#FFA587"/>
<path d="M275.476 97.0318C275.476 97.0318 271.62 96.0051 269.496 93.7309C267.371 91.4567 265.723 89.6964 265.723 89.6964L250.165 87.936C250.165 87.936 246.724 90.2103 244.048 91.6774C241.372 93.1436 239.689 93.3641 239.689 93.3641C239.689 93.3641 244.34 100.04 246.105 100.626C247.871 101.212 252.459 103.193 256.818 103.193C261.177 103.193 263.012 103.927 267.218 101.873C271.423 99.8199 275.476 97.0318 275.476 97.0318Z" fill="#FFA587"/>
<path d="M207.015 160.808C207.14 153.723 209.316 146.799 209.834 139.733C210.347 132.718 210.542 128.031 210.997 121.012C211.399 114.809 212.2 111.439 215.056 105.818C216.225 101.54 220.116 98.7905 224.245 97.2099C227.226 96.0687 230.308 95.1963 233.403 94.391C234.957 93.9871 236.516 93.602 238.073 93.208C239.212 92.9193 240.514 91.9062 241.706 92.4227C242.687 92.8485 243.295 93.9016 244.096 94.5598C245.169 95.4423 246.366 96.1849 247.577 96.8858C249.575 98.0414 251.737 98.9348 253.987 99.5331C258.476 100.728 263.281 100.735 267.77 99.543C269.196 99.1645 270.571 98.6334 271.928 98.0678C272.455 97.8481 273.021 97.6729 273.522 97.4014C274.021 97.1309 274.367 96.7287 274.858 96.4418C275.926 95.8136 276.653 96.5681 277.623 96.9585C278.654 97.3724 279.684 97.7846 280.714 98.2022C282.827 99.0592 284.934 99.9343 287.004 100.887C291.068 102.756 294.209 105.545 297 108.885C299.48 111.854 300.213 115.632 301.562 119.259C302.977 123.063 304.723 124.546 305.653 128.496C306.469 131.964 305.406 138.704 306.848 142.101C308.327 145.586 310.647 152.115 310.906 155.93C311.141 159.398 310.612 163.097 308.999 166.237C307.347 169.448 304.395 171.558 300.618 171.75C300.147 171.773 299.682 171.765 299.219 171.739C300.024 171.787 301.702 178.152 301.94 178.975C303.338 183.801 304.805 189.852 303.859 194.865C302.085 204.264 292.495 208.068 291.991 206.905C291.291 205.283 292.628 183.762 290.382 178.515C282.96 175.147 274.406 175.056 266.304 175.177C258.277 175.296 250.26 175.794 242.284 176.651C239.745 183.889 237.206 191.127 234.666 198.365L232.52 204.482C232.055 205.806 231.711 207.645 230.503 208.575C230.261 208.762 229.982 208.883 229.694 208.95C229.667 209.108 229.533 209.239 229.336 209.163C229.209 209.114 229.088 209.06 228.964 209.008C228.387 208.965 227.86 208.715 227.58 208.317C219.958 209.186 218.496 201.173 217.969 195.17C217.353 188.143 219.916 177.414 221.073 170.458C219.196 170.833 217.264 170.981 215.326 170.866C212.985 170.727 210.333 170.26 208.732 168.455C206.956 166.449 206.971 163.284 207.015 160.808Z" fill="#B40057"/>
<path d="M267.918 92.5519C267.969 92.1569 268.051 91.7892 268.155 91.4396C267.938 89.9816 267.828 88.5037 267.726 87.0439C267.701 86.6717 268.301 86.5537 268.326 86.9304C268.403 88.0362 268.489 89.1655 268.624 90.2894C271.145 85.6194 279.234 86.0943 283.767 87.7402C288.41 89.4261 292.308 92.7061 294.66 96.8477C298.034 99.4505 301.247 102.493 301.908 106.765C302.263 109.055 301.537 111.921 299.759 113.381C297.493 113.036 295.407 112.17 293.081 112.048C290.618 111.918 288.403 112.422 286.063 113.097C285.121 113.369 283.977 113.735 282.854 113.881C282.46 113.665 282.096 113.386 281.776 113.028C280.275 111.346 280.371 108.883 279.426 106.949C278.297 104.643 275.977 103.209 273.97 101.666C271.91 100.082 270.272 98.2958 269.307 95.9063C268.9 94.8986 268.612 93.8582 268.396 92.8033C268.206 92.9231 267.883 92.8306 267.918 92.5519Z" fill="#6A433E"/>
<path d="M237.148 351.312C229.821 351.192 225.582 350.643 218.414 349.072C217.331 348.834 216.248 348.592 215.165 348.344C215.671 327.583 215.846 308.472 217.564 284.188C219.037 263.388 218.661 243.666 220.518 222.894C222.812 197.22 228.624 174.627 228.624 174.627C248.612 170.84 270.635 169.022 290.257 175.214C290.257 175.214 295.949 196.705 295.941 205.478C295.93 217.336 295.699 229.193 295.247 241.042C294.343 264.74 292.258 288.341 289.597 311.917C288.743 319.481 285.155 347.877 285.01 348.838C284.919 349.437 284.978 350.997 284.55 351.439C284.512 351.477 284.465 351.51 284.423 351.546C279.894 352.213 275.28 352.22 270.719 351.885C269.725 351.811 260.864 350.989 260.815 350.434C257.969 317.9 258.364 269.244 258.98 236.601C254.427 260.805 239.445 342.999 237.148 351.312Z" fill="#015E7E"/>
<path d="M241.419 172.23C241.419 172.23 233.976 208.027 226.736 208.419C219.498 208.81 218.468 199.078 218.468 199.078C218.468 199.078 223.473 176.73 223.576 176.436C223.678 176.143 227.45 170.276 230.406 170.276C233.364 170.275 241.419 172.23 241.419 172.23Z" fill="#B40057"/>
<path d="M266.407 385.224C266.509 386.069 266.712 386.645 267.073 386.696C268.631 386.931 301.285 387.037 302.263 386.644C302.633 386.497 302.821 385.921 302.873 385.223C302.967 384.061 302.691 382.541 302.263 382.049C301.582 381.256 286.017 377.21 283.771 375.943C282.517 375.233 280.385 373.625 279.472 373.625C278.559 373.625 276.978 374.347 275.123 375.35C270.905 377.627 266.877 376.315 266.877 376.315C266.877 376.315 266.059 382.354 266.407 385.224Z" fill="#69004A"/>
<path d="M266.408 385.224C266.51 386.069 266.713 386.644 267.075 386.696C268.632 386.931 301.287 387.037 302.265 386.644C302.635 386.497 302.823 385.922 302.874 385.224H266.408Z" fill="#FDEEF6"/>
<path d="M206.521 393.084C206.545 393.589 206.588 393.97 206.63 394.058C206.857 394.522 215.531 395.114 218.516 394.221C221.502 393.335 220.872 391.334 222.267 390.554C223.662 389.779 228.135 386.185 228.105 385.387C228.086 385.029 228.08 384.554 228.086 384.008C228.093 381.168 228.282 376.461 228.282 376.461C228.282 376.461 226.912 375.716 226.367 375.041C225.829 374.372 224.6 373.228 222.599 373.069C220.598 372.905 218.617 373.515 218.011 374.66C217.815 375.035 217.222 376.602 216.695 377.77C216.243 378.768 210.496 385.295 209.23 386.669C207.964 388.042 206.979 389.492 206.685 390.613C206.508 391.288 206.49 392.321 206.521 393.084Z" fill="#69004A"/>
<path d="M206.521 393.084C206.546 393.589 206.588 393.97 206.631 394.058C206.857 394.522 212.2 396.034 217.77 394.684C221.619 393.751 220.872 391.334 222.267 390.554C223.662 389.779 228.136 386.185 228.105 385.387C228.086 385.029 228.081 384.554 228.086 384.008C227.622 384.782 223.943 387.96 222.769 388.595C221.264 389.398 220.676 389.938 220.266 390.772C219.857 391.599 219.171 392.673 217.465 393.119C215.759 393.553 212.309 393.813 208.983 393.52C207.897 393.424 206.832 393.148 206.521 393.084Z" fill="#FDEEF6"/>
<path d="M242.129 134.318C242.129 134.318 216.196 151.759 212.873 156.02C209.551 160.282 207.341 168.991 216.799 170.778C226.255 172.566 246.788 140.052 246.788 140.052L242.129 134.318Z" fill="#FFA587"/>
<path d="M296.578 153.256C298.49 145.213 302.504 138.487 304.281 131.67C304.312 131.55 304.46 131.422 304.597 131.44C306.339 131.656 310.958 130.602 309.941 147.252C309.801 150.376 309.608 153.499 309.335 156.615C309.126 158.986 308.893 161.423 307.902 163.633C306.348 167.1 301.676 170.851 297.189 166.557C293.209 162.748 295.561 157.538 296.578 153.256Z" fill="#FFA587"/>
<path d="M231.963 140.337C232.116 140.337 232.246 140.226 232.26 140.077C232.268 139.988 233.05 131.085 231.874 124.526C231.256 121.077 218.582 106.827 218.043 106.222C217.936 106.102 217.748 106.09 217.624 106.191C217.499 106.293 217.484 106.474 217.59 106.593C217.721 106.74 230.697 121.328 231.287 124.623C232.451 131.11 231.675 139.94 231.666 140.028C231.652 140.185 231.773 140.323 231.937 140.336C231.946 140.337 231.955 140.337 231.963 140.337Z" fill="black"/>
<path d="M210.132 156.779C210.262 156.779 210.383 156.697 210.419 156.57C210.436 156.511 212.13 150.757 216.007 146.797C219.847 142.877 228.84 143.167 228.931 143.171C229.123 143.187 229.234 143.053 229.24 142.896C229.247 142.739 229.118 142.606 228.955 142.6C228.571 142.585 219.596 142.301 215.574 146.406C211.592 150.47 209.862 156.357 209.845 156.416C209.801 156.569 209.894 156.726 210.052 156.767C210.079 156.776 210.105 156.779 210.132 156.779Z" fill="black"/>
<path d="M207.996 153.881C208.145 153.881 208.274 153.773 208.291 153.626C208.294 153.6 208.629 150.971 211.712 148.155C214.82 145.315 219.534 144.593 219.582 144.587C219.744 144.563 219.856 144.417 219.831 144.262C219.807 144.106 219.654 144 219.492 144.023C219.292 144.053 214.545 144.779 211.302 147.742C208.049 150.713 207.713 153.451 207.7 153.567C207.682 153.724 207.8 153.863 207.964 153.881C207.974 153.881 207.985 153.881 207.996 153.881Z" fill="black"/>
<path d="M298.795 171.978C298.896 171.978 298.996 171.928 299.051 171.837C299.135 171.702 299.088 171.527 298.947 171.446C298.901 171.42 294.369 168.79 292.889 163.186C291.383 157.478 290.687 151.691 290.679 151.634C290.661 151.477 290.512 151.362 290.35 151.382C290.186 151.401 290.069 151.542 290.088 151.698C290.096 151.757 290.796 157.579 292.313 163.326C293.855 169.169 298.449 171.827 298.644 171.938C298.691 171.965 298.744 171.978 298.795 171.978Z" fill="black"/>
<path d="M288.318 129.36C288.338 129.36 288.358 129.358 288.377 129.354C288.539 129.324 288.643 129.173 288.611 129.019C288.549 128.726 287.544 121.466 287.162 118.694C287.139 118.537 286.989 118.428 286.827 118.449C286.664 118.47 286.549 118.613 286.571 118.769C286.627 119.177 287.95 128.76 288.027 129.131C288.055 129.265 288.179 129.36 288.318 129.36Z" fill="black"/>
<path d="M229.945 185.109C230.074 185.109 230.192 185.029 230.23 184.904C230.252 184.834 232.405 177.915 234.685 175.939C236.978 173.953 240.66 172.952 240.697 172.942C240.855 172.899 240.948 172.743 240.903 172.59C240.859 172.439 240.694 172.35 240.536 172.392C240.381 172.433 236.681 173.439 234.286 175.515C231.88 177.598 229.748 184.451 229.658 184.742C229.612 184.893 229.702 185.052 229.859 185.097C229.888 185.105 229.917 185.109 229.945 185.109Z" fill="black"/>
<path d="M290.384 180.12C290.521 180.12 290.645 180.029 290.675 179.897C290.711 179.743 290.61 179.59 290.45 179.556C290.34 179.533 279.348 177.193 266.825 176.249C255.897 175.426 242.114 177.113 241.975 177.131C241.813 177.151 241.697 177.294 241.719 177.451C241.741 177.607 241.886 177.717 242.053 177.698C242.19 177.681 255.912 176 266.779 176.819C279.262 177.76 290.211 180.09 290.321 180.114C290.343 180.118 290.363 180.12 290.384 180.12Z" fill="black"/>
<path d="M264.703 175.536C265.481 175.536 266.09 174.629 266.09 173.471C266.09 172.314 265.481 171.407 264.703 171.407C263.924 171.407 263.314 172.313 263.314 173.471C263.314 174.63 263.924 175.536 264.703 175.536ZM264.703 171.978C265.077 171.978 265.495 172.591 265.495 173.471C265.495 174.351 265.078 174.965 264.703 174.965C264.328 174.965 263.911 174.351 263.911 173.471C263.91 172.591 264.327 171.978 264.703 171.978Z" fill="black"/>
<path d="M262.626 218.058C262.784 218.058 262.916 217.939 262.923 217.786L265 176.927C265.008 176.77 264.881 176.636 264.717 176.629C264.528 176.621 264.412 176.742 264.405 176.9L262.329 217.758C262.321 217.915 262.447 218.05 262.612 218.057C262.617 218.058 262.62 218.058 262.626 218.058Z" fill="black"/>
<path d="M263.211 206.566C263.369 206.566 263.502 206.446 263.508 206.292C263.515 206.135 263.388 206.002 263.224 205.995C263.117 205.989 260.614 205.814 259.758 201.615C258.858 197.206 260.561 176.538 260.578 176.33C260.592 176.173 260.469 176.035 260.306 176.022C260.14 176.014 259.998 176.127 259.985 176.284C259.914 177.137 258.258 197.239 259.174 201.724C260.125 206.391 263.073 206.559 263.198 206.565C263.203 206.566 263.207 206.566 263.211 206.566Z" fill="black"/>
<path d="M291.888 192.761C291.936 192.761 291.984 192.75 292.031 192.727C292.174 192.65 292.227 192.478 292.15 192.339L284.299 178.521C284.22 178.382 284.04 178.332 283.895 178.407C283.75 178.482 283.698 178.656 283.776 178.794L291.626 192.612C291.679 192.708 291.782 192.761 291.888 192.761Z" fill="black"/>
<path d="M238.157 189.143C238.253 189.143 238.349 189.098 238.405 189.014L246.539 177.131C246.629 176.998 246.591 176.821 246.454 176.735C246.317 176.649 246.132 176.684 246.041 176.818L237.908 188.7C237.818 188.833 237.856 189.01 237.993 189.096C238.044 189.127 238.1 189.143 238.157 189.143Z" fill="black"/>
<path d="M268.64 76.824C268.656 76.7904 266.003 76.9467 264.758 77.0184C264.66 77.0239 264.562 77.0283 264.464 77.0347C264.104 77.2562 263.71 77.3243 263.264 77.3488C262.517 77.3887 261.573 77.1727 260.915 76.7668C260.939 76.8059 260.964 76.8449 260.988 76.884C260.99 76.8976 260.997 76.9104 261.01 76.9194C261.393 77.525 261.832 78.1232 262.524 78.5327C263.239 78.9539 264.135 79.1455 265.025 79.1618C265.558 79.1709 266.37 79.0573 266.891 78.9611C267.946 78.765 268.432 77.248 268.64 76.824Z" fill="#D56C4E"/>
<path d="M268.644 76.7787C268.366 76.2694 268.206 75.7719 267.49 75.8517C266.937 75.9135 266.52 76.3093 266.101 76.6388C266.145 76.4636 266.121 76.2884 265.948 76.1368C265.602 75.8327 265.016 75.8826 264.599 75.9852C264.046 76.1223 263.56 76.4101 263.038 76.6189C262.364 76.8894 261.663 76.9302 260.967 76.7005C260.905 76.6806 260.865 76.7433 260.883 76.7877C260.883 76.8068 260.891 76.825 260.91 76.8395C262.047 77.6611 263.669 77.7155 265.061 77.7827C266.76 77.8644 267.999 77.7437 268.606 76.9248C268.644 76.8622 268.672 76.8313 268.644 76.7787Z" fill="#D56C4E"/>
<path d="M300.211 382.444C304.857 384.809 308.307 388.235 308.378 393.505C308.379 393.561 308.516 395.453 308.46 395.474C302.07 397.863 297.939 397.413 291.322 396.212C292.156 390.417 294.232 384.045 300.211 382.444Z" fill="#E7FFFF"/>
<path d="M290.593 396.075C291.142 391.081 293.31 383.26 298.745 381.728C299.406 382.041 299.552 382.112 300.676 382.682C295.043 383.015 292.641 391.11 292.107 396.35C291.601 396.266 291.097 396.174 290.593 396.075Z" fill="#107F8C"/>
<path d="M362.857 76.7714H368.929L367.882 73.6747C365.587 73.1954 362.243 73.8246 362.243 73.8246L362.857 76.7714Z" fill="#8BA8AC"/>
<path d="M305.036 397.444C297.813 397.806 292.476 397.251 285.977 394.108C285.921 394.082 286.108 392.086 286.119 392.035C287.04 387.875 290.425 385.376 296.571 383.493C303.436 384.675 305.872 391.45 305.036 397.444Z" fill="#E7FFFF"/>
<path d="M335.376 358.208C335.748 361.543 334.953 372.384 335.014 374.07C335.07 375.628 334.03 378.276 327.905 378.476C322.005 378.669 318.74 375.737 318.74 375.737L319.105 360.72C319.75 359.179 335.06 355.375 335.376 358.208Z" fill="#F39E7E"/>
<path d="M335.473 390.752C335.355 391.503 328.243 393.403 328.042 393.454C321.001 395.206 313.014 397.045 305.036 397.445C305.872 391.452 303.436 384.676 296.571 383.493C299.577 382.572 302.694 381.883 305.356 381.378C305.512 381.348 311.018 379.885 313.383 378.69C317.926 376.397 317.456 373.069 318.467 372.947C319.262 372.748 321.144 372.885 322.509 373.998C322.933 374.345 322.823 377.263 322.823 377.263C322.823 377.263 324.594 374.472 325.384 374.41C326.816 374.298 328.071 374.714 329.849 374.636C333.25 374.489 335.077 373.322 335.144 373.567C336.667 379.1 336.31 385.44 335.473 390.752Z" fill="#005E7F"/>
<path d="M306.037 397.388C305.496 397.422 304.953 397.45 304.412 397.472C305.298 391 302.56 385.289 296.084 383.645C296.965 383.374 297.216 383.28 298.291 382.993C304.033 385.383 306.794 391.188 306.037 397.388Z" fill="#107F8C"/>
<path d="M336.097 385.67C334.153 383.007 329.878 384.775 327.804 386.902C325.562 389.2 323.727 392.071 323.153 395.193C323.09 395.534 322.848 395.729 322.573 395.805C322.537 395.812 322.501 395.82 322.464 395.828C321.985 395.899 321.455 395.617 321.562 395.033C322.334 390.838 325.249 386.066 329.149 383.839C331.354 382.582 334.226 382.433 336.197 383.663C336.17 384.351 336.116 384.987 336.097 385.67Z" fill="#107F8C"/>
<path d="M334.902 392.145C332.227 393.253 329.902 394.004 327.095 394.751C327.022 394.819 313.244 398.311 305.053 398.671C295.57 399.087 291.018 398.278 286.318 395.811C285.503 395.382 285.975 394.108 285.975 394.108C289.478 395.935 299.009 397.536 306.204 397.244C313.001 396.968 326.29 393.527 326.426 393.491C329.316 392.734 332.564 391.534 335.475 390.59C335.819 390.478 335.75 391.794 334.902 392.145Z" fill="#E7FFFF"/>
<path d="M310.987 385.949C309.497 384.763 308.007 383.576 306.517 382.389C305.805 381.822 306.627 380.679 307.344 381.25C308.833 382.437 310.324 383.624 311.813 384.81C312.526 385.377 311.704 386.52 310.987 385.949Z" fill="#E7FFFF"/>
<path d="M314.698 384.277C313.318 383.083 311.853 382.004 310.292 381.034C309.511 380.547 310.447 379.488 311.22 379.968C312.779 380.939 314.245 382.017 315.625 383.212C316.317 383.808 315.391 384.875 314.698 384.277Z" fill="#E7FFFF"/>
<path d="M317.645 381.612C316.41 381.031 315.221 380.377 314.077 379.644C313.301 379.147 314.102 377.991 314.877 378.487C316.022 379.218 317.21 379.874 318.446 380.455C319.281 380.848 318.47 382 317.645 381.612Z" fill="#E7FFFF"/>
<path d="M320.182 379.48C318.947 378.899 317.758 378.244 316.614 377.511C315.838 377.015 316.639 375.858 317.414 376.354C318.559 377.086 319.747 377.741 320.983 378.322C321.818 378.715 321.007 379.867 320.182 379.48Z" fill="#E7FFFF"/>
<path d="M327.905 180.892C327.905 180.892 338.109 208.004 349.427 249.497C360.745 290.988 389.816 349.358 402.409 365.508C404.754 368.515 421.348 366.528 421.348 362.18C421.348 353.419 398.009 309.357 398.009 266.97C398.009 226.83 390.71 185.608 390.71 185.608L327.905 180.892Z" fill="#C78F27"/>
<path d="M349.254 182.41L326.963 180.822C326.963 180.822 309.783 261.14 310.039 278.696C310.297 296.252 315.693 355.776 316.527 364.487C316.927 368.674 334.165 367.709 336.519 364.72C340.679 359.436 336.907 313.772 341.794 294.888C346.681 276.003 361.343 242.046 361.343 242.046L349.254 182.41Z" fill="#C78F27"/>
<path d="M339.497 219.491C344.427 237.61 350.365 255.45 357.292 272.959C357.641 273.842 359.132 273.457 358.779 272.566C351.854 255.058 345.915 237.217 340.984 219.098C340.734 218.176 339.246 218.569 339.497 219.491Z" fill="#77541B"/>
<path d="M335.66 227.286C337.393 230.261 339.353 233.082 341.525 235.776C342.132 236.53 343.216 235.474 342.616 234.729C340.526 232.136 338.66 229.399 336.993 226.538C336.509 225.705 335.175 226.453 335.66 227.286Z" fill="#77541B"/>
<path d="M375.042 200.702C376.148 209.989 382.385 216.911 389.359 222.966C390.094 223.605 391.188 222.56 390.451 221.919C383.833 216.173 377.639 209.558 376.585 200.702C376.473 199.764 374.929 199.757 375.042 200.702Z" fill="#77541B"/>
<path d="M384.028 220.218C384.472 243.036 384.935 266.029 389.661 288.479C394.301 310.519 408.832 343.799 418.117 364.333C418.511 365.207 419.841 364.451 419.449 363.586C410.217 343.167 395.763 310.001 391.149 288.085C386.451 265.767 386.013 242.903 385.57 220.218C385.552 219.264 384.009 219.264 384.028 220.218Z" fill="#77541B"/>
<path d="M323.754 187.417C346.967 194.679 370.678 195.967 394.722 191.911C395.701 191.746 395.284 190.32 394.313 190.484C370.545 194.492 347.105 193.167 324.165 185.99C323.217 185.692 322.814 187.122 323.754 187.417Z" fill="#77541B"/>
<path d="M336.536 295.089C337.466 295.473 338.273 296.004 338.969 296.71C339.652 297.406 340.742 296.356 340.06 295.663C339.283 294.875 338.355 294.24 337.316 293.81C336.934 293.653 336.486 293.694 336.259 294.076C336.07 294.393 336.15 294.929 336.536 295.089Z" fill="#77541B"/>
<path d="M332.846 297.167C335.179 297.77 337.413 298.587 339.569 299.635C340.454 300.065 341.235 298.788 340.348 298.357C338.076 297.252 335.714 296.376 333.256 295.739C332.294 295.49 331.888 296.919 332.846 297.167Z" fill="#77541B"/>
<path d="M343.615 72.3902L345.439 80.8668L338.201 83.3934C340.445 87.9717 345.068 112.149 354.842 112.098C364.615 112.046 377.426 80.4583 377.426 80.4583C377.426 80.4583 373.044 77.6276 368.204 76.6562C362.357 75.4823 362.21 62.7424 362.21 62.7424L343.615 72.3902Z" fill="#F39E7E"/>
<path d="M359.988 112.911C371.43 108.729 368.335 83.9434 368.335 83.9434C356.686 96.7686 341.237 88.2675 341.237 88.2675C337.682 94.5299 348.546 117.094 359.988 112.911Z" fill="#FDEEF6"/>
<path d="M373.706 85.4342C369.504 91.0837 361.62 93.6112 354.764 94.7152C347.908 95.82 340.54 94.3839 336.352 88.6789C335.857 88.0044 336.974 87.3081 337.466 87.979C341.921 94.0461 349.942 94.5499 356.896 93.0038C362.779 91.6956 369.093 89.4532 372.719 84.5781C373.215 83.9099 374.199 84.7714 373.706 85.4342Z" fill="#B4AFAC"/>
<path d="M378.42 100.081C378.42 100.081 399.679 178.132 391.37 180.819C348.777 194.592 329.603 180.775 329.603 180.775L340.372 98.7959L378.42 100.081Z" fill="#FDEEF6"/>
<path d="M338.453 132.73C336.51 162.326 339.596 195.665 338.998 198.551C329.603 201.465 329.846 199.961 321.589 201.46C318.61 202.001 325.83 139.595 325.476 134.465C323.55 106.575 333.897 84.2695 333.897 84.2695L345.404 80.4565C345.404 80.4565 345.049 81.6204 345.293 81.9191C345.721 82.4429 346.019 82.5209 346.019 82.5209C346.019 82.5209 346.568 83.9426 346.865 85.4297C346.808 86.2749 340.068 108.148 338.453 132.73Z" fill="#21A19A"/>
<path d="M401.774 202.624C399.524 205.601 360.805 206.724 361.346 202.951C359.363 198.847 358.084 86.8995 358.213 85.0393C358.414 83.6884 358.414 80.5154 358.414 80.5154L368.333 76.4138C368.333 76.4138 388.757 82.4038 396.543 87.0193C408.397 94.047 397.196 121.928 393.431 157.281C392.617 164.908 404.032 199.636 401.774 202.624Z" fill="#21A19A"/>
<path d="M376.438 109.234C376.029 101.252 389.859 82.0479 398.355 88.7097C409.719 97.6202 421.447 146.163 421.447 146.163C414.502 150.788 396.14 149.875 396.14 149.875C396.14 149.875 376.845 117.217 376.438 109.234Z" fill="#21A19A"/>
<path d="M367.883 73.6748L369.546 76.7061C369.256 81.0048 361.926 86.4782 361.926 86.4782L358.414 80.5155C365.765 77.1873 367.882 73.6748 367.883 73.6748Z" fill="#31C2A7"/>
<path d="M345.129 79.3406L344.173 81.1054C343.981 83.2116 345.131 87.4204 345.131 87.4204L346.106 82.6224C345.659 81.691 345.129 79.3406 345.129 79.3406Z" fill="#31C2A7"/>
<path d="M417.917 136.159C418.202 136.91 417.021 137.435 416.735 136.68C411.282 122.276 407.614 107.114 399.483 93.7764C399.06 93.0828 400.247 92.5689 400.665 93.2552C408.796 106.592 412.464 121.755 417.917 136.159Z" fill="#107F8C"/>
<path d="M382.649 112.641C387.032 123.84 391.301 135.08 395.456 146.359C395.735 147.112 394.554 147.637 394.274 146.88C390.12 135.601 385.851 124.361 381.467 113.162C381.173 112.413 382.355 111.888 382.649 112.641Z" fill="#107F8C"/>
<path d="M382.19 116.195C382.509 116.937 381.327 117.459 381.008 116.716C380.012 114.398 378.851 112.168 377.516 110.012C377.089 109.321 378.275 108.807 378.698 109.49C380.032 111.646 381.194 113.876 382.19 116.195Z" fill="#107F8C"/>
<path d="M362.929 108.301C362.913 109.029 362.371 109.748 361.539 109.6C360.849 109.477 360.39 108.776 360.75 108.156C360.763 108.133 360.78 108.116 360.793 108.097C360.792 107.94 360.816 107.784 360.879 107.631C361.009 107.313 361.297 107.073 361.643 106.984C362.046 106.88 362.47 107.033 362.697 107.369C362.874 107.631 362.935 107.992 362.929 108.301Z" fill="#31C2A7"/>
<path d="M362.313 90.1677C362.296 90.8958 361.755 91.6157 360.922 91.4668C360.232 91.3434 359.773 90.6426 360.134 90.0225C360.147 90.0007 360.162 89.9825 360.177 89.9634C360.176 89.8064 360.2 89.6503 360.263 89.4978C360.393 89.1791 360.681 88.9394 361.025 88.8513C361.429 88.7479 361.854 88.9003 362.081 89.2362C362.259 89.4977 362.321 89.8581 362.313 90.1677Z" fill="#31C2A7"/>
<path d="M363.904 123.278C363.888 124.006 363.347 124.726 362.515 124.577C361.825 124.454 361.366 123.753 361.726 123.133C361.739 123.111 361.754 123.094 361.768 123.075C361.767 122.917 361.792 122.761 361.854 122.608C361.985 122.29 362.273 122.05 362.617 121.961C363.02 121.858 363.445 122.011 363.672 122.346C363.849 122.609 363.911 122.969 363.904 123.278Z" fill="#31C2A7"/>
<path d="M364.272 139.643C364.256 140.371 363.715 141.091 362.883 140.942C362.193 140.819 361.734 140.118 362.094 139.498C362.107 139.476 362.122 139.459 362.136 139.44C362.135 139.282 362.16 139.126 362.223 138.973C362.353 138.655 362.641 138.415 362.985 138.326C363.389 138.223 363.814 138.376 364.041 138.711C364.219 138.973 364.28 139.333 364.272 139.643Z" fill="#31C2A7"/>
<path d="M339.76 33.9779C349.369 31.7791 359.069 37.0101 361.777 44.8875C364.486 52.7649 363.093 61.2651 361.742 67.1489C360.391 73.0327 355.716 76.7967 353.922 77.8298C352.128 78.8629 344.722 85.4358 338.934 83.7036C334.882 82.4898 328.314 70.1104 327.904 66.2211C327.546 62.8267 328.342 62.2157 327.355 59.5094C326.368 56.804 325.838 50.2911 325.838 50.2911C325.81 46.3074 330.152 36.1767 339.76 33.9779Z" fill="#F39E7E"/>
<path d="M329.988 63.79C330.499 64.047 331.124 63.8754 331.463 63.4214C331.783 62.9929 331.779 62.4773 331.639 61.978C331.684 61.3316 331.524 60.6616 331.052 60.2167C330.634 59.8236 329.983 59.7637 329.525 60.1015C329.118 60.401 328.941 60.8913 328.951 61.4006C328.968 62.1995 329.229 63.4087 329.988 63.79Z" fill="#6E3F30"/>
<path d="M342.944 62.0315C343.469 62.2603 344.083 62.056 344.395 61.5839C344.69 61.1382 344.656 60.6234 344.487 60.1323C344.494 59.4841 344.294 58.8241 343.796 58.4047C343.357 58.0343 342.703 58.0107 342.265 58.372C341.877 58.6934 341.728 59.1927 341.767 59.7011C341.832 60.4991 342.163 61.692 342.944 62.0315Z" fill="#6E3F30"/>
<path d="M332.177 68.2377C333.175 69.88 336.084 69.3036 337.647 68.9677C338.483 68.788 338.188 67.5423 337.352 67.7221C335.92 68.0298 332.84 68.6917 333.371 66.354C333.705 64.8814 334.152 63.4225 334.542 61.9609C334.753 61.1656 333.484 60.7798 333.272 61.576C332.882 63.0386 332.456 64.4975 332.101 65.9691C331.92 66.7226 331.749 67.5314 332.177 68.2377Z" fill="#CE6D46"/>
<path d="M365.951 50.5954C365.176 57.0575 362.314 64.4537 362.314 64.4537C362.314 64.4537 359.804 61.7902 359.907 60.0208C359.969 58.9622 361.462 58.609 361.977 57.1864C362.684 55.2336 361.99 52.5146 360.135 50.3803C359.151 49.2482 357.218 49.5614 356.205 50.2659C355.664 50.6418 355.512 51.2881 355.595 51.9236C355.679 52.5663 355.9 53.6149 356.191 54.875C355.172 55.7229 353.666 56.1206 352.255 55.8891C351.313 53.073 349.767 46.8406 349.039 45.8074C348.098 44.4738 345.695 41.8482 342.986 42.9831C340.277 44.1179 336.771 48.7652 332.922 48.9341C329.308 49.092 328.366 50.1969 325.878 50.7525C325.925 50.8297 326.272 54.6372 326.272 54.6372C326.272 54.6372 321.304 55.2427 319.452 54.0598C317.196 52.619 316.254 50.1296 316.306 47.6122C316.351 45.4206 317.439 43.3571 318.958 41.7584C319.859 40.8097 320.948 40.0843 322.101 39.4534C321.751 38.2632 321.522 36.4293 322.48 34.5637C324.023 31.5615 327.209 30.5782 330.221 29.4489C330.226 29.4216 330.753 27.8792 331.868 26.9596C334.333 24.9251 338.574 24.7653 340.867 25.1311C342.533 25.3971 343.677 25.8065 345.051 26.7271C345.997 26.7017 346.925 26.5991 347.805 26.6345C357.145 27.004 361.961 31.7839 364.457 35.8492C366.985 39.9636 366.689 44.4402 365.951 50.5954Z" fill="#522C26"/>
<path d="M359.928 57.4934C359.434 58.1671 358.35 57.4253 358.843 56.7517C359.743 55.5216 359.426 53.7875 358.149 52.9178C357.45 52.4412 358.222 51.4008 358.922 51.8774C360.791 53.1493 361.242 55.6968 359.928 57.4934Z" fill="#CE6D46"/>
<path d="M345.084 39.289C343.319 38.6163 341.729 37.5333 339.891 37.0449C337.684 36.4584 335.441 36.8215 333.45 37.8573C332.712 38.2413 332.187 37.0984 332.918 36.718C334.879 35.6966 337.112 35.2691 339.327 35.6404C341.595 36.0208 343.457 37.3244 345.562 38.1269C346.341 38.4247 345.865 39.5859 345.084 39.289Z" fill="#73453E"/>
<path d="M347.431 38.2978C345.743 37.2764 344.111 36.1761 342.539 34.995C341.879 34.5002 342.647 33.4915 343.307 33.9881C344.879 35.1693 346.51 36.2696 348.199 37.291C348.909 37.7204 348.136 38.7245 347.431 38.2978Z" fill="#73453E"/>
<path d="M345.576 54.5446C343.729 54.5673 342.036 55.1338 340.244 55.4534C339.249 55.6304 337.792 55.6622 337.718 54.3803C337.635 52.9513 339.715 52.2477 340.863 51.9808C342.514 51.5968 344.177 51.6503 345.839 51.9245C347.607 52.2159 347.328 54.5238 345.576 54.5446Z" fill="#522C26"/>
<path d="M330.586 57.1418C330.076 57.4623 329.386 57.5339 328.804 57.6774C328.264 57.8108 327.79 58.0306 327.326 58.3283C326.879 58.6152 326.25 58.3883 325.962 58.0115C325.643 57.5939 325.726 57.0282 326.102 56.6715C327.221 55.6084 329.101 54.5662 330.659 55.3597C331.437 55.7555 331.202 56.7541 330.586 57.1418Z" fill="#522C26"/>
<path d="M358.257 73.9364C357.4 76.0734 355.61 77.6721 353.84 79.1401C351.838 80.7996 349.658 82.2114 347.326 83.4071C346.591 83.7838 345.873 82.7425 346.61 82.3639C348.667 81.309 350.618 80.0906 352.419 78.6662C354.267 77.2055 356.221 75.5542 357.098 73.3635C357.399 72.6164 358.554 73.1937 358.257 73.9364Z" fill="#CE6D46"/>
<path d="M331.299 75.1746C331.299 75.1746 333.8 81.7519 335.789 83.9589C338.287 86.7296 340.956 87.8019 344.342 86.7642C346.276 86.1714 350.305 84.3829 351.686 82.9303C355.004 79.446 358.123 75.2199 358.507 70.5163C358.97 64.8441 357.711 60.2831 356.14 54.4974C354.731 54.1533 353.118 54.4638 351.708 54.1206C352.336 56.3757 352.983 58.057 352.802 60.3857C352.676 62.0234 351.971 63.791 351.752 65.4224C351.438 67.7529 352.928 70.3847 351.805 70.9267C350.518 71.5468 349.171 68.9176 346.35 68.3021C344.938 68.0543 343.546 68.2858 342.175 68.6508C340.536 69.0203 338.888 69.4415 337.303 69.9935C336.206 70.3757 334.415 70.9539 333.601 71.7791C331.979 73.4224 331.35 75.3081 331.299 75.1746Z" fill="#522C26"/>
<path d="M421.111 158.284C416.748 170.484 382.576 204.199 382.576 204.199C382.576 204.199 374.55 204.601 375.53 200.759C376.849 195.59 400.085 156.424 400.085 156.424C400.085 156.424 402.465 154.596 406.596 153.687C420.816 150.894 421.562 157.022 421.111 158.284Z" fill="#F39E7E"/>
<path d="M385.448 195.936C385.448 195.936 387.351 199.541 386.694 202.437C386.035 205.334 384.912 207.148 384.705 208.759C384.498 210.372 386.405 215.828 386.151 217.169C385.898 218.509 383.966 217.978 383.966 217.978C383.966 217.978 384.245 220.164 384.054 221.865C383.862 223.567 381.947 223.684 381.947 223.684C381.947 223.684 380.483 225.309 379.213 224.116C377.943 222.924 375.411 216.638 375.149 217.329C374.887 218.02 378.484 223.616 376.315 224.111C374.538 224.516 372.63 221.361 371.321 219.328C370.087 217.41 369.102 213.178 368.903 210.333C368.705 207.489 377.136 199.09 377.136 199.09L385.448 195.936Z" fill="#F39E7E"/>
<path d="M377.931 210.546C377.442 210.555 377.055 210.943 377.064 211.41C377.067 211.519 377.128 214.097 377.848 216.535C378.554 218.929 380.643 223.34 380.732 223.526C380.938 223.943 381.46 224.141 381.905 223.947C382.349 223.751 382.546 223.248 382.343 222.822C382.322 222.777 380.218 218.342 379.549 216.072C378.894 213.85 378.834 211.4 378.834 211.375C378.83 211.238 378.794 211.109 378.731 210.995C378.578 210.722 378.276 210.539 377.931 210.546Z" fill="#E27E66"/>
<path d="M381.47 210.246C380.987 210.31 380.65 210.74 380.718 211.204C380.898 212.423 382.623 217.051 382.819 217.574C382.979 218.004 383.489 218.244 383.95 218.086C384.409 217.927 384.648 217.441 384.483 217.001C383.766 215.086 382.585 211.754 382.469 210.966C382.453 210.866 382.42 210.772 382.374 210.688C382.205 210.381 381.849 210.194 381.47 210.246Z" fill="#E27E66"/>
<path d="M373.919 212.112C373.431 212.115 373.036 212.496 373.039 212.966L373.041 213.572C373.044 214.255 373.746 216.16 374.047 216.948C374.222 217.396 374.724 217.615 375.183 217.453C375.641 217.291 375.875 216.804 375.708 216.364C375.288 215.265 374.826 213.876 374.81 213.565L374.807 212.957C374.806 212.815 374.769 212.681 374.704 212.564C374.554 212.294 374.259 212.111 373.919 212.112Z" fill="#E27E66"/>
<path d="M376.074 199.284C376.074 199.284 377.964 198.444 380.67 198.267C384.083 198.041 386.615 198.194 388.221 198.497C388.232 198.491 391.419 195.298 393.362 193.158C390.994 192.446 386.722 191.207 382.704 191.714C381.389 191.884 380.58 192.011 379.61 192.195C378.194 194.904 376.964 197.22 376.074 199.284Z" fill="#522C26"/>
<path d="M379.264 198.33C380.299 198.916 382.056 197.904 383.186 196.068C384.316 194.233 384.241 192.541 383.205 191.954C382.17 191.368 380.565 192.108 379.435 193.944C378.305 195.78 378.228 197.744 379.264 198.33Z" fill="#F4E6D7"/>
<path d="M418.418 143.908C419.632 146.137 421.563 157.022 421.111 158.284C416.748 170.484 400.086 156.424 400.086 156.424C400.086 156.424 398.325 152.612 397.319 150.927C403.47 152.571 412.117 142.787 418.418 143.908Z" fill="#F39E7E"/>
<path d="M396.185 154.913C396.185 154.913 402.912 156.046 410.323 154.252C417.733 152.457 422.42 149.125 422.42 149.125L419.214 136.159L392.693 143.827L396.185 154.913Z" fill="#31C2A7"/>
<path d="M327.659 133.014C327.269 133.007 326.957 132.699 326.964 132.325C327.146 122.2 329.618 108.309 329.643 108.17C329.708 107.801 330.076 107.552 330.459 107.618C330.843 107.681 331.101 108.032 331.035 108.4C331.011 108.538 328.557 122.328 328.377 132.349C328.369 132.72 328.055 133.016 327.672 133.016C327.667 133.015 327.663 133.015 327.659 133.014Z" fill="#107F8C"/>
<path d="M327.573 108.956C327.187 108.905 326.918 108.563 326.971 108.192C327.126 107.117 327.431 104.026 326.995 102.654C326.881 102.296 327.091 101.917 327.464 101.808C327.836 101.699 328.232 101.899 328.346 102.257C328.963 104.196 328.395 108.208 328.37 108.377C328.321 108.716 328.018 108.962 327.672 108.962C327.64 108.963 327.606 108.961 327.573 108.956Z" fill="#107F8C"/>
<path d="M336.547 74.8016C336.547 74.8016 341.286 73.9618 344.151 72.1116" stroke="#73453E" stroke-miterlimit="10" stroke-linecap="round" stroke-linejoin="round"/>
<path d="M306.101 193.064C306.101 193.064 329.699 207.112 331.652 230.884C333.604 254.658 331.814 353.333 284.494 377.619C237.174 401.905 174.538 396.308 150.562 393.653C126.587 390.998 113.294 373.489 110.324 361.433C107.354 349.378 102.558 304.47 127.78 289.985C153.002 275.499 179.492 253.307 205.962 231.697C232.433 210.087 277.797 174.812 306.101 193.064Z" fill="url(#paint1_linear)"/>
<path d="M139.4 297.299C139.4 297.299 146.744 297.672 147.644 312.165C147.644 312.165 130.615 326.809 107.612 330.295C105.885 330.557 110.027 318.987 110.65 317.42C113.612 309.962 122.94 305.159 139.4 297.299Z" fill="#FAF3F2"/>
<path d="M222.107 280.258H206.61C206.61 280.258 167.867 239.213 137.38 227.473C131.757 225.308 125.396 227.902 123.154 233.302C118.383 244.792 113.662 267.729 129.005 301.058C130.844 305.055 135.991 306.83 139.83 304.479C140.978 303.775 141.802 302.833 142.302 301.651L140.463 259.228C140.463 259.228 156.904 295.115 188.088 299.838C197.798 301.308 230.988 302.402 222.107 280.258Z" fill="#D8005D"/>
<path d="M72.2818 386.058C78.7759 380.599 89.1237 374.474 104.061 372.718L109.112 375.682C109.112 375.682 105.891 380.24 100.006 385.055C94.5976 388.068 86.2457 392.15 79.3219 393.035C72.5903 393.894 71.5975 389.992 72.2818 386.058Z" fill="#FAF3F2"/>
<path d="M110.649 317.419C114.65 318.661 116.41 324.098 126.562 320.503C136.384 317.024 143.685 312.538 147.441 309.951C147.526 310.652 147.596 311.384 147.644 312.165C147.644 312.165 129.689 328.548 106.686 332.033C104.959 332.295 103.59 330.642 104.213 329.074C105.331 326.262 107.345 321.997 110.649 317.419Z" fill="#FAF3F2"/>
<path d="M221.539 291.014L148.967 291.768C148.967 291.768 107.523 324.66 100.006 374.816C100.006 374.816 98.7583 378.505 106.249 379.136C106.249 379.136 131.306 363.437 147.644 335.681C167.677 301.65 207.365 316.969 207.365 316.969C220.406 307.95 238.832 306.114 252.714 303.109L221.539 291.014Z" fill="#D8005D"/>
<path d="M219.826 234.934C219.826 234.934 212.014 272.493 173.734 287.352L160.118 285.812L156.905 290.726L188.845 291.702C188.845 291.702 216.147 281.329 230.612 253.063C231.089 252.13 239.055 236.352 219.826 234.934Z" fill="#F5A983"/>
<path d="M201.624 280.952C201.624 280.952 214.553 276.61 223.115 265.158C224.577 258.758 225.84 251.71 226.434 244.725C226.434 244.725 219.935 239.366 215.872 237.055C214.557 236.306 214.06 234.723 214.725 233.401C217.712 227.465 235.774 204.161 237.127 203.837C244.481 202.076 262.926 182.106 284.168 209.978C293.285 221.94 277.104 269.073 260.679 302.337L244.183 304.676L201.624 280.952Z" fill="#FAF3F2"/>
<path d="M249.872 249.801C249.872 249.801 225.189 277.837 193.632 281.935C193.632 281.935 185.477 274.803 179.411 277.348C173.347 279.895 165.031 291.135 165.031 291.135H205.551C205.551 291.135 243.863 289.84 263.009 267.554C261.468 259.755 256.854 255.097 249.872 249.801Z" fill="#F5A983"/>
<path d="M275.247 201.599C270.656 204.259 265.215 205.256 259.893 205.072C254.679 204.891 248.253 203.988 245.113 199.495L245.349 199.489C247.046 201.86 249.806 203.228 252.652 203.947C255.468 204.622 258.363 204.949 261.266 204.918C264.201 204.93 267.12 204.52 269.926 203.7C271.692 203.174 273.386 202.452 274.975 201.547L275.247 201.599Z" fill="#1F2144"/>
<path d="M283.823 189.793C283.816 189.482 283.807 189.146 283.801 188.855C283.805 186.577 283.835 184.207 284.68 182.046C285.524 179.884 286.666 178.033 287.083 175.758C287.446 173.231 287.592 170.679 287.516 168.129C287.537 165.387 286.925 162.676 285.723 160.188C283.17 155.05 278.964 150.833 273.726 148.16C261.302 141.779 245.362 142.508 236.07 153.541C235.003 154.813 234.072 156.188 233.296 157.643C230.985 161.892 229.207 166.389 227.998 171.038C226.679 176.182 225.642 182.31 228.668 187.09C229.72 188.795 231.12 190.281 232.783 191.456C233.128 195.882 237.299 200.313 240.84 202.726C243.585 204.606 246.878 204.058 249.827 201.293C252.565 200.675 257.063 201.667 258.078 199.327C259.069 200.457 260.247 201.423 261.562 202.186C264.106 203.573 266.986 200.472 269.834 200.46C272.107 200.453 276.873 202.152 276.873 202.152C277.906 201.654 278.892 201.071 279.82 200.409C283.086 197.674 283.737 193.704 283.823 189.793Z" fill="#522C26"/>
<path d="M271.321 200.614C271.321 200.614 266.659 203.12 259.231 202.906C251.803 202.692 249.846 201.293 249.846 201.293L249.016 196.911L248.661 195.08L248.096 192.147L269.738 179.826L271.321 200.614Z" fill="#F5A983"/>
<path d="M267.771 188.718C264.65 194.038 249.542 195.705 246.262 194.854C241.624 193.664 235.153 185.679 235.012 179.119C234.928 175.671 236.014 169.924 237.137 164.83C237.137 164.83 237.137 164.798 237.137 164.785C237.314 164.023 237.49 163.262 237.662 162.54C237.679 162.439 237.701 162.339 237.729 162.241C238.744 157.99 239.65 154.747 239.65 154.747L252.76 146.684C252.76 146.684 268.316 155.084 268.575 155.435C268.833 155.785 275.479 171.145 275.479 171.145C275.479 171.145 270.874 183.418 267.771 188.718Z" fill="#F5A983"/>
<path d="M275.44 171.204C275.44 171.204 277.941 170.83 279.233 173.708C280.389 176.271 277.738 180.727 274.057 182.751C270.854 184.513 266.968 184.251 267.002 184.024C267.037 183.797 267.312 176.521 267.479 175.935C267.647 175.347 275.44 171.204 275.44 171.204Z" fill="#FF924F"/>
<path d="M255.748 199.754C253.869 200.539 251.882 201.056 249.848 201.291L249.018 196.909L248.663 195.079C250.645 195.003 252.613 194.709 254.526 194.202C257.636 193.361 258.487 193.659 259.439 194.809C260.391 195.96 258.79 198.339 255.748 199.754Z" fill="#ED9368"/>
<path d="M245.675 180.879C245.572 180.838 245.485 180.771 245.421 180.684C244.972 180.082 244.624 179.414 244.394 178.707C244.142 177.768 245.593 175.036 246.472 173.482C246.553 173.344 246.688 173.241 246.847 173.196C247.006 173.151 247.177 173.168 247.323 173.243C247.396 173.28 247.461 173.332 247.513 173.393C247.565 173.454 247.604 173.525 247.626 173.602C247.65 173.677 247.658 173.757 247.647 173.836C247.639 173.914 247.612 173.991 247.572 174.06C246.589 175.785 245.569 177.944 245.614 178.415C245.806 178.967 246.083 179.489 246.435 179.963C246.532 180.092 246.572 180.253 246.545 180.41C246.518 180.568 246.428 180.707 246.294 180.801C246.209 180.867 246.104 180.908 245.996 180.923C245.887 180.936 245.776 180.921 245.675 180.879Z" fill="#D56B49"/>
<path d="M243.184 184.696L242.944 184.591C242.796 184.52 242.681 184.395 242.627 184.243C242.572 184.092 242.583 183.927 242.656 183.782C242.69 183.71 242.74 183.643 242.801 183.591C242.864 183.537 242.936 183.496 243.015 183.471C243.095 183.445 243.178 183.435 243.261 183.443C243.344 183.45 243.425 183.474 243.498 183.512C244.813 184.074 246.237 184.368 247.676 184.376C248.802 184.415 249.923 184.183 250.932 183.701C251.071 183.611 251.242 183.579 251.405 183.611C251.57 183.643 251.713 183.735 251.806 183.869C251.899 184.002 251.933 184.164 251.9 184.322C251.867 184.48 251.77 184.618 251.631 184.706C250.424 185.323 249.071 185.625 247.704 185.585C246.151 185.585 244.613 185.283 243.184 184.696Z" fill="#D56B49"/>
<path d="M236.885 170.32C237.885 170.078 238.336 170.856 238.408 171.632C238.528 172.924 237.535 174.241 236.516 173.19C235.873 172.523 236.08 170.519 236.885 170.32Z" fill="#361A09"/>
<path d="M257.04 172.149C258.039 171.907 258.483 172.687 258.563 173.455C258.683 174.747 257.689 176.064 256.671 175.019C256.026 174.322 256.24 172.309 257.04 172.149Z" fill="#361A09"/>
<path d="M263.788 167.803C263.082 166.524 261.201 166.321 259.895 166.143C258.988 166.021 256.61 165.913 256.841 167.351C256.959 168.087 258.006 168.096 258.587 168.115C260.191 168.214 261.787 168.392 263.371 168.654C263.446 168.661 263.522 168.651 263.592 168.626C263.663 168.6 263.727 168.56 263.778 168.505C263.829 168.452 263.866 168.388 263.887 168.319C263.909 168.25 263.911 168.176 263.898 168.105C263.875 167.999 263.84 167.898 263.788 167.803Z" fill="#522C26"/>
<path d="M241.142 166.119C240.885 166.915 239.735 166.797 239.086 166.716C238.436 166.634 237.308 166.62 236.539 166.592C236.531 166.576 236.531 166.557 236.538 166.54C236.708 165.779 236.892 165.024 237.057 164.295C237.387 164.288 237.8 164.337 237.934 164.334C238.98 164.33 241.616 164.555 241.142 166.119Z" fill="#522C26"/>
<path d="M274.567 163.106C274.274 161.883 274.224 160.389 273.796 159.2C272.05 154.313 266.654 150.831 261.919 148.995C256.727 146.976 252.31 144.584 247.094 147.873L246.908 148.007C245.629 148.139 244.445 148.715 243.574 149.623C242.878 149.7 242.199 149.883 241.563 150.166C240.297 150.904 239.223 151.909 238.424 153.105C236.395 155.954 235.815 159.546 235.519 162.88C235.499 163.041 235.535 163.202 235.621 163.339C235.708 163.477 235.841 163.584 235.997 163.641C236.154 163.699 236.328 163.702 236.488 163.653C236.647 163.605 236.787 163.506 236.881 163.373C237.975 161.756 239.215 160.236 240.588 158.829C241.809 157.694 243.236 156.705 244.34 155.507C245.096 154.677 245.68 153.714 246.058 152.672C250.84 152.564 256.04 151.606 260.332 154.137C265.234 157.037 266.099 163.93 267.338 168.796C267.365 168.938 267.435 169.07 267.542 169.17C267.649 169.272 267.787 169.338 267.935 169.362C268.084 169.386 268.236 169.365 268.372 169.302C268.508 169.238 268.619 169.138 268.691 169.011C268.852 169.036 269.017 169.005 269.155 168.923C270.818 167.959 274.144 166.816 274.731 164.874C274.848 164.283 274.791 163.671 274.567 163.106Z" fill="#522C26"/>
<path d="M284.052 154.51C281.963 149.523 278.051 145.439 273.047 143.022C267.771 140.522 261.815 139.654 256.002 140.54C251.332 141.283 247.008 143.372 243.604 146.528C242.365 146.608 241.147 146.765 240.091 146.893C237.064 147.259 233.574 148.042 231.171 149.954C228.405 152.159 226.678 156.309 226.905 160.071C226.819 160.371 226.718 160.665 226.645 160.99C225.795 164.848 227.793 168.447 227.597 172.335C227.395 175.945 227.53 180.298 229.89 183.288C229.968 183.374 230.072 183.434 230.188 183.459C230.303 183.485 230.425 183.473 230.533 183.427C230.642 183.381 230.732 183.303 230.791 183.204C230.849 183.105 230.874 182.991 230.859 182.877C230.593 179.188 229.64 175.83 229.831 172.065C229.869 171.2 229.816 170.334 229.673 169.479C229.757 169.4 229.829 169.31 229.882 169.209C230.276 168.161 230.521 167.066 230.612 165.956L230.654 165.988C230.778 166.075 230.922 166.133 231.073 166.158C231.224 166.183 231.38 166.175 231.527 166.133C231.675 166.091 231.811 166.018 231.924 165.919C232.037 165.819 232.125 165.695 232.181 165.558C232.319 165.167 232.457 164.75 232.597 164.319C232.63 164.309 232.661 164.296 232.689 164.278C234.178 163.332 234.753 161.488 235.357 159.959C235.637 159.246 235.902 158.535 236.155 157.817C236.806 156.87 237.532 155.935 238.266 155.025C239.905 153.59 241.721 152.247 242.921 150.563C243.014 150.434 243.072 150.283 243.085 150.126C243.136 149.963 243.132 149.788 243.073 149.628C243.742 149.361 244.37 149.106 245.032 148.878L245.073 148.877C245.141 148.845 245.195 148.791 245.229 148.726C245.263 148.661 245.276 148.587 245.263 148.516C245.251 148.444 245.215 148.378 245.161 148.327C245.107 148.277 245.038 148.243 244.963 148.232C244.848 148.235 244.726 148.237 244.612 148.24C244.653 148.233 244.691 148.219 244.727 148.198L245.045 148.01C245.498 148 245.962 147.956 246.394 147.98C245.923 148.492 245.578 149.099 245.385 149.757C245.359 149.833 245.356 149.914 245.377 149.991C245.396 150.067 245.439 150.138 245.499 150.192C245.559 150.247 245.634 150.285 245.715 150.3C245.797 150.316 245.88 150.309 245.959 150.281C247.472 149.806 248.504 148.683 249.952 148.022C251.574 147.356 253.244 146.805 254.951 146.376C256.835 145.808 258.755 145.367 260.703 145.056C260.799 145.232 260.961 145.367 261.157 145.434L261.328 145.495C261.399 145.664 261.534 145.802 261.706 145.881C261.877 145.96 262.073 145.973 262.256 145.921C262.322 145.913 262.39 145.912 262.458 145.916C263.486 146.275 264.499 146.628 265.547 146.953C268.691 148.034 271.785 149.252 274.346 151.324C277.099 153.547 278.818 157.049 282.054 158.601C282.13 158.638 282.199 158.689 282.273 158.719C282.387 158.778 282.516 158.806 282.645 158.803C282.775 158.8 282.902 158.766 283.015 158.703C283.912 162.799 283.459 166.926 283.772 171.146C283.783 171.599 284.457 171.558 284.604 171.225C287.159 166.207 286.115 159.421 284.052 154.51Z" fill="#522C26"/>
<path d="M275.607 167.024C275.607 167.024 277.05 156.259 268.098 148.933C258.244 140.863 246.702 142.14 244.706 143.777C244.297 144.11 243.981 144.537 243.789 145.017C243.597 145.498 243.533 146.018 243.606 146.528C243.606 146.528 255.088 145.019 263.57 151.391C271.325 157.218 270.715 167.562 270.715 167.562L275.607 167.024Z" fill="#73453E"/>
<path d="M265.81 170.386C263.328 175.924 263.39 181.774 267.296 185.032C271.947 188.948 276.839 186.462 279.102 182.436C281.365 178.41 281.502 170.257 278.594 167.799C274.489 164.371 268.524 164.388 265.81 170.386Z" fill="#361A09"/>
<path d="M280.152 169.408C279.233 168.497 271.286 165.601 268.794 174.021C266.301 182.441 272.945 184.816 274.797 185.181C278.241 185.867 281.034 183.099 282.414 178.497C284.179 172.65 281.079 170.339 280.152 169.408Z" fill="#28AA65"/>
<path d="M267.569 214.05C267.569 214.05 274.626 203.67 284.273 213.424" stroke="#1F2144" stroke-width="0.75" stroke-miterlimit="10"/>
<path d="M230.512 226.721C230.512 226.721 226.864 233.381 226.433 244.724" stroke="#1F2144" stroke-width="0.75" stroke-miterlimit="10"/>
<path d="M167.071 293.311L148.878 235.11C148.136 232.735 145.937 231.051 143.359 230.882L118.795 229.269C116.298 229.105 114.442 231.445 115.27 233.711L135.608 289.293C136.262 291.083 137.939 292.349 139.907 292.54L164.095 295.117L167.071 293.311Z" fill="url(#paint2_linear)"/>
<path d="M164.097 295.115C164.137 295.115 164.176 295.114 164.215 295.112L215.756 292.613C217.03 292.551 218.01 291.511 217.947 290.289C217.882 289.066 216.792 288.106 215.523 288.187L163.983 290.687C162.71 290.748 161.729 291.789 161.792 293.011C161.855 294.195 162.875 295.115 164.097 295.115Z" fill="url(#paint3_linear)"/>
<path d="M147.927 157.696C147.927 148.421 155.766 140.901 165.435 140.901C175.104 140.901 182.943 148.421 182.943 157.696C182.943 166.972 175.104 174.492 165.435 174.492C155.766 174.492 147.927 166.972 147.927 157.696Z" fill="white"/>
<path d="M177.152 166.325L170.052 159.513C171.245 158.011 171.962 156.145 171.962 154.115C171.962 149.193 167.789 145.189 162.657 145.189C157.526 145.189 153.352 149.194 153.352 154.115C153.352 159.037 157.526 163.042 162.657 163.042C164.773 163.042 166.719 162.354 168.284 161.208L175.385 168.02C175.629 168.254 175.949 168.371 176.268 168.371C176.588 168.371 176.908 168.254 177.152 168.02C177.641 167.551 177.641 166.792 177.152 166.325ZM155.852 154.115C155.852 150.515 158.905 147.587 162.657 147.587C166.41 147.587 169.463 150.514 169.463 154.115C169.463 157.715 166.411 160.643 162.657 160.643C158.905 160.643 155.852 157.715 155.852 154.115Z" fill="#17DA17"/>
<path d="M127.42 205.358C130.817 205.358 133.571 202.716 133.571 199.457C133.571 196.198 130.817 193.556 127.42 193.556C124.022 193.556 121.268 196.198 121.268 199.457C121.268 202.716 124.022 205.358 127.42 205.358Z" fill="white"/>
<path d="M184.363 116.389C199.259 116.389 211.335 104.805 211.335 90.5153C211.335 76.2257 199.259 64.6416 184.363 64.6416C169.466 64.6416 157.391 76.2257 157.391 90.5153C157.391 104.805 169.466 116.389 184.363 116.389Z" fill="white"/>
<path d="M191.881 93.523V93.5267L183.417 100.048L174.954 93.5267V93.523C173.487 92.4363 172.533 90.7087 172.533 88.7568C172.533 85.4667 175.229 82.7986 178.556 82.7986C180.554 82.7986 182.32 83.7645 183.416 85.2452C184.512 83.7645 186.278 82.7986 188.276 82.7986C191.603 82.7986 194.3 85.4658 194.3 88.7568C194.3 90.7096 193.346 92.4372 191.881 93.523Z" fill="#17DA17"/>
<path d="M70.3228 256.198C70.3228 249.179 76.2547 243.488 83.5722 243.488C90.8897 243.488 96.8217 249.179 96.8217 256.198C96.8217 263.218 90.8897 268.908 83.5722 268.908C76.2547 268.908 70.3228 263.218 70.3228 256.198Z" fill="white"/>
<path d="M79.76 253.374H78.5789C78.2419 253.374 78.1738 253.525 78.1738 253.692C78.1738 253.991 78.5741 255.472 80.0382 257.43C81.0149 258.768 82.389 259.493 83.6411 259.493C84.3916 259.493 84.4843 259.332 84.4843 259.054V258.044C84.4843 257.721 84.5554 257.657 84.7929 257.657C84.968 257.657 85.269 257.741 85.9693 258.386C86.77 259.15 86.9024 259.493 87.3529 259.493H88.534C88.8709 259.493 89.0403 259.332 88.9428 259.014C88.8359 258.697 88.4536 258.238 87.9463 257.693C87.6709 257.383 87.2583 257.048 87.1334 256.881C86.9583 256.666 87.0084 256.57 87.1334 256.38C87.1334 256.38 88.5718 254.445 88.7223 253.788C88.7971 253.549 88.7224 253.374 88.3646 253.374H87.1844C86.8835 253.374 86.7453 253.525 86.6706 253.692C86.6706 253.692 86.0695 255.09 85.2187 255.997C84.9433 256.26 84.8185 256.343 84.668 256.343C84.5933 256.343 84.4843 256.26 84.4843 256.021V253.788C84.4843 253.501 84.3973 253.374 84.1465 253.374H82.2906C82.1032 253.374 81.9906 253.506 81.9906 253.632C81.9906 253.904 82.4156 253.967 82.4601 254.731V256.391C82.4601 256.756 82.3909 256.822 82.2405 256.822C81.8401 256.822 80.8663 255.417 80.289 253.811C80.1754 253.5 80.0619 253.374 79.76 253.374Z" fill="#50E217"/>
<path d="M105.65 144.356C99.5491 148.097 91.4423 146.386 87.5423 140.534C83.6412 134.682 85.4252 126.906 91.5256 123.164C97.626 119.422 105.733 121.133 109.634 126.985C113.534 132.837 111.75 140.614 105.65 144.356Z" fill="white"/>
<path d="M98.0216 129.314C98.473 129.065 98.7588 128.988 98.9566 128.95C99.2187 128.899 99.4308 128.901 99.6891 128.956C99.9475 129.01 100.141 129.095 100.356 129.245C100.519 129.36 100.745 129.543 101.046 129.952C101.371 130.394 101.467 130.527 102.235 131.68C103.002 132.833 103.089 132.972 103.372 133.44C103.632 133.873 103.71 134.148 103.75 134.337C103.803 134.589 103.801 134.792 103.744 135.04C103.688 135.288 103.601 135.473 103.443 135.68C103.323 135.836 103.132 136.053 102.706 136.341C102.245 136.652 102.106 136.744 100.904 137.481C99.7024 138.218 99.5575 138.301 99.0692 138.572C98.6178 138.821 98.332 138.897 98.1343 138.936C97.8721 138.986 97.6601 138.985 97.4017 138.93C97.1433 138.876 96.9503 138.791 96.7345 138.641C96.5708 138.526 96.3456 138.343 96.0446 137.934C95.72 137.492 95.6244 137.359 94.856 136.206C94.0875 135.053 94.0013 134.914 93.7193 134.445C93.459 134.012 93.3805 133.739 93.3407 133.548C93.2877 133.297 93.2896 133.094 93.3464 132.846C93.4032 132.598 93.4903 132.413 93.6484 132.206C93.7676 132.05 93.9587 131.833 94.3846 131.545C94.8455 131.233 94.9846 131.142 96.1865 130.405C97.3884 129.667 97.5333 129.585 98.0216 129.314ZM93.83 130.79C93.3653 131.105 93.0862 131.379 92.8713 131.661C92.6489 131.953 92.4966 132.255 92.4067 132.648C92.3158 133.041 92.3225 133.376 92.3972 133.731C92.4682 134.074 92.6016 134.434 92.8865 134.907C93.1713 135.381 93.2641 135.531 94.0449 136.704C94.8266 137.877 94.9297 138.021 95.2581 138.467C95.5865 138.913 95.8723 139.181 96.1657 139.387C96.4704 139.6 96.7847 139.746 97.1944 139.833C97.6052 139.92 97.9544 139.913 98.3235 139.843C98.6812 139.774 99.057 139.646 99.55 139.373C100.044 139.1 100.2 139.011 101.423 138.261C102.645 137.511 102.794 137.412 103.261 137.097C103.726 136.782 104.004 136.509 104.219 136.227C104.442 135.935 104.594 135.634 104.684 135.24C104.775 134.847 104.768 134.512 104.694 134.157C104.622 133.814 104.489 133.453 104.204 132.98C103.919 132.506 103.827 132.356 103.045 131.184C102.264 130.012 102.161 129.867 101.832 129.42C101.504 128.975 101.219 128.707 100.924 128.501C100.62 128.287 100.306 128.141 99.8955 128.054C99.4857 127.968 99.1364 127.974 98.7673 128.045C98.4096 128.114 98.0339 128.241 97.5408 128.514C97.0468 128.788 96.8906 128.877 95.6679 129.627C94.4461 130.376 94.2956 130.475 93.83 130.79ZM96.2348 135.361C97.0506 136.585 98.7465 136.943 100.023 136.16C101.299 135.378 101.672 133.751 100.856 132.526C100.04 131.302 98.3443 130.944 97.0676 131.726C95.7919 132.509 95.418 134.137 96.2348 135.361ZM97.045 134.863C96.5159 134.069 96.7581 133.012 97.5862 132.504C98.4143 131.997 99.5159 132.228 100.045 133.024C100.575 133.818 100.333 134.875 99.5046 135.382C98.6756 135.891 97.5749 135.658 97.045 134.863ZM94.2616 132.594C94.5606 132.411 94.9563 132.495 95.1474 132.781C95.3377 133.067 95.2505 133.448 94.9524 133.63C94.6543 133.813 94.2578 133.729 94.0676 133.443C93.8764 133.157 93.9635 132.778 94.2616 132.594Z" fill="#17DA17"/>
<path d="M422.95 289.153C416.849 292.894 408.743 291.184 404.843 285.332C400.942 279.48 402.725 271.702 408.826 267.961C414.926 264.22 423.033 265.93 426.934 271.782C430.834 277.634 429.05 285.412 422.95 289.153Z" fill="white"/>
<path d="M415.322 274.112C415.773 273.862 416.059 273.786 416.257 273.748C416.519 273.697 416.731 273.699 416.99 273.753C417.248 273.808 417.441 273.892 417.657 274.043C417.819 274.157 418.046 274.341 418.347 274.749C418.671 275.191 418.767 275.325 419.535 276.478C420.303 277.631 420.39 277.77 420.672 278.238C420.932 278.671 421.011 278.944 421.051 279.135C421.104 279.386 421.102 279.59 421.045 279.838C420.988 280.085 420.901 280.271 420.743 280.478C420.624 280.634 420.432 280.851 420.007 281.139C419.546 281.451 419.407 281.542 418.205 282.279C417.003 283.016 416.858 283.099 416.37 283.369C415.918 283.619 415.632 283.695 415.435 283.733C415.172 283.784 414.96 283.782 414.702 283.728C414.444 283.673 414.251 283.589 414.035 283.438C413.871 283.324 413.646 283.14 413.345 282.732C413.02 282.29 412.925 282.156 412.156 281.003C411.388 279.85 411.302 279.711 411.02 279.243C410.759 278.81 410.681 278.537 410.641 278.346C410.588 278.095 410.59 277.891 410.647 277.643C410.704 277.395 410.791 277.21 410.949 277.003C411.068 276.847 411.259 276.63 411.685 276.342C412.146 276.031 412.285 275.939 413.487 275.202C414.689 274.465 414.834 274.381 415.322 274.112ZM411.13 275.588C410.666 275.903 410.386 276.176 410.172 276.459C409.949 276.75 409.797 277.052 409.707 277.445C409.616 277.839 409.623 278.174 409.698 278.529C409.768 278.872 409.902 279.232 410.187 279.704C410.472 280.178 410.564 280.329 411.345 281.501C412.127 282.673 412.23 282.817 412.559 283.264C412.887 283.71 413.173 283.977 413.466 284.184C413.771 284.397 414.085 284.543 414.495 284.629C414.906 284.716 415.255 284.709 415.624 284.638C415.982 284.569 416.357 284.441 416.85 284.169C417.344 283.896 417.5 283.807 418.723 283.057C419.945 282.307 420.095 282.208 420.561 281.893C421.026 281.578 421.304 281.305 421.52 281.022C421.742 280.731 421.895 280.429 421.985 280.035C422.075 279.642 422.069 279.307 421.994 278.952C421.922 278.609 421.79 278.249 421.505 277.776C421.22 277.302 421.127 277.152 420.345 275.979C419.565 274.807 419.461 274.663 419.132 274.216C418.805 273.77 418.519 273.503 418.225 273.297C417.921 273.083 417.607 272.937 417.196 272.851C416.786 272.765 416.437 272.771 416.068 272.842C415.71 272.911 415.334 273.038 414.841 273.311C414.347 273.584 414.191 273.673 412.968 274.423C411.747 275.173 411.596 275.273 411.13 275.588ZM413.535 280.158C414.351 281.383 416.047 281.74 417.324 280.958C418.599 280.175 418.972 278.548 418.156 277.324C417.341 276.099 415.645 275.741 414.368 276.524C413.092 277.307 412.718 278.933 413.535 280.158ZM414.345 279.661C413.816 278.866 414.059 277.809 414.887 277.302C415.715 276.794 416.816 277.026 417.345 277.821C417.875 278.616 417.633 279.672 416.805 280.18C415.976 280.688 414.875 280.456 414.345 279.661ZM411.562 277.392C411.861 277.208 412.257 277.293 412.448 277.579C412.638 277.865 412.551 278.245 412.253 278.428C411.955 278.61 411.558 278.527 411.368 278.241C411.177 277.955 411.264 277.574 411.562 277.392Z" fill="#17DA17"/>
<path d="M104.06 102.84C110.972 102.84 116.576 97.4654 116.576 90.835C116.576 84.2046 110.972 78.8296 104.06 78.8296C97.1486 78.8296 91.5454 84.2046 91.5454 90.835C91.5454 97.4654 97.1486 102.84 104.06 102.84Z" fill="white"/>
<path d="M107.765 86.3365C107.137 86.5807 106.475 86.6061 105.868 86.45C105.173 86.272 104.551 85.8554 104.14 85.2562C104.039 85.1082 103.951 84.9493 103.877 84.7795L102.086 85.4758L104.069 90.1712L105.154 92.7441C105.444 93.4313 105.224 94.1967 104.664 94.6524C104.501 94.785 104.31 94.8921 104.094 94.9629C103.819 95.0537 103.533 95.0736 103.26 95.0328C102.68 94.9465 102.157 94.5834 101.914 94.0305C101.534 93.1662 101.966 92.1721 102.872 91.8208C103.051 91.7509 103.235 91.7128 103.416 91.701L102.874 90.4173L102.679 89.9561C102.499 89.9979 102.321 90.0523 102.147 90.1204C101.156 90.5053 100.395 91.2616 100.034 92.2312C99.7603 92.9638 99.75 93.7673 100.007 94.5054C100.346 95.4749 101.087 96.2339 102.067 96.6251C102.211 96.6823 102.356 96.7314 102.505 96.7704C103.292 96.9801 104.127 96.9347 104.899 96.6351C105.073 96.567 105.241 96.4881 105.401 96.3982C106.079 96.0151 106.611 95.4395 106.925 94.7369C107.313 93.8735 107.326 92.9221 106.964 92.056L105.333 88.2184C105.737 88.3265 106.153 88.3846 106.576 88.39C107.234 88.3991 107.879 88.2829 108.493 88.0441L107.966 86.7958L107.77 86.3328C107.771 86.3337 107.765 86.3365 107.765 86.3365Z" fill="#17DA17"/>
<path d="M298.501 138.106H256.629C254.72 138.106 253.171 136.621 253.171 134.789V107.983C253.171 106.151 254.72 104.665 256.629 104.665H298.501C300.41 104.665 301.959 106.151 301.959 107.983V134.789C301.959 136.621 300.41 138.106 298.501 138.106Z" fill="url(#paint4_linear)"/>
<path d="M295.442 130.658C294.8 129.862 294.299 128.902 294.783 127.912C294.994 127.479 295.325 127.173 295.72 126.951C295.527 126.287 295.501 125.602 295.853 124.939C296.179 124.325 296.705 123.925 297.312 123.642C297.311 122.082 297.994 120.758 300.057 120.803C301.735 120.839 303.417 121.178 304.987 121.744C306.166 122.168 308.476 122.936 308.757 124.279C309.799 129.265 310.049 139.884 310.049 139.884C310.049 139.884 307.641 141.154 305.633 139.966C303.2 138.528 302.072 135.866 300.658 133.597C298.472 133.217 295.584 132.823 295.442 130.658Z" fill="#FFA587"/>
<path d="M302.544 123.658C302.661 123.575 302.734 123.438 302.725 123.29C302.711 123.053 302.5 122.873 302.254 122.886L297.934 123.126C297.686 123.14 297.5 123.343 297.514 123.578C297.528 123.814 297.739 123.995 297.986 123.981L302.306 123.742C302.395 123.737 302.477 123.706 302.544 123.658Z" fill="#ED835C"/>
<path d="M300.717 126.387C300.852 126.292 300.925 126.129 300.89 125.961C300.842 125.729 300.609 125.578 300.366 125.622L296.125 126.414C295.879 126.46 295.724 126.685 295.772 126.917C295.819 127.149 296.054 127.301 296.295 127.255L300.537 126.462C300.605 126.451 300.665 126.424 300.717 126.387Z" fill="#ED835C"/>
<path d="M300.272 129.382C300.419 129.278 300.489 129.095 300.435 128.917C300.366 128.691 300.117 128.561 299.88 128.627L295.841 129.764C295.604 129.829 295.469 130.068 295.538 130.296C295.608 130.523 295.856 130.652 296.093 130.585L300.133 129.449C300.184 129.434 300.231 129.411 300.272 129.382Z" fill="#ED835C"/>
<path d="M241.242 134.946C241.242 134.946 246.564 128.436 249.061 127.091C251.487 125.783 254.281 125.253 257.036 125.112C259.66 124.976 262.566 125.016 265.143 125.56C265.892 125.719 267.831 126 267.238 127.183C266.738 128.181 264.996 127.96 264.117 127.981C263.183 128.003 262.247 128.093 261.312 128.124C261.068 128.131 258.622 128.315 258.595 128.237C258.62 128.31 263.311 128.405 265.617 128.767C266.561 128.915 269.744 129.197 269.804 130.588C269.851 131.708 268.163 132.059 265.956 132.05C267.569 132.542 268.261 133.142 267.878 134.288C267.548 135.273 262.711 135.307 260.988 135.239C260.917 135.236 260.84 135.235 260.769 135.232C261.011 135.356 264.448 135.68 264.636 135.86C265.118 136.322 265.29 136.726 264.694 137.143C263.486 137.986 258.59 137.369 257.202 137.617C254.374 138.125 251.749 139.932 249.119 140.993C247.902 141.484 246.749 142.033 245.428 142.036C242.717 142.039 241.242 134.946 241.242 134.946Z" fill="#FFA587"/>
<path d="M255.523 132.153C255.583 132.153 255.643 132.141 255.702 132.117C255.708 132.115 256.643 131.753 259.367 131.653C262.177 131.549 265.309 132.139 265.339 132.144C265.581 132.189 265.817 132.04 265.864 131.807C265.913 131.575 265.756 131.35 265.513 131.303C265.381 131.279 262.248 130.688 259.332 130.796C256.441 130.903 255.447 131.287 255.343 131.331C255.118 131.425 255.014 131.677 255.113 131.894C255.187 132.057 255.351 132.153 255.523 132.153Z" fill="#ED835C"/>
<path d="M255.194 135.937C255.23 135.937 255.265 135.932 255.302 135.924C255.306 135.923 255.762 135.816 257.17 135.574C258.306 135.379 259.681 135.51 260.2 135.559C260.34 135.573 260.436 135.58 260.474 135.58C260.721 135.58 260.921 135.389 260.921 135.152C260.921 134.917 260.723 134.725 260.479 134.723C260.446 134.722 260.381 134.716 260.289 134.706C259.737 134.653 258.273 134.514 257.012 134.73C255.563 134.979 255.104 135.087 255.086 135.093C254.847 135.15 254.701 135.382 254.761 135.612C254.811 135.806 254.995 135.937 255.194 135.937Z" fill="#ED835C"/>
<path d="M255.522 128.922C255.547 128.922 255.574 128.92 255.6 128.916C255.606 128.915 255.817 128.879 256.448 128.793C257.066 128.709 258.591 128.664 258.607 128.663C258.854 128.656 259.047 128.459 259.041 128.223C259.033 127.991 258.834 127.807 258.594 127.807C258.59 127.807 258.585 127.807 258.581 127.808C258.516 127.81 256.99 127.853 256.322 127.945C255.66 128.036 255.445 128.072 255.445 128.072C255.202 128.113 255.04 128.336 255.084 128.568C255.122 128.776 255.31 128.922 255.522 128.922Z" fill="#ED835C"/>
<path d="M419.462 180.28H301.462C296.346 180.28 292.16 176.264 292.16 171.357V169.192C292.16 164.284 296.346 160.269 301.462 160.269H419.462C424.578 160.269 428.764 164.284 428.764 169.192V171.357C428.764 176.264 424.578 180.28 419.462 180.28Z" fill="white"/>
<path d="M303.44 177.16C307.404 177.16 310.618 174.077 310.618 170.275C310.618 166.472 307.404 163.389 303.44 163.389C299.476 163.389 296.263 166.472 296.263 170.275C296.263 174.077 299.476 177.16 303.44 177.16Z" fill="#17DA17"/>
<path d="M416.54 174.202C418.801 174.202 420.634 172.443 420.634 170.274C420.634 168.105 418.801 166.347 416.54 166.347C414.279 166.347 412.446 168.105 412.446 170.274C412.446 172.443 414.279 174.202 416.54 174.202Z" fill="#17DA17"/>
<path d="M419.017 168.418L418.475 167.897L416.54 169.753L414.604 167.897L414.061 168.418L415.996 170.274L414.061 172.131L414.604 172.651L416.54 170.795L418.475 172.651L419.017 172.131L417.082 170.274L419.017 168.418Z" fill="white"/>
<path d="M308.144 174.106L305.293 171.371C305.772 170.768 306.061 170.018 306.061 169.204C306.061 167.228 304.385 165.621 302.325 165.621C300.266 165.621 298.59 167.229 298.59 169.204C298.59 171.18 300.266 172.787 302.325 172.787C303.174 172.787 303.956 172.511 304.583 172.051L307.434 174.786C307.532 174.88 307.66 174.926 307.789 174.926C307.918 174.926 308.045 174.879 308.144 174.786C308.34 174.599 308.34 174.294 308.144 174.106ZM299.593 169.204C299.593 167.759 300.819 166.583 302.325 166.583C303.832 166.583 305.057 167.759 305.057 169.204C305.057 170.649 303.831 171.825 302.325 171.825C300.82 171.825 299.593 170.649 299.593 169.204Z" fill="white"/>
<path d="M321.73 164.736H320.867V176.022H321.73V164.736Z" fill="#17DA17"/>
<path opacity="0.5" d="M412.446 180.28H303.44V268.908H412.446V180.28Z" fill="white"/>
<defs>
<linearGradient id="paint0_linear" x1="69.1914" y1="225.921" x2="419.356" y2="225.921" gradientUnits="userSpaceOnUse">
<stop offset="0.0064" stop-color="#FFFF00"/>
<stop offset="0.1184" stop-color="#D1F800"/>
<stop offset="0.253" stop-color="#92EF00"/>
<stop offset="0.3861" stop-color="#5EE700"/>
<stop offset="0.5058" stop-color="#35E100"/>
<stop offset="0.6001" stop-color="#18DD00"/>
<stop offset="0.665" stop-color="#06DA00"/>
<stop offset="0.7442" stop-color="#00D900"/>
</linearGradient>
<linearGradient id="paint1_linear" x1="310.32" y1="392.972" x2="92.6655" y2="128.026" gradientUnits="userSpaceOnUse">
<stop offset="0.0064" stop-color="#FFFF00"/>
<stop offset="0.1184" stop-color="#D1F800"/>
<stop offset="0.253" stop-color="#92EF00"/>
<stop offset="0.3861" stop-color="#5EE700"/>
<stop offset="0.5058" stop-color="#35E100"/>
<stop offset="0.6001" stop-color="#18DD00"/>
<stop offset="0.665" stop-color="#06DA00"/>
<stop offset="0.7442" stop-color="#00D900"/>
</linearGradient>
<linearGradient id="paint2_linear" x1="167.071" y1="262.188" x2="115.071" y2="262.188" gradientUnits="userSpaceOnUse">
<stop stop-color="#32387F"/>
<stop offset="1" stop-color="#1A1643"/>
</linearGradient>
<linearGradient id="paint3_linear" x1="160.76" y1="283.993" x2="202.09" y2="295.801" gradientUnits="userSpaceOnUse">
<stop stop-color="#32387F"/>
<stop offset="1" stop-color="#1A1643"/>
</linearGradient>
<linearGradient id="paint4_linear" x1="253.171" y1="121.386" x2="301.959" y2="121.386" gradientUnits="userSpaceOnUse">
<stop stop-color="#32387F"/>
<stop offset="1" stop-color="#1A1643"/>
</linearGradient>
</defs>
</svg>
