<svg width="498" height="424" viewBox="0 0 498 424" fill="none" xmlns="http://www.w3.org/2000/svg">
<path opacity="0.6" d="M350.977 352.226C413.936 340.864 321.411 272.129 364.433 245.205C407.453 218.282 450.483 125.803 409.941 73.3867C343.228 -12.8659 167.611 14.622 117.584 117.356C55.9114 244.002 198.51 379.741 350.977 352.226Z" fill="url(#paint0_linear)"/>
<path d="M275.473 107.891L209.94 85.8991L254.207 42.6781L320.698 80.027L275.473 107.891Z" fill="#151730"/>
<path d="M264.628 70.3875C248.223 68.9228 234.485 72.2438 233.946 77.8058L231.54 97.7212L287.47 105.208L293.065 84.2049C293.219 83.8508 293.32 83.486 293.357 83.1104C293.897 77.5494 281.035 71.853 264.628 70.3875Z" fill="#343A4F"/>
<path d="M287.547 189.5C283.956 191.851 280.201 190.587 277.702 187.971C272.706 189.734 266.631 189.045 261.223 188.12C261.004 188.077 260.814 187.887 260.752 187.686C260.755 187.675 260.757 187.665 260.749 187.653C256.329 188.98 250.914 188.33 246.521 187.74C243.095 187.278 239.487 186.418 236.068 185.107C235.488 186.335 234.917 187.576 234.356 188.821C233.795 190.064 233.223 191.305 232.663 192.539C232.417 193.076 232.185 193.604 231.938 194.14C229.633 199.257 227.306 204.368 224.991 209.482C224.175 211.293 223.367 213.118 222.487 214.914C222.286 215.33 222.086 215.733 221.872 216.145C221.212 217.454 220.488 218.746 219.698 219.99C212.697 216.299 206.764 212.957 199.018 210.808C195.34 209.777 191.578 208.888 187.962 207.673C183.521 206.177 181.715 203.481 178.104 201.028C177.049 200.317 175.92 199.753 174.726 199.306C175.71 196.773 177.813 194.192 179.928 192.213C180.084 192.064 180.249 191.916 180.401 191.776C185.742 187.027 185.519 179.634 190.24 174.402C194.693 169.48 200.136 166.081 202.675 159.739C203.283 158.215 203.745 156.654 204.105 155.069C202.64 150.665 200.394 146.227 199.748 142.506C199.162 139.13 199.476 135.704 201.365 132.739C203.495 129.395 207.112 126.857 207.805 122.803C208.451 119.022 207.467 115.215 208.339 111.398C209.113 108.01 210.661 104.803 212.684 101.939C217.941 94.4997 225.593 90.0591 234.01 87.0554C243.893 81.4755 255.605 79.4695 267.085 83.3937C270.203 83.7577 273.296 84.3824 276.254 85.3048C279.236 86.2217 282.094 87.4292 284.756 88.9871C287.351 90.4947 289.757 92.3215 291.904 94.5158C298.432 101.163 300.743 109.63 299.913 118.6C298.913 129.297 295.654 139.949 293.287 150.41C293.241 150.616 293.194 150.822 293.147 151.028C292.237 155.059 294.669 160.806 295.033 164.918C295.076 165.413 295.113 165.909 295.144 166.406C295.571 173.484 294.229 185.12 287.547 189.5Z" fill="#6A433E"/>
<path d="M250.841 160.492L277.591 147.243L280.436 198.905L263.473 206.094L246.169 199.124L246.777 170.261L250.841 160.492Z" fill="#FFA587"/>
<path d="M232.147 165.805L231.463 147.677C231.436 146.994 230.839 146.461 230.126 146.486L227.061 146.593C226.35 146.617 225.794 147.192 225.819 147.874L226.504 166.001C226.53 166.684 227.127 167.217 227.839 167.192L230.904 167.085C231.617 167.06 232.174 166.487 232.147 165.805Z" fill="#8F0051"/>
<path d="M244.803 101.834C249.529 97.74 257.556 95.9742 260.64 95.2087C263.723 94.4432 284.716 112.979 286.393 115.048C288.069 117.116 289.225 131.765 289.225 131.765L280.426 158.903C280.426 158.903 261.553 173.12 252.526 174.761C243.499 176.403 231.822 159.717 230.559 155.402C229.295 151.087 228.982 123.519 228.982 123.519C228.982 123.519 240.076 105.926 244.803 101.834Z" fill="#FFA587"/>
<path d="M263.2 140.802C264.32 140.828 265.273 139.017 265.33 136.756C265.387 134.495 264.525 132.642 263.406 132.616C262.286 132.59 261.333 134.401 261.276 136.662C261.219 138.923 262.081 140.776 263.2 140.802Z" fill="#36303A"/>
<path d="M242.397 133.621C243.516 133.647 244.377 135.5 244.32 137.761C244.263 140.022 243.31 141.832 242.191 141.807C241.071 141.781 240.21 139.928 240.268 137.668C240.324 135.407 241.276 133.595 242.397 133.621Z" fill="#36303A"/>
<path d="M247.898 126.432C247.362 127.036 246.609 126.96 245.884 126.966C243.829 126.986 241.894 126.879 239.832 127.189C238.501 127.39 235.376 128.977 234.437 127.472C234.323 127.288 234.349 127.043 234.462 126.867C236.58 123.556 242.227 122.948 245.814 123.774C246.941 124.034 249.188 124.977 247.898 126.432Z" fill="#6A433E"/>
<path d="M259.924 123.623C263.427 122.528 269.097 122.702 271.479 125.837C271.606 126.003 271.653 126.245 271.554 126.437C270.743 128.007 267.502 126.665 266.16 126.566C264.082 126.414 262.167 126.668 260.119 126.805C259.395 126.853 258.653 126.988 258.069 126.426C256.666 125.077 258.823 123.967 259.924 123.623Z" fill="#6A433E"/>
<path d="M289.135 142.792C287.756 149.954 286.252 157.398 281.701 163.226C280.348 162.806 279.873 150.377 280.61 147.538C280.885 146.477 281.194 145.408 281.779 144.47C282.306 143.628 283.038 142.923 283.654 142.138C284.896 140.555 285.646 138.665 286.205 136.757C286.956 134.197 287.391 131.551 287.497 128.894C287.562 127.266 287.474 125.534 286.531 124.18C285.588 122.826 283.516 122.079 282.126 123.014C280.365 119.493 277.232 119.944 274.223 117.313C270.735 114.265 266.34 111.702 264.775 107.431C257.481 115.344 243.991 115.031 235.93 122.224C230.725 126.87 229.322 130.246 228.232 136.986C227.14 143.726 226.755 150.694 223.972 156.972C223.187 157.103 222.537 156.034 223.044 155.443C221.332 155.147 220.055 153.665 219.547 152.069C219.039 150.472 219.155 148.764 219.274 147.099C219.684 141.427 220.091 135.754 220.5 130.082C221.021 122.846 221.558 115.527 223.886 108.627C224.812 105.879 226.042 103.218 227.61 100.749C229.243 98.1766 231.254 95.8092 233.656 93.8623C234.744 92.9812 236.142 92.3304 237.081 91.3193C238.058 90.2679 239.478 89.4836 240.714 88.736C246.022 85.527 252.106 83.4994 258.351 82.898C261.721 82.5735 265.727 82.9536 267.521 85.7099C272.373 84.4971 277.787 84.7633 282.074 87.2561C286.696 89.9443 289.489 94.8958 290.629 99.9639C291.769 105.034 291.458 110.286 291.14 115.462C291.822 114.995 292.495 116.254 292.049 116.933C291.602 117.612 290.722 117.98 290.385 118.716C291.896 125.324 291.075 132.147 289.87 138.857C289.638 140.174 289.386 141.487 289.135 142.792Z" fill="#6A433E"/>
<path d="M257.632 175.137C261.941 174.629 276.409 159.308 278.045 157.562C278.345 157.242 278.318 156.747 277.983 156.459C277.651 156.172 277.134 156.196 276.832 156.518C270.813 162.942 260.222 173.258 257.434 173.587C253.734 174.024 252.197 173.35 252.151 173.328C251.757 173.135 251.269 173.278 251.059 173.658C250.848 174.039 250.999 174.512 251.397 174.714C251.523 174.78 252.352 175.167 254.147 175.273C255.052 175.327 256.203 175.308 257.632 175.137Z" fill="#ED835C"/>
<path d="M253.643 152.209C254.071 152.077 254.304 151.637 254.167 151.226C254.029 150.815 253.568 150.591 253.141 150.721C252.337 150.969 249.866 151.471 249.086 150.594C248.44 149.605 249.142 141.933 250.164 135.393C250.23 134.965 249.918 134.569 249.479 134.504C249.034 134.439 248.618 134.733 248.552 135.161C247.862 139.568 246.415 149.993 247.832 151.591C248.258 152.07 248.825 152.351 249.442 152.502C251.193 152.932 253.33 152.307 253.643 152.209Z" fill="#FFA587"/>
<path d="M281.457 138.444C280.147 138.124 278.649 139.496 278.114 141.511C277.578 143.526 278.206 145.419 279.517 145.74C280.828 146.061 282.325 144.688 282.86 142.673C283.396 140.658 282.767 138.764 281.457 138.444Z" fill="white"/>
<path d="M283.077 164.345L282.609 146.212C282.591 145.529 282 144.988 281.288 145.005L278.222 145.078C277.51 145.095 276.947 145.662 276.964 146.345L277.432 164.479C277.45 165.162 278.042 165.702 278.754 165.685L281.82 165.613C282.532 165.596 283.095 165.028 283.077 164.345Z" fill="#8F0051"/>
<path d="M263.087 105.52C263.38 105.58 263.67 105.4 263.733 105.119C263.74 105.086 264.496 101.761 265.948 100.197C266.47 99.6349 266.959 99.3651 267.479 99.0792C268.398 98.5736 269.349 98.051 270.04 96.0136C270.454 94.7963 270.784 93.5665 271.075 92.4819C271.493 90.933 271.853 89.5947 272.306 88.7898C273.011 87.5358 274.883 86.92 274.901 86.9146C275.186 86.8232 275.339 86.5274 275.244 86.2549C275.149 85.9824 274.843 85.8345 274.557 85.9259C274.464 85.9564 272.261 86.6744 271.348 88.295C270.833 89.2102 270.457 90.6059 270.022 92.222C269.734 93.2923 269.409 94.5041 269.006 95.6909C268.444 97.3483 267.779 97.714 266.937 98.1766C266.392 98.4759 265.775 98.8157 265.134 99.505C263.49 101.276 262.702 104.756 262.668 104.903C262.606 105.178 262.782 105.449 263.065 105.517C263.072 105.519 263.081 105.52 263.087 105.52Z" fill="#36303A"/>
<path d="M189.63 209.969C189.65 209.898 191.719 202.772 195.727 197.709C197.016 196.078 198.303 194.57 199.665 192.973C202.619 189.509 205.675 185.925 209.038 180.75C211.696 176.654 211.896 173.334 212.09 170.124C212.26 167.286 212.421 164.605 214.196 161.388C216.062 158.002 217.852 156.116 219.289 154.6C220.883 152.92 222.143 151.593 222.795 149.141C223.271 147.353 223.23 144.97 223.183 142.209C223.107 137.773 223.012 132.252 225.028 126.662C228.187 117.892 238.152 115.011 238.253 114.983C238.542 114.902 238.706 114.612 238.622 114.337C238.537 114.06 238.238 113.902 237.95 113.982C237.519 114.102 227.348 117.033 224 126.322C221.923 132.086 222.018 137.708 222.096 142.227C222.142 144.912 222.181 147.232 221.742 148.885C221.157 151.085 220.038 152.265 218.487 153.9C217.006 155.459 215.166 157.399 213.235 160.902C211.351 164.32 211.176 167.241 211.005 170.066C210.811 173.287 210.627 176.332 208.115 180.201C204.789 185.319 201.757 188.877 198.822 192.316C197.454 193.921 196.161 195.436 194.859 197.081C190.723 202.308 188.666 209.398 188.581 209.697C188.502 209.974 188.673 210.262 188.962 210.338C188.965 210.339 188.967 210.339 188.97 210.34C189.259 210.408 189.551 210.245 189.63 209.969Z" fill="#36303A"/>
<path d="M216.684 133.621C216.984 133.621 217.227 133.388 217.227 133.101C217.227 133 217.335 122.947 225.928 112.814C234.491 102.716 248.139 102.138 248.275 102.133C248.574 102.123 248.809 101.881 248.799 101.593C248.788 101.307 248.541 101.079 248.237 101.091C248.096 101.096 233.967 101.682 225.084 112.155C216.235 122.591 216.141 132.677 216.141 133.101C216.141 133.344 216.313 133.548 216.548 133.605C216.592 133.615 216.638 133.621 216.684 133.621Z" fill="#36303A"/>
<path d="M281.596 120.082C281.821 119.891 281.841 119.562 281.642 119.347C281.527 119.222 278.769 116.276 273.754 113.387C268.956 110.624 266.627 106.228 266.604 106.185C266.47 105.926 266.143 105.823 265.875 105.951C265.607 106.08 265.498 106.392 265.631 106.65C265.73 106.841 268.114 111.356 273.194 114.282C278.058 117.083 280.802 120.011 280.83 120.041C280.903 120.121 280.999 120.174 281.1 120.199C281.268 120.24 281.454 120.203 281.596 120.082Z" fill="#36303A"/>
<path d="M232.857 183.858C232.945 183.636 235.015 178.346 235.838 174.313C236.658 170.3 236.783 169.109 236.788 169.06C236.817 168.774 236.608 168.525 236.299 168.492C236.001 168.463 235.735 168.674 235.706 168.96C235.706 168.971 235.576 170.174 234.772 174.114C233.965 178.059 231.861 183.438 231.839 183.492C231.734 183.761 231.876 184.062 232.156 184.163C232.176 184.17 232.194 184.175 232.215 184.18C232.479 184.244 232.76 184.11 232.857 183.858Z" fill="#36303A"/>
<path d="M252.872 151.111C252.068 151.359 249.597 151.861 248.816 150.984C247.407 150.12 247.995 146.108 249.017 139.568" stroke="#ED835C" stroke-opacity="0.2" stroke-width="1.5775" stroke-miterlimit="10" stroke-linecap="round"/>
<path d="M245.251 204.338C252.926 208.087 256.275 206.748 264.229 206.748C272.183 206.748 280.555 203.134 283.776 202.063C286.998 200.992 295.485 188.812 295.485 188.812C295.485 188.812 292.415 188.41 287.531 185.733C282.647 183.056 276.368 178.906 276.368 178.906L247.978 182.118C247.978 182.118 244.972 185.33 241.094 189.48C237.216 193.63 230.18 195.503 230.18 195.503C230.18 195.503 237.577 200.592 245.251 204.338Z" fill="#FFA587"/>
<path d="M192.888 402.892C192.869 399.728 192.838 396.564 192.835 393.4C192.82 377.389 203.209 338.171 203.209 338.171C239.016 326.871 279.204 330.188 315.678 337.1C315.678 337.1 323.11 365.995 327.986 402.892H192.888Z" fill="#015E7E"/>
<path d="M325.12 309.984C327.233 322.677 336.245 361.759 335.121 374.581C334.161 385.537 331.493 400.159 317.584 398.573C317.073 399.299 316.111 399.755 315.057 399.835C314.831 399.931 314.611 400.03 314.379 400.119C314.018 400.256 313.775 400.017 313.726 399.729C313.201 399.605 312.692 399.386 312.249 399.045C310.046 397.348 309.417 393.992 308.57 391.577L304.654 380.415C300.02 367.206 295.386 353.998 290.752 340.79C276.196 339.228 261.568 338.318 246.919 338.101C232.133 337.882 216.526 338.048 202.981 344.194C198.881 353.767 201.323 393.04 200.044 395.999C199.124 398.123 181.624 391.179 178.388 374.029C176.661 364.882 179.338 353.839 181.89 345.034C182.324 343.533 185.385 331.917 186.855 331.829C186.012 331.879 185.162 331.894 184.303 331.85C177.412 331.5 172.023 327.65 169.01 321.791C166.065 316.06 165.1 309.31 165.529 302.982C166.001 296.02 170.234 284.106 172.934 277.748C175.564 271.549 173.624 259.25 175.113 252.921C176.809 245.713 179.997 243.007 182.579 236.065C185.039 229.446 186.378 222.553 190.903 217.135C195.996 211.039 201.728 205.951 209.144 202.539C212.922 200.801 216.765 199.204 220.622 197.641C222.501 196.879 224.382 196.128 226.263 195.372C228.033 194.659 229.359 193.284 231.309 194.429C232.204 194.954 232.835 195.687 233.745 196.181C234.66 196.675 235.693 196.995 236.655 197.396C239.129 198.427 241.639 199.396 244.243 200.087C252.436 202.262 261.205 202.248 269.395 200.068C273.499 198.976 277.445 197.347 281.091 195.238C283.301 193.958 285.485 192.604 287.443 190.993C288.904 189.792 290.013 187.87 291.804 187.094C293.978 186.151 296.355 188 298.432 188.527C301.275 189.246 304.12 189.949 306.955 190.687C312.604 192.156 318.229 193.747 323.668 195.83C331.202 198.716 338.302 203.733 340.435 211.54C345.647 221.796 347.108 227.945 347.842 239.265C348.672 252.073 349.029 260.626 349.965 273.427C352.685 324.162 328.548 310.669 325.12 309.984Z" fill="#B40057"/>
<path d="M312.422 329.159C317.818 329.159 324.702 339.866 324.888 340.402C325.074 340.937 334.208 381.719 334.208 381.719C334.208 381.719 332.33 399.479 319.12 398.764C305.91 398.05 292.329 332.727 292.329 332.727C292.329 332.727 307.027 329.159 312.422 329.159Z" fill="#B40057"/>
<path d="M253.656 402.891C253.956 402.88 254.187 402.679 254.172 402.442L250.383 341.159C250.37 340.922 250.158 340.742 249.814 340.752C249.514 340.764 249.283 340.965 249.298 341.202L253.088 402.485C253.101 402.714 253.341 402.892 253.63 402.892C253.638 402.892 253.647 402.892 253.656 402.891Z" fill="black"/>
<path d="M252.585 395.384C252.813 395.375 258.194 395.067 259.929 386.55C261.6 378.365 258.579 341.682 258.449 340.126C258.425 339.838 258.167 339.633 257.864 339.648C257.565 339.671 257.342 339.922 257.367 340.209C257.398 340.589 260.505 378.304 258.864 386.351C257.3 394.013 252.732 394.334 252.537 394.343C252.239 394.357 252.007 394.598 252.019 394.885C252.031 395.165 252.272 395.384 252.562 395.384C252.569 395.384 252.578 395.384 252.585 395.384Z" fill="black"/>
<path d="M243.1 187.787C242.705 189.713 242.179 191.611 241.437 193.45C239.676 197.811 236.687 201.069 232.928 203.96C229.266 206.777 225.032 209.392 222.972 213.602C221.247 217.13 221.423 221.626 218.683 224.695C218.1 225.348 217.436 225.857 216.718 226.251C214.668 225.985 212.581 225.316 210.861 224.821C206.59 223.59 202.55 222.67 198.053 222.907C193.807 223.131 190.002 224.708 185.868 225.338C182.621 222.674 181.298 217.446 181.946 213.267C183.154 205.471 189.017 199.919 195.173 195.17C199.465 187.612 206.577 181.627 215.05 178.551C223.322 175.547 238.084 174.681 242.682 183.203C242.93 181.152 243.086 179.091 243.226 177.074C243.274 176.386 244.369 176.601 244.321 177.28C244.136 179.944 243.935 182.639 243.539 185.301C243.729 185.938 243.879 186.609 243.971 187.329C244.035 187.836 243.446 188.007 243.1 187.787Z" fill="#6A433E"/>
<path d="M309.633 274.527C309.932 274.503 310.153 274.25 310.127 273.964C310.112 273.803 308.696 257.69 310.819 245.853C311.897 239.841 335.575 213.22 335.813 212.951C336.008 212.734 335.981 212.404 335.753 212.217C335.525 212.032 335.182 212.054 334.987 212.274C334.002 213.377 310.875 239.384 309.747 245.676C307.6 257.646 309.028 273.891 309.043 274.053C309.067 274.325 309.306 274.528 309.583 274.528C309.599 274.53 309.615 274.53 309.633 274.527Z" fill="black"/>
<path d="M313.424 356.207C313.711 356.125 313.875 355.835 313.791 355.56C313.627 355.029 309.735 342.525 305.346 338.721C300.974 334.935 294.224 333.098 293.94 333.022C293.651 332.946 293.351 333.109 293.271 333.384C293.191 333.662 293.359 333.949 293.648 334.026C293.716 334.045 300.434 335.872 304.618 339.496C308.78 343.102 312.709 355.728 312.748 355.854C312.818 356.082 313.034 356.228 313.269 356.228C313.319 356.229 313.371 356.222 313.424 356.207Z" fill="black"/>
<path d="M203.093 347.111C203.293 347.068 223.273 342.817 246.052 341.099C265.882 339.605 290.922 342.672 291.172 342.702C291.475 342.737 291.742 342.537 291.781 342.252C291.82 341.967 291.61 341.705 291.312 341.669C291.061 341.637 265.908 338.557 245.967 340.06C223.113 341.784 203.056 346.052 202.855 346.096C202.563 346.158 202.379 346.437 202.444 346.718C202.5 346.959 202.726 347.125 202.975 347.125C203.013 347.126 203.053 347.121 203.093 347.111Z" fill="black"/>
<path d="M252.373 334.992C252.373 332.879 251.261 331.225 249.841 331.225C248.421 331.225 247.31 332.88 247.31 334.992C247.31 337.104 248.422 338.76 249.841 338.76C251.261 338.76 252.373 337.104 252.373 334.992ZM251.286 334.992C251.286 336.598 250.525 337.717 249.84 337.717C249.156 337.717 248.394 336.598 248.394 334.992C248.394 333.386 249.157 332.267 249.84 332.267C250.525 332.267 251.286 333.386 251.286 334.992Z" fill="black"/>
<path d="M200.71 369.922L215.035 344.706C215.178 344.454 215.08 344.137 214.817 344C214.553 343.863 214.225 343.955 214.08 344.208L199.755 369.424C199.613 369.676 199.709 369.993 199.973 370.131C200.056 370.174 200.145 370.194 200.232 370.194C200.425 370.193 200.611 370.095 200.71 369.922Z" fill="black"/>
<path d="M298.58 363.504C298.83 363.346 298.901 363.023 298.736 362.782L283.895 341.098C283.728 340.854 283.39 340.791 283.142 340.948C282.892 341.106 282.822 341.429 282.986 341.67L297.828 363.354C297.932 363.508 298.106 363.59 298.282 363.59C298.385 363.589 298.487 363.561 298.58 363.504Z" fill="black"/>
<path d="M249.547 162.526C250.498 162.701 251.98 162.909 252.953 162.892C254.578 162.864 256.213 162.514 257.517 161.745C258.781 160.998 259.581 159.907 260.28 158.801C260.304 158.785 260.317 158.762 260.32 158.737C260.365 158.665 260.41 158.593 260.455 158.523C259.252 159.264 257.531 159.659 256.167 159.586C255.353 159.542 254.634 159.417 253.978 159.013C253.8 159.003 253.62 158.994 253.442 158.983C251.169 158.851 246.329 158.567 246.358 158.628C246.736 159.402 247.622 162.171 249.547 162.526Z" fill="white"/>
<path d="M246.415 158.813C247.523 160.307 249.782 160.529 252.885 160.379C255.426 160.256 258.384 160.157 260.46 158.658C260.496 158.632 260.51 158.598 260.51 158.564C260.541 158.482 260.469 158.368 260.357 158.405C259.087 158.824 257.809 158.749 256.578 158.256C255.626 157.875 254.738 157.348 253.73 157.099C252.969 156.911 251.9 156.82 251.268 157.375C250.954 157.652 250.909 157.971 250.99 158.29C250.225 157.689 249.463 156.967 248.456 156.854C247.149 156.709 246.858 157.616 246.349 158.546C246.296 158.642 246.349 158.698 246.415 158.813Z" fill="#D56C4E"/>
<path d="M162.967 304.619C152.656 290.642 147.381 275.374 138.858 263.298C138.708 263.086 138.706 262.689 138.924 262.509C141.686 260.224 136.801 257.46 138.334 254.325C137.143 253.277 142.943 252.324 141.752 251.277C141.105 250.709 141.496 249.754 142.144 250.322C143.267 251.311 144.908 252.285 146.032 253.272C146.491 253.064 147.161 253.509 146.965 254.093C155.334 261.466 163.678 268.87 171.805 276.489C176.644 281.025 181.409 285.637 186.05 290.359C189.582 293.953 193.183 297.674 195.372 302.205C198.805 309.312 198.378 321.433 185.245 322.138C173.592 322.762 168.455 312.057 162.967 304.619Z" fill="#FFA587"/>
<path d="M325.473 279.743C325.765 279.806 326.055 279.632 326.122 279.351C326.17 279.145 327.279 274.229 323.494 267.252C319.724 260.299 311.977 256.352 311.65 256.187C311.383 256.055 311.056 256.151 310.917 256.406C310.778 256.661 310.881 256.976 311.147 257.109C311.225 257.149 318.918 261.068 322.533 267.734C326.119 274.344 325.076 279.073 325.065 279.12C325.004 279.382 325.16 279.643 325.418 279.728C325.435 279.734 325.454 279.74 325.473 279.743Z" fill="black"/>
<path d="M322.956 245.569C322.956 245.569 339.578 243.152 344.773 267.728C349.966 292.304 348.333 328.803 329.006 334.357C297.883 343.3 300.495 311.095 296.944 293.77C293.393 276.443 285.206 260.225 297.018 249.365C308.828 238.505 322.956 245.569 322.956 245.569Z" fill="#B40057"/>
<path d="M309.016 254.496C309.016 254.496 328.354 252.572 337.916 274.53" stroke="black" stroke-miterlimit="10"/>
<path d="M320.698 256.6C320.698 256.6 334.716 252.794 342.173 260.742" stroke="black" stroke-miterlimit="10"/>
<path d="M146.823 262.378C146.823 262.378 141.824 264.287 138.058 263.151C134.293 262.015 132.015 260.436 129.902 259.999C127.787 259.562 120.332 261.261 118.583 260.798C116.835 260.334 117.76 258.039 117.76 258.039C117.76 258.039 114.83 258.129 112.595 257.699C110.359 257.27 110.425 254.918 110.425 254.918C110.425 254.918 108.438 252.946 110.165 251.532C111.892 250.119 120.52 247.75 119.633 247.351C118.747 246.953 110.912 250.7 110.506 247.996C110.173 245.781 114.576 243.815 117.422 242.452C120.107 241.166 125.833 240.45 129.629 240.534C133.424 240.618 143.596 251.873 143.596 251.873L146.823 262.378Z" fill="#FFA587"/>
<path d="M128.309 251.527C128.354 250.929 127.884 250.412 127.263 250.369C127.118 250.361 123.691 250.14 120.376 250.738C117.12 251.325 111.03 253.369 110.773 253.456C110.197 253.658 109.874 254.273 110.081 254.838C110.288 255.402 110.933 255.699 111.522 255.501C111.582 255.48 117.707 253.423 120.794 252.868C123.816 252.323 127.072 252.531 127.106 252.533C127.288 252.545 127.464 252.514 127.621 252.452C128.002 252.297 128.28 251.948 128.309 251.527Z" fill="#E27E66"/>
<path d="M128.303 255.88C128.273 255.282 127.741 254.822 127.118 254.852C125.48 254.932 119.145 256.506 118.429 256.685C117.84 256.831 117.463 257.426 117.62 258.007C117.778 258.586 118.394 258.933 118.998 258.782C121.62 258.127 126.174 257.069 127.232 257.018C127.367 257.011 127.495 256.981 127.613 256.933C128.038 256.76 128.328 256.348 128.303 255.88Z" fill="#E27E66"/>
<path d="M126.694 246.45C126.746 245.854 126.286 245.329 125.663 245.278L124.858 245.211C123.952 245.136 121.344 245.774 120.266 246.051C119.653 246.213 119.305 246.8 119.466 247.379C119.628 247.956 120.247 248.299 120.85 248.145C122.355 247.757 124.251 247.354 124.665 247.37L125.47 247.436C125.66 247.452 125.84 247.421 126.004 247.355C126.38 247.204 126.655 246.866 126.694 246.45Z" fill="#E27E66"/>
<path d="M112.071 271.04L135.557 266.494L126.895 225.317L103.409 229.864L112.071 271.04Z" fill="#151730"/>
<path opacity="0.6" d="M113.34 268.669L133.321 264.8L125.515 227.697L105.533 231.565L113.34 268.669Z" fill="url(#paint1_linear)"/>
<path d="M133.578 251.307C133.578 251.307 119.937 250.663 119.166 254.496C118.394 258.329 129.14 254.968 134.825 257.806" fill="#FFA587"/>
<path d="M188.563 331.224C188.563 331.224 202.382 331.904 216.142 318.16" stroke="black" stroke-miterlimit="10"/>
<path d="M319.657 181.561C319.657 181.561 304.361 268.838 305.612 279.652C306.863 290.465 322.689 298.935 333.104 287.714C347.332 263.963 334.983 183.767 334.983 183.767L319.657 181.561Z" fill="#FFA587"/>
<path d="M312.849 160.967C312.448 159.171 312.412 157.214 314.022 155.949C314.726 155.397 315.523 155.143 316.354 155.077C316.582 153.838 317.103 152.692 318.226 151.867C319.268 151.102 320.463 150.844 321.695 150.836C322.976 148.27 325.188 146.607 328.547 148.242C331.278 149.572 333.766 151.402 335.886 153.52C337.477 155.109 340.647 158.122 340.003 160.545C337.618 169.538 335.636 178.672 333.501 187.733C334.357 187.803 334.255 189.081 333.395 189.011C333.324 189.006 333.253 188.997 333.182 188.991C332.998 189.633 332.11 189.426 331.947 188.872C327.986 188.441 324.291 187.468 321.964 183.994C319.144 179.786 319.476 174.553 319.014 169.75C315.733 167.471 311.303 164.637 312.849 160.967Z" fill="#FFA587"/>
<path d="M330.292 154.823C330.553 154.775 330.785 154.606 330.892 154.354C331.063 153.954 330.864 153.497 330.448 153.333L323.143 150.459C322.724 150.294 322.249 150.487 322.079 150.885C321.908 151.284 322.107 151.741 322.525 151.905L329.83 154.779C329.983 154.839 330.142 154.851 330.292 154.823Z" fill="#ED835C"/>
<path d="M325.044 157.931C325.343 157.875 325.596 157.663 325.679 157.36C325.792 156.943 325.531 156.516 325.097 156.408L317.465 154.504C317.025 154.394 316.585 154.646 316.471 155.063C316.358 155.482 316.619 155.908 317.054 156.017L324.686 157.921C324.806 157.951 324.928 157.952 325.044 157.931Z" fill="#ED835C"/>
<path d="M321.848 162.523C322.174 162.463 322.441 162.214 322.498 161.881C322.57 161.455 322.267 161.053 321.823 160.983L314.242 159.797C313.799 159.726 313.379 160.017 313.305 160.443C313.234 160.868 313.535 161.27 313.979 161.339L321.561 162.526C321.659 162.541 321.755 162.54 321.848 162.523Z" fill="#ED835C"/>
<path d="M340.002 160.544C340.002 160.544 341.701 125.783 339.15 125.778C333.894 125.768 332.142 159.28 332.142 159.28" fill="#FFA587"/>
<path d="M308.199 252.942C308.199 252.942 289.393 260.162 287.212 293.493" stroke="black" stroke-miterlimit="10"/>
<path d="M340.088 258.817C340.088 258.817 347.95 268.194 346.081 286.156" stroke="black" stroke-miterlimit="10"/>
<path d="M318.855 79.7706V117.656" stroke="black" stroke-miterlimit="10"/>
<path d="M318.855 122.41C320.602 122.41 322.018 121.051 322.018 119.376C322.018 117.7 320.602 116.341 318.855 116.341C317.108 116.341 315.692 117.7 315.692 119.376C315.692 121.051 317.108 122.41 318.855 122.41Z" fill="black"/>
<path d="M388.236 137.912L378.273 136.517L386.965 74.1693L398.54 75.7896L388.236 137.912ZM374.198 155.29C374.47 153.503 375.234 152.089 376.489 151.048C377.79 149.973 379.514 149.586 381.662 149.887C383.81 150.187 385.347 151.031 386.273 152.418C387.206 153.765 387.536 155.332 387.264 157.119C386.992 158.905 386.209 160.316 384.914 161.352C383.625 162.347 381.907 162.695 379.759 162.394C377.611 162.093 376.068 161.289 375.13 159.982C374.237 158.64 373.926 157.076 374.198 155.29Z" fill="#B40057"/>
<path d="M142.93 164.692L133.977 169.283L102.63 114.647L113.03 109.313L142.93 164.692ZM142.232 186.568C141.352 184.989 141.101 183.426 141.48 181.879C141.874 180.278 143.036 178.982 144.966 177.993C146.896 177.003 148.664 176.795 150.271 177.37C151.859 177.909 153.092 178.968 153.972 180.547C154.852 182.125 155.085 183.698 154.671 185.263C154.237 186.794 153.055 188.054 151.126 189.044C149.196 190.034 147.447 190.277 145.879 189.772C144.328 189.215 143.112 188.147 142.232 186.568Z" fill="#B40057"/>
<path d="M122.621 86.6054C132.115 86.6054 139.811 79.2224 139.811 70.115C139.811 61.0076 132.115 53.6246 122.621 53.6246C113.127 53.6246 105.43 61.0076 105.43 70.115C105.43 79.2224 113.127 86.6054 122.621 86.6054Z" fill="white"/>
<path d="M124.78 73.082L122.148 74.3402L113.528 58.2414L116.585 56.7797L124.78 73.082ZM124.394 79.4197C124.153 78.9547 124.093 78.4994 124.216 78.0538C124.343 77.5928 124.691 77.2267 125.258 76.9555C125.825 76.6843 126.339 76.6385 126.8 76.8181C127.255 76.9875 127.604 77.3046 127.845 77.7696C128.087 78.2346 128.141 78.6924 128.008 79.143C127.869 79.5833 127.517 79.9391 126.949 80.2103C126.382 80.4816 125.873 80.5377 125.424 80.3787C124.979 80.2043 124.636 79.8847 124.394 79.4197Z" fill="#17DA17"/>
<path d="M386.67 334.728C396.164 334.728 403.861 327.345 403.861 318.238C403.861 309.13 396.164 301.747 386.67 301.747C377.176 301.747 369.479 309.13 369.479 318.238C369.479 327.345 377.176 334.728 386.67 334.728Z" fill="white"/>
<path d="M385.392 321.709L382.777 320.416L391.218 304.238L394.255 305.741L385.392 321.709ZM379.834 325.153C380.082 324.692 380.43 324.377 380.877 324.209C381.34 324.035 381.854 324.088 382.417 324.367C382.981 324.646 383.323 325.016 383.445 325.479C383.571 325.931 383.511 326.388 383.263 326.85C383.015 327.311 382.662 327.624 382.204 327.787C381.752 327.939 381.244 327.876 380.68 327.598C380.117 327.319 379.769 326.958 379.636 326.516C379.52 326.069 379.586 325.615 379.834 325.153Z" fill="#17DA17"/>
<path d="M119.127 338.654C128.621 338.654 136.317 331.271 136.317 322.164C136.317 313.056 128.621 305.673 119.127 305.673C109.633 305.673 101.936 313.056 101.936 322.164C101.936 331.271 109.633 338.654 119.127 338.654Z" fill="white"/>
<path d="M121.455 325.064L118.902 326.475L109.306 310.937L112.272 309.298L121.455 325.064ZM121.456 331.405C121.186 330.956 121.099 330.506 121.194 330.054C121.294 329.587 121.619 329.201 122.169 328.897C122.719 328.593 123.23 328.517 123.701 328.668C124.167 328.81 124.534 329.106 124.804 329.555C125.074 330.004 125.156 330.457 125.05 330.915C124.939 331.362 124.608 331.737 124.058 332.042C123.507 332.346 123.002 332.432 122.543 332.3C122.088 332.153 121.726 331.854 121.456 331.405Z" fill="#17DA17"/>
<path d="M403.64 222.873C409.787 222.873 414.77 218.093 414.77 212.197C414.77 206.3 409.787 201.52 403.64 201.52C397.493 201.52 392.51 206.3 392.51 212.197C392.51 218.093 397.493 222.873 403.64 222.873Z" fill="white"/>
<path d="M404.819 213.837L403.097 214.611L397.779 204.052L399.78 203.153L404.819 213.837ZM404.468 217.935C404.319 217.63 404.288 217.334 404.374 217.047C404.465 216.751 404.695 216.519 405.067 216.352C405.438 216.186 405.771 216.164 406.066 216.287C406.358 216.404 406.578 216.615 406.727 216.92C406.876 217.225 406.904 217.522 406.81 217.812C406.714 218.095 406.48 218.32 406.108 218.486C405.737 218.653 405.407 218.682 405.119 218.572C404.834 218.452 404.617 218.239 404.468 217.935Z" fill="#17DA17"/>
<path d="M337.917 50.1735C344.064 50.1735 349.047 45.3934 349.047 39.4969C349.047 33.6004 344.064 28.8204 337.917 28.8204C331.77 28.8204 326.787 33.6004 326.787 39.4969C326.787 45.3934 331.77 50.1735 337.917 50.1735Z" fill="white"/>
<path d="M339.096 41.1369L337.373 41.9107L332.055 31.3523L334.056 30.4533L339.096 41.1369ZM338.744 45.2348C338.596 44.9299 338.564 44.6342 338.651 44.3476C338.741 44.0511 338.972 43.8194 339.343 43.6526C339.714 43.4858 340.047 43.4641 340.342 43.5876C340.634 43.7044 340.855 43.9151 341.003 44.22C341.152 44.5248 341.18 44.8221 341.087 45.1118C340.99 45.3948 340.756 45.6197 340.385 45.7865C340.013 45.9533 339.683 45.9817 339.395 45.8718C339.11 45.7519 338.893 45.5396 338.744 45.2348Z" fill="#17DA17"/>
<path d="M220.159 305.671C220.159 305.671 226.573 284.95 225.818 266.799" stroke="black" stroke-miterlimit="10"/>
<defs>
<linearGradient id="paint0_linear" x1="399.197" y1="61.0899" x2="54.9351" y2="457.401" gradientUnits="userSpaceOnUse">
<stop offset="0.0064" stop-color="#FFFF00"/>
<stop offset="0.1184" stop-color="#D1F800"/>
<stop offset="0.253" stop-color="#92EF00"/>
<stop offset="0.3861" stop-color="#5EE700"/>
<stop offset="0.5058" stop-color="#35E100"/>
<stop offset="0.6001" stop-color="#18DD00"/>
<stop offset="0.665" stop-color="#06DA00"/>
<stop offset="0.7442" stop-color="#00D900"/>
</linearGradient>
<linearGradient id="paint1_linear" x1="105.533" y1="248.183" x2="133.321" y2="248.183" gradientUnits="userSpaceOnUse">
<stop offset="0.0064" stop-color="#FFFF00"/>
<stop offset="0.1184" stop-color="#D1F800"/>
<stop offset="0.253" stop-color="#92EF00"/>
<stop offset="0.3861" stop-color="#5EE700"/>
<stop offset="0.5058" stop-color="#35E100"/>
<stop offset="0.6001" stop-color="#18DD00"/>
<stop offset="0.665" stop-color="#06DA00"/>
<stop offset="0.7442" stop-color="#00D900"/>
</linearGradient>
</defs>
</svg>
