<svg width="498" height="424" viewBox="0 0 498 424" fill="none" xmlns="http://www.w3.org/2000/svg">
<path opacity="0.6" d="M103.823 345.727C83.5383 334.456 44.3217 291.313 66.8912 226.362C89.4607 161.411 164.277 173.802 195.09 127.75C225.904 81.6978 326.441 2.70336 392.097 37.4414C457.754 72.1795 456.728 330.677 372.605 373.978C288.483 417.279 164.362 379.364 103.823 345.727Z" fill="url(#paint0_linear)"/>
<path d="M307.732 396.041C307.754 392.567 307.788 389.093 307.791 385.619C307.807 368.041 296.401 324.984 296.401 324.984C257.089 312.579 212.967 316.22 172.923 323.808C172.923 323.808 164.764 355.532 159.41 396.041H307.732Z" fill="#015E7E"/>
<path d="M195.467 136.405C195.501 135.86 195.542 135.315 195.59 134.772C195.989 130.258 198.659 123.947 197.66 119.522C197.608 119.296 197.557 119.069 197.506 118.843C194.907 107.357 191.33 95.6632 190.231 83.9198C189.321 74.0718 191.857 64.776 199.024 57.4778C201.382 55.0687 204.022 53.0641 206.872 51.4078C209.795 49.6974 212.933 48.3719 216.207 47.3651C219.454 46.3525 222.85 45.6665 226.273 45.267C238.877 40.9596 251.735 43.161 262.586 49.2871C271.826 52.5848 280.228 57.4601 285.999 65.6272C288.222 68.7724 289.921 72.2926 290.769 76.0125C291.726 80.2029 290.646 84.3843 291.356 88.5343C292.117 92.9845 296.087 95.7715 298.426 99.4422C300.5 102.697 300.847 106.459 300.201 110.166C299.492 114.251 297.026 119.123 295.419 123.958C295.814 125.698 296.319 127.413 296.988 129.086C299.775 136.047 305.75 139.779 310.641 145.184C315.823 150.929 315.578 159.045 321.442 164.259C321.611 164.412 321.791 164.574 321.961 164.739C324.285 166.912 326.593 169.745 327.673 172.526C326.361 173.016 325.123 173.636 323.965 174.416C320 177.109 318.017 180.07 313.142 181.712C309.172 183.046 305.041 184.021 301.003 185.154C292.499 187.513 285.985 191.183 278.299 195.234C277.431 193.868 276.636 192.45 275.911 191.013C275.676 190.561 275.457 190.118 275.235 189.661C274.27 187.69 273.382 185.687 272.487 183.698C269.945 178.083 267.39 172.472 264.859 166.855C264.589 166.265 264.332 165.685 264.063 165.096C263.449 163.742 262.822 162.378 262.204 161.014C261.589 159.648 260.961 158.285 260.325 156.937C256.571 158.377 252.61 159.32 248.849 159.828C244.026 160.476 238.081 161.189 233.228 159.732C233.219 159.745 233.222 159.757 233.225 159.768C233.157 159.989 232.948 160.199 232.708 160.245C226.77 161.26 220.101 162.017 214.616 160.081C211.872 162.954 207.75 164.341 203.807 161.76C196.471 156.952 194.998 144.176 195.467 136.405Z" fill="#6A433E"/>
<path d="M248.57 140.638L249.237 172.326L230.239 179.98L211.615 172.086L214.739 115.367L244.108 129.913L248.57 140.638Z" fill="#FFA587"/>
<path d="M265.993 137.151L269.358 137.268C270.14 137.296 270.796 136.709 270.825 135.96L271.577 116.059C271.605 115.309 270.993 114.679 270.213 114.653L266.848 114.535C266.066 114.508 265.41 115.094 265.381 115.843L264.629 135.745C264.601 136.494 265.211 137.125 265.993 137.151Z" fill="#8F0051"/>
<path d="M268.103 89.3207C268.103 89.3207 267.759 119.587 266.372 124.324C264.985 129.062 252.166 147.381 242.255 145.578C232.344 143.776 211.624 128.167 211.624 128.167L201.963 98.3735C201.963 98.3735 203.232 82.2902 205.072 80.0198C206.914 77.7495 229.961 57.3981 233.347 58.2386C236.732 59.079 245.545 61.0177 250.734 65.5121C255.925 70.0046 268.103 89.3207 268.103 89.3207Z" fill="#FFA587"/>
<path d="M231.414 103.803C231.655 101.331 230.857 99.2384 229.634 99.1292C228.41 99.02 227.223 100.935 226.982 103.406C226.742 105.878 227.539 107.97 228.763 108.08C229.988 108.19 231.174 106.275 231.414 103.803Z" fill="#36303A"/>
<path d="M256.77 105.046C256.531 107.518 255.343 109.432 254.12 109.323C252.896 109.213 252.099 107.121 252.339 104.649C252.579 102.177 253.766 100.263 254.989 100.372C256.214 100.481 257.01 102.574 256.77 105.046Z" fill="#36303A"/>
<path d="M250.783 95.5698C254.721 94.6624 260.922 95.3297 263.246 98.9659C263.37 99.1598 263.399 99.4285 263.274 99.6302C262.242 101.283 258.812 99.5397 257.351 99.3192C255.086 98.9778 252.963 99.0958 250.707 99.0742C249.91 99.0663 249.084 99.151 248.495 98.4877C247.078 96.8905 249.545 95.8552 250.783 95.5698Z" fill="#6A433E"/>
<path d="M235.111 91.3234C234.47 91.9394 233.654 91.7918 232.861 91.7386C230.612 91.5881 228.509 91.3096 226.229 91.4779C224.755 91.5861 221.197 93.0593 220.306 91.3361C220.198 91.1255 220.25 90.8608 220.388 90.6768C223.003 87.2354 229.23 87.0444 233.075 88.247C234.284 88.6249 236.652 89.8442 235.111 91.3234Z" fill="#6A433E"/>
<path d="M201.252 106.16C199.929 98.7927 199.027 91.3017 200.687 84.0468C200.319 83.2388 199.351 82.8354 198.861 82.0894C198.371 81.3435 199.111 79.9618 199.858 80.4745C199.51 74.7913 199.169 69.0254 200.419 63.4592C201.671 57.8941 204.737 52.4579 209.812 49.5075C214.52 46.7707 220.463 46.4785 225.79 47.81C227.759 44.7838 232.157 44.3666 235.858 44.7228C242.714 45.3831 249.393 47.6092 255.22 51.1323C256.576 51.953 258.136 52.8141 259.209 53.9685C260.239 55.0786 261.776 55.793 262.97 56.7604C265.607 58.8979 267.815 61.4969 269.607 64.3213C271.329 67.0316 272.68 69.9534 273.697 72.9707C276.252 80.5463 276.842 88.5826 277.413 96.5253C277.863 102.753 278.31 108.98 278.759 115.209C278.89 117.036 279.017 118.912 278.46 120.665C277.903 122.417 276.501 124.044 274.621 124.37C275.177 125.018 274.464 126.191 273.601 126.048C270.546 119.156 270.123 111.505 268.925 104.105C267.728 96.7044 266.188 92.9992 260.473 87.8986C251.621 80.0011 236.813 80.3446 228.805 71.6579C227.086 76.3452 222.262 79.1597 218.432 82.5067C215.129 85.395 211.688 84.899 209.755 88.7656C208.229 87.7392 205.954 88.5589 204.919 90.0459C203.884 91.5329 203.787 93.4342 203.858 95.2214C203.976 98.1383 204.453 101.043 205.277 103.854C205.891 105.949 206.714 108.023 208.078 109.761C208.754 110.623 209.558 111.396 210.136 112.321C210.779 113.351 211.117 114.525 211.419 115.689C212.228 118.807 211.708 132.452 210.223 132.913C205.226 126.514 203.575 118.342 202.061 110.479C201.787 109.047 201.512 107.605 201.252 106.16Z" fill="#6A433E"/>
<path d="M240.475 146.141C242.446 146.024 243.357 145.599 243.496 145.528C243.932 145.306 244.098 144.787 243.866 144.368C243.636 143.951 243.1 143.794 242.668 144.006C242.616 144.029 240.929 144.77 236.867 144.29C233.806 143.929 222.179 132.604 215.57 125.551C215.238 125.197 214.67 125.171 214.306 125.486C213.938 125.803 213.909 126.345 214.238 126.697C216.035 128.613 231.919 145.435 236.65 145.993C238.219 146.179 239.482 146.199 240.475 146.141Z" fill="#ED835C"/>
<path d="M245.643 121.142C246.319 120.976 246.943 120.667 247.41 120.142C248.966 118.387 247.376 106.942 246.619 102.103C246.547 101.634 246.09 101.312 245.602 101.382C245.12 101.454 244.777 101.889 244.85 102.358C245.972 109.538 246.742 117.961 246.034 119.048C245.177 120.009 242.464 119.459 241.581 119.186C241.112 119.043 240.607 119.289 240.455 119.74C240.304 120.191 240.56 120.674 241.03 120.82C241.373 120.926 243.719 121.612 245.643 121.142Z" fill="#FFA587"/>
<path d="M208.953 110.348C209.541 112.56 211.184 114.068 212.624 113.716C214.063 113.364 214.752 111.285 214.164 109.073C213.577 106.86 211.933 105.354 210.494 105.705C209.055 106.057 208.365 108.138 208.953 110.348Z" fill="white"/>
<path d="M210.095 135.535L213.461 135.615C214.242 135.634 214.892 135.04 214.911 134.291L215.424 114.382C215.444 113.632 214.825 113.009 214.043 112.99L210.677 112.911C209.896 112.892 209.246 113.485 209.227 114.235L208.713 134.144C208.695 134.893 209.313 135.517 210.095 135.535Z" fill="#8F0051"/>
<path d="M230.683 69.5558C230.993 69.481 231.187 69.1838 231.119 68.8817C231.082 68.7212 230.216 64.9 228.411 62.9554C227.708 62.1986 227.03 61.8266 226.432 61.4969C225.508 60.9881 224.777 60.5866 224.162 58.768C223.718 57.465 223.361 56.1345 223.045 54.9595C222.568 53.1851 222.156 51.6529 221.59 50.6481C220.588 48.8688 218.17 48.0806 218.067 48.0481C217.753 47.9477 217.417 48.1101 217.313 48.4092C217.208 48.7084 217.376 49.0322 217.689 49.1335C217.709 49.1404 219.765 49.8165 220.538 51.1923C221.035 52.075 221.43 53.5443 221.888 55.2458C222.208 56.4356 222.57 57.7858 223.025 59.1232C223.784 61.3611 224.827 61.9348 225.837 62.4889C226.407 62.8028 226.946 63.099 227.517 63.7161C229.111 65.4333 229.942 69.0834 229.95 69.1198C230.018 69.4288 230.336 69.6256 230.659 69.5597C230.669 69.5597 230.678 69.5577 230.683 69.5558Z" fill="#36303A"/>
<path d="M312.032 184.637C312.035 184.636 312.038 184.636 312.041 184.634C312.358 184.551 312.546 184.235 312.459 183.931C312.365 183.603 310.107 175.819 305.567 170.08C304.137 168.274 302.718 166.611 301.216 164.849C297.995 161.073 294.665 157.167 291.013 151.548C288.256 147.299 288.054 143.957 287.84 140.42C287.653 137.32 287.46 134.112 285.392 130.36C283.272 126.514 281.251 124.383 279.626 122.672C277.923 120.877 276.694 119.582 276.052 117.166C275.57 115.351 275.614 112.804 275.664 109.856C275.75 104.896 275.854 98.7228 273.574 92.395C269.899 82.1966 258.733 78.9786 258.259 78.8467C257.941 78.7582 257.614 78.9324 257.52 79.2365C257.429 79.5396 257.61 79.8564 257.926 79.945C258.036 79.9765 268.977 83.1394 272.446 92.7679C274.659 98.9048 274.554 104.966 274.471 109.835C274.42 112.866 274.375 115.484 274.897 117.446C275.613 120.138 276.996 121.595 278.746 123.44C280.325 125.104 282.289 127.174 284.338 130.892C286.286 134.424 286.465 137.368 286.65 140.483C286.863 144.009 287.082 147.653 290.001 152.149C293.693 157.831 297.048 161.766 300.292 165.569C301.786 167.322 303.199 168.977 304.615 170.768C309.015 176.329 311.286 184.151 311.309 184.229C311.395 184.536 311.716 184.715 312.032 184.637Z" fill="#36303A"/>
<path d="M281.754 100.394C282.011 100.331 282.201 100.108 282.201 99.8398C282.201 99.3743 282.096 88.3012 272.382 76.8442C262.629 65.3458 247.118 64.7022 246.963 64.6963C246.629 64.6835 246.357 64.9335 246.346 65.2484C246.335 65.5643 246.592 65.829 246.921 65.8408C247.07 65.8458 262.054 66.4815 271.456 77.5675C280.891 88.6919 281.008 99.7306 281.008 99.8398C281.008 100.156 281.274 100.412 281.605 100.412C281.656 100.412 281.706 100.405 281.754 100.394Z" fill="#36303A"/>
<path d="M210.887 85.6745C210.998 85.647 211.102 85.5889 211.183 85.5004C211.214 85.4679 214.227 82.2528 219.567 79.1775C225.144 75.9653 227.762 71.0084 227.87 70.7988C228.016 70.5163 227.897 70.1738 227.603 70.0311C227.308 69.8914 226.95 70.0036 226.802 70.288C226.777 70.3362 224.219 75.1623 218.952 78.1953C213.446 81.3671 210.418 84.6028 210.292 84.7387C210.073 84.9748 210.096 85.336 210.342 85.5456C210.497 85.6795 210.7 85.7198 210.887 85.6745Z" fill="#36303A"/>
<path d="M264.555 155.92C264.578 155.914 264.597 155.908 264.62 155.901C264.928 155.79 265.083 155.461 264.968 155.164C264.944 155.104 262.634 149.199 261.747 144.869C260.865 140.543 260.722 139.224 260.722 139.21C260.691 138.896 260.398 138.666 260.071 138.696C259.731 138.733 259.504 139.006 259.535 139.32C259.541 139.373 259.678 140.68 260.577 145.087C261.481 149.515 263.753 155.322 263.85 155.567C263.958 155.842 264.266 155.99 264.555 155.92Z" fill="#36303A"/>
<path d="M246.109 106.941C247.231 114.121 247.876 118.526 246.329 119.475C245.473 120.436 242.759 119.886 241.877 119.614" stroke="#ED835C" stroke-opacity="0.2" stroke-width="1.5775" stroke-miterlimit="10" stroke-linecap="round"/>
<path d="M266.789 168.352C266.789 168.352 259.064 166.295 254.806 161.74C250.55 157.184 247.248 153.657 247.248 153.657L216.079 150.131C216.079 150.131 209.185 154.687 203.823 157.627C198.46 160.565 195.09 161.006 195.09 161.006C195.09 161.006 204.408 174.38 207.946 175.555C211.483 176.73 220.674 180.698 229.406 180.698C238.139 180.698 241.815 182.167 250.242 178.053C258.669 173.937 266.789 168.352 266.789 168.352Z" fill="#FFA587"/>
<path d="M135.279 253.9C136.307 239.846 136.698 230.456 137.61 216.395C138.415 203.966 140.02 197.215 145.742 185.955C148.084 177.385 155.879 171.876 164.151 168.708C170.122 166.421 176.299 164.674 182.5 163.061C185.612 162.251 188.736 161.479 191.857 160.69C194.137 160.112 196.746 158.081 199.133 159.117C201.099 159.969 202.318 162.079 203.922 163.397C206.071 165.166 208.47 166.653 210.895 168.057C214.898 170.374 219.231 172.163 223.736 173.361C232.728 175.754 242.356 175.77 251.351 173.381C254.209 172.622 256.964 171.558 259.681 170.427C260.737 169.987 261.872 169.637 262.876 169.092C263.876 168.55 264.568 167.745 265.55 167.17C267.691 165.912 269.147 167.421 271.091 168.205C273.155 169.034 275.221 169.859 277.283 170.696C281.518 172.413 285.738 174.166 289.885 176.074C298.027 179.819 304.321 185.405 309.912 192.098C314.881 198.046 316.351 205.615 319.052 212.881C321.887 220.502 325.386 223.474 327.248 231.388C328.884 238.334 326.753 251.837 329.641 258.644C332.604 265.625 337.253 278.705 337.771 286.348C338.243 293.295 337.183 300.707 333.949 306.999C330.641 313.432 324.725 317.658 317.159 318.042C316.216 318.09 315.283 318.074 314.357 318.02C315.971 318.116 319.331 330.869 319.809 332.517C322.61 342.183 325.549 354.309 323.654 364.35C320.101 383.18 300.886 390.804 299.878 388.471C298.473 385.222 301.154 342.105 296.653 331.594C281.782 324.847 264.647 324.665 248.414 324.905C232.332 325.144 216.271 326.142 200.29 327.858C195.202 342.359 190.115 356.86 185.028 371.361L180.728 383.616C179.798 386.268 179.107 389.953 176.688 391.815C176.202 392.19 175.644 392.431 175.067 392.566C175.012 392.883 174.746 393.144 174.35 392.994C174.096 392.896 173.854 392.787 173.605 392.682C172.449 392.594 171.393 392.094 170.831 391.297C155.561 393.038 152.632 376.984 151.577 364.957C150.342 350.879 160.237 307.972 162.557 294.036C158.794 294.79 132.292 309.604 135.279 253.9Z" fill="#B40057"/>
<path d="M251.648 159.376C251.749 158.586 251.914 157.848 252.122 157.149C251.687 154.227 251.467 151.267 251.263 148.344C251.211 147.599 252.414 147.361 252.466 148.117C252.62 150.332 252.791 152.595 253.063 154.847C258.111 145.491 274.318 146.441 283.399 149.739C292.702 153.116 300.511 159.687 305.222 167.985C311.982 173.199 318.418 179.295 319.744 187.854C320.455 192.441 319.002 198.183 315.439 201.107C310.899 200.415 306.722 198.683 302.06 198.437C297.125 198.177 292.688 199.187 287.998 200.539C286.111 201.082 283.819 201.816 281.568 202.108C280.779 201.676 280.051 201.117 279.412 200.4C276.403 197.029 276.596 192.094 274.702 188.222C272.441 183.599 267.792 180.729 263.772 177.636C259.646 174.462 256.363 170.885 254.43 166.097C253.615 164.077 253.037 161.994 252.604 159.879C252.224 160.12 251.578 159.934 251.648 159.376Z" fill="#6A433E"/>
<path d="M198.557 319.008C198.557 319.008 183.646 390.725 169.143 391.509C154.64 392.293 152.578 372.795 152.578 372.795C152.578 372.795 162.606 328.021 162.811 327.434C163.015 326.846 170.573 315.09 176.497 315.09C182.42 315.09 198.557 319.008 198.557 319.008Z" fill="#B40057"/>
<path d="M179.613 255.113C179.918 255.113 180.179 254.889 180.206 254.592C180.223 254.413 181.79 236.579 179.434 223.437C178.194 216.527 152.804 187.976 151.722 186.765C151.508 186.524 151.132 186.499 150.881 186.703C150.63 186.907 150.602 187.27 150.816 187.508C151.077 187.803 177.073 217.03 178.256 223.632C180.588 236.627 179.034 254.317 179.016 254.494C178.987 254.808 179.231 255.086 179.559 255.112C179.578 255.113 179.596 255.113 179.613 255.113Z" fill="black"/>
<path d="M313.508 318.502C313.711 318.502 313.911 318.402 314.022 318.22C314.188 317.949 314.095 317.598 313.813 317.437C313.721 317.387 304.64 312.117 301.677 300.889C298.659 289.452 297.264 277.859 297.249 277.744C297.212 277.43 296.914 277.201 296.589 277.241C296.261 277.277 296.026 277.56 296.063 277.873C296.078 277.991 297.48 289.655 300.521 301.169C303.61 312.875 312.815 318.201 313.205 318.422C313.299 318.476 313.405 318.502 313.508 318.502Z" fill="black"/>
<path d="M292.516 233.119C292.556 233.119 292.595 233.115 292.634 233.107C292.957 233.046 293.167 232.745 293.103 232.436C292.98 231.848 290.966 217.303 290.2 211.75C290.154 211.436 289.855 211.217 289.53 211.258C289.203 211.299 288.973 211.587 289.016 211.9C289.128 212.717 291.779 231.914 291.934 232.658C291.989 232.93 292.239 233.119 292.516 233.119Z" fill="black"/>
<path d="M175.568 344.81C175.825 344.81 176.062 344.65 176.139 344.4C176.182 344.26 180.496 330.399 185.066 326.44C189.658 322.461 197.035 320.455 197.108 320.435C197.425 320.35 197.61 320.035 197.522 319.73C197.434 319.427 197.103 319.249 196.787 319.332C196.475 319.416 189.065 321.432 184.265 325.589C179.447 329.764 175.173 343.492 174.993 344.076C174.9 344.379 175.081 344.697 175.397 344.786C175.455 344.802 175.511 344.81 175.568 344.81Z" fill="black"/>
<path d="M296.657 334.815C296.93 334.815 297.177 334.633 297.239 334.369C297.311 334.061 297.108 333.755 296.788 333.686C296.567 333.637 274.548 328.952 249.457 327.059C227.563 325.409 199.948 328.791 199.672 328.825C199.346 328.866 199.115 329.153 199.157 329.466C199.2 329.779 199.494 329.998 199.826 329.96C200.101 329.925 227.592 326.559 249.363 328.2C274.371 330.086 296.308 334.753 296.527 334.801C296.572 334.81 296.614 334.815 296.657 334.815Z" fill="black"/>
<path d="M245.205 325.631C246.763 325.631 247.984 323.814 247.984 321.494C247.984 319.175 246.764 317.358 245.205 317.358C243.646 317.358 242.425 319.174 242.425 321.494C242.425 323.813 243.645 325.631 245.205 325.631ZM245.205 318.502C245.955 318.502 246.792 319.731 246.792 321.495C246.792 323.257 245.956 324.486 245.205 324.486C244.453 324.486 243.617 323.257 243.617 321.495C243.618 319.731 244.453 318.502 245.205 318.502Z" fill="black"/>
<path d="M241.045 396.041C241.361 396.041 241.624 395.845 241.64 395.594L245.8 328.311C245.816 328.053 245.563 327.831 245.233 327.818C244.856 327.807 244.624 328.004 244.608 328.265L240.449 395.547C240.432 395.807 240.685 396.028 241.015 396.04C241.026 396.041 241.034 396.041 241.045 396.041Z" fill="black"/>
<path d="M242.217 387.798C242.535 387.798 242.799 387.557 242.813 387.25C242.825 386.934 242.572 386.669 242.244 386.654C242.031 386.645 237.014 386.292 235.299 377.88C233.497 369.047 236.909 327.639 236.943 327.222C236.969 326.906 236.725 326.632 236.397 326.606C236.065 326.589 235.78 326.815 235.755 327.131C235.612 328.84 232.295 369.113 234.13 378.099C236.035 387.449 241.942 387.787 242.192 387.798C242.2 387.798 242.209 387.798 242.217 387.798Z" fill="black"/>
<path d="M299.669 360.141C299.765 360.141 299.863 360.119 299.954 360.072C300.243 359.919 300.349 359.573 300.193 359.295L284.466 331.611C284.306 331.334 283.946 331.232 283.657 331.383C283.367 331.533 283.261 331.881 283.418 332.158L299.144 359.842C299.252 360.033 299.457 360.141 299.669 360.141Z" fill="black"/>
<path d="M192.022 352.89C192.215 352.89 192.407 352.801 192.521 352.632L208.815 328.825C208.995 328.56 208.918 328.205 208.643 328.032C208.371 327.86 207.999 327.93 207.818 328.196L191.523 352.003C191.343 352.267 191.42 352.623 191.695 352.796C191.795 352.86 191.908 352.89 192.022 352.89Z" fill="black"/>
<path d="M249.029 127.866C249.062 127.799 243.748 128.111 241.252 128.256C241.056 128.267 240.859 128.277 240.663 128.288C239.943 128.732 239.154 128.869 238.261 128.917C236.762 128.998 234.872 128.565 233.553 127.75C233.602 127.828 233.651 127.907 233.701 127.985C233.704 128.013 233.718 128.038 233.745 128.056C234.512 129.27 235.39 130.468 236.778 131.288C238.209 132.132 240.005 132.516 241.789 132.548C242.855 132.566 244.483 132.338 245.528 132.145C247.64 131.755 248.613 128.715 249.029 127.866Z" fill="white"/>
<path d="M249.038 127.776C248.48 126.755 248.16 125.759 246.726 125.919C245.619 126.043 244.783 126.836 243.943 127.495C244.032 127.145 243.982 126.793 243.638 126.49C242.944 125.881 241.771 125.981 240.934 126.187C239.828 126.461 238.853 127.04 237.808 127.458C236.455 127.999 235.053 128.081 233.658 127.621C233.535 127.581 233.455 127.706 233.491 127.795C233.491 127.833 233.505 127.87 233.545 127.899C235.824 129.544 239.071 129.654 241.862 129.788C245.268 129.952 247.749 129.709 248.965 128.069C249.037 127.943 249.094 127.881 249.038 127.776Z" fill="#D56C4E"/>
<path d="M290.563 292.159C279.242 276.814 273.451 260.052 264.094 246.793C263.93 246.561 263.927 246.125 264.167 245.927C267.198 243.418 261.836 240.384 263.518 236.942C262.211 235.791 268.579 234.746 267.271 233.596C266.561 232.972 266.99 231.923 267.702 232.547C268.935 233.632 270.737 234.702 271.971 235.786C272.474 235.557 273.21 236.046 272.994 236.687C282.182 244.782 291.344 252.911 300.266 261.276C305.579 266.256 310.81 271.319 315.905 276.503C319.783 280.449 323.737 284.534 326.14 289.509C329.909 297.311 329.44 310.619 315.022 311.393C302.229 312.078 296.588 300.325 290.563 292.159Z" fill="#FFA587"/>
<path d="M168.241 264.984C168.488 264.902 168.659 264.671 168.642 264.408C168.634 264.287 167.95 252.324 172.619 242.407C177.242 232.586 194.484 227.533 194.659 227.482C195.035 227.393 195.154 227.071 195.059 226.77C194.965 226.468 194.632 226.296 194.317 226.386C193.581 226.597 176.377 231.649 171.533 241.936C166.738 252.118 167.444 264.354 167.452 264.476C167.471 264.792 167.753 265.032 168.082 265.014C168.138 265.01 168.191 265 168.241 264.984Z" fill="black"/>
<path d="M162.231 260.82C162.514 260.728 162.685 260.44 162.619 260.153C162.606 260.101 161.46 254.91 165.399 247.652C169.367 240.334 177.813 236.029 177.899 235.987C178.189 235.841 178.303 235.495 178.15 235.216C177.998 234.935 177.639 234.83 177.345 234.975C176.986 235.156 168.48 239.49 164.342 247.123C160.187 254.783 161.404 260.18 161.457 260.407C161.53 260.715 161.849 260.906 162.169 260.837C162.189 260.833 162.21 260.827 162.231 260.82Z" fill="black"/>
<path d="M195.09 220.839C195.09 220.839 179.739 211.008 162.64 233.119C145.542 255.23 129.441 292.246 145.959 306.404C172.557 329.203 185.599 296.02 197.544 280.381C209.488 264.743 225.503 252.278 219.035 236.204C212.567 220.13 195.09 220.839 195.09 220.839Z" fill="#B40057"/>
<path d="M222.695 154.548C222.695 154.548 224.231 141.912 222.695 137.269C221.159 132.626 226.873 135.916 228.292 140.44C229.711 144.964 230.425 152.185 230.425 152.185" fill="#ED835C"/>
<path d="M218.709 167.352C218.709 167.352 173.361 242.173 170.616 252.505C167.87 262.836 179.28 275.934 192.827 269.163C214.362 252.196 231.913 174.541 231.913 174.541L218.709 167.352Z" fill="#F48F73"/>
<path d="M217.57 169.165C217.57 169.165 222.22 153.202 225.768 148.876C229.215 144.673 233.962 141.637 238.949 139.349C243.699 137.169 249.109 135.107 254.314 134.22C255.829 133.962 259.641 133.057 259.49 135.683C259.361 137.896 255.961 138.768 254.35 139.455C252.639 140.182 250.978 141.037 249.271 141.78C248.824 141.974 244.444 144.112 244.33 143.987C244.436 144.104 244.673 143.268 249.232 142.241C251.097 141.821 257.215 140.003 258.437 142.535C259.42 144.575 256.575 146.465 252.483 148.072C255.863 147.795 257.622 148.4 257.829 150.802C258.005 152.868 257.598 154.051 254.355 155.191C254.221 155.237 254.078 155.292 253.944 155.34C254.491 155.391 254.931 154.915 255.422 155.111C256.685 155.612 257.327 156.233 256.556 157.443C254.993 159.893 251.618 160.896 249.246 162.378C244.416 165.396 241 170.672 236.981 174.568C235.122 176.371 233.425 178.236 230.982 179.211C225.969 181.211 217.57 169.165 217.57 169.165Z" fill="#F48F73"/>
<path d="M244.188 160.742C244.254 160.716 244.316 160.681 244.378 160.639C244.385 160.635 245.143 160.101 247.557 158.617C249.503 157.421 252.155 156.653 253.153 156.363C253.424 156.284 253.607 156.228 253.677 156.2C254.134 156.019 254.352 155.517 254.162 155.079C253.974 154.643 253.455 154.435 253 154.61C252.938 154.632 252.813 154.668 252.634 154.719C251.571 155.026 248.749 155.843 246.589 157.171C244.106 158.697 243.343 159.236 243.313 159.259C242.917 159.54 242.833 160.078 243.126 160.459C243.376 160.783 243.818 160.889 244.188 160.742Z" fill="#ED835C"/>
<path d="M242.934 153.222C243 153.195 243.062 153.161 243.124 153.118C243.131 153.114 243.889 152.58 246.303 151.096C248.249 149.9 250.901 149.133 251.899 148.842C252.17 148.764 252.353 148.708 252.424 148.679C252.88 148.498 253.098 147.996 252.908 147.558C252.72 147.122 252.201 146.915 251.746 147.09C251.684 147.111 251.559 147.148 251.38 147.198C250.317 147.505 247.495 148.323 245.335 149.65C242.852 151.177 242.089 151.715 242.059 151.739C241.663 152.019 241.579 152.557 241.872 152.938C242.123 153.262 242.565 153.369 242.934 153.222Z" fill="#ED835C"/>
<path d="M239.191 147.517C239.238 147.498 239.285 147.475 239.329 147.448C239.341 147.44 239.704 147.22 240.801 146.598C241.88 145.985 244.667 144.783 244.695 144.77C245.146 144.576 245.346 144.068 245.144 143.637C244.945 143.212 244.43 143.018 243.985 143.196C243.977 143.198 243.968 143.202 243.961 143.206C243.843 143.258 241.053 144.46 239.889 145.121C238.736 145.776 238.369 146.001 238.369 146.001C237.951 146.256 237.829 146.786 238.095 147.185C238.333 147.541 238.798 147.673 239.191 147.517Z" fill="#ED835C"/>
<path d="M180.235 233.119C180.235 233.119 159.004 231.006 148.506 255.113" stroke="black" stroke-miterlimit="10"/>
<path d="M211.614 242.428C211.614 242.428 216.414 267.695 191.424 297.87" stroke="black" stroke-miterlimit="10"/>
<path d="M167.411 235.429C167.411 235.429 152.021 231.251 143.833 239.977" stroke="black" stroke-miterlimit="10"/>
<path d="M226.837 251.596L252.948 254.65L258.765 208.871L232.654 205.818L226.837 251.596Z" fill="#151730"/>
<path d="M272.839 245.783C272.839 245.783 267.35 247.879 263.216 246.632C259.082 245.385 256.582 243.651 254.261 243.171C251.94 242.691 243.755 244.557 241.835 244.048C239.915 243.539 240.931 241.019 240.931 241.019C240.931 241.019 237.714 241.118 235.261 240.646C232.806 240.175 232.878 237.592 232.878 237.592C232.878 237.592 230.697 235.427 232.592 233.875C234.488 232.324 243.961 229.723 242.988 229.286C242.014 228.849 233.413 232.961 232.967 229.993C232.602 227.561 237.436 225.403 240.559 223.906C243.508 222.494 249.794 221.709 253.962 221.8C258.129 221.893 269.296 234.249 269.296 234.249L272.839 245.783Z" fill="#FFA587"/>
<path d="M252.513 233.87C252.563 233.213 252.047 232.645 251.364 232.599C251.205 232.59 247.444 232.347 243.804 233.004C240.228 233.648 233.543 235.892 233.261 235.987C232.628 236.21 232.274 236.885 232.5 237.505C232.728 238.124 233.436 238.451 234.082 238.233C234.149 238.21 240.874 235.952 244.262 235.342C247.58 234.743 251.155 234.972 251.192 234.975C251.392 234.987 251.585 234.954 251.757 234.885C252.176 234.715 252.481 234.332 252.513 233.87Z" fill="#E27E66"/>
<path d="M252.506 238.649C252.473 237.993 251.889 237.487 251.205 237.521C249.407 237.608 242.451 239.336 241.665 239.533C241.019 239.694 240.605 240.346 240.777 240.985C240.95 241.62 241.627 242.001 242.29 241.835C245.169 241.117 250.169 239.954 251.33 239.898C251.479 239.89 251.619 239.858 251.748 239.806C252.217 239.616 252.534 239.163 252.506 238.649Z" fill="#E27E66"/>
<path d="M250.739 228.297C250.796 227.642 250.292 227.065 249.607 227.009L248.724 226.936C247.729 226.853 244.866 227.554 243.682 227.858C243.009 228.036 242.627 228.68 242.804 229.316C242.981 229.951 243.661 230.327 244.323 230.157C245.976 229.731 248.057 229.289 248.512 229.306L249.396 229.379C249.604 229.396 249.802 229.362 249.982 229.29C250.395 229.124 250.698 228.752 250.739 228.297Z" fill="#E27E66"/>
<path d="M416.027 67.2077C420.106 66.1803 423.183 65.2159 425.02 64.3086C426.856 63.4002 428.376 61.9811 429.534 59.9126C432.505 54.6062 430.587 48.7518 425.43 46.0947C420.555 43.5832 415.143 44.6195 410.095 49.3196L405.36 43.7515C412.373 37.0507 420.941 35.5549 429.191 39.8043C438.287 44.4896 442.119 54.6919 437.285 63.3254C434.214 68.8118 429.092 71.2721 420.221 73.3082C412.929 75.1141 410.14 75.9958 408.479 78.9629C408.177 79.5032 407.811 80.5887 407.336 82.0826L401.053 78.8468C401.052 77.3391 401.526 75.8453 402.331 74.4065C404.6 70.3598 408.641 68.9654 416.027 67.2077ZM399.886 89.1376C403.261 90.8765 404.528 94.6575 402.715 97.8952C400.902 101.133 396.918 102.21 393.542 100.47C390.448 98.8764 388.995 94.999 390.807 91.7613C392.618 88.5235 396.792 87.5444 399.886 89.1376Z" fill="#B40057"/>
<path d="M92.4848 360.539C95.9738 359.66 98.6053 358.835 100.177 358.059C101.748 357.283 103.047 356.068 104.038 354.299C106.579 349.76 104.94 344.752 100.528 342.48C96.3576 340.331 91.7277 341.218 87.4108 345.238L83.3606 340.476C89.3589 334.744 96.6879 333.464 103.746 337.1C111.526 341.108 114.805 349.834 110.67 357.22C108.042 361.913 103.661 364.017 96.0734 365.759C89.836 367.303 87.4508 368.058 86.0299 370.596C85.7714 371.057 85.4585 371.986 85.0523 373.264L79.6787 370.495C79.6777 369.206 80.0829 367.928 80.7723 366.698C82.7102 363.236 86.1664 362.043 92.4848 360.539ZM78.6774 379.297C81.5643 380.784 82.6476 384.019 81.0975 386.788C79.5474 389.558 76.1383 390.479 73.2515 388.991C70.6047 387.628 69.3624 384.311 70.9125 381.542C72.4626 378.773 76.0317 377.934 78.6774 379.297Z" fill="#B40057"/>
<path d="M94.0604 279.102C105.063 279.102 113.983 270.546 113.983 259.991C113.983 249.436 105.063 240.879 94.0604 240.879C83.0574 240.879 74.1377 249.436 74.1377 259.991C74.1377 270.546 83.0574 279.102 94.0604 279.102Z" fill="white"/>
<path d="M405.703 355.573C421.614 355.573 434.511 343.201 434.511 327.939C434.511 312.676 421.614 300.304 405.703 300.304C389.793 300.304 376.896 312.676 376.896 327.939C376.896 343.201 389.793 355.573 405.703 355.573Z" fill="white"/>
<path d="M102.731 75.5343C104.3 71.5585 105.313 68.4438 105.622 66.3811C105.932 64.3194 105.59 62.2075 104.451 59.9952C101.525 54.3218 95.1305 52.329 89.6174 54.9457C84.4049 57.4198 82.0309 62.4958 83.1502 69.5056L75.295 70.0016C73.5879 60.1585 77.474 52.2089 86.2966 48.0215C96.021 43.407 107.462 46.4755 112.223 55.7074C115.248 61.5737 114.323 67.2796 110.734 75.8069C107.902 82.8964 106.988 85.7237 108.626 88.8975C108.923 89.4732 109.669 90.4376 110.714 91.7366L103.997 94.9241C102.65 94.0079 101.606 92.707 100.813 91.1678C98.5806 86.8417 99.7993 82.673 102.731 75.5343ZM112.469 102.156C116.077 100.444 120.225 101.709 122.01 105.171C123.795 108.633 122.327 112.56 118.719 114.274C115.41 115.844 111.064 114.675 109.278 111.213C107.492 107.751 109.16 103.726 112.469 102.156Z" fill="#B40057"/>
<path d="M408.229 325.584C410.191 324.299 411.633 323.228 412.431 322.414C413.226 321.597 413.752 320.569 413.958 319.261C414.488 315.905 412.316 313.145 409.055 312.672C405.973 312.224 403.305 313.756 401.553 317.167L397.943 315.072C400.342 310.242 404.594 307.894 409.811 308.652C415.563 309.488 419.61 314.207 418.748 319.667C418.2 323.136 415.966 325.372 411.659 328.062C408.144 330.344 406.837 331.318 406.542 333.196C406.489 333.537 406.509 334.179 406.551 335.057L402.579 334.481C402.279 333.681 402.237 332.801 402.382 331.892C402.785 329.332 404.655 327.859 408.229 325.584ZM403.987 340.154C406.121 340.464 407.54 342.24 407.217 344.288C406.893 346.335 404.991 347.63 402.856 347.32C400.899 347.036 399.364 345.241 399.687 343.194C400.009 341.146 402.03 339.87 403.987 340.154Z" fill="#17DA17"/>
<path d="M94.061 259.991C94.7955 258.626 95.2941 257.548 95.4942 256.821C95.6942 256.094 95.6634 255.322 95.3495 254.483C94.5452 252.33 92.3375 251.361 90.2447 252.079C88.2668 252.759 87.1957 254.487 87.2942 257.046L84.4545 256.911C84.2678 253.311 86.0067 250.613 89.3542 249.462C93.0433 248.193 97.0165 249.751 98.3245 253.253C99.1555 255.48 98.5769 257.489 96.9191 260.406C95.5957 262.838 95.1464 263.816 95.5957 265.02C95.6778 265.239 95.9045 265.615 96.2225 266.123L93.6742 266.999C93.231 266.616 92.912 266.108 92.6934 265.524C92.082 263.882 92.6996 262.433 94.061 259.991ZM96.4021 269.93C97.7716 269.46 99.2048 270.079 99.6951 271.393C100.186 272.705 99.4889 274.057 98.1194 274.527C96.8637 274.959 95.3556 274.367 94.8652 273.054C94.3738 271.74 95.1464 270.362 96.4021 269.93Z" fill="#17DA17"/>
<path d="M222.872 106.365C222.872 106.365 227.916 104.281 233.559 107.251C239.201 110.221 230.909 114.845 230.909 114.845L222.872 106.365Z" fill="#FFA587"/>
<path d="M249.384 107.454C249.384 107.454 254.428 105.369 260.07 108.34C265.713 111.31 257.421 115.933 257.421 115.933L249.384 107.454Z" fill="#FFA587"/>
<path d="M343.445 76.1591C352.156 76.1591 359.217 69.3854 359.217 61.0295C359.217 52.6736 352.156 45.8998 343.445 45.8998C334.735 45.8998 327.673 52.6736 327.673 61.0295C327.673 69.3854 334.735 76.1591 343.445 76.1591Z" fill="white"/>
<path d="M344.123 59.2985C344.782 58.2219 345.234 57.3687 345.43 56.7871C345.625 56.2045 345.635 55.5776 345.418 54.8838C344.863 53.1035 343.114 52.2247 341.385 52.7207C339.75 53.1901 338.802 54.5462 338.766 56.6276L336.468 56.3993C336.479 53.4696 338.012 51.3548 340.78 50.5596C343.831 49.6838 346.984 51.1137 347.888 54.0099C348.461 55.8502 347.9 57.4582 346.424 59.7551C345.24 61.6722 344.83 62.4476 345.141 63.4436C345.197 63.6246 345.364 63.9376 345.599 64.3637L343.492 64.9689C343.149 64.6393 342.913 64.2141 342.764 63.7309C342.34 62.3738 342.907 61.2254 344.123 59.2985ZM345.571 67.4627C346.703 67.1379 347.839 67.6998 348.177 68.7853C348.516 69.8718 347.889 70.9395 346.756 71.2643C345.718 71.5625 344.521 71.0173 344.182 69.9318C343.844 68.8453 344.533 67.7599 345.571 67.4627Z" fill="#17DA17"/>
<path d="M394.961 214.265C403.672 214.265 410.733 207.491 410.733 199.135C410.733 190.779 403.672 184.006 394.961 184.006C386.251 184.006 379.189 190.779 379.189 199.135C379.189 207.491 386.251 214.265 394.961 214.265Z" fill="white"/>
<path d="M396.785 198.534C398.069 198.335 399.044 198.128 399.635 197.902C400.227 197.676 400.738 197.284 401.158 196.682C402.236 195.138 401.83 193.286 400.329 192.322C398.91 191.411 397.216 191.575 395.521 192.873L394.241 191.027C396.603 189.17 399.28 188.958 401.681 190.499C404.328 192.198 405.187 195.441 403.433 197.954C402.319 199.55 400.67 200.158 397.882 200.529C395.587 200.873 394.703 201.064 394.1 201.928C393.99 202.086 393.844 202.409 393.652 202.853L391.824 201.679C391.871 201.216 392.063 200.771 392.356 200.353C393.178 199.174 394.462 198.862 396.785 198.534ZM391.145 204.804C392.127 205.435 392.398 206.631 391.741 207.574C391.084 208.516 389.826 208.732 388.844 208.102C387.943 207.523 387.619 206.291 388.276 205.349C388.932 204.406 390.245 204.225 391.145 204.804Z" fill="#17DA17"/>
<path d="M76.4082 157.438C85.1189 157.438 92.1802 150.664 92.1802 142.308C92.1802 133.952 85.1189 127.178 76.4082 127.178C67.6976 127.178 60.6362 133.952 60.6362 142.308C60.6362 150.664 67.6976 157.438 76.4082 157.438Z" fill="white"/>
<path d="M76.8761 140.514C77.4024 139.373 77.7512 138.476 77.8774 137.876C78.0015 137.275 77.9369 136.652 77.6394 135.986C76.8772 134.278 75.0357 133.596 73.3768 134.278C71.8072 134.922 71.0275 136.374 71.2378 138.445L68.9276 138.47C68.5911 135.558 69.8632 133.29 72.5182 132.197C75.446 130.995 78.7483 132.07 79.9897 134.849C80.7786 136.615 80.4113 138.274 79.2172 140.718C78.2682 142.752 77.9533 143.567 78.3801 144.522C78.458 144.695 78.6601 144.989 78.9443 145.386L76.9223 146.217C76.5427 145.928 76.2585 145.53 76.0523 145.066C75.4696 143.764 75.8964 142.561 76.8761 140.514ZM79.2839 148.467C80.3703 148.021 81.5644 148.455 82.0302 149.496C82.4949 150.538 81.9994 151.667 80.913 152.114C79.9168 152.523 78.6632 152.113 78.1974 151.07C77.7317 150.03 78.2877 148.876 79.2839 148.467Z" fill="#17DA17"/>
<defs>
<linearGradient id="paint0_linear" x1="72.2907" y1="334.421" x2="560.877" y2="80.5456" gradientUnits="userSpaceOnUse">
<stop offset="0.0064" stop-color="#FFFF00"/>
<stop offset="0.1184" stop-color="#D1F800"/>
<stop offset="0.253" stop-color="#92EF00"/>
<stop offset="0.3861" stop-color="#5EE700"/>
<stop offset="0.5058" stop-color="#35E100"/>
<stop offset="0.6001" stop-color="#18DD00"/>
<stop offset="0.665" stop-color="#06DA00"/>
<stop offset="0.7442" stop-color="#00D900"/>
</linearGradient>
</defs>
</svg>
