<svg width="498" height="424" viewBox="0 0 498 424" fill="none" xmlns="http://www.w3.org/2000/svg">
<path opacity="0.6" d="M116.557 75.8154C46.1313 127.834 24.516 267.934 128.183 335.136C193.418 377.425 170.767 323.556 304.127 385.496C381.746 421.548 442.351 367.471 442.351 289.495C442.351 229.392 326.967 248.318 362.155 105.633C380.407 31.6271 241.416 -16.4089 116.557 75.8154Z" fill="url(#paint0_linear)"/>
<path d="M210.674 404.715C223.02 364.167 232.276 338.855 232.276 338.855L130.329 346.513C130.329 346.513 126.06 371.347 122.647 404.715H210.674Z" fill="#C78F27"/>
<path d="M247.024 404.715C240.332 369.982 233.804 338.744 233.804 338.744L197.621 341.32L184.914 404.928L247.024 404.715Z" fill="#C78F27"/>
<path d="M132.634 235.742C132.594 233.851 132.956 231.865 134.842 230.888C135.666 230.461 136.523 230.355 137.377 230.443C137.861 229.233 138.619 228.172 139.923 227.548C141.132 226.97 142.394 226.932 143.64 227.155C145.457 224.799 148.033 223.532 151.095 225.814C153.587 227.67 155.73 229.986 157.443 232.525C158.729 234.43 161.321 238.069 160.177 240.399C155.936 249.047 152.074 257.911 148.072 266.674C148.923 266.905 148.56 268.179 147.705 267.947C147.633 267.928 147.564 267.905 147.493 267.887C147.178 268.501 146.321 268.127 146.269 267.535C142.351 266.358 138.813 264.682 137.166 260.733C135.17 255.95 136.571 250.721 137.081 245.778C134.227 242.858 130.325 239.164 132.634 235.742Z" fill="#FFA587"/>
<path d="M126.901 288.051C130.494 272.934 138.039 260.295 141.377 247.484C141.435 247.259 141.713 247.018 141.972 247.05C145.247 247.455 148.392 247.207 151.523 246.304C151.54 244.9 151.56 243.495 151.576 242.091C151.585 241.33 152.818 241.329 152.81 242.091C152.794 243.416 152.776 244.742 152.761 246.065C153.185 246.237 153.277 246.939 152.747 247.165C152.622 257.034 152.459 266.906 152.016 276.767C151.752 282.639 151.39 288.508 150.876 294.363C150.485 298.821 150.045 303.398 148.183 307.552C145.262 314.067 136.482 321.116 128.052 313.047C120.57 305.889 124.99 296.096 126.901 288.051Z" fill="#FFA587"/>
<path d="M151.522 232.795C151.796 232.795 152.065 232.668 152.224 232.432C152.478 232.061 152.371 231.561 151.982 231.318L145.18 227.044C144.79 226.8 144.271 226.905 144.018 227.276C143.765 227.648 143.872 228.147 144.261 228.391L151.063 232.664C151.205 232.753 151.365 232.795 151.522 232.795Z" fill="#ED835C"/>
<path d="M145.582 234.955C145.895 234.955 146.195 234.787 146.341 234.496C146.54 234.095 146.363 233.615 145.946 233.424L138.616 230.07C138.193 229.876 137.697 230.048 137.498 230.449C137.299 230.85 137.475 231.331 137.893 231.522L145.222 234.876C145.338 234.93 145.461 234.955 145.582 234.955Z" fill="#ED835C"/>
<path d="M141.417 238.999C141.759 238.999 142.079 238.797 142.205 238.472C142.364 238.055 142.14 237.591 141.705 237.438L134.28 234.819C133.847 234.665 133.363 234.88 133.202 235.297C133.044 235.713 133.267 236.176 133.702 236.329L141.127 238.949C141.222 238.983 141.321 238.999 141.417 238.999Z" fill="#ED835C"/>
<path d="M111.378 243.142C111.416 243.142 111.452 243.139 111.489 243.131C111.792 243.074 111.988 242.792 111.928 242.501C111.813 241.95 109.924 228.306 109.205 223.098C109.161 222.803 108.882 222.599 108.577 222.637C108.269 222.676 108.053 222.946 108.095 223.239C108.2 224.006 110.687 242.013 110.831 242.71C110.884 242.964 111.118 243.142 111.378 243.142Z" fill="black"/>
<path d="M179.866 137.18C179.866 137.18 173.583 135.998 169.27 136.898L167.301 142.717H178.712L179.866 137.18Z" fill="#8BA8AC"/>
<path d="M238.347 347.13C201.111 358.781 163.062 360.931 124.481 354.426C122.904 354.16 122.228 356.475 123.816 356.743C162.845 363.325 201.334 361.236 239.014 349.447C240.539 348.969 239.886 346.647 238.347 347.13Z" fill="#77541B"/>
<path d="M179.932 116.353C179.932 116.353 179.657 140.295 168.668 142.5C159.571 144.326 151.336 149.645 151.336 149.645C151.336 149.645 175.411 209.009 193.779 209.106C212.145 209.204 220.835 163.768 225.05 155.163L211.447 150.415L214.875 134.486L179.932 116.353Z" fill="#F39E7E"/>
<path d="M219.344 164.323C219.344 164.323 190.312 180.298 168.42 156.196C168.42 156.196 162.603 202.773 184.106 210.634C205.61 218.496 226.026 176.091 219.344 164.323Z" fill="#FDEEF6"/>
<path d="M160.183 157.39C166.999 166.551 178.862 170.767 189.92 173.225C202.988 176.13 218.061 175.184 226.433 163.782C227.358 162.522 229.456 163.829 228.525 165.098C220.655 175.818 206.808 178.517 193.923 176.44C181.041 174.366 166.225 169.616 158.326 158.999C157.401 157.753 159.248 156.132 160.183 157.39Z" fill="#B4AFAC"/>
<path d="M220.972 184.108L241.21 338.17C241.21 338.17 205.174 364.137 125.132 338.254C109.516 333.203 149.468 186.524 149.468 186.524L220.972 184.108Z" fill="#FDEEF6"/>
<path d="M208.767 158.991C209.326 156.197 210.358 153.526 210.358 153.526C210.358 153.526 210.918 153.379 211.722 152.394C212.18 151.833 211.515 149.646 211.515 149.646L233.14 156.811C233.14 156.811 252.585 198.73 248.965 251.144C248.3 260.782 261.868 378.062 256.269 377.046C240.752 374.228 241.209 377.055 223.553 371.579C222.429 366.154 228.229 303.5 224.577 247.88C221.541 201.684 208.876 160.577 208.767 158.991Z" fill="#21A19A"/>
<path d="M121.259 294.016C114.183 227.58 93.133 175.182 115.411 161.976C130.042 153.302 168.425 142.046 168.425 142.046L187.066 149.754C187.066 149.754 187.066 155.717 187.443 158.255C187.683 161.753 185.282 372.132 181.555 379.846C182.569 386.936 109.805 384.826 105.578 379.231C101.336 373.616 122.786 308.353 121.259 294.016Z" fill="#21A19A"/>
<path d="M296.124 221.456C297.601 223.649 320.966 253.433 320.196 255.936C316.925 266.554 299.391 276.107 286.155 279.44C283.393 280.135 249.551 251.551 235.8 220.135C222.244 189.165 228.757 155.363 228.757 155.363C228.757 155.363 235.661 156.415 240.966 159.373C249.001 163.853 286.693 207.458 296.124 221.456Z" fill="#21A19A"/>
<path d="M119.189 268.789C119.189 268.789 86.2646 267.912 73.2139 259.22C73.2139 259.22 90.648 181.899 112.004 165.154C127.97 152.636 153.961 188.724 153.193 203.726C152.427 218.727 119.189 268.789 119.189 268.789Z" fill="#21A19A"/>
<path d="M187.065 149.755L180.465 160.962C180.465 160.962 166.689 150.675 166.146 142.596L169.27 136.899C169.27 136.898 173.25 143.5 187.065 149.755Z" fill="#31C2A7"/>
<path d="M210.193 153.714L212.027 162.73C212.027 162.73 214.187 154.821 213.827 150.863L212.03 147.546C212.031 147.547 211.035 151.964 210.193 153.714Z" fill="#31C2A7"/>
<path d="M107.662 173.696C108.449 172.406 110.679 173.372 109.884 174.676C94.6054 199.741 87.7114 228.235 77.4634 255.304C76.9262 256.722 74.7067 255.736 75.2418 254.325C85.4897 227.256 92.3816 198.761 107.662 173.696Z" fill="#107F8C"/>
<path d="M143.742 211.106C135.505 232.152 127.482 253.276 119.674 274.472C119.149 275.895 116.93 274.907 117.453 273.493C125.26 252.297 133.285 231.173 141.521 210.127C142.074 208.713 144.292 209.698 143.742 211.106Z" fill="#107F8C"/>
<path d="M148.943 204.205C149.738 202.92 151.968 203.886 151.165 205.185C148.658 209.237 146.475 213.428 144.605 217.784C144.005 219.18 141.784 218.199 142.383 216.805C144.254 212.449 146.437 208.257 148.943 204.205Z" fill="#107F8C"/>
<path d="M179.016 200.218C179.442 199.587 180.24 199.299 180.997 199.494C181.645 199.661 182.186 200.111 182.432 200.71C182.55 200.997 182.596 201.291 182.595 201.586C182.621 201.623 182.65 201.654 182.675 201.697C183.353 202.863 182.489 204.181 181.193 204.412C179.628 204.691 178.611 203.339 178.58 201.971C178.567 201.391 178.683 200.713 179.016 200.218Z" fill="#31C2A7"/>
<path d="M180.172 166.14C180.597 165.508 181.396 165.222 182.153 165.417C182.8 165.582 183.341 166.033 183.587 166.631C183.705 166.919 183.751 167.212 183.75 167.507C183.777 167.544 183.806 167.577 183.83 167.619C184.508 168.784 183.644 170.102 182.348 170.333C180.784 170.613 179.767 169.26 179.736 167.892C179.722 167.312 179.839 166.634 180.172 166.14Z" fill="#31C2A7"/>
<path d="M177.183 228.366C177.609 227.735 178.408 227.447 179.165 227.642C179.812 227.809 180.353 228.259 180.599 228.857C180.717 229.145 180.763 229.439 180.762 229.734C180.789 229.77 180.818 229.802 180.842 229.845C181.518 231.009 180.655 232.327 179.359 232.559C177.794 232.839 176.778 231.487 176.748 230.117C176.734 229.536 176.849 228.859 177.183 228.366Z" fill="#31C2A7"/>
<path d="M176.488 259.118C176.914 258.487 177.713 258.2 178.472 258.395C179.119 258.561 179.66 259.012 179.906 259.609C180.024 259.897 180.07 260.191 180.069 260.486C180.096 260.523 180.125 260.554 180.149 260.598C180.826 261.761 179.962 263.079 178.666 263.311C177.102 263.591 176.085 262.239 176.054 260.87C176.04 260.29 176.156 259.612 176.488 259.118Z" fill="#31C2A7"/>
<path d="M239.496 80.0859C239.496 80.0859 241.578 92.1986 241.044 97.5615C240.51 102.924 242.249 103.697 243.185 110.046C244.258 117.319 238.07 142.74 231.243 146.701C221.493 152.356 204.901 143.552 201.143 142.441C197.386 141.328 187.095 136.475 181.872 126.32C176.651 116.165 170.129 101.254 171.383 85.7126C172.638 70.1711 187.886 56.4467 206.451 56.3184C225.015 56.19 237.682 72.8064 239.496 80.0859Z" fill="#F39E7E"/>
<path d="M239.017 101.704C238.796 100.771 238.242 99.9515 237.36 99.5799C236.366 99.161 235.206 99.5501 234.629 100.447C233.977 101.463 233.998 102.755 234.382 103.915C234.36 104.886 234.596 105.83 235.379 106.473C236.21 107.156 237.432 107.198 238.244 106.509C239.451 105.487 239.361 103.168 239.017 101.704Z" fill="#6E3F30"/>
<path d="M214.833 104.125C214.667 103.181 214.162 102.332 213.302 101.913C212.335 101.442 211.152 101.767 210.524 102.632C209.813 103.61 209.758 104.902 210.073 106.082C209.996 107.051 210.174 108.005 210.92 108.691C211.71 109.417 212.927 109.525 213.779 108.882C215.045 107.927 215.092 105.607 214.833 104.125Z" fill="#6E3F30"/>
<path d="M235.407 111.397C234.07 108.865 232.611 106.386 231.214 103.885C230.453 102.524 228.319 103.774 229.077 105.135C230.473 107.633 231.97 110.102 233.27 112.646C235.333 116.682 229.403 116.802 226.645 116.858C225.035 116.891 225.079 119.29 226.692 119.258C229.699 119.198 235.28 118.997 236.332 115.569C236.783 114.095 236.091 112.693 235.407 111.397Z" fill="#CE6D46"/>
<path d="M162.259 70.3712C164.911 61.8772 171.459 51.0806 188.332 46.3809C189.92 45.9385 191.662 45.7259 193.399 45.3636C195.475 43.0917 197.372 41.8516 200.286 40.6485C204.298 38.9926 212.113 37.4558 217.563 40.1064C220.027 41.3044 221.711 43.8904 221.735 43.9387C227.76 44.7024 234.034 45.1223 238.256 49.937C240.878 52.9285 241.318 56.3737 241.238 58.6969C243.639 59.3528 245.966 60.2059 248.055 61.5487C251.576 63.8113 254.527 67.1087 255.636 71.0888C256.909 75.6591 256.355 80.6083 252.914 84.2096C250.089 87.1672 240.738 88.203 240.738 88.203C240.738 88.203 239.59 81.1052 239.639 80.944C234.839 81.0015 232.601 79.3918 225.932 80.6607C218.828 82.0127 210.256 75.0411 204.781 74.1377C199.308 73.2343 196.151 79.0612 195.059 81.8987C194.212 84.0997 194.312 96.1385 193.91 101.683C191.446 102.714 188.511 102.637 186.255 101.528C186.195 99.1033 186.107 97.0932 185.958 95.8849C185.813 94.69 185.233 93.5761 184.07 93.1234C181.891 92.2744 178.218 92.5352 176.952 95.0257C174.567 99.7192 174.575 104.979 176.779 108.239C178.384 110.612 181.274 110.613 181.883 112.52C182.901 115.704 179.568 121.646 179.568 121.646C179.568 121.646 170.883 109.384 166.443 97.9248C162.211 87.0142 159.574 78.9719 162.259 70.3712Z" fill="#522C26"/>
<path d="M179.864 97.2392C180.919 96.0679 182.815 97.6334 181.762 98.8037C179.84 100.94 180.073 104.242 182.292 106.099C183.508 107.116 181.876 108.936 180.661 107.92C177.421 105.209 177.052 100.364 179.864 97.2392Z" fill="#CE6D46"/>
<path d="M197.807 66.3916C201.273 64.0192 204.06 60.8388 208.021 59.1665C211.887 57.5342 216.161 57.3525 220.22 58.3709C221.732 58.7507 221.308 61.0626 219.781 60.6787C215.663 59.6459 211.399 59.9518 207.648 61.9722C204.522 63.6558 202.128 66.3167 199.222 68.3052C197.937 69.1839 196.524 67.2693 197.807 66.3916Z" fill="#73453E"/>
<path d="M192.604 66.0013C195.209 63.4102 197.668 60.6979 199.984 57.8666C200.957 56.6768 202.829 58.1849 201.859 59.3726C199.543 62.205 197.083 64.9162 194.479 67.5073C193.39 68.5893 191.509 67.0905 192.604 66.0013Z" fill="#73453E"/>
<path d="M203.606 93.6555C206.047 91.7173 208.706 90.1374 211.772 89.2832C213.904 88.6888 217.979 87.9692 219.238 90.3735C220.369 92.5303 217.963 93.7858 216.168 94.3895C212.935 95.4756 209.623 96.072 206.591 97.691C203.712 99.2278 201.011 95.7158 203.606 93.6555Z" fill="#522C26"/>
<path d="M234.319 89.6148C237.503 88.7381 240.536 91.3569 242.163 93.7294C242.709 94.527 242.633 95.5967 241.876 96.2455C241.194 96.8307 239.947 97.0134 239.239 96.3174C238.507 95.5967 237.725 95.0167 236.786 94.5691C235.775 94.0866 234.536 93.6986 233.728 92.9173C232.753 91.976 232.726 90.0532 234.319 89.6148Z" fill="#522C26"/>
<path d="M193.255 135.665C195.882 139.283 200.222 141.455 204.277 143.325C208.23 145.148 212.362 146.531 216.608 147.569C218.131 147.941 217.309 150.151 215.792 149.78C210.977 148.603 206.337 146.966 201.908 144.8C197.991 142.884 193.975 140.738 191.411 137.207C190.521 135.979 192.356 134.426 193.255 135.665Z" fill="#CE6D46"/>
<path d="M235.396 122.643C233.525 121.487 229.984 121.204 227.804 120.98C224.653 120.655 221.449 120.598 218.285 120.629C215.614 120.555 212.965 120.731 210.505 121.792C205.644 124.131 204.417 129.51 201.778 128.932C199.473 128.427 200.961 122.981 199.297 118.865C198.131 115.982 196.019 113.059 195.02 110.125C193.6 105.954 193.994 102.609 194.083 98.2219C191.671 99.4559 188.582 99.5852 186.171 100.819C186.013 112.054 185.852 120.921 189.353 131.072C192.256 139.49 199.927 145.859 207.612 150.786C210.815 152.841 219.004 154.369 222.809 154.617C229.474 155.053 233.842 151.945 237.104 145.812C239.7 140.929 241.183 127.848 241.183 127.848C241.151 128.115 239.122 124.945 235.396 122.643Z" fill="#522C26"/>
<path d="M218.676 130.043C221.654 133.117 225.944 134.216 230.106 132.838C231.597 132.345 232.385 134.565 230.898 135.059C225.987 136.685 220.598 135.459 217.048 131.795C215.987 130.698 217.603 128.934 218.676 130.043Z" fill="#73453E"/>
<path d="M118.746 263.197C116.856 266.364 108.75 292.409 108.75 292.409C108.75 292.409 77.4368 318.833 69.2372 295.904C68.3896 293.532 73.7704 265.031 76.052 260.842C87.8945 258.735 107.186 266.287 118.746 263.197Z" fill="#F39E7E"/>
<path d="M126.362 253.41L76.5232 239L70.4971 263.367C70.4971 263.367 74.5048 273.284 90.1989 268.788C105.023 263.196 119.8 274.242 119.8 274.242L126.362 253.41Z" fill="#31C2A7"/>
<path d="M282.082 277.397C282.082 277.397 289.19 285.391 301.246 293.244C313.301 301.096 328.908 265.758 328.908 265.758L314.249 249.255L282.082 277.397Z" fill="#F19984"/>
<path d="M304.208 230.084C304.208 230.084 297.013 230.014 286.297 238.491C275.582 246.968 263.93 261.788 263.93 261.788L282.947 281.821C282.947 281.821 301.541 259.58 321.222 253.569L304.208 230.084Z" fill="#31C2A7"/>
<path d="M244.838 248.415C244.116 248.415 243.526 247.86 243.512 247.164C243.172 228.333 238.562 202.416 238.515 202.157C238.391 201.464 238.876 200.806 239.598 200.687C240.318 200.565 241.008 201.033 241.13 201.725C241.179 201.987 245.824 228.092 246.166 247.12C246.18 247.822 245.594 248.402 244.861 248.414C244.854 248.415 244.846 248.415 244.838 248.415Z" fill="#107F8C"/>
<path d="M244.838 203.216C244.186 203.216 243.616 202.754 243.525 202.116C243.479 201.798 242.411 194.258 243.571 190.617C243.785 189.943 244.53 189.567 245.229 189.772C245.929 189.977 246.325 190.689 246.109 191.362C245.29 193.94 245.864 199.748 246.155 201.768C246.256 202.464 245.749 203.108 245.023 203.205C244.96 203.213 244.898 203.216 244.838 203.216Z" fill="#107F8C"/>
<path d="M294.156 226.56C293.757 226.56 293.363 226.389 293.102 226.061L275.937 204.57C275.49 204.011 275.601 203.212 276.183 202.785C276.767 202.357 277.598 202.463 278.043 203.021L295.209 224.512C295.656 225.071 295.545 225.87 294.963 226.298C294.721 226.475 294.438 226.56 294.156 226.56Z" fill="#107F8C"/>
<path d="M294.343 272.393C296.313 260.813 300.502 250.089 304.554 239.073C307.62 230.82 313.917 216.625 319.532 204.348C322.08 198.786 324.48 193.596 326.383 189.53C328.826 184.308 330.438 180.91 330.438 180.91L343.775 196.466C343.439 198.218 341.788 206.813 341.296 209.502C341.3 209.524 341.3 209.524 341.3 209.524C340.586 213.673 339.724 218.779 338.765 224.392C335.678 242.741 331.649 266.311 328.322 278.209C327.024 282.84 326.183 288.283 322.428 291.788C316.123 297.651 305.047 297.668 298.864 291.536C293.525 286.239 293.138 279.352 294.343 272.393Z" fill="#F19984"/>
<path d="M329.933 181.782C329.933 181.782 337.456 159.547 342.887 157.197C348.319 154.848 357.051 152.522 361.752 152.805C366.735 153.105 374.353 153.362 375.285 156.759C376.421 160.905 362.71 160.088 361.681 161.184C360.654 162.28 374.635 160.641 378.032 161.671C381.43 162.701 379.816 166.715 379.816 166.715C379.816 166.715 381.408 170.077 378.452 172.01C375.496 173.942 371.204 175.532 371.204 175.532C371.204 175.532 374.007 178.307 371.773 180.002C369.542 181.697 357.683 183.617 354.905 185.489C352.131 187.363 349.845 190.982 345.126 194.833C340.409 198.684 331.967 198.861 331.967 198.861L329.933 181.782Z" fill="#F19984"/>
<path d="M344.719 163.25L351.923 160.756" stroke="#E27E66" stroke-width="2.1427" stroke-miterlimit="10" stroke-linecap="round"/>
<path d="M378.791 126.218L343.772 130.096L351.162 191.491L386.18 187.612L378.791 126.218Z" fill="#151730"/>
<path d="M382.79 183.373L353.468 186.621L346.968 132.633L376.29 129.384L382.79 183.373Z" fill="url(#paint1_linear)"/>
<path d="M343.633 175.61C343.633 175.61 364.535 168.896 366.93 161.657C369.323 154.418 346.906 162.622 346.906 162.622" fill="#F19984"/>
<path d="M79.214 277.256C84.4525 271.502 89.7209 269.345 89.7209 269.345C89.7209 269.345 177.979 267.219 188.074 269.715C195.577 271.57 187.755 283.964 187.755 283.964C187.755 283.964 99.1951 308.304 74.2559 304.399C71.6779 303.995 61.7607 297.367 79.214 277.256Z" fill="#F39E7E"/>
<path d="M183.767 270.785C183.767 270.785 205.757 264.85 210.493 267.693C215.227 270.535 221.659 275.86 223.874 279.524C226.221 283.408 229.973 289.241 227.695 291.703C224.915 294.71 218.449 284.027 217.024 283.826C215.598 283.628 224.201 293.236 225.131 296.313C226.061 299.391 221.956 300.271 221.956 300.271C221.956 300.271 220.052 303.212 216.942 302.003C213.834 300.796 210.31 298.411 210.31 298.411C210.31 298.411 209.509 301.95 206.971 301.162C204.43 300.375 196.703 292.499 193.737 291.396C190.771 290.292 186.642 290.465 181.055 288.939C175.47 287.411 170.937 281.185 170.937 281.185L183.767 270.785Z" fill="#F39E7E"/>
<path d="M202.904 283.892C203.044 284.092 203.234 284.266 203.468 284.392C203.512 284.415 207.688 286.688 210.941 289.702C214.265 292.78 220.056 300.062 220.113 300.135C220.67 300.835 221.713 300.97 222.443 300.438C223.173 299.904 223.296 298.898 222.758 298.202C222.516 297.895 216.757 290.657 213.251 287.409C209.682 284.102 205.285 281.714 205.1 281.612C204.301 281.182 203.287 281.452 202.838 282.222C202.519 282.763 202.566 283.407 202.904 283.892Z" fill="#E27E66"/>
<path d="M199.134 289.407C199.239 289.557 199.37 289.692 199.531 289.805C200.788 290.689 205.492 295.524 208.161 298.364C208.775 299.019 209.825 299.07 210.507 298.482C211.19 297.89 211.228 296.866 210.628 296.23C209.9 295.454 203.443 288.603 201.498 287.234C200.757 286.712 199.716 286.866 199.174 287.578C198.748 288.132 198.756 288.864 199.134 289.407Z" fill="#E27E66"/>
<path d="M209.187 278.888C209.332 279.096 209.528 279.273 209.774 279.402L210.82 279.945C211.343 280.247 213.331 282.214 214.854 283.858C215.465 284.516 216.515 284.577 217.2 283.992C217.887 283.405 217.954 282.415 217.338 281.738C216.247 280.56 213.581 277.752 212.404 277.141L211.358 276.599C210.55 276.178 209.542 276.466 209.103 277.24C208.801 277.779 208.854 278.409 209.187 278.888Z" fill="#E27E66"/>
<path d="M169.666 268.59C168.487 269.968 167.55 271.14 166.088 273.077C161.644 279.01 159.987 286.898 159.114 291.292C164.534 290.107 172.879 287.88 172.898 287.868C173.8 285.047 175.788 280.888 179.208 275.667C181.917 271.525 185.045 269.268 185.045 269.268C180.69 268.849 175.6 268.746 169.666 268.59Z" fill="#522C26"/>
<path d="M172.838 269.867C168.664 270.031 165.962 271.922 166.055 274.087C166.148 276.254 169.002 277.876 173.176 277.712C177.35 277.548 180.657 275.657 180.564 273.49C180.471 271.323 177.013 269.701 172.838 269.867Z" fill="#F4E6D7"/>
<path d="M415.743 45.2888H298.415C291.352 45.2888 285.573 50.8324 285.573 57.6078V81.0643C285.573 87.8398 291.352 93.3833 298.415 93.3833H301.949C301.949 93.3833 299.808 126.439 262.353 126.439C262.353 126.439 309.261 131.212 318.001 93.3833H415.743C422.806 93.3833 428.585 87.8398 428.585 81.0643V57.6078C428.585 50.8324 422.806 45.2888 415.743 45.2888Z" fill="white"/>
<path d="M371.731 367.121H303.28C297.87 367.121 293.445 362.876 293.445 357.686V339.722C293.445 334.533 297.87 330.288 303.28 330.288H305.986C305.986 330.288 304.347 304.972 275.662 304.972C275.662 304.972 311.587 301.317 318.279 330.288H371.73C377.14 330.288 381.565 334.533 381.565 339.722V357.686C381.566 362.875 377.14 367.121 371.731 367.121Z" fill="#D8005D"/>
<path d="M63.3064 80.9771H110.332C117.395 80.9771 123.174 86.5206 123.174 93.2961V116.753C123.174 123.528 117.395 129.072 110.332 129.072H106.798C106.798 129.072 108.938 162.128 146.394 162.128C146.394 162.128 99.4855 166.9 90.7455 129.072H63.3064C56.2433 129.072 50.4644 123.528 50.4644 116.753V93.2961C50.4644 86.5206 56.2433 80.9771 63.3064 80.9771Z" fill="#D8005D"/>
<path d="M345.146 73.0334C347.739 73.0334 349.841 71.017 349.841 68.5298C349.841 66.0425 347.739 64.0261 345.146 64.0261C342.553 64.0261 340.451 66.0425 340.451 68.5298C340.451 71.017 342.553 73.0334 345.146 73.0334Z" fill="#17DA17"/>
<path d="M363.554 73.0334C366.147 73.0334 368.249 71.017 368.249 68.5298C368.249 66.0425 366.147 64.0261 363.554 64.0261C360.961 64.0261 358.859 66.0425 358.859 68.5298C358.859 71.017 360.961 73.0334 363.554 73.0334Z" fill="#17DA17"/>
<path d="M381.961 73.0334C384.554 73.0334 386.656 71.017 386.656 68.5298C386.656 66.0425 384.554 64.0261 381.961 64.0261C379.368 64.0261 377.266 66.0425 377.266 68.5298C377.266 71.017 379.368 73.0334 381.961 73.0334Z" fill="#17DA17"/>
<path d="M68.0605 110.006C70.6534 110.006 72.7554 107.99 72.7554 105.502C72.7554 103.015 70.6534 100.999 68.0605 100.999C65.4677 100.999 63.3657 103.015 63.3657 105.502C63.3657 107.99 65.4677 110.006 68.0605 110.006Z" fill="white"/>
<path d="M86.4687 110.006C89.0616 110.006 91.1636 107.99 91.1636 105.502C91.1636 103.015 89.0616 100.999 86.4687 100.999C83.8759 100.999 81.7739 103.015 81.7739 105.502C81.7739 107.99 83.8759 110.006 86.4687 110.006Z" fill="white"/>
<path d="M104.877 110.006C107.47 110.006 109.572 107.99 109.572 105.502C109.572 103.015 107.47 100.999 104.877 100.999C102.284 100.999 100.182 103.015 100.182 105.502C100.182 107.99 102.284 110.006 104.877 110.006Z" fill="white"/>
<path d="M321.064 354.24C323.657 354.24 325.759 352.224 325.759 349.737C325.759 347.249 323.657 345.233 321.064 345.233C318.471 345.233 316.369 347.249 316.369 349.737C316.369 352.224 318.471 354.24 321.064 354.24Z" fill="white"/>
<path d="M339.473 354.24C342.066 354.24 344.167 352.224 344.167 349.736C344.167 347.249 342.066 345.233 339.473 345.233C336.88 345.233 334.778 347.249 334.778 349.736C334.778 352.224 336.88 354.24 339.473 354.24Z" fill="white"/>
<path d="M357.881 354.24C360.474 354.24 362.576 352.224 362.576 349.736C362.576 347.249 360.474 345.233 357.881 345.233C355.288 345.233 353.186 347.249 353.186 349.736C353.186 352.224 355.288 354.24 357.881 354.24Z" fill="white"/>
<defs>
<linearGradient id="paint0_linear" x1="57.0318" y1="211.022" x2="442.351" y2="211.022" gradientUnits="userSpaceOnUse">
<stop offset="0.0064" stop-color="#FFFF00"/>
<stop offset="0.1184" stop-color="#D1F800"/>
<stop offset="0.253" stop-color="#92EF00"/>
<stop offset="0.3861" stop-color="#5EE700"/>
<stop offset="0.5058" stop-color="#35E100"/>
<stop offset="0.6001" stop-color="#18DD00"/>
<stop offset="0.665" stop-color="#06DA00"/>
<stop offset="0.7442" stop-color="#00D900"/>
</linearGradient>
<linearGradient id="paint1_linear" x1="371.311" y1="183.071" x2="355.647" y2="116.725" gradientUnits="userSpaceOnUse">
<stop offset="0.0064" stop-color="#FFFF00"/>
<stop offset="0.1184" stop-color="#D1F800"/>
<stop offset="0.253" stop-color="#92EF00"/>
<stop offset="0.3861" stop-color="#5EE700"/>
<stop offset="0.5058" stop-color="#35E100"/>
<stop offset="0.6001" stop-color="#18DD00"/>
<stop offset="0.665" stop-color="#06DA00"/>
<stop offset="0.7442" stop-color="#00D900"/>
</linearGradient>
</defs>
</svg>
