<svg width="498" height="424" viewBox="0 0 498 424" fill="none" xmlns="http://www.w3.org/2000/svg">
<path opacity="0.6" d="M357.522 392.729C315.101 406.952 137.411 386.78 83.0826 323.644C33.4351 265.947 88.3667 182.649 61.0448 124.087C24.0087 44.7022 123.154 -0.394505 196.062 42.659C268.969 85.7125 312.888 135.806 356.742 149.09C437.307 173.496 481.293 351.23 357.522 392.729Z" fill="url(#paint0_linear)"/>
<path d="M367.495 214.16C402.5 214.16 430.877 210.453 430.877 205.881C430.877 201.308 402.5 197.601 367.495 197.601C332.491 197.601 304.114 201.308 304.114 205.881C304.114 210.453 332.491 214.16 367.495 214.16Z" fill="white"/>
<path d="M406.512 207.215C403.029 207.389 400.454 207.122 397.319 205.606C397.293 205.593 397.382 204.63 397.389 204.605C397.833 202.599 399.465 201.394 402.429 200.485C405.74 201.056 406.915 204.323 406.512 207.215Z" fill="#E7FFFF"/>
<path d="M418.568 188.292C418.748 189.899 420.942 195.129 420.971 195.942C420.997 196.693 420.496 197.97 417.542 198.067C414.696 198.16 413.122 196.746 413.122 196.746L410.721 189.504C411.032 188.76 418.416 186.924 418.568 188.292Z" fill="#F39E7E"/>
<path d="M421.192 203.986C421.135 204.349 417.705 205.265 417.608 205.289C414.212 206.134 410.36 207.02 406.513 207.213C406.916 204.322 405.74 201.055 402.43 200.484C403.88 200.04 405.383 199.707 406.667 199.464C406.743 199.449 409.399 198.744 410.539 198.168C412.73 197.062 412.503 195.457 412.991 195.398C413.375 195.302 414.281 195.369 414.939 195.906C415.144 196.073 415.091 197.48 415.091 197.48C415.091 197.48 415.945 196.135 416.326 196.105C417.017 196.05 417.622 196.251 418.479 196.214C420.119 196.142 421 195.579 421.033 195.698C421.768 198.367 421.595 201.424 421.192 203.986Z" fill="#005E7F"/>
<path d="M406.995 207.187C406.734 207.204 406.472 207.217 406.211 207.228C406.638 204.106 405.318 201.351 402.194 200.559C402.619 200.428 402.74 200.383 403.259 200.244C406.028 201.398 407.36 204.197 406.995 207.187Z" fill="#107F8C"/>
<path d="M421.493 201.537C420.555 200.252 418.494 201.104 417.493 202.131C416.412 203.239 415.527 204.624 415.25 206.13C415.22 206.294 415.103 206.388 414.97 206.425C414.953 206.428 414.935 206.432 414.917 206.435C414.686 206.47 414.43 206.333 414.481 206.051C414.854 204.028 416.259 201.727 418.141 200.653C419.204 200.047 420.59 199.975 421.54 200.568C421.528 200.9 421.502 201.207 421.493 201.537Z" fill="#107F8C"/>
<path d="M420.917 204.659C419.626 205.193 418.505 205.555 417.151 205.916C417.116 205.948 410.47 207.633 406.521 207.806C401.947 208.007 399.752 207.616 397.485 206.427C397.092 206.22 397.319 205.606 397.319 205.606C399.009 206.487 403.606 207.259 407.076 207.118C410.354 206.985 416.763 205.325 416.829 205.308C418.222 204.944 419.789 204.364 421.193 203.909C421.358 203.856 421.325 204.49 420.917 204.659Z" fill="#E7FFFF"/>
<path d="M409.382 201.671C408.663 201.099 407.945 200.526 407.226 199.954C406.883 199.68 407.279 199.129 407.624 199.405C408.343 199.977 409.061 200.55 409.78 201.122C410.125 201.395 409.727 201.946 409.382 201.671Z" fill="#E7FFFF"/>
<path d="M411.173 200.864C410.506 200.288 409.8 199.767 409.048 199.299C408.671 199.065 409.123 198.554 409.496 198.785C410.247 199.253 410.955 199.773 411.62 200.349C411.954 200.638 411.507 201.152 411.173 200.864Z" fill="#E7FFFF"/>
<path d="M412.595 199.579C411.999 199.299 411.426 198.983 410.874 198.63C410.5 198.391 410.887 197.833 411.26 198.072C411.812 198.425 412.385 198.741 412.981 199.021C413.383 199.21 412.992 199.766 412.595 199.579Z" fill="#E7FFFF"/>
<path d="M413.817 198.55C413.221 198.27 412.648 197.954 412.096 197.601C411.722 197.362 412.109 196.804 412.482 197.043C413.034 197.396 413.607 197.712 414.204 197.992C414.606 198.182 414.214 198.737 413.817 198.55Z" fill="#E7FFFF"/>
<path d="M376.006 57.562C377.367 56.8031 379.139 56.533 379.139 56.533C379.139 56.533 380.811 65.2084 377.332 73.1565C373.804 81.2185 365.118 88.5552 364.409 88.3761C361.013 87.5202 356.512 85.0694 355.673 82.3445C355.475 81.7023 361.472 74.0579 361.85 73.4959C364.271 69.9023 373.944 58.7117 376.006 57.562Z" fill="#21A19A"/>
<path d="M357.199 80.6289L351.771 86.0322C351.771 86.0322 356.622 94.487 359.717 92.4725C362.811 90.457 365.455 87.8508 365.455 87.8508L357.199 80.6289Z" fill="#F19984"/>
<path d="M355.409 81.7359C360.46 83.2784 365.233 88.9865 365.233 88.9865L370.113 83.8454C370.113 83.8454 367.123 80.042 364.374 77.8672C361.624 75.6914 359.777 75.7092 359.777 75.7092L355.409 81.7359Z" fill="#31C2A7"/>
<path d="M362.149 74.7367C361.999 74.6269 361.971 74.4221 362.086 74.2786L366.491 68.7625C366.606 68.619 366.819 68.5923 366.969 68.7021C367.118 68.812 367.147 69.0168 367.032 69.1602L362.627 74.6764C362.56 74.7605 362.458 74.804 362.356 74.804C362.283 74.805 362.211 74.7822 362.149 74.7367Z" fill="#107F8C"/>
<path d="M362.655 89.2131C362.169 91.3523 359.75 92.784 357.549 92.3209C356.236 92.0429 355.286 90.9634 354.35 90.1214C351.949 87.9565 347.752 83.3348 344.495 79.7303C343.495 78.6291 342.589 77.6268 341.848 76.8144C341.848 76.8144 341.848 76.8144 341.846 76.8085C341.36 76.2861 340.948 75.8487 340.628 75.5094L340.19 69.1621C340.19 69.1621 341.021 69.6944 342.289 70.5176C343.278 71.1588 344.532 71.98 345.871 72.8636C348.825 74.8158 352.196 77.0974 354.028 78.5014C356.464 80.3804 358.887 82.1782 360.947 84.4499C362.19 85.8124 363.075 87.3648 362.655 89.2131Z" fill="#F19984"/>
<path d="M343.698 75.647C343.698 75.647 341.648 76.3228 340.156 75.7964C338.663 75.27 337.778 74.5932 336.936 74.3775C336.095 74.1628 333.061 74.709 332.367 74.4903C331.673 74.2717 332.091 73.3653 332.091 73.3653C332.091 73.3653 330.91 73.3475 330.02 73.1338C329.128 72.9201 329.202 71.9752 329.202 71.9752C329.202 71.9752 328.441 71.145 329.165 70.6088C329.888 70.0715 333.406 69.277 333.057 69.1008C332.709 68.9247 329.481 70.2872 329.372 69.1919C329.282 68.2945 331.093 67.585 332.265 67.0883C333.371 66.6203 335.689 66.4373 337.214 66.5412C338.739 66.6451 342.606 71.3597 342.606 71.3597L343.698 75.647Z" fill="#F19984"/>
<path d="M335.819 68.155C335.819 68.155 329.662 68.0858 330.907 69.6253C332.153 71.1649 337.808 71.0046 337.808 71.0046" fill="#F19984"/>
<path d="M335.37 68.1674L337.336 68.155" stroke="#E27E66" stroke-width="2.1427" stroke-miterlimit="10" stroke-linecap="round"/>
<path d="M334.57 68.155C334.57 68.155 329.029 68.0858 330.15 69.6263C331.271 71.1669 336.36 71.0056 336.36 71.0056" fill="#CD8272"/>
<path d="M333.28 55.3684C333.288 55.2368 333.297 55.1062 333.309 54.9746C333.405 53.8882 334.047 52.3685 333.807 51.3038C333.795 51.2494 333.782 51.195 333.77 51.1406C333.145 48.3761 332.284 45.5601 332.019 42.7333C331.799 40.3626 332.41 38.1245 334.135 36.3682C334.702 35.7884 335.339 35.3056 336.025 34.9068C336.728 34.4952 337.484 34.1756 338.271 33.9332C339.053 33.6898 339.871 33.5246 340.694 33.4276C343.728 32.3907 346.824 32.921 349.435 34.3953C351.66 35.1888 353.683 36.3623 355.071 38.3293C355.607 39.0862 356.015 39.9342 356.219 40.8296C356.45 41.8388 356.189 42.8451 356.361 43.8444C356.543 44.916 357.499 45.5868 358.062 46.4704C358.562 47.254 358.645 48.1594 358.489 49.0519C358.318 50.0354 357.725 51.2078 357.338 52.3724C357.433 52.7909 357.555 53.2035 357.716 53.6062C358.386 55.2824 359.825 56.1808 361.002 57.4819C362.25 58.8651 362.19 60.8193 363.602 62.0739C363.643 62.1105 363.686 62.1501 363.727 62.1896C364.286 62.713 364.842 63.3948 365.102 64.0646C364.786 64.1824 364.488 64.3318 364.209 64.5198C363.255 65.1678 362.777 65.8812 361.603 66.276C360.647 66.5976 359.653 66.8321 358.681 67.1052C356.634 67.6731 355.066 68.5567 353.216 69.5323C353.006 69.2038 352.816 68.8624 352.641 68.5161C352.584 68.4073 352.532 68.3004 352.478 68.1906C352.246 67.7157 352.033 67.2338 351.817 66.7549C351.205 65.4033 350.59 64.0527 349.981 62.7002C349.916 62.5587 349.854 62.4182 349.789 62.2767C349.642 61.9502 349.49 61.6227 349.342 61.2942C349.193 60.9657 349.042 60.6372 348.889 60.3127C347.985 60.659 347.031 60.8865 346.127 61.0082C344.965 61.1646 343.535 61.3357 342.366 60.9855C342.364 60.9885 342.365 60.9914 342.365 60.9944C342.348 61.0478 342.298 61.0983 342.24 61.1092C340.811 61.3536 339.206 61.5356 337.884 61.0696C337.224 61.7612 336.232 62.0947 335.282 61.4733C333.521 60.3146 333.168 57.2385 333.28 55.3684Z" fill="#6A433E"/>
<path d="M345.453 56.388L345.614 64.0166L341.04 65.8589L336.557 63.9582L337.309 50.304L344.378 53.8056L345.453 56.388Z" fill="#FFA587"/>
<path d="M350.826 54.8013L351.611 54.6094C351.793 54.5649 351.904 54.3868 351.857 54.2116L350.623 49.5662C350.576 49.3911 350.391 49.2852 350.208 49.3297L349.423 49.5217C349.241 49.5662 349.13 49.7443 349.177 49.9195L350.411 54.5649C350.458 54.74 350.643 54.8459 350.826 54.8013Z" fill="#8F0051"/>
<path d="M350.846 44.0337C350.846 44.0337 350.764 51.3199 350.429 52.4598C350.095 53.6006 347.009 58.0105 344.623 57.5761C342.238 57.1428 337.25 53.3849 337.25 53.3849L334.924 46.2124C334.924 46.2124 335.229 42.3408 335.673 41.7936C336.116 41.2474 341.664 36.3477 342.479 36.5506C343.294 36.7524 345.416 37.2194 346.665 38.3019C347.914 39.3833 350.846 44.0337 350.846 44.0337Z" fill="#FFA587"/>
<path d="M343.509 47.5204C343.567 46.9257 343.375 46.4211 343.08 46.3954C342.785 46.3687 342.5 46.8298 342.442 47.4254C342.384 48.0201 342.576 48.5247 342.871 48.5504C343.166 48.5761 343.452 48.115 343.509 47.5204Z" fill="#36303A"/>
<path d="M349.614 47.8186C349.556 48.4133 349.27 48.8744 348.975 48.8487C348.68 48.8219 348.489 48.3183 348.546 47.7237C348.604 47.129 348.89 46.6679 349.185 46.6937C349.48 46.7194 349.672 47.224 349.614 47.8186Z" fill="#36303A"/>
<path d="M348.107 45.0425C349.055 44.8238 350.547 44.9851 351.107 45.8598C351.137 45.9063 351.144 45.9716 351.113 46.02C350.865 46.4178 350.04 45.9983 349.687 45.9449C349.142 45.8627 348.631 45.8914 348.087 45.8855C347.895 45.8835 347.696 45.9043 347.555 45.744C347.214 45.3601 347.809 45.1108 348.107 45.0425Z" fill="#6A433E"/>
<path d="M343.334 45.7433C343.18 45.8918 342.984 45.8561 342.793 45.8433C342.251 45.8067 341.745 45.7404 341.196 45.78C340.841 45.8057 339.985 46.1609 339.771 45.7453C339.744 45.6949 339.757 45.6306 339.79 45.587C340.419 44.7589 341.918 44.7124 342.844 45.0023C343.135 45.0933 343.706 45.3862 343.334 45.7433Z" fill="#6A433E"/>
<path d="M334.672 48.0872C334.353 46.3141 334.137 44.5104 334.536 42.764C334.447 42.5701 334.214 42.4721 334.096 42.293C333.979 42.1139 334.156 41.7805 334.337 41.9042C334.253 40.5358 334.171 39.1476 334.472 37.8079C334.773 36.4682 335.512 35.1592 336.733 34.4487C337.866 33.7898 339.297 33.7195 340.579 34.0401C341.054 33.3119 342.112 33.211 343.003 33.297C344.653 33.4563 346.261 33.9916 347.664 34.8396C347.991 35.0375 348.365 35.2443 348.624 35.5223C348.872 35.7894 349.242 35.9616 349.53 36.1941C350.165 36.7086 350.697 37.3339 351.128 38.0147C351.542 38.6667 351.867 39.3702 352.112 40.0965C352.727 41.92 352.869 43.8544 353.007 45.7669C353.115 47.2659 353.223 48.7649 353.331 50.2649C353.363 50.7052 353.393 51.1564 353.259 51.5779C353.125 51.9994 352.787 52.3912 352.334 52.4694C352.469 52.6257 352.296 52.9077 352.089 52.8731C351.354 51.2138 351.251 49.3725 350.964 47.5905C350.676 45.8095 350.305 44.917 348.929 43.6891C346.798 41.7884 343.233 41.8705 341.305 39.7798C340.892 40.9088 339.73 41.5856 338.808 42.392C338.013 43.0875 337.185 42.9678 336.719 43.8989C336.352 43.6515 335.804 43.8494 335.555 44.2076C335.305 44.5658 335.283 45.0229 335.299 45.4533C335.327 46.1558 335.442 46.8543 335.641 47.5311C335.788 48.0357 335.987 48.5344 336.315 48.9529C336.478 49.1607 336.671 49.3467 336.81 49.5694C336.965 49.8167 337.046 50.0997 337.12 50.3797C337.315 51.1307 337.19 54.4156 336.832 54.5264C335.629 52.9859 335.231 51.0189 334.867 49.1261C334.801 48.7828 334.735 48.4355 334.672 48.0872Z" fill="#6A433E"/>
<path d="M345.594 57.8181C346.055 57.7053 346.25 57.5648 346.28 57.542C346.373 57.4708 346.387 57.3412 346.313 57.2521C346.239 57.1641 346.105 57.1492 346.013 57.2185C346.001 57.2264 345.637 57.4748 344.654 57.5371C343.914 57.5836 340.632 55.4088 338.737 54.0266C338.642 53.9573 338.506 53.9761 338.435 54.0661C338.362 54.1572 338.381 54.2868 338.476 54.356C338.991 54.731 343.538 58.0219 344.682 57.9497C345.062 57.925 345.362 57.8745 345.594 57.8181Z" fill="#ED835C"/>
<path d="M345.726 51.6938C345.889 51.6543 346.039 51.58 346.151 51.4534C346.526 51.0309 346.143 48.2753 345.96 47.1107C345.943 46.9979 345.832 46.9198 345.716 46.9376C345.599 46.9544 345.518 47.0593 345.535 47.1721C345.806 48.9006 345.991 50.928 345.82 51.1902C345.614 51.4217 344.961 51.2891 344.748 51.2238C344.636 51.1892 344.514 51.2486 344.477 51.3574C344.441 51.4663 344.503 51.582 344.615 51.6176C344.698 51.6424 345.263 51.8076 345.726 51.6938Z" fill="#FFA587"/>
<path d="M335.916 49.0953C336.057 49.6276 336.453 49.9907 336.8 49.9056C337.146 49.8205 337.312 49.3209 337.17 48.7876C337.029 48.2552 336.632 47.8921 336.286 47.9772C335.94 48.0623 335.774 48.563 335.916 49.0953Z" fill="white"/>
<path d="M337.783 55.1805L338.568 54.9885C338.75 54.944 338.861 54.7659 338.814 54.5908L337.579 49.9454C337.532 49.7702 337.347 49.6644 337.164 49.7089L336.379 49.9008C336.197 49.9454 336.086 50.1235 336.133 50.2986L337.368 54.944C337.415 55.1201 337.6 55.225 337.783 55.1805Z" fill="#8F0051"/>
<path d="M341.147 39.2751C341.221 39.2573 341.268 39.185 341.252 39.1128C341.243 39.0742 341.034 38.154 340.6 37.686C340.431 37.504 340.268 37.4139 340.124 37.3348C339.901 37.2121 339.725 37.1161 339.577 36.6778C339.471 36.3642 339.384 36.0436 339.308 35.7606C339.193 35.3332 339.093 34.9641 338.957 34.7227C338.716 34.2942 338.134 34.1043 338.109 34.0964C338.034 34.0726 337.952 34.1112 337.928 34.1834C337.902 34.2557 337.943 34.3338 338.018 34.3576C338.024 34.3595 338.518 34.5218 338.704 34.8533C338.824 35.066 338.919 35.4192 339.029 35.8289C339.107 36.1158 339.193 36.4403 339.303 36.7619C339.485 37.3002 339.737 37.4387 339.979 37.5723C340.116 37.6475 340.246 37.7187 340.383 37.8681C340.767 38.2817 340.967 39.1603 340.969 39.1692C340.986 39.2434 341.062 39.2909 341.14 39.2751C341.144 39.2761 341.146 39.2761 341.147 39.2751Z" fill="#36303A"/>
<path d="M360.73 66.9793C360.731 66.9793 360.732 66.9793 360.732 66.9784C360.808 66.9586 360.853 66.8824 360.832 66.8092C360.809 66.73 360.266 64.856 359.172 63.4748C358.828 63.0404 358.486 62.6397 358.125 62.2152C357.35 61.3059 356.548 60.3659 355.669 59.0134C355.005 57.9903 354.957 57.1859 354.906 56.335C354.861 55.5889 354.814 54.8162 354.316 53.9128C353.806 52.9867 353.32 52.4742 352.928 52.0626C352.518 51.6302 352.222 51.3185 352.068 50.7367C351.951 50.3004 351.962 49.6869 351.974 48.9775C351.994 47.7832 352.019 46.2971 351.47 44.7744C350.585 42.3196 347.898 41.5448 347.784 41.5132C347.708 41.4924 347.628 41.5339 347.607 41.6072C347.585 41.6804 347.628 41.7566 347.705 41.7773C347.731 41.7853 350.365 42.5461 351.2 44.8644C351.732 46.3416 351.708 47.801 351.688 48.9735C351.676 49.7027 351.665 50.333 351.79 50.806C351.962 51.4541 352.296 51.8043 352.716 52.2486C353.096 52.6493 353.569 53.148 354.062 54.0424C354.532 54.8924 354.574 55.6018 354.619 56.3518C354.671 57.2007 354.724 58.0774 355.426 59.1598C356.315 60.5282 357.123 61.4751 357.903 62.3903C358.263 62.8118 358.603 63.2106 358.944 63.642C360.004 64.9807 360.55 66.8636 360.555 66.8824C360.577 66.9546 360.654 66.9981 360.73 66.9793Z" fill="#36303A"/>
<path d="M353.442 46.6991C353.504 46.6843 353.549 46.6299 353.549 46.5655C353.549 46.4537 353.525 43.7882 351.185 41.0296C348.838 38.2612 345.104 38.1068 345.066 38.1048C344.985 38.1019 344.92 38.1622 344.917 38.2374C344.914 38.3136 344.976 38.3769 345.055 38.3799C345.091 38.3809 348.698 38.5343 350.961 41.2028C353.233 43.8812 353.26 46.5378 353.26 46.5646C353.26 46.6407 353.324 46.7021 353.404 46.7021C353.418 46.7031 353.431 46.7021 353.442 46.6991Z" fill="#36303A"/>
<path d="M336.382 43.1555C336.408 43.1486 336.433 43.1348 336.453 43.114C336.46 43.1061 337.185 42.3323 338.471 41.5922C339.814 40.8185 340.444 39.6252 340.47 39.5748C340.505 39.5065 340.476 39.4244 340.406 39.3897C340.335 39.3561 340.25 39.3828 340.213 39.4511C340.207 39.463 339.592 40.6246 338.324 41.3548C336.999 42.1186 336.269 42.8973 336.239 42.93C336.187 42.9864 336.192 43.0734 336.252 43.1239C336.288 43.1565 336.336 43.1664 336.382 43.1555Z" fill="#36303A"/>
<path d="M349.3 60.0663C349.305 60.0643 349.311 60.0633 349.316 60.0613C349.39 60.0346 349.427 59.9555 349.399 59.8842C349.394 59.8704 348.837 58.4485 348.624 57.4057C348.411 56.3648 348.377 56.0462 348.377 56.0432C348.37 55.968 348.299 55.9126 348.22 55.9195C348.139 55.9284 348.084 55.9937 348.091 56.0699C348.092 56.0828 348.126 56.3974 348.342 57.4581C348.56 58.5237 349.106 59.9218 349.13 59.9812C349.157 60.0475 349.231 60.0831 349.3 60.0663Z" fill="#36303A"/>
<path d="M345.838 48.2749C346.108 50.0035 346.263 51.0641 345.891 51.2917C345.685 51.5232 345.032 51.3907 344.82 51.3254" stroke="#ED835C" stroke-opacity="0.2" stroke-width="1.5775" stroke-miterlimit="10" stroke-linecap="round"/>
<path d="M352.862 197.985C352.862 197.985 351.682 197.632 350.982 196.499C350.281 195.367 349.912 194.305 349.912 194.305C349.912 194.305 350.06 194.128 349.395 194.66C348.731 195.19 347.846 196.677 347.883 197.773C347.92 198.87 347.071 199.754 348.842 199.966C350.612 200.179 352.752 199.364 352.862 199.259C352.972 199.153 352.862 197.985 352.862 197.985Z" fill="#FFA587"/>
<path d="M351.755 184.99L350.243 198.76H345.716L345.019 183.763L351.755 184.99Z" fill="#FFA587"/>
<path d="M330.073 183.099L327.079 197.828L322.529 196.704L323.509 181.202L330.073 183.099Z" fill="#FFA587"/>
<path d="M349.839 63.0595C349.839 63.0595 347.979 62.5638 346.954 61.4675C345.93 60.3702 345.134 59.5213 345.134 59.5213L337.631 58.6724C337.631 58.6724 335.971 59.7697 334.681 60.4771C333.39 61.1846 332.579 61.2904 332.579 61.2904C332.579 61.2904 334.822 64.5101 335.673 64.793C336.524 65.076 338.737 66.0308 340.839 66.0308C342.942 66.0308 343.827 66.385 345.855 65.3936C347.884 64.4032 349.839 63.0595 349.839 63.0595Z" fill="#FFA587"/>
<path d="M316.82 93.8178C316.88 90.4013 317.93 87.0609 318.179 83.6533C318.427 80.2704 318.521 78.0096 318.74 74.6247C318.934 71.6326 319.32 70.008 320.698 67.2969C321.262 65.2339 323.139 63.9071 325.13 63.1452C326.568 62.5951 328.054 62.1736 329.548 61.7857C330.298 61.5908 331.05 61.4048 331.801 61.2148C332.349 61.0753 332.977 60.5865 333.552 60.8358C334.025 61.0407 334.318 61.5492 334.705 61.8668C335.223 62.2923 335.8 62.6505 336.383 62.9889C337.347 63.5469 338.391 63.9773 339.475 64.2652C341.64 64.8411 343.957 64.8451 346.122 64.2702C346.81 64.0871 347.474 63.8309 348.127 63.5588C348.381 63.4529 348.654 63.3688 348.897 63.2372C349.137 63.1066 349.304 62.9127 349.541 62.7742C350.056 62.4714 350.406 62.8345 350.874 63.0235C351.371 63.2234 351.868 63.4222 352.365 63.6231C353.384 64.0367 354.4 64.4582 355.398 64.9183C357.358 65.8197 358.873 67.1643 360.219 68.7761C361.415 70.2078 361.769 72.0304 362.419 73.7797C363.102 75.6141 363.944 76.3295 364.392 78.2351C364.786 79.9073 364.273 83.1586 364.968 84.7971C365.681 86.4772 366.8 89.6266 366.924 91.4659C367.038 93.1381 366.783 94.923 366.004 96.4369C365.208 97.9853 363.784 99.0035 361.962 99.0955C361.735 99.1074 361.51 99.1034 361.288 99.0896C361.676 99.1123 362.485 102.183 362.6 102.579C363.274 104.906 363.982 107.825 363.525 110.243C362.67 114.775 358.044 116.611 357.801 116.05C357.463 115.268 358.109 104.888 357.025 102.358C353.445 100.733 349.32 100.689 345.412 100.748C341.541 100.805 337.674 101.046 333.826 101.458C332.602 104.949 331.377 108.44 330.152 111.931L329.117 114.882C328.893 115.52 328.727 116.408 328.144 116.856C328.028 116.946 327.893 117.004 327.754 117.037C327.741 117.113 327.677 117.177 327.582 117.14C327.521 117.116 327.462 117.09 327.403 117.065C327.124 117.044 326.87 116.923 326.735 116.731C323.059 117.151 322.354 113.286 322.1 110.39C321.803 107.001 323.039 101.826 323.598 98.4712C322.692 98.6522 321.761 98.7235 320.825 98.6681C319.696 98.6008 318.417 98.3762 317.645 97.5055C316.792 96.5378 316.799 95.0121 316.82 93.8178Z" fill="#B40057"/>
<path d="M346.194 60.8987C346.218 60.7087 346.258 60.5306 346.308 60.3624C346.203 59.6589 346.15 58.9465 346.102 58.242C346.09 58.0629 346.379 58.0056 346.392 58.1876C346.429 58.7209 346.47 59.2651 346.535 59.8073C347.75 57.5554 351.652 57.7839 353.838 58.5775C356.077 59.3908 357.957 60.9729 359.091 62.9696C360.718 64.2252 362.268 65.6925 362.586 67.7525C362.758 68.8567 362.408 70.239 361.55 70.9435C360.456 70.7772 359.451 70.3597 358.329 70.3003C357.14 70.238 356.072 70.4804 354.943 70.8059C354.489 70.9365 353.938 71.1137 353.395 71.1839C353.205 71.08 353.03 70.9455 352.876 70.7723C352.152 69.961 352.199 68.7726 351.743 67.8406C351.198 66.7275 350.079 66.0368 349.112 65.2918C348.118 64.5279 347.328 63.6671 346.863 62.5144C346.667 62.0286 346.528 61.527 346.424 61.0174C346.333 61.0778 346.177 61.0323 346.194 60.8987Z" fill="#6A433E"/>
<path d="M331.353 185.696C327.819 185.638 325.775 185.374 322.318 184.616C321.796 184.501 321.273 184.384 320.751 184.265C320.995 174.251 321.079 165.035 321.908 153.322C322.618 143.29 322.437 133.778 323.333 123.759C324.439 111.377 327.242 100.481 327.242 100.481C336.882 98.6543 347.503 97.7777 356.967 100.764C356.967 100.764 359.713 111.129 359.708 115.36C359.703 121.079 359.592 126.797 359.373 132.512C358.937 143.942 357.932 155.324 356.648 166.694C356.237 170.342 354.506 184.037 354.436 184.501C354.391 184.79 354.42 185.542 354.214 185.756C354.196 185.774 354.173 185.79 354.152 185.807C351.968 186.129 349.743 186.132 347.543 185.97C347.063 185.935 342.789 185.538 342.766 185.271C341.393 169.58 341.584 146.113 341.881 130.37C339.687 142.045 332.461 181.688 331.353 185.696Z" fill="#015E7E"/>
<path d="M333.413 99.3262C333.413 99.3262 329.824 116.591 326.332 116.78C322.841 116.969 322.345 112.275 322.345 112.275C322.345 112.275 324.759 101.497 324.808 101.355C324.857 101.213 326.677 98.3833 328.102 98.3833C329.528 98.3833 333.413 99.3262 333.413 99.3262Z" fill="#B40057"/>
<path d="M345.465 202.052C345.514 202.459 345.612 202.736 345.786 202.762C346.538 202.876 362.286 202.926 362.759 202.736C362.937 202.665 363.028 202.388 363.053 202.052C363.098 201.492 362.965 200.758 362.759 200.521C362.43 200.139 354.924 198.187 353.84 197.576C353.235 197.234 352.207 196.458 351.767 196.458C351.326 196.458 350.564 196.807 349.67 197.29C347.635 198.389 345.692 197.755 345.692 197.755C345.692 197.755 345.297 200.668 345.465 202.052Z" fill="#69004A"/>
<path d="M345.465 202.052C345.514 202.46 345.611 202.737 345.787 202.763C346.539 202.876 362.287 202.927 362.759 202.737C362.937 202.666 363.028 202.389 363.053 202.052H345.465Z" fill="#FDEEF6"/>
<path d="M316.582 205.843C316.593 206.087 316.614 206.271 316.635 206.313C316.744 206.537 320.927 206.823 322.367 206.393C323.807 205.965 323.503 205 324.176 204.623C324.849 204.249 327.007 202.516 326.992 202.131C326.983 201.959 326.981 201.729 326.983 201.466C326.986 200.097 327.078 197.826 327.078 197.826C327.078 197.826 326.417 197.467 326.155 197.141C325.895 196.819 325.302 196.267 324.337 196.19C323.373 196.111 322.417 196.405 322.124 196.957C322.03 197.138 321.743 197.894 321.49 198.457C321.271 198.938 318.5 202.087 317.889 202.749C317.278 203.411 316.803 204.111 316.661 204.651C316.576 204.978 316.567 205.475 316.582 205.843Z" fill="#69004A"/>
<path d="M316.582 205.844C316.593 206.087 316.614 206.271 316.634 206.314C316.744 206.537 319.32 207.266 322.007 206.615C323.864 206.165 323.504 205 324.176 204.624C324.849 204.25 327.006 202.516 326.992 202.132C326.983 201.96 326.981 201.73 326.983 201.467C326.759 201.841 324.985 203.373 324.418 203.68C323.692 204.068 323.41 204.328 323.212 204.729C323.014 205.128 322.684 205.647 321.861 205.861C321.037 206.07 319.374 206.196 317.77 206.054C317.245 206.008 316.732 205.874 316.582 205.844Z" fill="#FDEEF6"/>
<path d="M333.756 81.0422C333.756 81.0422 321.248 89.4535 319.645 91.5095C318.044 93.5646 316.978 97.7648 321.538 98.6275C326.099 99.4893 336.002 83.8087 336.002 83.8087L333.756 81.0422Z" fill="#FFA587"/>
<path d="M361.487 76.7513C361.477 76.2665 361.57 75.7559 362.053 75.5056C362.265 75.3957 362.485 75.369 362.704 75.3908C362.828 75.0801 363.023 74.808 363.358 74.6477C363.669 74.4993 363.992 74.4894 364.312 74.5468C364.778 73.9423 365.44 73.6167 366.226 74.2025C366.865 74.6794 367.415 75.2731 367.854 75.9251C368.184 76.4139 368.85 77.3479 368.556 77.9455C367.467 80.1648 366.476 82.4396 365.449 84.6886C365.668 84.7479 365.574 85.0744 365.355 85.0151C365.336 85.0101 365.319 85.0042 365.3 84.9992C365.219 85.1566 364.999 85.0606 364.986 84.9092C363.98 84.6064 363.072 84.177 362.65 83.1638C362.137 81.9369 362.497 80.5943 362.628 79.3258C361.897 78.5778 360.895 77.6299 361.487 76.7513Z" fill="#FFA587"/>
<path d="M360.016 90.1757C360.938 86.2961 362.874 83.0527 363.731 79.7648C363.746 79.7074 363.817 79.6451 363.884 79.653C364.725 79.7569 365.531 79.6936 366.335 79.4611C366.339 79.1009 366.344 78.7407 366.348 78.3796C366.35 78.1837 366.667 78.1837 366.665 78.3796C366.661 78.719 366.656 79.0593 366.652 79.3997C366.761 79.4432 366.784 79.6243 366.649 79.6817C366.617 82.2147 366.575 84.7476 366.462 87.2786C366.393 88.7855 366.301 90.2915 366.169 91.7944C366.069 92.9382 365.955 94.1137 365.478 95.1793C364.728 96.8514 362.475 98.6601 360.311 96.5892C358.392 94.7528 359.525 92.2397 360.016 90.1757Z" fill="#FFA587"/>
<path d="M366.335 75.9943C366.405 75.9943 366.474 75.9616 366.515 75.9013C366.58 75.8063 366.552 75.6777 366.453 75.6153L364.708 74.5181C364.608 74.4557 364.475 74.4824 364.41 74.5774C364.345 74.6724 364.373 74.801 364.472 74.8634L366.217 75.9606C366.253 75.9844 366.295 75.9943 366.335 75.9943Z" fill="#ED835C"/>
<path d="M364.81 76.5494C364.891 76.5494 364.968 76.5069 365.005 76.4317C365.057 76.3288 365.011 76.2061 364.904 76.1566L363.023 75.2958C362.914 75.2463 362.786 75.2899 362.736 75.3928C362.684 75.4957 362.731 75.6194 362.837 75.6678L364.718 76.5287C364.747 76.5425 364.779 76.5494 364.81 76.5494Z" fill="#ED835C"/>
<path d="M363.742 77.5873C363.829 77.5873 363.912 77.5358 363.944 77.4517C363.985 77.3449 363.927 77.2262 363.816 77.1866L361.91 76.5147C361.799 76.4752 361.675 76.5306 361.634 76.6374C361.593 76.7443 361.65 76.863 361.761 76.9026L363.667 77.5744C363.691 77.5833 363.717 77.5873 363.742 77.5873Z" fill="#ED835C"/>
<path d="M328.853 83.9455C328.927 83.9455 328.99 83.8911 328.996 83.8198C329 83.7773 329.377 79.4831 328.81 76.3199C328.512 74.6566 322.4 67.783 322.139 67.4921C322.087 67.4337 321.996 67.4278 321.937 67.4772C321.876 67.5267 321.869 67.6138 321.921 67.6712C321.984 67.7424 328.242 74.7783 328.526 76.3674C329.088 79.496 328.713 83.7545 328.709 83.7971C328.702 83.8723 328.761 83.9395 328.84 83.9455C328.845 83.9455 328.849 83.9455 328.853 83.9455Z" fill="black"/>
<path d="M318.322 91.8747C318.385 91.8747 318.443 91.8351 318.461 91.7737C318.469 91.746 319.286 88.9697 321.156 87.061C323.007 85.1702 327.345 85.3107 327.389 85.3117C327.482 85.3196 327.535 85.2553 327.538 85.1801C327.541 85.1039 327.479 85.0406 327.4 85.0366C327.215 85.0297 322.886 84.8922 320.946 86.873C319.027 88.8331 318.191 91.6728 318.183 91.7005C318.161 91.7737 318.207 91.8499 318.283 91.8697C318.298 91.8727 318.31 91.8747 318.322 91.8747Z" fill="black"/>
<path d="M317.294 90.4769C317.366 90.4769 317.428 90.4245 317.436 90.3542C317.437 90.3414 317.599 89.0739 319.086 87.7154C320.585 86.346 322.858 85.9977 322.882 85.9947C322.96 85.9829 323.014 85.9126 323.002 85.8384C322.989 85.7632 322.916 85.7118 322.838 85.7226C322.741 85.7365 320.452 86.0877 318.888 87.5165C317.319 88.9502 317.157 90.2701 317.151 90.3255C317.143 90.4007 317.2 90.469 317.278 90.4769C317.283 90.4769 317.288 90.4769 317.294 90.4769Z" fill="black"/>
<path d="M361.086 99.2046C361.134 99.2046 361.183 99.1809 361.209 99.1373C361.25 99.072 361.227 98.9879 361.159 98.9483C361.137 98.9365 358.951 97.668 358.238 94.9649C357.512 92.2113 357.175 89.421 357.172 89.3933C357.163 89.3181 357.092 89.2627 357.013 89.2726C356.935 89.2815 356.878 89.3498 356.887 89.425C356.89 89.4537 357.228 92.2617 357.959 95.0331C358.703 97.8511 360.919 99.1334 361.012 99.1868C361.035 99.1987 361.061 99.2046 361.086 99.2046Z" fill="black"/>
<path d="M356.032 78.6498C356.042 78.6498 356.051 78.6488 356.06 78.6468C356.139 78.632 356.188 78.5598 356.173 78.4855C356.143 78.3441 355.658 74.8424 355.473 73.5057C355.462 73.4305 355.391 73.3781 355.312 73.387C355.234 73.3969 355.178 73.4661 355.189 73.5413C355.216 73.7382 355.854 78.3589 355.891 78.538C355.906 78.6043 355.965 78.6498 356.032 78.6498Z" fill="black"/>
<path d="M327.88 105.538C327.941 105.538 327.999 105.5 328.017 105.439C328.027 105.406 329.066 102.069 330.165 101.115C331.271 100.158 333.046 99.6749 333.065 99.6699C333.141 99.6491 333.185 99.5739 333.165 99.5007C333.143 99.4275 333.064 99.385 332.987 99.4047C332.912 99.4245 331.129 99.9103 329.973 100.911C328.813 101.916 327.785 105.221 327.741 105.361C327.719 105.434 327.762 105.511 327.838 105.532C327.852 105.536 327.866 105.538 327.88 105.538Z" fill="black"/>
<path d="M357.029 103.132C357.095 103.132 357.154 103.088 357.169 103.024C357.187 102.95 357.137 102.875 357.061 102.86C357.007 102.848 351.707 101.72 345.666 101.265C340.396 100.868 333.748 101.681 333.682 101.69C333.604 101.7 333.548 101.769 333.558 101.844C333.569 101.92 333.639 101.972 333.719 101.963C333.785 101.955 340.403 101.145 345.645 101.54C351.665 101.994 356.946 103.117 356.999 103.129C357.008 103.131 357.019 103.132 357.029 103.132Z" fill="black"/>
<path d="M344.642 100.921C345.018 100.921 345.311 100.484 345.311 99.9251C345.311 99.367 345.018 98.9297 344.642 98.9297C344.267 98.9297 343.973 99.367 343.973 99.9251C343.973 100.483 344.267 100.921 344.642 100.921ZM344.642 99.2048C344.823 99.2048 345.024 99.5006 345.024 99.9251C345.024 100.35 344.823 100.645 344.642 100.645C344.461 100.645 344.259 100.35 344.259 99.9251C344.261 99.5006 344.462 99.2048 344.642 99.2048Z" fill="black"/>
<path d="M343.64 121.428C343.716 121.428 343.779 121.371 343.783 121.298L344.785 101.592C344.789 101.516 344.728 101.451 344.649 101.447C344.558 101.444 344.502 101.502 344.498 101.578L343.497 121.284C343.493 121.36 343.553 121.424 343.633 121.428C343.636 121.428 343.638 121.428 343.64 121.428Z" fill="black"/>
<path d="M343.924 115.886C344 115.886 344.064 115.828 344.067 115.755C344.07 115.679 344.009 115.615 343.93 115.611C343.878 115.609 342.671 115.524 342.258 113.499C341.824 111.373 342.645 101.404 342.654 101.304C342.66 101.228 342.601 101.162 342.523 101.156C342.443 101.152 342.374 101.206 342.368 101.282C342.334 101.694 341.536 111.388 341.977 113.552C342.436 115.803 343.858 115.885 343.919 115.887C343.92 115.886 343.922 115.886 343.924 115.886Z" fill="black"/>
<path d="M357.754 109.228C357.776 109.228 357.8 109.223 357.823 109.212C357.893 109.175 357.918 109.092 357.881 109.025L354.094 102.361C354.056 102.293 353.969 102.27 353.899 102.306C353.829 102.343 353.804 102.426 353.841 102.493L357.628 109.157C357.654 109.203 357.703 109.228 357.754 109.228Z" fill="black"/>
<path d="M331.84 107.483C331.886 107.483 331.933 107.461 331.96 107.421L335.882 101.69C335.925 101.626 335.907 101.54 335.841 101.499C335.775 101.457 335.686 101.474 335.642 101.538L331.719 107.269C331.676 107.333 331.694 107.419 331.76 107.46C331.785 107.476 331.812 107.483 331.84 107.483Z" fill="black"/>
<path d="M346.54 53.3124C346.549 53.2965 345.269 53.3717 344.668 53.4064C344.621 53.4093 344.574 53.4113 344.526 53.4143C344.353 53.5211 344.163 53.5538 343.948 53.5657C343.587 53.5855 343.132 53.4806 342.814 53.2847C342.825 53.3035 342.838 53.3223 342.849 53.3411C342.85 53.348 342.853 53.3539 342.859 53.3579C343.044 53.6498 343.255 53.9387 343.59 54.1356C343.934 54.3384 344.366 54.4314 344.795 54.4393C345.052 54.4443 345.444 54.3889 345.696 54.3424C346.206 54.2484 346.44 53.5172 346.54 53.3124Z" fill="white"/>
<path d="M346.543 53.2904C346.409 53.0451 346.331 52.8046 345.986 52.8432C345.72 52.8729 345.518 53.0639 345.316 53.2232C345.338 53.1391 345.326 53.054 345.243 52.9807C345.076 52.8343 344.794 52.8581 344.593 52.9075C344.326 52.9738 344.091 53.1123 343.839 53.2133C343.514 53.3439 343.176 53.3637 342.84 53.2528C342.81 53.2429 342.792 53.2736 342.8 53.2944C342.8 53.3033 342.803 53.3122 342.813 53.3191C343.362 53.7149 344.144 53.7416 344.815 53.7743C345.635 53.8139 346.232 53.7555 346.525 53.3607C346.543 53.331 346.556 53.3162 346.543 53.2904Z" fill="#D56C4E"/>
<path d="M333.327 81.3452C333.327 81.3452 335.894 78.2057 337.098 77.5566C338.269 76.9263 339.616 76.6701 340.944 76.6018C342.21 76.5365 343.612 76.5553 344.854 76.8185C345.216 76.8947 346.151 77.0302 345.865 77.6011C345.624 78.082 344.784 77.9761 344.36 77.986C343.91 77.9969 343.458 78.0405 343.007 78.0543C342.89 78.0583 341.71 78.1463 341.696 78.1087C341.709 78.1443 343.971 78.1899 345.083 78.364C345.538 78.4352 347.074 78.5718 347.103 79.2426C347.126 79.7829 346.312 79.952 345.248 79.9481C346.026 80.1856 346.359 80.4745 346.175 81.0276C346.016 81.5025 343.683 81.5193 342.851 81.4857C342.817 81.4837 342.78 81.4837 342.745 81.4827C342.862 81.5421 344.52 81.6984 344.61 81.7855C344.843 82.0081 344.926 82.203 344.638 82.4039C344.055 82.8105 341.694 82.5127 341.024 82.6334C339.66 82.8778 338.394 83.7495 337.125 84.2611C336.538 84.4975 335.982 84.7627 335.345 84.7637C334.039 84.7657 333.327 81.3452 333.327 81.3452Z" fill="#FFA587"/>
<path d="M340.215 79.9976C340.244 79.9976 340.273 79.9917 340.302 79.9798C340.304 79.9788 340.756 79.8047 342.07 79.7562C343.425 79.7057 344.935 79.9907 344.95 79.9937C345.066 80.0154 345.18 79.9432 345.202 79.8314C345.226 79.7196 345.15 79.6107 345.033 79.588C344.969 79.5761 343.458 79.2912 342.052 79.3436C340.658 79.395 340.178 79.5811 340.129 79.6018C340.02 79.6473 339.97 79.7691 340.017 79.8739C340.053 79.9511 340.133 79.9976 340.215 79.9976Z" fill="#ED835C"/>
<path d="M340.057 81.8223C340.074 81.8223 340.091 81.8203 340.109 81.8164C340.111 81.8164 340.331 81.7639 341.011 81.6472C341.558 81.5532 342.222 81.6165 342.472 81.6402C342.54 81.6462 342.586 81.6501 342.604 81.6501C342.723 81.6501 342.82 81.5581 342.82 81.4433C342.82 81.3296 342.725 81.2375 342.606 81.2365C342.59 81.2356 342.559 81.2326 342.515 81.2286C342.249 81.2029 341.542 81.1356 340.934 81.2405C340.236 81.3602 340.014 81.4127 340.005 81.4156C339.89 81.4433 339.819 81.5551 339.848 81.666C339.872 81.76 339.961 81.8223 340.057 81.8223Z" fill="#ED835C"/>
<path d="M340.216 78.4391C340.228 78.4391 340.24 78.4381 340.253 78.4362C340.256 78.4352 340.358 78.4184 340.662 78.3768C340.96 78.3362 341.696 78.3145 341.704 78.3145C341.823 78.3115 341.917 78.2155 341.913 78.1017C341.91 77.9899 341.814 77.9009 341.698 77.9009C341.696 77.9009 341.694 77.9009 341.692 77.9009C341.661 77.9019 340.924 77.9226 340.602 77.9672C340.283 78.0107 340.18 78.0285 340.18 78.0285C340.062 78.0483 339.985 78.1552 340.005 78.268C340.022 78.3689 340.113 78.4391 340.216 78.4391Z" fill="#ED835C"/>
<path d="M361.769 200.712C364.009 201.853 365.674 203.505 365.708 206.047C365.708 206.074 365.775 206.987 365.748 206.997C362.666 208.149 360.673 207.932 357.482 207.353C357.883 204.557 358.885 201.484 361.769 200.712Z" fill="#E7FFFF"/>
<path d="M357.13 207.286C357.394 204.878 358.44 201.105 361.062 200.366C361.38 200.517 361.451 200.551 361.993 200.826C359.276 200.986 358.118 204.89 357.86 207.418C357.616 207.378 357.372 207.333 357.13 207.286Z" fill="#107F8C"/>
<path d="M391.982 53.2879H394.91L394.405 51.7948C393.298 51.5643 391.686 51.8671 391.686 51.8671L391.982 53.2879Z" fill="#8BA8AC"/>
<path d="M364.095 207.946C360.612 208.12 358.037 207.853 354.903 206.337C354.876 206.325 354.966 205.362 354.972 205.337C355.417 203.33 357.048 202.125 360.013 201.217C363.324 201.788 364.498 205.056 364.095 207.946Z" fill="#E7FFFF"/>
<path d="M378.728 189.023C378.907 190.631 378.523 195.86 378.552 196.674C378.579 197.425 378.078 198.702 375.124 198.799C372.278 198.892 370.704 197.478 370.704 197.478L370.88 190.235C371.191 189.491 378.575 187.657 378.728 189.023Z" fill="#F39E7E"/>
<path d="M378.774 204.718C378.716 205.082 375.286 205.998 375.189 206.021C371.794 206.866 367.941 207.753 364.094 207.946C364.497 205.055 363.323 201.788 360.012 201.217C361.462 200.772 362.965 200.44 364.249 200.197C364.324 200.182 366.98 199.476 368.121 198.9C370.312 197.794 370.085 196.189 370.573 196.131C370.956 196.035 371.863 196.101 372.521 196.639C372.726 196.806 372.673 198.213 372.673 198.213C372.673 198.213 373.527 196.867 373.907 196.837C374.598 196.783 375.204 196.984 376.061 196.946C377.701 196.875 378.582 196.312 378.615 196.431C379.35 199.099 379.177 202.157 378.774 204.718Z" fill="#005E7F"/>
<path d="M364.578 207.919C364.317 207.936 364.056 207.949 363.794 207.96C364.221 204.838 362.901 202.084 359.777 201.291C360.202 201.16 360.323 201.115 360.842 200.976C363.611 202.129 364.943 204.929 364.578 207.919Z" fill="#107F8C"/>
<path d="M379.076 202.267C378.139 200.983 376.077 201.835 375.076 202.862C373.995 203.97 373.11 205.354 372.833 206.86C372.803 207.025 372.686 207.119 372.553 207.155C372.536 207.159 372.518 207.163 372.5 207.166C372.269 207.201 372.013 207.064 372.064 206.782C372.437 204.759 373.843 202.457 375.724 201.384C376.787 200.777 378.173 200.706 379.124 201.299C379.111 201.631 379.085 201.938 379.076 202.267Z" fill="#107F8C"/>
<path d="M378.499 205.39C377.209 205.924 376.087 206.287 374.733 206.647C374.698 206.679 368.052 208.364 364.103 208.538C359.53 208.738 357.334 208.348 355.068 207.158C354.675 206.951 354.902 206.337 354.902 206.337C356.591 207.219 361.188 207.99 364.658 207.849C367.936 207.716 374.345 206.056 374.411 206.039C375.805 205.675 377.372 205.095 378.775 204.64C378.941 204.587 378.908 205.221 378.499 205.39Z" fill="#E7FFFF"/>
<path d="M366.965 202.402C366.247 201.83 365.529 201.257 364.81 200.685C364.466 200.411 364.862 199.86 365.208 200.135C365.927 200.707 366.645 201.28 367.364 201.852C367.707 202.126 367.311 202.678 366.965 202.402Z" fill="#E7FFFF"/>
<path d="M368.755 201.595C368.089 201.019 367.382 200.499 366.63 200.031C366.254 199.796 366.706 199.286 367.078 199.516C367.83 199.984 368.538 200.505 369.203 201.081C369.536 201.37 369.089 201.884 368.755 201.595Z" fill="#E7FFFF"/>
<path d="M370.176 200.31C369.58 200.03 369.008 199.715 368.456 199.362C368.081 199.122 368.468 198.564 368.842 198.804C369.394 199.157 369.967 199.472 370.563 199.752C370.965 199.942 370.574 200.497 370.176 200.31Z" fill="#E7FFFF"/>
<path d="M371.399 199.282C370.803 199.002 370.231 198.687 369.679 198.334C369.305 198.094 369.691 197.536 370.065 197.775C370.618 198.129 371.19 198.444 371.786 198.724C372.189 198.913 371.798 199.469 371.399 199.282Z" fill="#E7FFFF"/>
<path d="M375.124 103.503C375.124 103.503 380.045 116.58 385.504 136.591C390.963 156.603 404.984 184.754 411.057 192.543C412.188 193.994 420.191 193.035 420.191 190.938C420.191 186.713 408.935 165.462 408.935 145.019C408.935 125.66 405.414 105.779 405.414 105.779L375.124 103.503Z" fill="#C78F27"/>
<path d="M385.421 104.236L374.671 103.47C374.671 103.47 366.385 142.207 366.509 150.674C366.632 159.142 369.236 187.85 369.637 192.051C369.83 194.07 378.143 193.605 379.279 192.164C381.286 189.616 379.466 167.592 381.824 158.484C384.18 149.376 391.252 132.998 391.252 132.998L385.421 104.236Z" fill="#C78F27"/>
<path d="M380.715 122.121C383.094 130.859 385.957 139.464 389.298 147.907C389.466 148.334 390.186 148.148 390.015 147.717C386.675 139.274 383.811 130.669 381.433 121.931C381.311 121.485 380.593 121.675 380.715 122.121Z" fill="#77541B"/>
<path d="M378.865 125.88C379.7 127.314 380.646 128.675 381.693 129.975C381.986 130.338 382.509 129.83 382.219 129.47C381.212 128.22 380.311 126.9 379.508 125.52C379.274 125.118 378.631 125.478 378.865 125.88Z" fill="#77541B"/>
<path d="M397.858 113.059C398.392 117.538 401.399 120.876 404.763 123.796C405.118 124.104 405.645 123.6 405.289 123.292C402.097 120.52 399.11 117.33 398.602 113.059C398.549 112.607 397.804 112.603 397.858 113.059Z" fill="#77541B"/>
<path d="M402.192 122.471C402.407 133.477 402.629 144.565 404.909 155.393C407.146 166.023 414.155 182.073 418.633 191.977C418.824 192.399 419.465 192.035 419.276 191.617C414.823 181.769 407.851 165.773 405.627 155.203C403.361 144.439 403.15 133.411 402.936 122.471C402.926 122.011 402.183 122.011 402.192 122.471Z" fill="#77541B"/>
<path d="M373.122 106.651C384.318 110.154 395.753 110.775 407.35 108.819C407.822 108.74 407.621 108.051 407.152 108.13C395.688 110.064 384.384 109.424 373.32 105.962C372.863 105.819 372.669 106.509 373.122 106.651Z" fill="#77541B"/>
<path d="M379.287 158.581C379.736 158.766 380.124 159.022 380.461 159.363C380.791 159.698 381.316 159.191 380.987 158.858C380.612 158.478 380.165 158.171 379.663 157.963C379.48 157.887 379.263 157.907 379.154 158.091C379.062 158.245 379.1 158.504 379.287 158.581Z" fill="#77541B"/>
<path d="M377.508 159.583C378.633 159.874 379.711 160.268 380.75 160.773C381.178 160.981 381.554 160.365 381.126 160.157C380.031 159.624 378.891 159.201 377.706 158.895C377.242 158.775 377.046 159.463 377.508 159.583Z" fill="#77541B"/>
<path d="M382.701 51.1743L383.581 55.2627L380.09 56.4817C381.172 58.6901 383.402 70.3506 388.116 70.3259C392.829 70.3012 399.008 55.0658 399.008 55.0658C399.008 55.0658 396.894 53.7004 394.56 53.2324C391.74 52.6664 391.67 46.522 391.67 46.522L382.701 51.1743Z" fill="#F39E7E"/>
<path d="M390.597 70.7175C396.116 68.7 394.623 56.7466 394.623 56.7466C389.005 62.9326 381.554 58.8323 381.554 58.8323C379.84 61.8521 385.079 72.7349 390.597 70.7175Z" fill="#FDEEF6"/>
<path d="M397.213 57.4651C395.187 60.19 391.384 61.409 388.078 61.9413C384.771 62.4746 381.218 61.781 379.198 59.0304C378.959 58.7048 379.498 58.3694 379.735 58.693C381.884 61.6197 385.752 61.8621 389.106 61.1171C391.944 60.4858 394.988 59.4044 396.738 57.0535C396.977 56.7299 397.452 57.1455 397.213 57.4651Z" fill="#B4AFAC"/>
<path d="M399.488 64.5298C399.488 64.5298 409.741 102.173 405.733 103.469C385.191 110.112 375.943 103.447 375.943 103.447L381.136 63.9094L399.488 64.5298Z" fill="#FDEEF6"/>
<path d="M380.212 80.2758C379.275 94.5495 380.764 110.63 380.475 112.022C375.944 113.427 376.062 112.702 372.079 113.425C370.643 113.686 374.125 83.5875 373.954 81.1139C373.024 67.6625 378.015 56.9043 378.015 56.9043L383.566 55.0659C383.566 55.0659 383.394 55.6269 383.512 55.7714C383.718 56.0237 383.862 56.0613 383.862 56.0613C383.862 56.0613 384.126 56.747 384.27 57.4643C384.241 57.871 380.991 68.4204 380.212 80.2758Z" fill="#21A19A"/>
<path d="M410.751 113.986C409.666 115.421 390.993 115.963 391.253 114.143C390.296 112.163 389.68 58.1725 389.742 57.2751C389.839 56.623 389.839 55.0934 389.839 55.0934L394.622 53.1155C394.622 53.1155 404.473 56.0046 408.228 58.2299C413.945 61.6197 408.544 75.0662 406.727 92.1162C406.334 95.7949 411.839 112.544 410.751 113.986Z" fill="#21A19A"/>
<path d="M398.532 68.9447C398.335 65.0948 405.005 55.8327 409.102 59.0454C414.583 63.3425 420.238 86.7546 420.238 86.7546C416.889 88.9848 408.032 88.5455 408.032 88.5455C408.032 88.5455 398.728 72.7946 398.532 68.9447Z" fill="#21A19A"/>
<path d="M394.406 51.7935L395.207 53.2558C395.068 55.3287 391.532 57.9695 391.532 57.9695L389.839 55.0932C393.384 53.4884 394.405 51.7935 394.406 51.7935Z" fill="#31C2A7"/>
<path d="M383.431 54.5261L382.97 55.377C382.878 56.3922 383.433 58.4225 383.433 58.4225L383.903 56.1082C383.687 55.66 383.431 54.5261 383.431 54.5261Z" fill="#31C2A7"/>
<path d="M418.536 81.9299C418.674 82.2921 418.104 82.5454 417.966 82.1812C415.336 75.2344 413.567 67.9214 409.645 61.4891C409.441 61.1547 410.014 60.9063 410.216 61.2378C414.137 67.6701 415.906 74.9831 418.536 81.9299Z" fill="#107F8C"/>
<path d="M401.527 70.587C403.64 75.9884 405.7 81.4095 407.704 86.8494C407.838 87.2126 407.269 87.4659 407.134 87.1008C405.13 81.6608 403.071 76.2397 400.956 70.8383C400.815 70.4772 401.384 70.2239 401.527 70.587Z" fill="#107F8C"/>
<path d="M401.305 72.3007C401.459 72.6589 400.888 72.9102 400.735 72.5521C400.255 71.434 399.694 70.3585 399.051 69.3186C398.845 68.9851 399.418 68.7378 399.622 69.0672C400.265 70.1071 400.826 71.1827 401.305 72.3007Z" fill="#107F8C"/>
<path d="M392.016 68.4944C392.008 68.8456 391.747 69.1929 391.346 69.1207C391.013 69.0613 390.792 68.7229 390.965 68.4241C390.972 68.4132 390.98 68.4053 390.986 68.3954C390.986 68.3202 390.997 68.244 391.027 68.1708C391.09 68.0175 391.229 67.9017 391.395 67.8591C391.589 67.8087 391.795 67.8829 391.904 68.0452C391.989 68.1708 392.019 68.345 392.016 68.4944Z" fill="#31C2A7"/>
<path d="M391.719 59.7478C391.711 60.099 391.451 60.4463 391.049 60.3741C390.715 60.3147 390.495 59.9763 390.668 59.6775C390.674 59.6667 390.681 59.6587 390.689 59.6488C390.689 59.5736 390.7 59.4975 390.73 59.4242C390.793 59.2709 390.932 59.1551 391.098 59.1126C391.293 59.0621 391.497 59.1363 391.607 59.2976C391.693 59.4252 391.723 59.5994 391.719 59.7478Z" fill="#31C2A7"/>
<path d="M392.486 75.7173C392.478 76.0685 392.218 76.4158 391.816 76.3436C391.483 76.2842 391.262 75.9458 391.435 75.647C391.441 75.6361 391.449 75.6282 391.456 75.6183C391.456 75.5431 391.467 75.4669 391.497 75.3927C391.56 75.2394 391.699 75.1236 391.865 75.0811C392.06 75.0306 392.264 75.1048 392.374 75.2671C392.46 75.3947 392.489 75.5679 392.486 75.7173Z" fill="#31C2A7"/>
<path d="M392.665 83.6098C392.657 83.9611 392.397 84.3084 391.994 84.2362C391.661 84.1768 391.441 83.8384 391.614 83.5396C391.62 83.5287 391.627 83.5208 391.634 83.5109C391.634 83.4357 391.646 83.3595 391.676 83.2853C391.739 83.132 391.878 83.0162 392.044 82.9736C392.239 82.9232 392.443 82.9974 392.553 83.1597C392.638 83.2863 392.668 83.4604 392.665 83.6098Z" fill="#31C2A7"/>
<path d="M384.534 30.83C389.298 30.7301 393.316 34.1417 393.76 38.1192C394.203 42.0968 392.646 45.9684 391.385 48.6112C390.125 51.254 387.522 52.572 386.567 52.8846C385.612 53.1973 381.425 55.5739 378.879 54.1937C377.097 53.227 375.311 46.7501 375.53 44.8761C375.721 43.2406 376.161 43.0298 375.982 41.6584C375.803 40.2861 376.243 37.1644 376.243 37.1644C376.651 35.2835 379.771 30.93 384.534 30.83Z" fill="#F39E7E"/>
<path d="M376.77 43.9335C376.984 44.1046 377.297 44.0849 377.505 43.9038C377.701 43.7326 377.753 43.4892 377.741 43.2399C377.831 42.9391 377.825 42.6076 377.65 42.3523C377.495 42.1258 377.194 42.0347 376.942 42.1495C376.719 42.2514 376.584 42.4651 376.534 42.7066C376.458 43.0845 376.453 43.6802 376.77 43.9335Z" fill="#6E3F30"/>
<path d="M383.064 44.3665C383.288 44.5258 383.599 44.4892 383.796 44.2973C383.981 44.1162 384.021 43.8698 383.993 43.6215C384.064 43.3167 384.04 42.9853 383.85 42.7399C383.682 42.5222 383.377 42.447 383.133 42.5757C382.916 42.6894 382.792 42.9101 382.757 43.1535C382.702 43.5354 382.732 44.1311 383.064 44.3665Z" fill="#6E3F30"/>
<path d="M377.331 46.2437C377.629 47.1154 379.061 47.1272 379.833 47.1213C380.246 47.1183 380.239 46.5019 379.825 46.5059C379.117 46.5108 377.596 46.5227 378.094 45.4729C378.407 44.811 378.772 44.1668 379.111 43.5158C379.294 43.1616 378.737 42.8558 378.553 43.211C378.214 43.8631 377.859 44.5092 377.536 45.1682C377.371 45.5046 377.205 45.8687 377.331 46.2437Z" fill="#CE6D46"/>
<path d="M395.123 41.2175C394.073 44.1887 391.941 47.3965 391.941 47.3965C391.941 47.3965 391.04 45.8965 391.276 45.0723C391.417 44.5796 392.159 44.5578 392.552 43.9374C393.092 43.0855 393.053 41.7359 392.404 40.5486C392.06 39.9183 391.116 39.8787 390.563 40.1113C390.268 40.2359 390.128 40.5258 390.1 40.8335C390.071 41.1442 390.065 41.6607 390.068 42.2831C389.498 42.5839 388.746 42.6244 388.105 42.3781C387.959 40.9582 387.891 37.8692 387.657 37.3111C387.354 36.5908 386.499 35.1185 385.102 35.3897C383.704 35.6608 381.56 37.51 379.727 37.2142C378.006 36.9361 377.444 37.3656 376.213 37.3854C376.227 37.4259 375.988 39.2554 375.988 39.2554C375.988 39.2554 373.581 39.0565 372.833 38.3184C371.922 37.419 371.741 36.1535 372.032 34.9721C372.285 33.9431 373.017 33.0763 373.902 32.4708C374.428 32.1116 375.018 31.8762 375.629 31.6901C375.59 31.0945 375.676 30.208 376.325 29.4214C377.371 28.1559 378.977 28.0035 380.516 27.764C380.521 27.7512 380.934 27.0764 381.556 26.7509C382.935 26.0315 384.951 26.3699 385.993 26.7657C386.75 27.0536 387.246 27.3584 387.797 27.9263C388.245 28.0065 388.694 28.049 389.105 28.1509C393.47 29.2353 395.233 31.9583 395.98 34.1182C396.737 36.3059 396.124 38.3877 395.123 41.2175Z" fill="#522C26"/>
<path d="M391.553 43.8831C391.25 44.1522 390.816 43.6971 391.121 43.428C391.676 42.9352 391.71 42.0873 391.2 41.553C390.921 41.2601 391.395 40.8455 391.675 41.1384C392.42 41.9191 392.364 43.1638 391.553 43.8831Z" fill="#CE6D46"/>
<path d="M386.483 33.8533C385.722 33.3645 385.088 32.6987 384.273 32.289C383.295 31.7973 382.199 31.7498 381.151 32.0446C380.762 32.1535 380.635 31.5638 381.02 31.4559C382.053 31.166 383.151 31.1818 384.155 31.5727C385.185 31.9734 385.924 32.7689 386.832 33.3527C387.167 33.5684 386.819 34.07 386.483 33.8533Z" fill="#73453E"/>
<path d="M387.694 33.6147C387.006 32.9686 386.355 32.2908 385.738 31.5804C385.48 31.2826 385.948 30.8819 386.207 31.1807C386.823 31.8911 387.475 32.5689 388.164 33.215C388.452 33.4861 387.981 33.8848 387.694 33.6147Z" fill="#73453E"/>
<path d="M384.822 41.4439C384.032 41.0501 383.177 40.9214 382.339 40.6652C381.874 40.5237 381.247 40.218 381.52 39.6569C381.824 39.0316 382.875 39.187 383.427 39.3235C384.22 39.5204 384.915 39.9073 385.556 40.3871C386.238 40.8977 385.573 41.8179 384.822 41.4439Z" fill="#522C26"/>
<path d="M377.824 40.415C377.623 40.6209 377.308 40.7297 377.052 40.8603C376.815 40.982 376.619 41.1363 376.437 41.3263C376.26 41.5094 375.939 41.4718 375.76 41.3263C375.561 41.165 375.533 40.891 375.667 40.6832C376.066 40.0628 376.823 39.3692 377.648 39.5711C378.058 39.673 378.066 40.1657 377.824 40.415Z" fill="#522C26"/>
<path d="M389.024 51.4718C388.394 52.3959 387.381 52.9758 386.391 53.4952C385.271 54.0829 384.094 54.5361 382.867 54.8725C382.48 54.9784 382.252 54.4174 382.64 54.3115C383.722 54.0147 384.771 53.6308 385.771 53.1341C386.796 52.6255 387.892 52.0378 388.538 51.0899C388.76 50.7663 389.242 51.1512 389.024 51.4718Z" fill="#CE6D46"/>
<path d="M376.182 49.4287C376.182 49.4287 376.665 52.774 377.368 54.0079C378.253 55.5573 379.397 56.3232 381.104 56.1639C382.079 56.0728 384.168 55.6226 384.973 55.0725C386.906 53.7536 388.825 52.0646 389.503 49.8839C390.322 47.2549 390.212 44.9812 390.084 42.101C389.456 41.8012 388.663 41.7903 388.034 41.4915C388.091 42.6164 388.218 43.4713 387.887 44.5518C387.654 45.3117 387.135 46.0765 386.859 46.8245C386.464 47.8921 386.888 49.2793 386.301 49.4248C385.628 49.592 385.271 48.2206 384.007 47.6557C383.367 47.4014 382.686 47.3747 382.001 47.4133C381.19 47.4281 380.368 47.4657 379.562 47.5716C379.005 47.6448 378.099 47.7427 377.628 48.0524C376.689 48.6688 376.192 49.497 376.182 49.4287Z" fill="#522C26"/>
<path d="M381.776 49.6474C380.721 50.438 379.303 50.5379 378.128 49.9344C377.772 49.7513 378.066 49.22 378.423 49.403C379.419 49.9146 380.552 49.8038 381.437 49.1408C381.756 48.9014 382.091 49.411 381.776 49.6474Z" fill="#73453E"/>
<path d="M420.077 92.6003C417.973 98.4845 401.492 114.745 401.492 114.745C401.492 114.745 397.621 114.938 398.094 113.086C398.73 110.592 409.937 91.7029 409.937 91.7029C409.937 91.7029 411.085 90.8213 413.077 90.383C419.935 89.0364 420.294 91.9918 420.077 92.6003Z" fill="#F39E7E"/>
<path d="M402.877 110.76C402.877 110.76 403.795 112.498 403.477 113.896C403.16 115.293 402.618 116.167 402.518 116.945C402.418 117.723 403.338 120.355 403.215 121.001C403.093 121.647 402.161 121.392 402.161 121.392C402.161 121.392 402.296 122.445 402.204 123.267C402.111 124.088 401.187 124.144 401.187 124.144C401.187 124.144 400.481 124.928 399.868 124.353C399.256 123.778 398.034 120.746 397.908 121.08C397.782 121.413 399.517 124.112 398.47 124.351C397.613 124.546 396.693 123.025 396.061 122.045C395.466 121.119 394.991 119.078 394.895 117.706C394.799 116.334 398.866 112.283 398.866 112.283L402.877 110.76Z" fill="#F39E7E"/>
<path d="M399.252 117.806C399.016 117.81 398.829 117.997 398.834 118.223C398.835 118.275 398.865 119.519 399.212 120.694C399.552 121.849 400.56 123.976 400.603 124.066C400.702 124.267 400.954 124.363 401.168 124.269C401.383 124.175 401.477 123.933 401.38 123.727C401.369 123.705 400.355 121.566 400.033 120.472C399.717 119.4 399.687 118.219 399.687 118.206C399.685 118.139 399.667 118.077 399.638 118.023C399.564 117.891 399.418 117.803 399.252 117.806Z" fill="#E27E66"/>
<path d="M400.959 117.661C400.726 117.692 400.563 117.9 400.596 118.123C400.682 118.711 401.515 120.943 401.609 121.196C401.687 121.403 401.932 121.519 402.155 121.443C402.377 121.367 402.492 121.132 402.412 120.92C402.066 119.996 401.497 118.39 401.44 118.009C401.433 117.96 401.418 117.915 401.395 117.874C401.312 117.727 401.141 117.636 400.959 117.661Z" fill="#E27E66"/>
<path d="M397.317 118.562C397.082 118.563 396.891 118.747 396.893 118.974L396.894 119.266C396.895 119.596 397.234 120.515 397.379 120.895C397.464 121.111 397.705 121.217 397.927 121.139C398.147 121.06 398.261 120.826 398.179 120.613C397.976 120.084 397.754 119.413 397.746 119.264L397.745 118.971C397.744 118.901 397.727 118.838 397.696 118.781C397.623 118.649 397.481 118.561 397.317 118.562Z" fill="#E27E66"/>
<path d="M398.356 112.375C398.356 112.375 399.268 111.97 400.573 111.885C402.219 111.776 403.44 111.849 404.215 111.996C404.22 111.994 405.757 110.453 406.695 109.421C405.553 109.078 403.492 108.48 401.554 108.725C400.92 108.807 400.53 108.868 400.062 108.956C399.379 110.262 398.786 111.379 398.356 112.375Z" fill="#522C26"/>
<path d="M399.895 111.915C400.394 112.198 401.242 111.711 401.787 110.825C402.331 109.939 402.295 109.123 401.796 108.84C401.297 108.557 400.523 108.914 399.979 109.8C399.432 110.685 399.395 111.632 399.895 111.915Z" fill="#F4E6D7"/>
<path d="M418.778 85.6669C419.364 86.7414 420.294 91.9914 420.077 92.5999C417.973 98.4841 409.937 91.7025 409.937 91.7025C409.937 91.7025 409.087 89.8641 408.603 89.0518C411.569 89.8453 415.739 85.1257 418.778 85.6669Z" fill="#F39E7E"/>
<path d="M408.055 90.9744C408.055 90.9744 411.299 91.5206 414.873 90.6558C418.447 89.79 420.707 88.1832 420.707 88.1832L419.161 81.9299L406.37 85.6285L408.055 90.9744Z" fill="#31C2A7"/>
<path d="M375.006 80.4125C374.818 80.4095 374.667 80.2601 374.67 80.08C374.758 75.1972 375.95 68.4977 375.963 68.4304C375.995 68.2533 376.171 68.1326 376.356 68.1642C376.541 68.1949 376.665 68.3641 376.633 68.5412C376.621 68.6075 375.438 75.2585 375.351 80.0919C375.348 80.271 375.195 80.4135 375.011 80.4135C375.01 80.4135 375.008 80.4135 375.006 80.4125Z" fill="#107F8C"/>
<path d="M374.965 68.8104C374.778 68.7857 374.648 68.6204 374.674 68.4423C374.748 67.9239 374.896 66.4328 374.685 65.7718C374.629 65.5997 374.732 65.4166 374.911 65.3642C375.091 65.3117 375.281 65.4077 375.336 65.5809C375.634 66.5159 375.36 68.4502 375.347 68.5324C375.324 68.6956 375.177 68.8144 375.01 68.8144C374.997 68.8134 374.981 68.8124 374.965 68.8104Z" fill="#107F8C"/>
<path d="M311.223 175.724C311.223 175.724 336.942 191.033 339.07 216.943C341.198 242.853 339.248 350.395 287.674 376.864C236.102 403.333 167.837 397.232 141.706 394.339C115.576 391.446 101.088 372.363 97.8516 359.224C94.6149 346.085 89.3875 297.142 116.877 281.354C144.366 265.567 173.236 241.38 202.085 217.828C230.935 194.277 280.376 155.831 311.223 175.724Z" fill="url(#paint1_linear)"/>
<path d="M129.541 289.326C129.541 289.326 137.545 289.732 138.526 305.528C138.526 305.528 119.967 321.488 94.8967 325.287C93.0143 325.572 97.528 312.963 98.2067 311.254C101.435 303.127 111.602 297.893 129.541 289.326Z" fill="#FAF3F2"/>
<path d="M219.681 270.752H202.791C202.791 270.752 159.271 224.646 125.829 212.661C120.612 210.791 114.734 213.097 112.518 217.998C107.129 229.924 100.754 255.501 118.211 293.421C120.217 297.778 125.826 299.712 130.009 297.149C131.26 296.383 132.159 295.356 132.704 294.067L130.699 247.832C130.699 247.832 153.942 285.571 182.605 292.091C193.029 294.463 229.36 294.888 219.681 270.752Z" fill="#D8005D"/>
<path d="M56.391 386.061C63.4688 380.112 74.7466 373.436 91.0259 371.521L96.5317 374.752C96.5317 374.752 93.0206 379.72 86.6071 384.967C80.7124 388.251 71.61 392.699 64.0639 393.664C56.7273 394.601 55.6453 390.349 56.391 386.061Z" fill="#FAF3F2"/>
<path d="M98.2065 311.254C102.566 312.607 104.485 318.533 115.549 314.615C126.254 310.823 134.211 305.935 138.305 303.115C138.397 303.879 138.473 304.677 138.526 305.528C138.526 305.528 118.957 323.383 93.8868 327.182C92.0045 327.467 90.513 325.665 91.1916 323.956C92.4098 320.892 94.6047 316.244 98.2065 311.254Z" fill="#FAF3F2"/>
<path d="M219.062 282.476L139.968 283.297C139.968 283.297 94.7991 319.145 86.6063 373.809C86.6063 373.809 85.2469 377.829 93.4108 378.517C93.4108 378.517 120.719 361.407 138.526 331.157C160.36 294.067 203.614 310.763 203.614 310.763C217.827 300.934 237.909 298.932 253.039 295.657L219.062 282.476Z" fill="#D8005D"/>
<path d="M217.195 221.356C217.195 221.356 208.681 262.29 166.961 278.483L152.121 276.805L148.62 282.161L183.43 283.225C183.43 283.225 213.185 271.92 228.951 241.113C229.47 240.097 238.152 222.902 217.195 221.356Z" fill="#F5A983"/>
<path d="M197.357 271.51C197.357 271.51 211.447 266.778 220.779 254.296C222.373 247.321 223.749 239.639 224.396 232.026C224.396 232.026 217.313 226.187 212.885 223.668C211.452 222.851 210.91 221.126 211.635 219.686C214.89 213.217 234.576 187.817 236.051 187.465C244.066 185.547 264.169 163.781 287.319 194.159C297.255 207.196 279.621 258.564 261.719 294.817L243.741 297.366L197.357 271.51Z" fill="#FAF3F2"/>
<path d="M249.942 237.558C249.942 237.558 223.04 268.114 188.647 272.58C188.647 272.58 179.759 264.806 173.148 267.582C166.539 270.357 157.476 282.607 157.476 282.607H201.637C201.637 282.607 243.393 281.196 264.259 256.907C262.58 248.407 257.552 243.33 249.942 237.558Z" fill="#F5A983"/>
<path d="M277.596 185.025C272.593 187.924 266.663 189.011 260.862 188.81C255.18 188.613 248.176 187.628 244.754 182.732L245.012 182.726C246.861 185.309 249.869 186.8 252.97 187.584C256.04 188.32 259.195 188.676 262.359 188.642C265.557 188.655 268.739 188.208 271.797 187.315C273.722 186.742 275.568 185.954 277.3 184.969L277.596 185.025Z" fill="#1F2144"/>
<path d="M286.943 172.159C286.934 171.82 286.925 171.453 286.918 171.137C286.923 168.653 286.955 166.071 287.876 163.714C288.796 161.358 290.041 159.341 290.495 156.861C290.891 154.108 291.05 151.327 290.967 148.547C290.99 145.559 290.323 142.603 289.013 139.892C286.231 134.292 281.647 129.696 275.938 126.783C262.397 119.828 245.025 120.623 234.898 132.648C233.735 134.034 232.721 135.533 231.875 137.118C229.356 141.749 227.418 146.65 226.1 151.717C224.663 157.323 223.533 164.002 226.83 169.211C227.977 171.071 229.503 172.689 231.316 173.971C231.691 178.794 236.237 183.624 240.097 186.252C243.089 188.302 246.677 187.705 249.891 184.691C252.875 184.017 257.778 185.099 258.884 182.548C259.964 183.78 261.247 184.833 262.681 185.665C265.454 187.176 268.592 183.797 271.696 183.783C274.173 183.776 279.368 185.627 279.368 185.627C280.494 185.085 281.569 184.449 282.58 183.727C286.139 180.748 286.849 176.421 286.943 172.159Z" fill="#522C26"/>
<path d="M273.318 183.951C273.318 183.951 268.237 186.683 260.141 186.449C252.045 186.216 249.912 184.691 249.912 184.691L249.007 179.915L248.621 177.919L248.005 174.723L271.592 161.295L273.318 183.951Z" fill="#F5A983"/>
<path d="M269.449 170.986C266.047 176.784 249.581 178.602 246.006 177.673C240.952 176.376 233.899 167.674 233.745 160.525C233.653 156.767 234.838 150.503 236.062 144.952C236.062 144.952 236.061 144.916 236.061 144.902C236.254 144.072 236.447 143.243 236.633 142.455C236.652 142.346 236.676 142.237 236.706 142.13C237.813 137.497 238.8 133.962 238.8 133.962L253.088 125.175C253.088 125.175 270.043 134.33 270.324 134.711C270.606 135.093 277.849 151.833 277.849 151.833C277.849 151.833 272.83 165.209 269.449 170.986Z" fill="#F5A983"/>
<path d="M277.806 151.898C277.806 151.898 280.531 151.49 281.94 154.627C283.2 157.42 280.311 162.276 276.298 164.482C272.808 166.403 268.573 166.117 268.61 165.87C268.648 165.622 268.947 157.693 269.13 157.054C269.313 156.414 277.806 151.898 277.806 151.898Z" fill="#FF924F"/>
<path d="M256.346 183.014C254.297 183.869 252.132 184.433 249.914 184.689L249.011 179.913L248.623 177.919C250.784 177.836 252.928 177.516 255.013 176.963C258.403 176.047 259.33 176.371 260.368 177.625C261.406 178.878 259.661 181.472 256.346 183.014Z" fill="#ED9368"/>
<path d="M245.367 162.443C245.254 162.399 245.159 162.326 245.09 162.231C244.6 161.575 244.222 160.846 243.971 160.077C243.696 159.052 245.277 156.075 246.235 154.381C246.324 154.23 246.47 154.119 246.644 154.07C246.818 154.021 247.004 154.039 247.163 154.121C247.243 154.162 247.313 154.218 247.37 154.284C247.427 154.351 247.469 154.429 247.494 154.512C247.519 154.594 247.528 154.681 247.516 154.767C247.507 154.852 247.478 154.936 247.435 155.012C246.363 156.892 245.251 159.244 245.301 159.758C245.51 160.36 245.811 160.928 246.195 161.445C246.301 161.585 246.345 161.761 246.315 161.932C246.286 162.104 246.188 162.256 246.041 162.358C245.949 162.43 245.835 162.475 245.716 162.491C245.598 162.506 245.477 162.489 245.367 162.443Z" fill="#D56B49"/>
<path d="M242.651 166.603L242.39 166.489C242.228 166.412 242.104 166.275 242.045 166.11C241.985 165.945 241.996 165.765 242.076 165.607C242.113 165.528 242.167 165.456 242.235 165.399C242.303 165.34 242.382 165.296 242.468 165.268C242.554 165.24 242.645 165.229 242.736 165.237C242.827 165.245 242.914 165.271 242.994 165.313C244.427 165.925 245.979 166.246 247.547 166.255C248.775 166.297 249.996 166.045 251.096 165.518C251.247 165.42 251.434 165.386 251.611 165.42C251.791 165.455 251.948 165.556 252.049 165.701C252.15 165.847 252.187 166.024 252.151 166.196C252.115 166.367 252.009 166.519 251.858 166.615C250.543 167.287 249.068 167.617 247.578 167.572C245.886 167.572 244.209 167.243 242.651 166.603Z" fill="#D56B49"/>
<path d="M236.595 152.995C237.685 152.731 238.177 153.58 238.255 154.425C238.386 155.833 237.303 157.268 236.193 156.122C235.492 155.396 235.719 153.212 236.595 152.995Z" fill="#361A09"/>
<path d="M258.56 154.989C259.65 154.725 260.133 155.574 260.22 156.412C260.351 157.82 259.268 159.255 258.158 158.116C257.456 157.356 257.69 155.163 258.56 154.989Z" fill="#361A09"/>
<path d="M265.108 148.193C264.339 146.798 262.288 146.577 260.865 146.383C259.877 146.25 257.284 146.132 257.536 147.7C257.665 148.501 258.806 148.511 259.439 148.532C261.188 148.64 262.926 148.835 264.653 149.12C264.735 149.128 264.817 149.117 264.894 149.089C264.971 149.061 265.041 149.017 265.097 148.957C265.152 148.899 265.193 148.83 265.215 148.755C265.239 148.679 265.242 148.599 265.228 148.521C265.203 148.406 265.164 148.295 265.108 148.193Z" fill="#522C26"/>
<path d="M240.427 146.357C240.146 147.223 238.893 147.096 238.185 147.007C237.477 146.918 236.248 146.903 235.41 146.872C235.401 146.854 235.401 146.834 235.409 146.816C235.594 145.987 235.794 145.163 235.974 144.369C236.334 144.361 236.784 144.414 236.93 144.412C238.07 144.407 240.943 144.652 240.427 146.357Z" fill="#522C26"/>
<path d="M276.855 143.073C276.536 141.74 276.481 140.111 276.015 138.816C274.112 133.49 268.231 129.694 263.07 127.694C257.412 125.493 252.598 122.886 246.913 126.471L246.711 126.616C245.316 126.761 244.026 127.388 243.077 128.377C242.318 128.462 241.578 128.661 240.885 128.97C239.505 129.773 238.334 130.869 237.464 132.173C235.252 135.278 234.62 139.193 234.298 142.826C234.276 143.001 234.315 143.177 234.409 143.327C234.503 143.477 234.649 143.593 234.819 143.655C234.99 143.719 235.179 143.724 235.353 143.669C235.528 143.617 235.679 143.509 235.782 143.363C236.975 141.601 238.326 139.945 239.823 138.411C241.153 137.175 242.709 136.096 243.911 134.791C244.735 133.887 245.372 132.837 245.784 131.701C250.995 131.583 256.663 130.539 261.341 133.298C266.684 136.458 267.626 143.971 268.976 149.274C269.005 149.429 269.083 149.572 269.199 149.683C269.316 149.794 269.465 149.866 269.627 149.892C269.789 149.918 269.955 149.895 270.103 149.826C270.251 149.757 270.373 149.647 270.451 149.509C270.627 149.537 270.806 149.503 270.957 149.414C272.769 148.364 276.394 147.118 277.034 145.002C277.161 144.355 277.099 143.688 276.855 143.073Z" fill="#522C26"/>
<path d="M287.193 133.704C284.916 128.269 280.652 123.818 275.199 121.184C269.449 118.46 262.958 117.513 256.622 118.479C251.532 119.289 246.82 121.566 243.11 125.005C241.759 125.092 240.432 125.263 239.281 125.403C235.981 125.801 232.178 126.655 229.56 128.739C226.545 131.142 224.662 135.665 224.91 139.765C224.816 140.092 224.706 140.412 224.626 140.767C223.7 144.972 225.877 148.894 225.664 153.132C225.444 157.066 225.591 161.81 228.163 165.068C228.248 165.162 228.361 165.228 228.488 165.255C228.613 165.283 228.746 165.27 228.864 165.22C228.983 165.17 229.081 165.085 229.145 164.977C229.209 164.869 229.236 164.745 229.219 164.621C228.929 160.6 227.891 156.94 228.099 152.837C228.14 151.894 228.083 150.95 227.927 150.019C228.019 149.933 228.097 149.834 228.155 149.724C228.584 148.582 228.851 147.389 228.95 146.179L228.995 146.213C229.131 146.308 229.287 146.372 229.452 146.399C229.617 146.426 229.788 146.417 229.947 146.372C230.108 146.326 230.257 146.246 230.38 146.138C230.503 146.029 230.599 145.895 230.66 145.745C230.811 145.319 230.961 144.864 231.113 144.395C231.149 144.384 231.183 144.369 231.214 144.35C232.836 143.319 233.464 141.309 234.122 139.643C234.427 138.866 234.716 138.091 234.991 137.309C235.701 136.277 236.492 135.257 237.292 134.266C239.078 132.702 241.057 131.238 242.365 129.404C242.467 129.262 242.53 129.098 242.544 128.927C242.599 128.75 242.595 128.559 242.531 128.385C243.26 128.093 243.944 127.816 244.666 127.566L244.71 127.566C244.785 127.531 244.844 127.473 244.881 127.401C244.918 127.331 244.932 127.25 244.918 127.173C244.904 127.094 244.865 127.022 244.806 126.967C244.748 126.911 244.672 126.875 244.591 126.863C244.465 126.866 244.333 126.869 244.208 126.872C244.252 126.864 244.294 126.849 244.333 126.826L244.68 126.621C245.174 126.61 245.679 126.562 246.15 126.587C245.637 127.145 245.261 127.807 245.051 128.524C245.022 128.606 245.019 128.695 245.042 128.779C245.062 128.862 245.11 128.939 245.175 128.998C245.241 129.059 245.322 129.099 245.41 129.116C245.499 129.133 245.59 129.126 245.676 129.095C247.325 128.578 248.449 127.354 250.028 126.633C251.795 125.907 253.616 125.307 255.477 124.84C257.529 124.22 259.622 123.739 261.745 123.4C261.85 123.592 262.026 123.739 262.24 123.813L262.427 123.879C262.504 124.063 262.651 124.213 262.838 124.299C263.025 124.385 263.238 124.4 263.437 124.343C263.51 124.334 263.584 124.333 263.658 124.338C264.778 124.729 265.883 125.114 267.025 125.468C270.451 126.646 273.823 127.974 276.614 130.233C279.615 132.656 281.489 136.472 285.015 138.163C285.098 138.204 285.173 138.259 285.253 138.293C285.378 138.356 285.518 138.387 285.66 138.384C285.801 138.381 285.939 138.343 286.062 138.274C287.04 142.739 286.547 147.237 286.887 151.835C286.9 152.329 287.634 152.285 287.794 151.922C290.579 146.453 289.441 139.057 287.193 133.704Z" fill="#522C26"/>
<path d="M277.989 147.343C277.989 147.343 279.562 135.61 269.805 127.626C259.065 118.831 246.486 120.223 244.31 122.007C243.864 122.37 243.52 122.835 243.31 123.358C243.102 123.883 243.032 124.449 243.111 125.005C243.111 125.005 255.625 123.36 264.87 130.305C273.321 136.655 272.657 147.929 272.657 147.929L277.989 147.343Z" fill="#73453E"/>
<path d="M267.311 151.007C264.606 157.043 264.674 163.419 268.93 166.97C274 171.237 279.332 168.528 281.798 164.14C284.264 159.753 284.413 150.867 281.244 148.187C276.769 144.451 270.268 144.47 267.311 151.007Z" fill="#361A09"/>
<path d="M282.942 149.941C281.94 148.947 273.279 145.791 270.563 154.968C267.846 164.144 275.087 166.732 277.106 167.13C280.859 167.878 283.903 164.861 285.407 159.846C287.33 153.475 283.952 150.956 282.942 149.941Z" fill="#28AA65"/>
<path d="M269.23 198.595C269.23 198.595 276.92 187.282 287.435 197.913" stroke="#1F2144" stroke-width="0.75" stroke-miterlimit="10"/>
<path d="M228.841 212.405C228.841 212.405 224.866 219.663 224.396 232.025" stroke="#1F2144" stroke-width="0.75" stroke-miterlimit="10"/>
<path d="M159.699 284.979L139.87 221.547C139.062 218.959 136.665 217.124 133.855 216.939L107.084 215.182C104.363 215.003 102.339 217.554 103.242 220.023L125.407 280.6C126.121 282.551 127.948 283.93 130.093 284.139L156.455 286.947L159.699 284.979Z" fill="url(#paint2_linear)"/>
<path d="M156.458 286.945C156.501 286.945 156.544 286.944 156.587 286.942L212.759 284.218C214.148 284.151 215.216 283.017 215.147 281.685C215.077 280.353 213.889 279.306 212.506 279.395L156.334 282.119C154.946 282.186 153.877 283.32 153.947 284.652C154.015 285.943 155.127 286.945 156.458 286.945Z" fill="url(#paint3_linear)"/>
<path d="M138.834 137.177C138.834 127.068 147.378 118.873 157.916 118.873C168.454 118.873 176.998 127.068 176.998 137.177C176.998 147.286 168.454 155.482 157.916 155.482C147.378 155.482 138.834 147.286 138.834 137.177Z" fill="white"/>
<path d="M162.672 133.41V130.892H160.539H160.099C160.099 130.892 158.48 130.855 157.449 132.106C157.449 132.106 156.746 132.723 156.736 134.532H156.735V136.419H154.191V139.092H156.735V145.807H159.669V139.092H162.192L162.544 136.419H159.669V134.532H159.668C159.676 134.321 159.776 133.391 160.955 133.41H162.672Z" fill="#17DA17"/>
<path d="M116.484 189.123C120.186 189.123 123.188 186.243 123.188 182.691C123.188 179.139 120.186 176.26 116.484 176.26C112.781 176.26 109.779 179.139 109.779 182.691C109.779 186.243 112.781 189.123 116.484 189.123Z" fill="white"/>
<path d="M178.545 92.1578C194.78 92.1578 207.941 79.5327 207.941 63.9588C207.941 48.3849 194.78 35.7598 178.545 35.7598C162.31 35.7598 149.148 48.3849 149.148 63.9588C149.148 79.5327 162.31 92.1578 178.545 92.1578Z" fill="white"/>
<path d="M186.738 67.2363V67.2403L177.514 74.3474L168.29 67.2403V67.2363C166.691 66.052 165.651 64.1691 165.651 62.0418C165.651 58.4561 168.59 55.5481 172.216 55.5481C174.394 55.5481 176.319 56.6009 177.513 58.2146C178.707 56.6009 180.632 55.5481 182.809 55.5481C186.435 55.5481 189.375 58.4551 189.375 62.0418C189.375 64.1701 188.335 66.053 186.738 67.2363Z" fill="#17DA17"/>
<path d="M54.2554 244.531C54.2554 236.881 60.7205 230.679 68.6956 230.679C76.6707 230.679 83.1358 236.881 83.1358 244.531C83.1358 252.182 76.6707 258.384 68.6956 258.384C60.7205 258.384 54.2554 252.182 54.2554 244.531Z" fill="white"/>
<path d="M64.5417 241.453H63.2544C62.8872 241.453 62.813 241.619 62.813 241.801C62.813 242.126 63.2493 243.74 64.8449 245.874C65.9094 247.333 67.407 248.122 68.7716 248.122C69.5896 248.122 69.6906 247.947 69.6906 247.644V246.543C69.6906 246.192 69.768 246.122 70.0269 246.122C70.2177 246.122 70.5458 246.213 71.3091 246.916C72.1817 247.749 72.326 248.122 72.8169 248.122H74.1042C74.4714 248.122 74.6561 247.947 74.5498 247.601C74.4333 247.255 74.0166 246.755 73.4637 246.161C73.1636 245.823 72.7139 245.458 72.5777 245.276C72.3869 245.041 72.4416 244.937 72.5777 244.729C72.5777 244.729 74.1455 242.621 74.3095 241.905C74.3909 241.644 74.3095 241.453 73.9196 241.453H72.6334C72.3054 241.453 72.1548 241.619 72.0733 241.801C72.0733 241.801 71.4183 243.323 70.491 244.313C70.1909 244.599 70.0548 244.69 69.8908 244.69C69.8093 244.69 69.6906 244.599 69.6906 244.339V241.905C69.6906 241.592 69.5958 241.453 69.3225 241.453H67.2997C67.0955 241.453 66.9728 241.598 66.9728 241.735C66.9728 242.031 67.436 242.099 67.4845 242.933V244.742C67.4845 245.139 67.4091 245.211 67.2451 245.211C66.8088 245.211 65.7474 243.681 65.1183 241.93C64.9945 241.591 64.8707 241.453 64.5417 241.453Z" fill="#50E217"/>
<path d="M92.758 122.637C86.1093 126.715 77.274 124.851 73.0234 118.473C68.7718 112.095 70.716 103.619 77.3647 99.5408C84.0134 95.4634 92.8488 97.3275 97.1004 103.705C101.351 110.083 99.4066 118.56 92.758 122.637Z" fill="white"/>
<path d="M84.4434 106.244C84.9354 105.972 85.2468 105.889 85.4624 105.848C85.7481 105.792 85.9792 105.794 86.2607 105.854C86.5423 105.913 86.7527 106.005 86.9879 106.169C87.1653 106.294 87.4118 106.494 87.7398 106.939C88.0936 107.421 88.1979 107.566 89.0354 108.823C89.8719 110.08 89.9667 110.231 90.2741 110.741C90.5577 111.213 90.6434 111.512 90.6867 111.719C90.7444 111.993 90.7424 112.215 90.6805 112.485C90.6186 112.755 90.5238 112.957 90.3515 113.182C90.2216 113.353 90.0131 113.589 89.549 113.903C89.0467 114.242 88.8951 114.342 87.5852 115.145C86.2752 115.949 86.1173 116.039 85.5851 116.334C85.0931 116.606 84.7817 116.689 84.5661 116.731C84.2804 116.786 84.0493 116.784 83.7677 116.725C83.4862 116.665 83.2758 116.573 83.0406 116.409C82.8622 116.284 82.6167 116.084 82.2887 115.639C81.9349 115.157 81.8308 115.012 80.9932 113.755C80.1557 112.499 80.0618 112.347 79.7544 111.837C79.4708 111.365 79.3851 111.067 79.3418 110.859C79.284 110.585 79.2861 110.364 79.348 110.093C79.4099 109.823 79.5048 109.621 79.6771 109.396C79.8071 109.226 80.0154 108.989 80.4795 108.676C80.9818 108.336 81.1334 108.236 82.4433 107.433C83.7532 106.629 83.9111 106.539 84.4434 106.244ZM79.875 107.853C79.3686 108.197 79.0644 108.494 78.8302 108.802C78.5878 109.12 78.4218 109.449 78.3238 109.878C78.2248 110.306 78.232 110.671 78.3135 111.058C78.3909 111.432 78.5363 111.825 78.8467 112.339C79.1572 112.856 79.2583 113.019 80.1092 114.298C80.9612 115.575 81.0736 115.732 81.4315 116.219C81.7894 116.705 82.1009 116.997 82.4207 117.221C82.7528 117.454 83.0953 117.613 83.5419 117.707C83.9895 117.801 84.3701 117.794 84.7724 117.717C85.1623 117.642 85.5718 117.503 86.1091 117.206C86.6476 116.908 86.8178 116.811 88.1504 115.993C89.482 115.176 89.645 115.068 90.1535 114.725C90.6599 114.382 90.9631 114.084 91.1983 113.776C91.4406 113.458 91.6067 113.13 91.7047 112.701C91.8037 112.272 91.7965 111.907 91.715 111.52C91.6366 111.146 91.4922 110.753 91.1818 110.239C90.8713 109.722 90.7702 109.559 89.9183 108.281C89.0673 107.003 88.9549 106.846 88.596 106.359C88.2391 105.873 87.9276 105.582 87.6068 105.357C87.2757 105.124 86.9333 104.965 86.4856 104.871C86.039 104.777 85.6584 104.784 85.2561 104.861C84.8662 104.936 84.4567 105.075 83.9193 105.373C83.3809 105.671 83.2107 105.768 81.8781 106.585C80.5465 107.402 80.3825 107.51 79.875 107.853ZM82.4959 112.834C83.385 114.169 85.2334 114.559 86.6249 113.706C88.0153 112.853 88.4216 111.08 87.5325 109.745C86.6434 108.41 84.795 108.021 83.4036 108.873C82.0132 109.726 81.6058 111.5 82.4959 112.834ZM83.3789 112.292C82.8024 111.426 83.0663 110.274 83.9688 109.721C84.8713 109.168 86.072 109.421 86.6485 110.287C87.2261 111.153 86.9622 112.305 86.0597 112.858C85.1561 113.412 83.9566 113.159 83.3789 112.292ZM80.3454 109.819C80.6714 109.62 81.1025 109.711 81.3109 110.023C81.5182 110.335 81.4233 110.749 81.0984 110.948C80.7735 111.147 80.3413 111.056 80.134 110.744C79.9257 110.433 80.0205 110.018 80.3454 109.819Z" fill="#17DA17"/>
<path d="M438.574 280.448C431.925 284.526 423.09 282.662 418.839 276.284C414.588 269.906 416.532 261.43 423.181 257.352C429.829 253.274 438.665 255.139 442.916 261.516C447.167 267.894 445.223 276.37 438.574 280.448Z" fill="white"/>
<path d="M430.26 264.055C430.752 263.783 431.064 263.7 431.279 263.658C431.565 263.603 431.796 263.605 432.078 263.664C432.359 263.723 432.57 263.815 432.805 263.98C432.982 264.104 433.229 264.304 433.557 264.749C433.911 265.231 434.015 265.377 434.852 266.633C435.689 267.89 435.784 268.041 436.091 268.552C436.375 269.024 436.46 269.323 436.504 269.529C436.561 269.803 436.559 270.025 436.497 270.295C436.436 270.565 436.341 270.767 436.168 270.993C436.038 271.163 435.83 271.399 435.366 271.713C434.864 272.052 434.712 272.152 433.402 272.956C432.092 273.759 431.934 273.849 431.402 274.144C430.91 274.416 430.599 274.499 430.383 274.541C430.097 274.596 429.866 274.594 429.585 274.535C429.303 274.476 429.093 274.384 428.858 274.219C428.679 274.095 428.434 273.895 428.106 273.45C427.752 272.968 427.648 272.822 426.81 271.566C425.973 270.309 425.879 270.158 425.571 269.647C425.288 269.175 425.202 268.877 425.159 268.67C425.101 268.395 425.103 268.174 425.165 267.904C425.227 267.634 425.322 267.432 425.494 267.206C425.624 267.036 425.832 266.799 426.297 266.486C426.799 266.146 426.95 266.047 428.26 265.243C429.57 264.44 429.728 264.349 430.26 264.055ZM425.692 265.664C425.186 266.007 424.881 266.305 424.647 266.612C424.405 266.931 424.239 267.26 424.141 267.688C424.042 268.116 424.049 268.482 424.13 268.868C424.208 269.242 424.353 269.635 424.664 270.15C424.974 270.666 425.075 270.829 425.926 272.108C426.778 273.385 426.891 273.543 427.249 274.029C427.606 274.515 427.918 274.807 428.238 275.032C428.57 275.264 428.912 275.423 429.359 275.518C429.807 275.612 430.187 275.606 430.589 275.528C430.979 275.453 431.389 275.315 431.926 275.017C432.464 274.719 432.635 274.622 433.967 273.805C435.299 272.987 435.462 272.88 435.97 272.536C436.477 272.193 436.78 271.895 437.015 271.587C437.258 271.27 437.424 270.941 437.522 270.512C437.621 270.083 437.613 269.718 437.532 269.331C437.454 268.957 437.309 268.565 436.999 268.05C436.688 267.534 436.587 267.37 435.735 266.092C434.884 264.815 434.772 264.657 434.413 264.171C434.056 263.685 433.744 263.393 433.424 263.168C433.093 262.936 432.75 262.776 432.303 262.681C431.856 262.587 431.475 262.594 431.073 262.672C430.683 262.747 430.274 262.885 429.736 263.183C429.198 263.481 429.028 263.578 427.695 264.395C426.364 265.211 426.2 265.319 425.692 265.664ZM428.313 270.644C429.202 271.979 431.05 272.369 432.442 271.516C433.832 270.663 434.239 268.89 433.349 267.555C432.46 266.221 430.612 265.831 429.221 266.684C427.83 267.537 427.423 269.31 428.313 270.644ZM429.196 270.102C428.619 269.236 428.883 268.085 429.786 267.532C430.688 266.978 431.889 267.231 432.466 268.098C433.043 268.963 432.779 270.115 431.877 270.668C430.973 271.221 429.773 270.969 429.196 270.102ZM426.162 267.63C426.488 267.431 426.919 267.522 427.128 267.833C427.335 268.145 427.24 268.56 426.915 268.759C426.59 268.957 426.158 268.866 425.951 268.555C425.743 268.243 425.838 267.829 426.162 267.63Z" fill="#17DA17"/>
<path d="M271.661 84.6836C279.194 84.6836 285.301 78.8255 285.301 71.5992C285.301 64.373 279.194 58.5149 271.661 58.5149C264.128 58.5149 258.021 64.373 258.021 71.5992C258.021 78.8255 264.128 84.6836 271.661 84.6836Z" fill="white"/>
<path d="M275.699 66.6964C275.015 66.9626 274.293 66.9903 273.632 66.8201C272.874 66.6262 272.196 66.172 271.749 65.519C271.638 65.3577 271.541 65.1845 271.462 64.9995L269.509 65.7584L271.671 70.8758L272.853 73.6799C273.17 74.4289 272.93 75.263 272.319 75.7597C272.142 75.9041 271.933 76.0209 271.698 76.0981C271.398 76.197 271.086 76.2188 270.789 76.1742C270.157 76.0802 269.588 75.6845 269.323 75.0819C268.908 74.14 269.379 73.0565 270.367 72.6736C270.562 72.5984 270.762 72.5559 270.96 72.543L270.369 71.1439L270.156 70.6413C269.96 70.6868 269.766 70.7462 269.576 70.8204C268.496 71.2399 267.667 72.0641 267.273 73.1208C266.975 73.9193 266.964 74.795 267.244 75.5994C267.614 76.6561 268.421 77.4833 269.489 77.9097C269.646 77.9721 269.805 78.0245 269.966 78.068C270.824 78.2966 271.734 78.2471 272.576 77.9206C272.766 77.8464 272.948 77.7603 273.123 77.6624C273.862 77.2448 274.442 76.6175 274.784 75.8517C275.206 74.9107 275.221 73.8738 274.827 72.9299L273.048 68.7475C273.489 68.8653 273.943 68.9286 274.404 68.9345C275.12 68.9444 275.824 68.8178 276.492 68.5575L275.918 67.1971L275.704 66.6924C275.704 66.6944 275.699 66.6964 275.699 66.6964Z" fill="#17DA17"/>
<defs>
<linearGradient id="paint0_linear" x1="53.023" y1="211.533" x2="434.657" y2="211.533" gradientUnits="userSpaceOnUse">
<stop offset="0.0064" stop-color="#FFFF00"/>
<stop offset="0.1184" stop-color="#D1F800"/>
<stop offset="0.253" stop-color="#92EF00"/>
<stop offset="0.3861" stop-color="#5EE700"/>
<stop offset="0.5058" stop-color="#35E100"/>
<stop offset="0.6001" stop-color="#18DD00"/>
<stop offset="0.665" stop-color="#06DA00"/>
<stop offset="0.7442" stop-color="#00D900"/>
</linearGradient>
<linearGradient id="paint1_linear" x1="315.822" y1="393.597" x2="78.6064" y2="104.841" gradientUnits="userSpaceOnUse">
<stop offset="0.0064" stop-color="#FFFF00"/>
<stop offset="0.1184" stop-color="#D1F800"/>
<stop offset="0.253" stop-color="#92EF00"/>
<stop offset="0.3861" stop-color="#5EE700"/>
<stop offset="0.5058" stop-color="#35E100"/>
<stop offset="0.6001" stop-color="#18DD00"/>
<stop offset="0.665" stop-color="#06DA00"/>
<stop offset="0.7442" stop-color="#00D900"/>
</linearGradient>
<linearGradient id="paint2_linear" x1="159.699" y1="251.059" x2="103.025" y2="251.059" gradientUnits="userSpaceOnUse">
<stop stop-color="#32387F"/>
<stop offset="1" stop-color="#1A1643"/>
</linearGradient>
<linearGradient id="paint3_linear" x1="152.821" y1="274.824" x2="197.865" y2="287.693" gradientUnits="userSpaceOnUse">
<stop stop-color="#32387F"/>
<stop offset="1" stop-color="#1A1643"/>
</linearGradient>
</defs>
</svg>
