<svg width="498" height="424" viewBox="0 0 498 424" fill="none" xmlns="http://www.w3.org/2000/svg">
<path opacity="0.6" d="M106.61 70.0389C118.517 50.3202 164.093 12.1982 232.704 34.1377C301.316 56.0773 288.227 128.805 336.875 158.758C385.524 188.712 468.972 286.443 432.276 350.267C395.578 414.091 190.002 420.693 99.8573 314.984C52.451 259.392 71.0763 128.888 106.61 70.0389Z" fill="url(#paint0_linear)"/>
<path d="M307.864 398.97C307.886 395.45 307.921 391.929 307.924 388.409C307.94 370.596 296.382 326.964 296.382 326.964C256.545 314.393 211.833 318.083 171.254 325.772C171.254 325.772 162.986 357.92 157.561 398.97H307.864Z" fill="#015E7E"/>
<path d="M194.1 135.867C194.134 135.314 194.176 134.762 194.223 134.21C194.628 129.636 197.334 123.241 196.321 118.757C196.269 118.527 196.217 118.299 196.165 118.069C193.532 106.43 189.907 94.5792 188.794 82.678C187.872 72.6985 190.441 63.2784 197.704 55.8828C200.093 53.4415 202.769 51.4102 205.657 49.7318C208.619 47.9986 211.799 46.6552 215.116 45.635C218.406 44.6089 221.848 43.9138 225.317 43.5089C238.089 39.144 251.119 41.3748 262.115 47.5827C271.479 50.9245 279.993 55.8649 285.84 64.1411C288.093 67.3283 289.815 70.8944 290.675 74.6651C291.644 78.9114 290.55 83.1478 291.269 87.3542C292.041 91.8638 296.064 94.688 298.434 98.4078C300.535 101.706 300.886 105.518 300.233 109.275C299.514 113.414 297.015 118.352 295.386 123.251C295.786 125.014 296.299 126.752 296.977 128.447C299.801 135.502 305.856 139.283 310.811 144.76C316.063 150.582 315.815 158.806 321.757 164.09C321.928 164.245 322.111 164.41 322.283 164.576C324.638 166.778 326.977 169.649 328.072 172.468C326.742 172.964 325.487 173.593 324.314 174.383C320.296 177.112 318.286 180.113 313.346 181.776C309.323 183.128 305.137 184.117 301.045 185.264C292.427 187.655 285.827 191.374 278.037 195.479C277.158 194.095 276.352 192.658 275.618 191.202C275.38 190.743 275.158 190.295 274.933 189.832C273.955 187.834 273.056 185.804 272.148 183.789C269.572 178.099 266.983 172.413 264.419 166.721C264.144 166.123 263.884 165.536 263.612 164.939C262.989 163.566 262.354 162.184 261.728 160.802C261.104 159.418 260.468 158.037 259.824 156.67C256.02 158.129 252.006 159.086 248.195 159.6C243.307 160.256 237.282 160.979 232.365 159.502C232.356 159.516 232.359 159.528 232.362 159.539C232.293 159.764 232.081 159.976 231.838 160.023C225.821 161.051 219.062 161.818 213.504 159.856C210.724 162.767 206.547 164.173 202.551 161.558C195.115 156.687 193.624 143.741 194.1 135.867Z" fill="#6A433E"/>
<path d="M247.91 140.156L248.585 172.267L229.334 180.022L210.461 172.023L213.627 114.546L243.388 129.287L247.91 140.156Z" fill="#FFA587"/>
<path d="M265.568 136.623L268.978 136.742C269.77 136.77 270.435 136.176 270.464 135.417L271.226 115.249C271.254 114.489 270.635 113.851 269.844 113.824L266.434 113.706C265.642 113.678 264.976 114.272 264.947 115.031L264.185 135.198C264.156 135.957 264.776 136.596 265.568 136.623Z" fill="#8F0051"/>
<path d="M267.705 88.153C267.705 88.153 267.357 118.824 265.951 123.624C264.546 128.425 251.555 146.99 241.511 145.162C231.468 143.336 210.471 127.519 210.471 127.519L200.682 97.3269C200.682 97.3269 201.968 81.0287 203.833 78.7281C205.699 76.4274 229.054 55.8042 232.485 56.6558C235.915 57.5075 244.845 59.472 250.104 64.0265C255.364 68.58 267.705 88.153 267.705 88.153Z" fill="#FFA587"/>
<path d="M230.527 102.829C230.77 100.324 229.962 98.2035 228.722 98.0918C227.482 97.9811 226.279 99.9217 226.035 102.426C225.792 104.931 226.599 107.051 227.84 107.163C229.08 107.274 230.284 105.334 230.527 102.829Z" fill="#36303A"/>
<path d="M256.221 104.088C255.979 106.593 254.775 108.533 253.534 108.422C252.294 108.31 251.487 106.191 251.73 103.686C251.973 101.181 253.176 99.2413 254.416 99.352C255.657 99.4627 256.465 101.583 256.221 104.088Z" fill="#36303A"/>
<path d="M250.152 91.8877C254.143 90.9682 260.427 91.6444 262.782 95.3293C262.908 95.5257 262.937 95.798 262.811 96.0025C261.766 97.6769 258.289 95.9107 256.808 95.6873C254.514 95.3413 252.362 95.4609 250.076 95.439C249.268 95.431 248.431 95.5168 247.834 94.8447C246.4 93.2261 248.899 92.1759 250.152 91.8877Z" fill="#6A433E"/>
<path d="M235.128 95.2195C234.479 95.8438 233.652 95.6942 232.848 95.6404C230.569 95.4878 228.438 95.2056 226.127 95.3751C224.633 95.4848 221.027 96.9776 220.125 95.2314C220.015 95.018 220.068 94.7487 220.208 94.5632C222.858 91.0758 229.167 90.8824 233.064 92.101C234.29 92.484 236.69 93.7196 235.128 95.2195Z" fill="#6A433E"/>
<path d="M199.962 105.217C198.621 97.7515 197.707 90.1603 199.39 82.8086C199.016 81.9898 198.036 81.581 197.539 80.825C197.042 80.0691 197.793 78.669 198.549 79.1886C198.197 73.4294 197.851 67.5866 199.118 61.9461C200.386 56.3067 203.494 50.7978 208.637 47.8081C213.407 45.0347 219.43 44.7385 224.827 46.0878C226.823 43.0213 231.28 42.5984 235.03 42.9594C241.977 43.6285 248.746 45.8844 254.651 49.4545C256.025 50.2862 257.605 51.1588 258.693 52.3286C259.737 53.4535 261.294 54.1775 262.504 55.1578C265.177 57.3238 267.414 59.9576 269.23 62.8197C270.975 65.5661 272.344 68.5269 273.374 71.5845C275.964 79.2614 276.561 87.405 277.14 95.4538C277.596 101.764 278.049 108.075 278.504 114.387C278.636 116.239 278.765 118.139 278.201 119.915C277.636 121.691 276.216 123.34 274.311 123.67C274.874 124.327 274.152 125.516 273.277 125.37C270.181 118.387 269.753 110.634 268.539 103.135C267.326 95.6353 265.765 91.8807 259.974 86.7119C251.004 78.7089 235.998 79.0569 227.883 70.2542C226.141 75.0041 221.252 77.8563 217.371 81.2479C214.024 84.1749 210.537 83.6723 208.578 87.5905C207.032 86.5503 204.727 87.3811 203.678 88.8879C202.629 90.3948 202.531 92.3215 202.603 94.1325C202.722 97.0884 203.206 100.032 204.041 102.88C204.662 105.004 205.497 107.105 206.879 108.866C207.564 109.739 208.379 110.523 208.964 111.461C209.616 112.504 209.959 113.694 210.265 114.873C211.085 118.033 210.558 131.861 209.052 132.327C203.989 125.843 202.316 117.562 200.782 109.594C200.504 108.143 200.225 106.683 199.962 105.217Z" fill="#6A433E"/>
<path d="M239.709 145.732C241.706 145.614 242.629 145.183 242.769 145.11C243.211 144.885 243.38 144.359 243.145 143.934C242.912 143.512 242.368 143.353 241.93 143.567C241.878 143.592 240.168 144.342 236.052 143.856C232.95 143.49 221.168 132.013 214.471 124.866C214.135 124.508 213.559 124.481 213.19 124.8C212.817 125.121 212.788 125.671 213.121 126.028C214.942 127.969 231.039 145.015 235.832 145.581C237.423 145.77 238.702 145.791 239.709 145.732Z" fill="#ED835C"/>
<path d="M244.944 120.399C245.629 120.232 246.261 119.919 246.735 119.386C248.311 117.608 246.7 106.01 245.933 101.106C245.859 100.631 245.397 100.305 244.902 100.375C244.413 100.448 244.066 100.889 244.14 101.365C245.277 108.641 246.058 117.176 245.34 118.277C244.472 119.251 241.722 118.693 240.828 118.418C240.353 118.272 239.84 118.521 239.686 118.979C239.534 119.436 239.793 119.926 240.27 120.073C240.618 120.181 242.995 120.877 244.944 120.399Z" fill="#FFA587"/>
<path d="M207.764 109.462C208.36 111.704 210.025 113.232 211.484 112.875C212.942 112.519 213.641 110.412 213.045 108.17C212.45 105.928 210.784 104.401 209.326 104.757C207.868 105.114 207.169 107.222 207.764 109.462Z" fill="white"/>
<path d="M208.923 134.985L212.334 135.066C213.126 135.085 213.784 134.483 213.804 133.723L214.323 113.549C214.343 112.789 213.716 112.158 212.924 112.139L209.513 112.058C208.721 112.039 208.063 112.64 208.043 113.4L207.522 133.575C207.504 134.335 208.131 134.966 208.923 134.985Z" fill="#8F0051"/>
<path d="M229.785 68.1253C230.099 68.0495 230.296 67.7484 230.227 67.4422C230.19 67.2797 229.313 63.4074 227.483 61.4368C226.771 60.6699 226.084 60.2929 225.477 59.9588C224.541 59.4432 223.801 59.0364 223.177 57.1935C222.728 55.8731 222.366 54.5248 222.046 53.3341C221.562 51.5361 221.144 49.9832 220.571 48.965C219.556 47.162 217.106 46.3633 217.001 46.3294C216.683 46.2276 216.343 46.3921 216.237 46.6953C216.131 46.9985 216.301 47.3276 216.618 47.4294C216.638 47.4363 218.721 48.1214 219.505 49.5155C220.008 50.4101 220.408 51.899 220.873 53.6232C221.197 54.8289 221.564 56.1972 222.025 57.5525C222.794 59.8202 223.852 60.4016 224.874 60.963C225.452 61.2811 225.998 61.5814 226.577 62.2067C228.193 63.9469 229.035 67.6456 229.042 67.6825C229.112 67.9957 229.434 68.1951 229.761 68.1283C229.771 68.1283 229.779 68.1273 229.785 68.1253Z" fill="#36303A"/>
<path d="M312.221 184.743C312.224 184.742 312.227 184.742 312.23 184.74C312.552 184.655 312.742 184.335 312.654 184.028C312.559 183.696 310.271 175.808 305.67 169.992C304.22 168.162 302.783 166.476 301.261 164.691C297.996 160.865 294.622 156.907 290.922 151.212C288.128 146.907 287.923 143.521 287.707 139.937C287.516 136.794 287.321 133.544 285.225 129.742C283.077 125.844 281.029 123.685 279.383 121.951C277.657 120.132 276.411 118.82 275.761 116.371C275.272 114.532 275.317 111.952 275.368 108.964C275.455 103.938 275.56 97.6819 273.25 91.2695C269.525 80.935 258.21 77.674 257.73 77.5404C257.408 77.4506 257.076 77.6271 256.982 77.9353C256.889 78.2424 257.072 78.5635 257.392 78.6533C257.504 78.6842 268.592 81.8904 272.107 91.6475C274.349 97.8654 274.243 104.008 274.159 108.944C274.107 112.015 274.061 114.668 274.59 116.657C275.316 119.384 276.717 120.861 278.491 122.73C280.091 124.416 282.081 126.514 284.157 130.282C286.132 133.861 286.312 136.844 286.501 140.001C286.716 143.574 286.938 147.266 289.896 151.823C293.637 157.581 297.037 161.568 300.324 165.422C301.839 167.198 303.27 168.876 304.705 170.691C309.164 176.325 311.465 184.252 311.488 184.331C311.576 184.64 311.901 184.822 312.221 184.743Z" fill="#36303A"/>
<path d="M281.539 99.3741C281.799 99.3103 281.992 99.0839 281.992 98.8127C281.992 98.341 281.886 87.1198 272.042 75.5098C262.158 63.8579 246.44 63.2047 246.283 63.1997C245.945 63.1867 245.67 63.4401 245.658 63.7592C245.647 64.0793 245.908 64.3475 246.24 64.3595C246.392 64.3645 261.576 65.0087 271.103 76.2428C280.664 87.5157 280.783 98.702 280.783 98.8127C280.783 99.1328 281.053 99.392 281.388 99.392C281.44 99.392 281.491 99.3851 281.539 99.3741Z" fill="#36303A"/>
<path d="M209.723 84.4592C209.836 84.4313 209.942 84.3724 210.024 84.2827C210.055 84.2498 213.108 80.9918 218.519 77.8754C224.171 74.6194 226.824 69.5971 226.934 69.3847C227.081 69.0985 226.961 68.7514 226.663 68.6068C226.364 68.4652 226.001 68.5789 225.852 68.8671C225.826 68.916 223.234 73.8065 217.897 76.8811C212.317 80.0952 209.248 83.3742 209.12 83.5118C208.899 83.7512 208.922 84.1171 209.171 84.3295C209.328 84.4642 209.535 84.5051 209.723 84.4592Z" fill="#36303A"/>
<path d="M264.109 155.642C264.131 155.636 264.151 155.63 264.174 155.623C264.486 155.51 264.644 155.176 264.527 154.876C264.503 154.815 262.161 148.831 261.263 144.443C260.369 140.06 260.225 138.723 260.225 138.709C260.193 138.39 259.896 138.157 259.565 138.188C259.22 138.225 258.99 138.502 259.021 138.82C259.027 138.874 259.166 140.198 260.077 144.664C260.993 149.151 263.296 155.036 263.394 155.284C263.504 155.563 263.815 155.713 264.109 155.642Z" fill="#36303A"/>
<path d="M245.417 106.009C246.555 113.285 247.208 117.748 245.641 118.71C244.773 119.684 242.023 119.127 241.129 118.851" stroke="#ED835C" stroke-opacity="0.2" stroke-width="1.5775" stroke-miterlimit="10" stroke-linecap="round"/>
<path d="M266.372 168.24C266.372 168.24 258.544 166.155 254.23 161.54C249.917 156.923 246.571 153.348 246.571 153.348L214.985 149.775C214.985 149.775 207.999 154.393 202.565 157.371C197.131 160.349 193.716 160.796 193.716 160.796C193.716 160.796 203.159 174.349 206.743 175.539C210.328 176.73 219.642 180.751 228.491 180.751C237.34 180.751 241.065 182.24 249.605 178.07C258.145 173.9 266.372 168.24 266.372 168.24Z" fill="#FFA587"/>
<path d="M133.107 254.932C134.149 240.69 134.545 231.174 135.469 216.925C136.285 204.331 137.911 197.49 143.71 186.079C146.083 177.394 153.982 171.812 162.364 168.601C168.416 166.284 174.675 164.514 180.958 162.879C184.112 162.058 187.278 161.277 190.44 160.477C192.751 159.89 195.395 157.833 197.814 158.882C199.806 159.746 201.041 161.884 202.667 163.22C204.845 165.012 207.276 166.519 209.733 167.942C213.79 170.29 218.18 172.103 222.746 173.317C231.858 175.743 241.614 175.759 250.729 173.338C253.626 172.569 256.417 171.491 259.171 170.345C260.241 169.899 261.39 169.544 262.408 168.992C263.422 168.443 264.122 167.627 265.118 167.044C267.288 165.769 268.763 167.299 270.733 168.093C272.825 168.933 274.919 169.77 277.008 170.617C281.3 172.357 285.575 174.133 289.778 176.067C298.029 179.862 304.406 185.524 310.072 192.305C315.108 198.333 316.598 206.002 319.335 213.366C322.207 221.089 325.753 224.101 327.64 232.119C329.297 239.159 327.138 252.842 330.065 259.74C333.068 266.814 337.778 280.069 338.303 287.814C338.782 294.854 337.708 302.365 334.431 308.74C331.078 315.26 325.083 319.543 317.416 319.932C316.461 319.98 315.516 319.964 314.577 319.909C316.212 320.006 319.618 332.93 320.101 334.6C322.94 344.395 325.919 356.682 323.998 366.858C320.397 385.94 300.926 393.665 299.904 391.301C298.481 388.009 301.197 344.315 296.637 333.665C281.567 326.828 264.202 326.643 247.753 326.886C231.456 327.128 215.181 328.14 198.986 329.878C193.831 344.573 188.675 359.268 183.52 373.963L179.163 386.382C178.22 389.069 177.52 392.803 175.069 394.691C174.576 395.071 174.011 395.315 173.427 395.452C173.37 395.773 173.101 396.038 172.7 395.885C172.442 395.787 172.197 395.676 171.945 395.569C170.773 395.481 169.704 394.974 169.134 394.166C153.66 395.93 150.692 379.662 149.623 367.474C148.371 353.207 158.398 309.728 160.75 295.606C156.934 296.367 130.08 311.379 133.107 254.932Z" fill="#B40057"/>
<path d="M251.031 159.145C251.133 158.344 251.3 157.596 251.511 156.888C251.07 153.927 250.847 150.927 250.641 147.964C250.588 147.21 251.807 146.969 251.859 147.735C252.015 149.98 252.189 152.273 252.464 154.554C257.58 145.073 274.004 146.037 283.206 149.379C292.633 152.801 300.546 159.46 305.32 167.869C312.17 173.152 318.692 179.329 320.037 188.002C320.757 192.651 319.284 198.469 315.673 201.432C311.073 200.731 306.84 198.976 302.116 198.727C297.115 198.463 292.618 199.487 287.866 200.857C285.954 201.407 283.631 202.151 281.35 202.447C280.551 202.01 279.813 201.443 279.165 200.717C276.116 197.302 276.311 192.3 274.392 188.376C272.101 183.692 267.391 180.783 263.317 177.649C259.135 174.433 255.809 170.808 253.85 165.956C253.024 163.91 252.438 161.798 252 159.655C251.614 159.899 250.959 159.71 251.031 159.145Z" fill="#6A433E"/>
<path d="M197.23 320.908C197.23 320.908 182.12 393.583 167.423 394.378C152.726 395.172 150.637 375.414 150.637 375.414C150.637 375.414 160.799 330.042 161.007 329.447C161.214 328.851 168.872 316.938 174.875 316.938C180.877 316.938 197.23 320.908 197.23 320.908Z" fill="#B40057"/>
<path d="M178.033 256.16C178.342 256.16 178.607 255.933 178.634 255.632C178.651 255.45 180.239 237.378 177.852 224.061C176.596 217.059 150.866 188.127 149.77 186.899C149.553 186.655 149.171 186.63 148.918 186.836C148.663 187.043 148.635 187.411 148.851 187.652C149.116 187.951 175.459 217.568 176.658 224.258C179.021 237.427 177.446 255.354 177.428 255.533C177.399 255.851 177.646 256.132 177.978 256.159C177.999 256.16 178.017 256.16 178.033 256.16Z" fill="black"/>
<path d="M313.716 320.395C313.922 320.395 314.125 320.294 314.237 320.11C314.405 319.835 314.312 319.48 314.026 319.316C313.932 319.265 304.73 313.925 301.728 302.547C298.669 290.957 297.255 279.21 297.241 279.093C297.203 278.775 296.901 278.543 296.571 278.584C296.24 278.619 296.002 278.907 296.039 279.224C296.054 279.343 297.475 291.163 300.556 302.831C303.686 314.693 313.014 320.09 313.41 320.315C313.504 320.37 313.611 320.395 313.716 320.395Z" fill="black"/>
<path d="M292.445 233.872C292.485 233.872 292.525 233.868 292.564 233.861C292.892 233.799 293.104 233.494 293.04 233.18C292.915 232.585 290.874 217.846 290.098 212.218C290.051 211.9 289.748 211.679 289.419 211.72C289.087 211.761 288.854 212.054 288.898 212.371C289.011 213.199 291.697 232.652 291.854 233.406C291.911 233.68 292.163 233.872 292.445 233.872Z" fill="black"/>
<path d="M173.935 347.055C174.196 347.055 174.436 346.892 174.514 346.639C174.558 346.497 178.929 332.451 183.56 328.439C188.214 324.407 195.689 322.375 195.763 322.354C196.085 322.268 196.272 321.949 196.182 321.64C196.093 321.333 195.758 321.152 195.438 321.237C195.122 321.322 187.613 323.364 182.749 327.578C177.866 331.808 173.535 345.721 173.353 346.311C173.258 346.618 173.441 346.94 173.762 347.031C173.821 347.047 173.878 347.055 173.935 347.055Z" fill="black"/>
<path d="M296.641 336.927C296.918 336.927 297.168 336.742 297.231 336.474C297.304 336.162 297.098 335.852 296.774 335.782C296.55 335.733 274.236 330.985 248.81 329.066C226.624 327.395 198.641 330.822 198.361 330.856C198.03 330.897 197.796 331.189 197.839 331.506C197.883 331.823 198.18 332.045 198.517 332.006C198.795 331.971 226.653 328.56 248.715 330.223C274.058 332.134 296.287 336.864 296.51 336.912C296.555 336.922 296.598 336.927 296.641 336.927Z" fill="black"/>
<path d="M244.501 327.619C246.081 327.619 247.318 325.778 247.318 323.427C247.318 321.077 246.082 319.236 244.501 319.236C242.921 319.236 241.684 321.076 241.684 323.427C241.684 325.777 242.92 327.619 244.501 327.619ZM244.501 320.395C245.261 320.395 246.11 321.641 246.11 323.428C246.11 325.214 245.262 326.459 244.501 326.459C243.739 326.459 242.892 325.214 242.892 323.428C242.892 321.641 243.739 320.395 244.501 320.395Z" fill="black"/>
<path d="M240.286 398.97C240.606 398.97 240.873 398.771 240.889 398.517L245.104 330.336C245.121 330.074 244.864 329.849 244.531 329.837C244.148 329.825 243.913 330.026 243.897 330.29L239.682 398.47C239.665 398.733 239.922 398.958 240.256 398.97C240.266 398.97 240.276 398.97 240.286 398.97Z" fill="black"/>
<path d="M241.473 390.617C241.796 390.617 242.064 390.373 242.077 390.062C242.09 389.741 241.833 389.473 241.501 389.458C241.285 389.448 236.201 389.091 234.463 380.567C232.637 371.615 236.094 329.655 236.129 329.232C236.156 328.912 235.908 328.634 235.576 328.608C235.239 328.591 234.951 328.819 234.925 329.139C234.78 330.872 231.419 371.682 233.278 380.789C235.209 390.263 241.195 390.606 241.448 390.617C241.456 390.617 241.465 390.617 241.473 390.617Z" fill="black"/>
<path d="M299.693 362.591C299.791 362.591 299.889 362.569 299.982 362.521C300.275 362.367 300.382 362.016 300.224 361.735L284.287 333.681C284.125 333.399 283.76 333.297 283.467 333.449C283.174 333.602 283.066 333.954 283.225 334.235L299.162 362.289C299.271 362.481 299.479 362.591 299.693 362.591Z" fill="black"/>
<path d="M190.608 355.244C190.803 355.244 190.998 355.154 191.113 354.982L207.625 330.857C207.808 330.589 207.73 330.229 207.451 330.054C207.175 329.879 206.798 329.95 206.614 330.22L190.102 354.345C189.919 354.613 189.997 354.973 190.276 355.149C190.378 355.213 190.492 355.244 190.608 355.244Z" fill="black"/>
<path d="M248.377 127.214C248.41 127.147 243.025 127.463 240.496 127.609C240.297 127.62 240.098 127.63 239.899 127.642C239.169 128.092 238.37 128.231 237.465 128.28C235.946 128.361 234.031 127.922 232.694 127.097C232.744 127.176 232.794 127.255 232.844 127.335C232.847 127.363 232.861 127.389 232.888 127.407C233.666 128.637 234.556 129.851 235.962 130.682C237.413 131.537 239.232 131.926 241.04 131.958C242.121 131.977 243.77 131.746 244.829 131.551C246.968 131.155 247.955 128.074 248.377 127.214Z" fill="white"/>
<path d="M248.385 127.122C247.82 126.088 247.495 125.078 246.042 125.24C244.92 125.366 244.073 126.169 243.223 126.837C243.312 126.482 243.262 126.126 242.913 125.819C242.21 125.202 241.021 125.303 240.174 125.512C239.052 125.789 238.064 126.376 237.005 126.8C235.635 127.348 234.214 127.431 232.8 126.965C232.675 126.924 232.594 127.051 232.63 127.142C232.63 127.18 232.645 127.218 232.685 127.246C234.995 128.914 238.286 129.025 241.113 129.161C244.565 129.327 247.08 129.081 248.311 127.419C248.384 127.291 248.443 127.228 248.385 127.122Z" fill="#D56C4E"/>
<path d="M166.509 266.163C166.759 266.08 166.933 265.846 166.915 265.579C166.907 265.457 166.215 253.334 170.946 243.284C175.63 233.332 193.103 228.211 193.28 228.16C193.661 228.07 193.782 227.744 193.686 227.439C193.59 227.132 193.252 226.958 192.933 227.05C192.188 227.263 174.754 232.383 169.845 242.807C164.986 253.125 165.702 265.525 165.71 265.648C165.729 265.968 166.015 266.212 166.348 266.193C166.405 266.189 166.459 266.179 166.509 266.163Z" fill="black"/>
<path d="M160.418 261.943C160.705 261.85 160.879 261.558 160.811 261.267C160.799 261.214 159.637 255.954 163.628 248.599C167.649 241.184 176.208 236.823 176.296 236.779C176.59 236.63 176.705 236.28 176.55 235.997C176.396 235.713 176.032 235.606 175.734 235.752C175.371 235.936 166.751 240.328 162.558 248.064C158.347 255.825 159.58 261.295 159.634 261.524C159.708 261.837 160.031 262.03 160.356 261.96C160.376 261.956 160.397 261.95 160.418 261.943Z" fill="black"/>
<path d="M193.717 221.428C193.717 221.428 178.161 211.465 160.834 233.872C143.507 256.279 127.192 293.789 143.93 308.136C170.883 331.239 184.1 297.613 196.204 281.766C208.308 265.918 224.537 253.287 217.982 236.998C211.427 220.71 193.717 221.428 193.717 221.428Z" fill="#B40057"/>
<path d="M247.73 213.613C247.73 213.613 188.613 245.376 159.484 263.235C151.641 270.986 154.785 288.019 170.252 288.622C198.1 284.126 254.35 224.361 254.35 224.361L247.73 213.613Z" fill="#FFA587"/>
<path d="M203.207 238.01C203.207 238.01 173.933 225.019 146.51 256.16" stroke="black" stroke-miterlimit="10"/>
<path d="M210.836 264.043C210.836 264.043 219.49 277.259 184.767 304.811" stroke="black" stroke-miterlimit="10"/>
<path d="M190.003 235.375C190.003 235.375 167.721 230.15 159.424 238.993" stroke="black" stroke-miterlimit="10"/>
<path d="M221.871 105.427C221.871 105.427 226.982 103.314 232.7 106.324C238.418 109.334 230.015 114.019 230.015 114.019L221.871 105.427Z" fill="#FFA587"/>
<path d="M248.736 106.528C248.736 106.528 253.848 104.416 259.566 107.426C265.283 110.435 256.88 115.121 256.88 115.121L248.736 106.528Z" fill="#FFA587"/>
<path d="M263.357 218.785C259.812 221.195 256.42 224.347 251.956 224.938C248.272 225.427 245.528 223.649 243.005 221.398C242.534 221.608 241.895 221.164 242.231 220.688C242.187 220.646 242.141 220.607 242.097 220.565C241.566 220.064 242.383 219.281 242.912 219.781C247.909 213.341 253.042 206.958 257.852 200.4C259.147 198.633 262.989 198.933 264.972 199.042C267.612 199.184 270.262 199.722 272.709 200.693C275.715 201.887 275.822 204.214 274.787 206.464C275.474 207.243 275.969 208.142 276.032 209.227C276.1 210.397 275.608 211.37 274.89 212.209C275.311 212.77 275.586 213.414 275.604 214.167C275.644 215.891 274.286 216.969 272.832 217.727C271.191 220.763 266.762 219.569 263.357 218.785Z" fill="#FFA587"/>
<path d="M267.516 203.559L273.589 206.541C273.936 206.712 274.36 206.58 274.537 206.248C274.714 205.917 274.578 205.51 274.23 205.339L268.157 202.358C267.811 202.187 267.387 202.32 267.21 202.652C267.098 202.861 267.112 203.103 267.227 203.294C267.291 203.403 267.389 203.496 267.516 203.559Z" fill="#ED835C"/>
<path d="M268.26 208.564L273.854 212.297C274.173 212.509 274.612 212.434 274.834 212.127C275.056 211.821 274.981 211.402 274.657 211.187L269.063 207.454C268.744 207.242 268.306 207.318 268.084 207.623C267.923 207.845 267.92 208.125 268.051 208.344C268.101 208.43 268.171 208.504 268.26 208.564Z" fill="#ED835C"/>
<path d="M266.865 213.12L271.941 217.224C272.238 217.465 272.682 217.429 272.934 217.145C273.184 216.859 273.147 216.432 272.849 216.192L267.775 212.088C267.478 211.847 267.033 211.883 266.782 212.168C266.587 212.391 266.566 212.7 266.708 212.938C266.747 213.005 266.801 213.067 266.865 213.12Z" fill="#ED835C"/>
<path d="M325.08 232.518C325.08 232.518 319.731 226.798 318.981 223.208C318.23 219.617 343.124 213.885 344.034 216.573C345.263 220.207 325.635 227.673 325.635 227.673L325.08 232.518Z" fill="#FFA587"/>
<path d="M325.08 237.802C325.08 237.802 319.731 232.082 318.981 228.491C318.23 224.9 343.124 219.168 344.034 221.857C345.263 225.491 325.635 232.956 325.635 232.956L325.08 237.802Z" fill="#FFA587"/>
<path d="M325.08 243.162C325.08 243.162 319.731 237.442 318.981 233.852C318.23 230.261 343.124 224.528 344.034 227.217C345.263 230.851 325.635 238.316 325.635 238.316L325.08 243.162Z" fill="#FFA587"/>
<path d="M322.351 248.273C322.351 248.273 317.002 242.553 316.251 238.963C315.501 235.372 340.395 229.639 341.305 232.328C342.534 235.962 322.906 243.427 322.906 243.427L322.351 248.273Z" fill="#FFA587"/>
<path d="M333.797 182.856H282.057V259.467H333.797V182.856Z" fill="url(#paint1_linear)"/>
<path d="M280.224 177.95V264.898C280.224 267.676 282.403 269.93 285.091 269.93H330.754C333.442 269.93 335.622 267.677 335.622 264.898V177.95C335.622 175.178 333.442 172.926 330.754 172.926H285.091C282.403 172.926 280.224 175.178 280.224 177.95ZM333.797 259.467H282.056V182.856H333.797V259.467Z" fill="#103B52"/>
<path d="M313.814 179.007H302.029C301.629 179.007 301.305 178.689 301.305 178.305C301.305 177.921 301.628 177.61 302.029 177.61H313.814C314.223 177.61 314.546 177.92 314.546 178.305C314.546 178.689 314.223 179.007 313.814 179.007Z" fill="#56538E"/>
<path d="M311.196 265.187C311.196 266.923 309.733 268.328 307.922 268.328C306.119 268.328 304.656 266.924 304.656 265.187C304.656 263.45 306.119 262.046 307.922 262.046C309.733 262.046 311.196 263.45 311.196 265.187Z" fill="#56538E"/>
<path d="M311.181 184.733H304.664V186.352H311.181V184.733Z" fill="#B1B2F5"/>
<path d="M330.014 184.733H323.52V186.352H330.014V184.733Z" fill="#B1B2F5"/>
<path d="M292.208 184.733H285.707V186.352H292.208V184.733Z" fill="#B1B2F5"/>
<path d="M280.223 246.611C280.223 246.611 273.099 241.658 273.099 237.996C273.099 227.857 273.099 221.429 277.488 219.221C281.016 217.447 280.223 241.736 280.223 241.736V246.611Z" fill="#FFA587"/>
<path opacity="0.6" d="M307.653 242.83C287.751 232.722 287.916 208.012 287.916 208.012C301.967 208.012 307.905 199.991 307.905 199.991H307.946C307.946 199.991 313.882 208.012 327.934 208.012C327.934 208.012 328.101 232.723 308.195 242.83H307.653Z" fill="url(#paint2_linear)"/>
<path d="M308.194 244.227H307.652C307.415 244.227 307.182 244.173 306.972 244.067C286.522 233.681 286.455 209.046 286.461 208.004C286.465 207.237 287.113 206.616 287.915 206.616C300.974 206.616 306.494 199.481 306.723 199.176C307.268 198.446 308.59 198.446 309.131 199.18C309.357 199.48 314.876 206.615 327.933 206.615C328.733 206.615 329.38 207.236 329.392 208.003C329.396 209.045 329.329 233.681 308.881 244.066C308.668 244.172 308.433 244.227 308.194 244.227ZM289.428 209.379C289.757 214.542 292.041 233.028 307.924 241.385C323.803 233.028 326.094 214.542 326.423 209.379C316.099 208.97 310.246 204.407 307.924 202.102C305.603 204.407 299.748 208.97 289.428 209.379Z" fill="white"/>
<path d="M406.815 75.395C406.815 91.5834 393.131 104.705 376.256 104.705C359.376 104.705 345.696 91.5834 345.696 75.395C345.696 59.1976 359.376 46.0728 376.256 46.0728C393.13 46.0728 406.815 59.1986 406.815 75.395Z" fill="white"/>
<path d="M388.326 76.128H383.892V65.611C383.892 61.5741 380.465 58.2842 376.252 58.2842C372.044 58.2842 368.617 61.5741 368.617 65.611V76.128H364.184V65.611C364.184 59.2255 369.598 54.0319 376.252 54.0319C382.912 54.0319 388.326 59.2255 388.326 65.611V76.128Z" fill="#17DA17"/>
<path d="M360.906 72.4721V88.854C360.906 90.4246 362.228 91.6892 363.863 91.6892H388.646C390.281 91.6892 391.604 90.4246 391.604 88.854V72.4721C391.604 70.9044 390.281 69.6339 388.646 69.6339H363.863C362.227 69.6339 360.906 70.9044 360.906 72.4721Z" fill="#17DA17"/>
<path d="M378.827 78.2949C378.827 76.9356 377.677 75.8317 376.256 75.8317C374.832 75.8317 373.683 76.9366 373.683 78.2949C373.683 79.2632 374.27 80.096 375.113 80.5008V84.408C375.113 85.0104 375.626 85.5011 376.256 85.5011C376.884 85.5011 377.396 85.0104 377.396 84.408V80.5008C378.24 80.095 378.827 79.2632 378.827 78.2949Z" fill="white"/>
<path d="M128.864 172.929C128.864 183.157 120.218 191.447 109.556 191.447C98.8911 191.447 90.249 183.157 90.249 172.929C90.249 162.697 98.8921 154.403 109.556 154.403C120.217 154.403 128.864 162.696 128.864 172.929Z" fill="white"/>
<path d="M117.183 173.392H114.381V166.747C114.381 164.196 112.215 162.118 109.554 162.118C106.895 162.118 104.73 164.196 104.73 166.747V173.392H101.929V166.747C101.929 162.714 105.349 159.432 109.554 159.432C113.762 159.432 117.183 162.713 117.183 166.747V173.392Z" fill="#17DA17"/>
<path d="M99.8584 171.083V181.432C99.8584 182.424 100.693 183.224 101.728 183.224H117.385C118.418 183.224 119.253 182.424 119.253 181.432V171.083C119.253 170.092 118.418 169.289 117.385 169.289H101.728C100.693 169.288 99.8584 170.091 99.8584 171.083Z" fill="#17DA17"/>
<path d="M111.181 174.761C111.181 173.903 110.454 173.205 109.556 173.205C108.657 173.205 107.93 173.903 107.93 174.761C107.93 175.374 108.301 175.899 108.835 176.155V178.624C108.835 179.005 109.159 179.314 109.556 179.314C109.952 179.314 110.277 179.004 110.277 178.624V176.155C110.811 175.898 111.181 175.373 111.181 174.761Z" fill="white"/>
<path d="M427.604 333.385C427.604 347.27 415.866 358.526 401.391 358.526C386.912 358.526 375.178 347.27 375.178 333.385C375.178 319.491 386.912 308.233 401.391 308.233C415.866 308.232 427.604 319.491 427.604 333.385Z" fill="white"/>
<path d="M411.745 334.013H407.943V324.992C407.943 321.528 405.002 318.707 401.389 318.707C397.779 318.707 394.841 321.529 394.841 324.992V334.013H391.037V324.992C391.037 319.515 395.68 315.06 401.389 315.06C407.101 315.06 411.745 319.515 411.745 324.992V334.013Z" fill="#17DA17"/>
<path d="M388.225 330.876V344.928C388.225 346.275 389.359 347.36 390.762 347.36H412.021C413.424 347.36 414.557 346.275 414.557 344.928V330.876C414.557 329.531 413.423 328.441 412.021 328.441H390.762C389.359 328.442 388.225 329.532 388.225 330.876Z" fill="#17DA17"/>
<path d="M403.597 335.872C403.597 334.706 402.611 333.759 401.392 333.759C400.172 333.759 399.185 334.706 399.185 335.872C399.185 336.703 399.688 337.417 400.413 337.765V341.115C400.413 341.632 400.853 342.053 401.392 342.053C401.931 342.053 402.37 341.632 402.37 341.115V337.765C403.094 337.416 403.597 336.703 403.597 335.872Z" fill="white"/>
<path d="M418.492 198.955C418.492 209.183 409.846 217.473 399.185 217.473C388.52 217.473 379.877 209.183 379.877 198.955C379.877 188.722 388.52 180.429 399.185 180.429C409.846 180.429 418.492 188.722 418.492 198.955Z" fill="white"/>
<path d="M399.055 209.109C389.61 204.311 389.688 192.584 389.688 192.584C396.356 192.584 399.175 188.777 399.175 188.777H399.195C399.195 188.777 402.012 192.584 408.681 192.584C408.681 192.584 408.76 204.311 399.312 209.109H399.055Z" fill="#17DA17"/>
<path d="M399.312 209.771H399.055C398.943 209.771 398.833 209.745 398.732 209.696C389.026 204.766 388.994 193.074 388.997 192.58C388.999 192.216 389.307 191.92 389.687 191.92C395.884 191.92 398.505 188.534 398.613 188.39C398.872 188.044 399.499 188.044 399.756 188.392C399.863 188.535 402.483 191.92 408.68 191.92C409.059 191.92 409.367 192.216 409.372 192.58C409.374 193.074 409.342 204.767 399.637 209.696C399.536 209.746 399.425 209.771 399.312 209.771ZM390.405 193.233C390.561 195.683 391.645 204.457 399.183 208.423C406.719 204.457 407.806 195.683 407.962 193.233C403.063 193.039 400.285 190.872 399.183 189.779C398.082 190.872 395.303 193.038 390.405 193.233Z" fill="#17DA17"/>
<path d="M125.194 68.5529C125.194 85.7914 110.621 99.7649 92.6511 99.7649C74.6756 99.7649 60.1089 85.7914 60.1089 68.5529C60.1089 51.3044 74.6766 37.3279 92.6511 37.3279C110.621 37.3279 125.194 51.3044 125.194 68.5529Z" fill="white"/>
<path d="M92.4314 85.6677C76.5101 77.5819 76.6421 57.8143 76.6421 57.8143C87.8832 57.8143 92.6331 51.398 92.6331 51.398H92.6664C92.6664 51.398 97.4152 57.8143 108.655 57.8143C108.655 57.8143 108.789 77.5819 92.8649 85.6677H92.4314Z" fill="#17DA17"/>
<path d="M92.8647 86.7846H92.4312C92.242 86.7846 92.056 86.7417 91.8865 86.656C75.5275 78.3478 75.4735 58.6402 75.4787 57.8065C75.4818 57.1931 76.0005 56.6955 76.642 56.6955C87.0878 56.6955 91.5039 50.9882 91.6869 50.7449C92.1235 50.1615 93.1808 50.1615 93.6133 50.7479C93.7942 50.9882 98.2082 56.6955 108.654 56.6955C109.294 56.6955 109.812 57.1922 109.82 57.8065C109.824 58.6402 109.771 78.3478 93.4127 86.656C93.2432 86.7417 93.056 86.7846 92.8647 86.7846ZM77.8531 58.9084C78.1161 63.038 79.9427 77.8273 92.6496 84.5118C105.352 77.8273 107.185 63.038 107.447 58.9084C99.1886 58.5813 94.5063 54.9303 92.6496 53.0874C90.7918 54.9303 86.1074 58.5813 77.8531 58.9084Z" fill="#17DA17"/>
<path d="M111.959 351.292C111.959 361.52 103.314 369.81 92.6519 369.81C81.9868 369.81 73.3447 361.52 73.3447 351.292C73.3447 341.059 81.9868 332.766 92.6519 332.766C103.314 332.767 111.959 341.059 111.959 351.292Z" fill="white"/>
<path d="M92.522 361.446C83.0763 356.65 83.1543 344.921 83.1543 344.921C89.8233 344.921 92.6417 341.114 92.6417 341.114H92.6614C92.6614 341.114 95.4787 344.921 102.148 344.921C102.148 344.921 102.227 356.649 92.7788 361.446H92.522Z" fill="#17DA17"/>
<path d="M92.7788 362.11H92.522C92.4097 362.11 92.2995 362.084 92.1987 362.034C82.4931 357.105 82.4608 345.413 82.464 344.918C82.466 344.554 82.7738 344.259 83.1542 344.259C89.3523 344.259 91.972 340.872 92.0802 340.728C92.339 340.382 92.9659 340.382 93.2227 340.73C93.3297 340.873 95.9485 344.259 102.147 344.259C102.526 344.259 102.834 344.554 102.839 344.918C102.841 345.413 102.809 357.105 93.1042 362.034C93.0034 362.084 92.8921 362.11 92.7788 362.11ZM83.8726 345.57C84.0286 348.02 85.1128 356.794 92.6509 360.76C100.187 356.794 101.274 348.02 101.43 345.57C96.5307 345.377 93.7529 343.21 92.6509 342.117C91.5489 343.211 88.7701 345.377 83.8726 345.57Z" fill="#17DA17"/>
<defs>
<linearGradient id="paint0_linear" x1="469.293" y1="373.414" x2="-53.0132" y2="6.20693" gradientUnits="userSpaceOnUse">
<stop offset="0.0064" stop-color="#FFFF00"/>
<stop offset="0.1184" stop-color="#D1F800"/>
<stop offset="0.253" stop-color="#92EF00"/>
<stop offset="0.3861" stop-color="#5EE700"/>
<stop offset="0.5058" stop-color="#35E100"/>
<stop offset="0.6001" stop-color="#18DD00"/>
<stop offset="0.665" stop-color="#06DA00"/>
<stop offset="0.7442" stop-color="#00D900"/>
</linearGradient>
<linearGradient id="paint1_linear" x1="282.057" y1="221.162" x2="333.797" y2="221.162" gradientUnits="userSpaceOnUse">
<stop offset="0.0064" stop-color="#FFFF00"/>
<stop offset="0.1184" stop-color="#D1F800"/>
<stop offset="0.253" stop-color="#92EF00"/>
<stop offset="0.3861" stop-color="#5EE700"/>
<stop offset="0.5058" stop-color="#35E100"/>
<stop offset="0.6001" stop-color="#18DD00"/>
<stop offset="0.665" stop-color="#06DA00"/>
<stop offset="0.7442" stop-color="#00D900"/>
</linearGradient>
<linearGradient id="paint2_linear" x1="287.916" y1="221.41" x2="327.933" y2="221.41" gradientUnits="userSpaceOnUse">
<stop offset="0.0064" stop-color="#FFFF00"/>
<stop offset="0.1184" stop-color="#D1F800"/>
<stop offset="0.253" stop-color="#92EF00"/>
<stop offset="0.3861" stop-color="#5EE700"/>
<stop offset="0.5058" stop-color="#35E100"/>
<stop offset="0.6001" stop-color="#18DD00"/>
<stop offset="0.665" stop-color="#06DA00"/>
<stop offset="0.7442" stop-color="#00D900"/>
</linearGradient>
</defs>
</svg>
