<svg width="498" height="424" viewBox="0 0 498 424" fill="none" xmlns="http://www.w3.org/2000/svg">
<path opacity="0.6" d="M117.103 334.947C178.997 400.606 365.513 429.908 425.658 324.108C448.787 283.422 408.928 297.601 438.015 161.52C445.095 128.396 451.255 62.8762 358.474 62.8762C286.959 62.8762 322.355 138.781 152.581 105.975C64.5259 88.9596 7.36934 218.54 117.103 334.947Z" fill="url(#paint0_linear)"/>
<path d="M239.11 396.735C251.109 357.325 259.337 335.065 259.337 335.065L160.256 342.507C160.256 342.507 156.431 364.192 153.114 396.622L239.11 396.735Z" fill="#C78F27"/>
<path d="M274.34 396.622C267.837 362.865 260.822 334.956 260.822 334.956L225.656 337.461L213.815 396.734L274.34 396.622Z" fill="#C78F27"/>
<path d="M162.497 234.851C162.458 233.013 162.81 231.082 164.642 230.134C165.443 229.719 166.276 229.615 167.106 229.701C167.576 228.524 168.314 227.494 169.581 226.887C170.756 226.325 171.982 226.288 173.193 226.505C174.959 224.215 177.462 222.984 180.439 225.202C182.86 227.006 184.944 229.257 186.608 231.724C187.858 233.576 190.377 237.113 189.265 239.377C185.143 247.781 181.39 256.397 177.501 264.913C178.328 265.138 177.975 266.376 177.144 266.15C177.074 266.131 177.007 266.11 176.938 266.092C176.631 266.689 175.799 266.325 175.748 265.75C171.941 264.606 168.502 262.977 166.901 259.139C164.962 254.491 166.323 249.409 166.818 244.605C164.044 241.767 160.252 238.176 162.497 234.851Z" fill="#FFA587"/>
<path d="M156.925 285.689C160.417 270.997 167.749 258.713 170.994 246.263C171.051 246.044 171.321 245.81 171.573 245.841C174.755 246.235 177.812 245.993 180.854 245.115C180.871 243.752 180.891 242.386 180.906 241.022C180.915 240.282 182.113 240.281 182.106 241.022C182.09 242.309 182.072 243.598 182.058 244.884C182.47 245.051 182.559 245.733 182.044 245.953C181.923 255.545 181.765 265.139 181.334 274.723C181.077 280.429 180.725 286.133 180.226 291.824C179.846 296.156 179.418 300.605 177.608 304.643C174.77 310.975 166.237 317.826 158.043 309.983C150.772 303.025 155.067 293.508 156.925 285.689Z" fill="#FFA587"/>
<path d="M180.854 231.987C181.12 231.987 181.381 231.863 181.536 231.634C181.783 231.273 181.679 230.787 181.301 230.551L174.69 226.397C174.311 226.159 173.806 226.263 173.561 226.623C173.314 226.984 173.418 227.47 173.797 227.706L180.408 231.86C180.547 231.946 180.701 231.987 180.854 231.987Z" fill="#ED835C"/>
<path d="M175.081 234.087C175.386 234.087 175.677 233.924 175.818 233.641C176.012 233.251 175.84 232.785 175.434 232.599L168.311 229.339C167.9 229.151 167.418 229.318 167.224 229.707C167.031 230.098 167.202 230.565 167.608 230.75L174.731 234.01C174.844 234.062 174.963 234.087 175.081 234.087Z" fill="#ED835C"/>
<path d="M171.033 238.017C171.366 238.017 171.677 237.82 171.798 237.504C171.953 237.099 171.736 236.648 171.313 236.499L164.096 233.954C163.675 233.803 163.205 234.013 163.049 234.418C162.895 234.823 163.111 235.273 163.535 235.422L170.751 237.968C170.843 238.001 170.938 238.017 171.033 238.017Z" fill="#ED835C"/>
<path d="M141.838 242.043C141.874 242.043 141.91 242.04 141.945 242.033C142.241 241.977 142.431 241.702 142.373 241.42C142.26 240.884 140.425 227.624 139.726 222.562C139.683 222.276 139.412 222.077 139.115 222.114C138.817 222.152 138.607 222.414 138.647 222.7C138.749 223.445 141.166 240.946 141.307 241.623C141.358 241.871 141.585 242.043 141.838 242.043Z" fill="black"/>
<path d="M208.401 139.061C208.401 139.061 202.294 137.912 198.103 138.787L196.189 144.442H207.279L208.401 139.061Z" fill="#8BA8AC"/>
<path d="M265.238 343.107C229.048 354.43 192.069 356.52 154.573 350.197C153.04 349.939 152.383 352.189 153.926 352.449C191.858 358.847 229.266 356.816 265.886 345.359C267.368 344.895 266.734 342.638 265.238 343.107Z" fill="#77541B"/>
<path d="M208.464 118.819C208.464 118.819 208.197 142.087 197.517 144.231C188.676 146.005 180.672 151.175 180.672 151.175C180.672 151.175 204.071 208.869 221.921 208.963C239.771 209.058 248.216 164.899 252.313 156.536L239.093 151.922L242.424 136.44L208.464 118.819Z" fill="#F39E7E"/>
<path d="M246.77 165.439C246.77 165.439 218.553 180.966 197.278 157.541C197.278 157.541 191.624 202.809 212.522 210.448C233.42 218.09 253.264 176.877 246.77 165.439Z" fill="#FDEEF6"/>
<path d="M189.272 158.702C195.896 167.605 207.426 171.703 218.173 174.092C230.873 176.914 245.523 175.995 253.659 164.913C254.558 163.689 256.598 164.959 255.693 166.193C248.044 176.612 234.586 179.235 222.064 177.216C209.543 175.2 195.145 170.584 187.468 160.265C186.568 159.055 188.363 157.479 189.272 158.702Z" fill="#B4AFAC"/>
<path d="M248.35 184.668L268.019 334.399C268.019 334.399 232.997 359.637 155.205 334.48C140.028 329.572 178.856 187.017 178.856 187.017L248.35 184.668Z" fill="#FDEEF6"/>
<path d="M236.489 160.258C237.033 157.542 238.035 154.946 238.035 154.946C238.035 154.946 238.579 154.804 239.361 153.847C239.807 153.301 239.159 151.176 239.159 151.176L260.176 158.139C260.176 158.139 279.074 198.88 275.556 249.82C274.909 259.187 288.096 373.169 282.655 372.182C267.574 369.444 268.018 372.19 250.858 366.869C249.766 361.597 255.403 300.704 251.854 246.648C248.905 201.75 236.595 161.8 236.489 160.258Z" fill="#21A19A"/>
<path d="M151.441 291.487C144.564 226.917 124.106 175.993 145.757 163.159C159.977 154.729 197.28 143.789 197.28 143.789L215.398 151.281C215.398 151.281 215.398 157.075 215.764 159.543C215.998 162.942 213.664 367.407 210.041 374.903C211.027 381.794 140.309 379.743 136.201 374.306C132.079 368.848 152.926 305.42 151.441 291.487Z" fill="#21A19A"/>
<path d="M321.39 220.967C322.825 223.098 345.533 252.045 344.785 254.477C341.606 264.797 324.564 274.08 311.701 277.32C309.016 277.996 276.126 250.215 262.762 219.683C249.587 189.583 255.917 156.731 255.917 156.731C255.917 156.731 262.627 157.754 267.782 160.629C275.592 164.983 312.224 207.362 321.39 220.967Z" fill="#21A19A"/>
<path d="M149.431 266.969C149.431 266.969 117.432 266.117 104.748 257.669C104.748 257.669 121.692 182.521 142.448 166.247C157.965 154.081 183.225 189.155 182.478 203.735C181.733 218.315 149.431 266.969 149.431 266.969Z" fill="#21A19A"/>
<path d="M215.397 151.282L208.983 162.173C208.983 162.173 195.594 152.176 195.065 144.323L198.102 138.787C198.104 138.786 201.972 145.202 215.397 151.282Z" fill="#31C2A7"/>
<path d="M237.875 155.129L239.657 163.892C239.657 163.892 241.757 156.206 241.406 152.358L239.66 149.135C239.661 149.136 238.693 153.428 237.875 155.129Z" fill="#31C2A7"/>
<path d="M138.227 174.55C138.991 173.296 141.159 174.234 140.386 175.502C125.537 199.862 118.836 227.555 108.877 253.863C108.355 255.242 106.197 254.283 106.717 252.912C116.677 226.604 123.376 198.91 138.227 174.55Z" fill="#107F8C"/>
<path d="M173.293 210.907C165.288 231.362 157.49 251.892 149.902 272.492C149.391 273.875 147.235 272.915 147.743 271.54C155.331 250.94 163.13 230.41 171.134 209.956C171.671 208.582 173.828 209.541 173.293 210.907Z" fill="#107F8C"/>
<path d="M178.348 204.201C179.121 202.953 181.288 203.891 180.507 205.153C178.071 209.091 175.95 213.165 174.131 217.398C173.549 218.755 171.39 217.801 171.972 216.446C173.79 212.213 175.912 208.138 178.348 204.201Z" fill="#107F8C"/>
<path d="M207.575 200.325C207.989 199.712 208.765 199.433 209.5 199.622C210.129 199.784 210.656 200.222 210.895 200.803C211.009 201.083 211.054 201.368 211.053 201.654C211.078 201.69 211.107 201.721 211.131 201.763C211.789 202.896 210.95 204.177 209.69 204.401C208.17 204.673 207.181 203.359 207.15 202.029C207.137 201.465 207.25 200.806 207.575 200.325Z" fill="#31C2A7"/>
<path d="M208.699 167.205C209.113 166.592 209.889 166.313 210.625 166.503C211.253 166.663 211.78 167.101 212.019 167.683C212.133 167.963 212.178 168.248 212.177 168.534C212.203 168.57 212.231 168.602 212.255 168.643C212.913 169.775 212.074 171.057 210.814 171.281C209.294 171.553 208.306 170.238 208.275 168.908C208.262 168.345 208.374 167.686 208.699 167.205Z" fill="#31C2A7"/>
<path d="M205.793 227.682C206.207 227.069 206.983 226.789 207.719 226.979C208.347 227.14 208.874 227.578 209.112 228.159C209.226 228.439 209.271 228.725 209.27 229.011C209.296 229.047 209.324 229.078 209.348 229.12C210.005 230.25 209.166 231.531 207.906 231.757C206.386 232.029 205.398 230.715 205.368 229.384C205.357 228.82 205.469 228.162 205.793 227.682Z" fill="#31C2A7"/>
<path d="M205.118 257.571C205.532 256.957 206.308 256.678 207.046 256.868C207.675 257.029 208.201 257.467 208.439 258.048C208.553 258.328 208.598 258.614 208.597 258.9C208.623 258.936 208.651 258.967 208.675 259.009C209.332 260.139 208.493 261.42 207.234 261.646C205.713 261.918 204.725 260.604 204.695 259.273C204.682 258.709 204.794 258.05 205.118 257.571Z" fill="#31C2A7"/>
<path d="M272.129 98.2864C272.129 98.2864 271.997 110.217 270.545 115.264C269.093 120.311 270.622 121.332 270.405 127.56C270.157 134.694 259.774 158.03 252.545 160.719C242.22 164.558 227.882 153.453 224.481 151.782C221.081 150.111 212.08 143.805 208.863 133.242C205.647 122.679 202.019 107.353 205.945 92.6792C209.872 78.0057 226.876 67.3291 244.669 70.2035C262.459 73.075 271.669 91.025 272.129 98.2864Z" fill="#F39E7E"/>
<path d="M267.877 118.901C267.829 117.972 267.443 117.098 266.664 116.601C265.787 116.04 264.608 116.225 263.898 116.991C263.096 117.858 262.889 119.098 263.053 120.27C262.862 121.197 262.922 122.137 263.56 122.881C264.235 123.668 265.398 123.906 266.296 123.377C267.631 122.593 267.951 120.358 267.877 118.901Z" fill="#6E3F30"/>
<path d="M244.304 117.315C244.31 116.385 243.975 115.491 243.227 114.951C242.384 114.344 241.195 114.464 240.442 115.191C239.589 116.013 239.31 117.24 239.405 118.42C239.161 119.335 239.166 120.277 239.759 121.054C240.388 121.877 241.532 122.178 242.461 121.699C243.839 120.989 244.291 118.775 244.304 117.315Z" fill="#6E3F30"/>
<path d="M262.723 127.598C261.887 124.959 260.924 122.351 260.027 119.731C259.537 118.305 257.275 119.157 257.762 120.582C258.66 123.199 259.659 125.804 260.458 128.449C261.725 132.645 256.029 131.802 253.378 131.411C251.833 131.183 251.453 133.487 253.002 133.716C255.891 134.144 261.268 134.851 262.876 131.741C263.566 130.403 263.15 128.949 262.723 127.598Z" fill="#CE6D46"/>
<path d="M199.9 76.5202C203.929 68.8178 212.09 59.541 229.065 57.765C230.663 57.5984 232.368 57.6752 234.094 57.6094C236.48 55.7696 238.513 54.8885 241.513 54.2081C245.644 53.2702 253.394 53.0617 258.146 56.4789C260.295 58.0234 261.453 60.7711 261.467 60.821C267.101 62.5241 273.032 63.9389 276.229 69.2288C278.214 72.5153 278.03 75.8846 277.545 78.0956C279.73 79.1112 281.807 80.3035 283.571 81.9258C286.544 84.6606 288.791 88.2933 289.154 92.2812C289.571 96.8618 288.172 101.509 284.248 104.401C281.024 106.775 271.891 106.257 271.891 106.257C271.891 106.257 272.037 99.2782 272.113 99.1315C267.508 98.4122 265.649 96.5096 259.042 96.6483C252.005 96.795 245.023 88.7393 239.941 86.9903C234.859 85.2413 230.817 90.3098 229.273 92.85C228.076 94.8195 226.06 106.359 224.703 111.602C222.163 112.192 219.367 111.644 217.403 110.218C217.77 107.888 218.039 105.95 218.109 104.769C218.18 103.601 217.819 102.442 216.786 101.82C214.848 100.656 211.286 100.313 209.638 102.492C206.532 106.6 205.617 111.636 207.154 115.112C208.273 117.643 211.04 118.111 211.288 120.033C211.703 123.245 207.471 128.395 207.471 128.395C207.471 128.395 201.309 115.255 199.068 103.569C196.935 92.4418 195.822 84.3184 199.9 76.5202Z" fill="#522C26"/>
<path d="M212.039 105.079C213.254 104.128 214.795 105.933 213.582 106.883C211.368 108.618 211.012 111.816 212.809 113.951C213.795 115.12 211.913 116.6 210.929 115.43C208.304 112.314 208.8 107.617 212.039 105.079Z" fill="#CE6D46"/>
<path d="M234.626 78.4479C238.359 76.7368 241.585 74.1418 245.67 73.181C249.658 72.2431 253.781 72.7579 257.488 74.3882C258.867 74.9958 258.056 77.1399 256.662 76.5263C252.902 74.873 248.766 74.478 244.821 75.806C241.534 76.9125 238.775 79.0734 235.645 80.5072C234.26 81.1417 233.244 79.0815 234.626 78.4479Z" fill="#73453E"/>
<path d="M229.713 77.2344C232.661 75.1741 235.491 72.9761 238.203 70.6384C239.343 69.6566 240.871 71.4027 239.733 72.3825C237.02 74.7201 234.189 76.9181 231.243 78.9784C230.012 79.8384 228.475 78.1005 229.713 77.2344Z" fill="#73453E"/>
<path d="M235.394 105.481C238.072 104.021 240.892 102.937 243.978 102.614C246.123 102.388 250.15 102.358 250.934 104.863C251.638 107.109 249.114 107.923 247.291 108.211C244.006 108.729 240.731 108.766 237.544 109.825C234.519 110.833 232.549 107.035 235.394 105.481Z" fill="#522C26"/>
<path d="M265.501 106.571C268.703 106.246 271.147 109.243 272.288 111.777C272.67 112.629 272.409 113.64 271.571 114.139C270.816 114.589 269.589 114.562 269.034 113.783C268.46 112.975 267.812 112.293 266.994 111.714C266.109 111.088 264.992 110.517 264.356 109.64C263.588 108.578 263.9 106.734 265.501 106.571Z" fill="#522C26"/>
<path d="M221.415 137.587C223.968 141.104 228.186 143.215 232.127 145.031C235.969 146.803 239.984 148.147 244.111 149.156C245.592 149.518 244.793 151.665 243.318 151.305C238.639 150.16 234.129 148.57 229.824 146.465C226.017 144.602 222.115 142.517 219.623 139.086C218.756 137.892 220.541 136.384 221.415 137.587Z" fill="#CE6D46"/>
<path d="M260.738 138.36C259.15 136.951 255.81 136.109 253.763 135.542C250.804 134.722 247.747 134.151 244.713 133.67C242.169 133.168 239.603 132.908 237.061 133.527C231.998 134.982 229.881 139.932 227.456 138.953C225.339 138.097 227.717 133.124 226.847 128.916C226.237 125.968 224.727 122.829 224.287 119.86C223.66 115.639 224.623 112.499 225.477 108.316C222.952 109.107 219.973 108.733 217.448 109.525C215.325 120.254 213.616 128.715 215.187 138.996C216.489 147.522 222.715 154.856 229.206 160.814C231.911 163.298 239.482 166.082 243.08 166.934C249.384 168.426 254.109 166.157 258.307 160.814C261.65 156.558 265.364 144.277 265.364 144.277C265.288 144.526 263.901 141.165 260.738 138.36Z" fill="#522C26"/>
<path d="M243.696 141.18C246.59 144.168 250.76 145.235 254.805 143.897C256.254 143.418 257.02 145.575 255.575 146.054C250.802 147.634 245.564 146.443 242.114 142.882C241.083 141.816 242.654 140.102 243.696 141.18Z" fill="#73453E"/>
<path d="M149 261.534C147.163 264.612 139.284 289.924 139.284 289.924C139.284 289.924 108.852 315.606 100.883 293.322C100.059 291.016 105.288 263.316 107.506 259.246C119.014 257.197 137.765 264.537 149 261.534Z" fill="#F39E7E"/>
<path d="M156.402 252.022L107.963 238.018L102.106 261.7C102.106 261.7 106.002 271.339 121.254 266.969C135.661 261.534 150.023 272.27 150.023 272.27L156.402 252.022Z" fill="#31C2A7"/>
<path d="M307.742 275.334C307.742 275.334 314.65 283.104 326.367 290.736C338.083 298.367 353.252 264.021 353.252 264.021L339.005 247.983L307.742 275.334Z" fill="#F19984"/>
<path d="M329.247 229.352C329.247 229.352 322.254 229.284 311.84 237.523C301.425 245.761 290.101 260.164 290.101 260.164L308.583 279.635C308.583 279.635 326.655 258.019 345.783 252.177L329.247 229.352Z" fill="#31C2A7"/>
<path d="M271.546 247.168C270.845 247.168 270.271 246.628 270.258 245.952C269.928 227.65 265.447 202.462 265.402 202.211C265.281 201.537 265.752 200.898 266.454 200.782C267.154 200.663 267.825 201.118 267.944 201.79C267.99 202.045 272.505 227.416 272.837 245.909C272.851 246.591 272.282 247.155 271.569 247.167C271.562 247.168 271.555 247.168 271.546 247.168Z" fill="#107F8C"/>
<path d="M271.546 203.239C270.913 203.239 270.359 202.79 270.27 202.171C270.226 201.861 269.188 194.533 270.315 190.994C270.523 190.34 271.247 189.974 271.926 190.173C272.607 190.372 272.992 191.065 272.782 191.718C271.985 194.224 272.544 199.869 272.827 201.832C272.925 202.509 272.432 203.134 271.726 203.228C271.664 203.236 271.604 203.239 271.546 203.239Z" fill="#107F8C"/>
<path d="M319.478 225.927C319.09 225.927 318.707 225.761 318.453 225.442L301.771 204.555C301.336 204.012 301.445 203.235 302.01 202.82C302.577 202.404 303.385 202.508 303.818 203.049L320.501 223.937C320.936 224.48 320.828 225.257 320.262 225.672C320.026 225.844 319.751 225.927 319.478 225.927Z" fill="#107F8C"/>
<path d="M110.579 275.199C115.67 269.606 120.79 267.509 120.79 267.509C120.79 267.509 206.567 265.443 216.378 267.869C223.67 269.672 216.068 281.718 216.068 281.718C216.068 281.718 129.998 305.374 105.76 301.579C103.255 301.184 93.6153 294.743 110.579 275.199Z" fill="#F39E7E"/>
<path d="M332.606 213.895C332.606 213.895 359.832 260.678 361.723 278.222C363.615 295.767 340.408 304.407 334.677 299.588C328.946 294.769 320.502 223.937 320.502 223.937" fill="#F39E7E"/>
<path d="M231.682 323.831L226.041 396.622C226.041 396.622 293.59 396.622 338.283 396.622L336.779 341.353" fill="#D8005D"/>
<path d="M361.214 323.102C360.511 319.502 359.243 316.024 357.452 312.788C356.316 310.709 355.032 308.706 353.612 306.795C346.653 297.544 337.792 289.757 327.576 283.917C322.795 281.148 317.73 278.857 312.461 277.08L312.144 276.974C309.895 276.214 307.615 275.585 305.303 275.052C301.821 274.238 298.279 273.679 294.709 273.382C293.98 273.328 293.261 273.283 292.532 273.244C292.407 273.077 292.269 272.92 292.12 272.774C292.12 272.713 292.12 272.645 292.001 272.652C290.296 272.733 288.596 272.838 286.901 272.964L285.318 273.07C282.678 273.267 280.039 273.505 277.401 273.784H277.123C269.616 274.549 262.179 275.849 254.873 277.673C248.83 279.234 242.936 281.285 237.254 283.804C234.526 285.003 231.802 286.223 229.083 287.465C225.979 288.87 222.875 290.297 219.772 291.719L219.266 291.954C209.621 296.381 199.216 301.304 192.89 309.933C191.815 311.398 190.887 312.957 190.118 314.59C188.749 317.304 188.253 320.347 188.693 323.332C188.875 324.417 189.296 325.453 189.928 326.369C190.561 327.286 191.388 328.063 192.359 328.649C193.082 329.069 193.863 329.388 194.679 329.598C196.084 329.949 197.537 330.09 198.986 330.017C201.662 329.823 204.304 329.313 206.849 328.498C209.929 327.609 212.969 326.598 216.114 325.922L216.961 325.747L217.895 325.581C222.028 324.881 226.28 324.73 230.358 323.796C228.409 327.389 253.909 377.47 260.961 380.346L265.055 382.002C269.168 383.647 273.299 385.24 277.447 386.779L280.788 388.01L284.748 389.43C285.777 389.794 286.901 390.19 287.963 389.688C288.39 389.458 288.781 389.172 289.127 388.837L290.972 387.211L294.202 384.363L300.853 378.514C301.811 377.678 302.77 376.835 303.703 375.977C304.756 375.015 305.756 374.001 306.697 372.939C310.133 369.042 311.781 364.219 313.942 359.638C314.02 359.463 314.108 359.297 314.186 359.13C314.267 358.962 314.337 358.834 314.408 358.689C316.942 353.751 317.204 349.111 317.331 344.318C318.027 344.257 325.248 344.674 325.898 344.651C327.81 344.592 329.725 344.68 331.623 344.918C335.158 345.39 338.72 345.645 342.288 345.678C345.631 345.738 348.97 345.434 352.242 344.774C353.641 344.487 354.967 343.932 356.138 343.141C357.214 342.315 358.093 341.28 358.72 340.102C361.768 335.051 362.283 328.814 361.214 323.102Z" fill="#D8005D"/>
<path d="M212.193 268.908C212.193 268.908 233.565 263.14 238.167 265.903C242.768 268.666 249.019 273.841 251.172 277.402C253.453 281.176 257.1 286.845 254.886 289.239C252.184 292.161 245.9 281.778 244.515 281.584C243.129 281.392 251.49 290.729 252.394 293.719C253.298 296.71 249.308 297.566 249.308 297.566C249.308 297.566 247.458 300.423 244.436 299.25C241.414 298.077 237.989 295.759 237.989 295.759C237.989 295.759 237.211 299.198 234.744 298.433C232.275 297.668 224.766 290.013 221.883 288.941C219 287.868 214.987 288.037 209.558 286.553C204.129 285.068 199.724 279.017 199.724 279.017L212.193 268.908Z" fill="#F39E7E"/>
<path d="M230.792 281.647C230.928 281.842 231.112 282.01 231.34 282.133C231.382 282.155 235.441 284.364 238.603 287.293C241.833 290.287 247.461 297.362 247.517 297.433C248.058 298.114 249.072 298.244 249.781 297.728C250.491 297.209 250.61 296.231 250.087 295.555C249.852 295.256 244.256 288.222 240.848 285.065C237.38 281.851 233.106 279.53 232.926 279.431C232.149 279.013 231.164 279.276 230.727 280.024C230.417 280.55 230.464 281.175 230.792 281.647Z" fill="#E27E66"/>
<path d="M227.129 287.007C227.231 287.153 227.359 287.284 227.515 287.394C228.737 288.253 233.308 292.952 235.902 295.712C236.499 296.349 237.519 296.398 238.183 295.827C238.846 295.251 238.883 294.256 238.3 293.638C237.592 292.884 231.317 286.226 229.426 284.895C228.706 284.388 227.694 284.538 227.168 285.229C226.754 285.768 226.76 286.479 227.129 287.007Z" fill="#E27E66"/>
<path d="M236.899 276.783C237.04 276.986 237.231 277.157 237.47 277.283L238.486 277.811C238.995 278.104 240.927 280.016 242.407 281.614C243.001 282.254 244.021 282.313 244.687 281.744C245.355 281.173 245.419 280.211 244.821 279.554C243.76 278.409 241.17 275.68 240.025 275.086L239.009 274.559C238.224 274.15 237.244 274.43 236.818 275.182C236.525 275.706 236.576 276.318 236.899 276.783Z" fill="#E27E66"/>
<path d="M198.488 266.775C197.343 268.114 196.432 269.253 195.011 271.136C190.692 276.902 189.082 284.568 188.233 288.839C193.501 287.687 201.611 285.523 201.629 285.511C202.506 282.769 204.438 278.728 207.762 273.653C210.395 269.626 213.435 267.434 213.435 267.434C209.204 267.026 204.255 266.927 198.488 266.775Z" fill="#522C26"/>
<path d="M201.571 268.016C197.515 268.176 194.889 270.014 194.979 272.118C195.07 274.224 197.844 275.8 201.9 275.641C205.956 275.481 209.171 273.643 209.081 271.537C208.991 269.431 205.63 267.856 201.571 268.016Z" fill="#F4E6D7"/>
<path d="M242.831 315.172C236.939 315.27 230.795 315.255 225.062 316.76C223.993 317.007 223.003 317.505 222.181 318.209C221.361 318.913 220.734 319.801 220.359 320.793C219.74 322.213 219.123 324.317 217.936 325.616C222.069 324.918 226.322 324.764 230.399 323.831L230.811 323.527C232.767 322.167 234.944 321.127 236.9 319.729C238.856 318.331 240.725 316.691 242.957 315.589C242.992 315.558 243.017 315.52 243.03 315.476C243.042 315.432 243.042 315.386 243.029 315.343C243.015 315.299 242.99 315.26 242.955 315.23C242.919 315.201 242.877 315.18 242.831 315.172Z" fill="#D8005D"/>
<path d="M219.271 296.579C219.224 295.873 218.86 294.794 217.91 294.961C217.339 295.066 216.935 295.614 216.572 296.001C216.025 296.594 215.471 297.187 214.918 297.771L211.442 301.501L210.649 302.321L209.423 303.636C208.946 304.096 208.523 304.606 208.163 305.154C207.813 305.847 207.616 306.602 207.586 307.372C207.49 308.192 207.427 309.02 207.389 309.848L207.325 309.803C207.198 309.711 207.032 309.886 207.159 309.984C207.53 310.245 207.993 310.356 208.449 310.296H208.521C209.012 310.263 209.501 310.205 209.986 310.121L211.048 309.924C211.539 309.894 212.013 309.722 212.402 309.43C212.805 308.894 213.128 308.305 213.36 307.683C214.039 306.323 214.807 305.006 215.663 303.741C216.455 302.563 217.437 301.462 218.166 300.24C218.439 299.79 218.67 299.317 218.854 298.826C219.146 298.111 219.288 297.348 219.271 296.579Z" fill="#F5A983"/>
<path d="M266.671 292.013L265.167 311.261L264.786 316.107C264.678 317.135 264.169 318.086 263.358 318.766C262.549 319.447 261.5 319.808 260.423 319.776L221.798 318.978C221.284 318.983 220.773 318.887 220.299 318.695C219.825 318.505 219.396 318.224 219.039 317.867C218.683 317.511 218.406 317.09 218.225 316.627C218.044 316.165 217.964 315.673 217.989 315.181L219.865 291.086C219.973 290.057 220.485 289.106 221.295 288.425C222.107 287.744 223.158 287.383 224.236 287.418L235.17 287.63L262.883 288.2C263.397 288.201 263.903 288.302 264.375 288.495C264.848 288.69 265.272 288.973 265.627 289.329C265.98 289.686 266.255 290.107 266.434 290.569C266.617 291.03 266.696 291.521 266.671 292.013Z" fill="#45477A"/>
<path d="M232.56 297.718C232.328 297.484 232.032 297.321 231.707 297.244C231.381 297.168 231.039 297.182 230.722 297.286C228.744 297.663 226.861 298.405 225.179 299.473C224.107 300.132 223.08 300.857 222.107 301.645L222.045 301.69C221.442 302.131 220.857 302.595 220.294 303.073C220.836 302.275 221.434 301.514 222.084 300.795C222.891 299.907 223.776 299.085 224.728 298.341C225.726 297.581 226.827 296.912 227.839 296.146C228.401 295.728 229.645 294.916 229.517 294.088C229.392 293.26 228.029 293.64 227.483 293.816C225.027 294.703 222.723 295.935 220.643 297.468C220.183 297.779 219.741 298.114 219.321 298.47C219.183 298.577 219.048 298.69 218.916 298.812C218.485 299.191 218.083 299.6 217.714 300.034C217.199 300.505 216.747 301.06 216.28 301.553L214.214 303.832C212.876 305.35 211.545 306.87 210.254 308.388L209.907 308.776C209.445 309.257 209.014 309.764 208.615 310.295L208.505 310.447C208.1 311.046 208.402 311.852 208.505 312.513C208.505 312.74 208.663 313.218 208.828 313.842C209.462 316.12 210.785 320.336 211.022 320.305C211.108 320.305 211.948 319.826 213.19 319.106C214.434 318.383 216.311 317.29 218.156 316.204L220.53 314.822C223.278 313.234 225.757 311.837 226.572 311.51C227.664 311.069 228.773 310.683 229.842 310.219C230.459 309.953 231.497 309.611 231.648 308.874C231.797 308.137 230.777 307.636 230.065 307.606C228.873 307.674 227.708 307.984 226.652 308.518C224.772 309.247 222.944 310.094 221.179 311.054C221.628 310.391 222.115 309.752 222.636 309.141C222.818 308.928 223.001 308.73 223.191 308.526C224.569 307.561 225.653 306.581 227.149 305.745C228.053 305.229 229.359 304.864 230.222 304.288C230.861 303.932 231.337 303.357 231.552 302.677C231.917 300.816 228.884 302.04 228.179 302.305C226.523 302.937 224.949 303.752 223.491 304.736L223.761 304.5C224.719 303.695 225.163 302.982 229.835 300.481C230.667 300.07 231.461 299.592 232.209 299.054C232.44 298.92 232.604 298.703 232.671 298.454C232.737 298.205 232.696 297.939 232.56 297.718Z" fill="#F5A983"/>
<path d="M216.525 324.766C216.41 324.503 216.276 324.249 216.121 324.006C215.86 323.603 215.574 323.246 215.329 322.813C214.901 322.122 214.482 321.43 214.078 320.739C213.428 319.62 212.814 318.488 212.233 317.345C211.403 315.7 210.694 314.002 210.11 312.263V312.164C209.699 310.922 209.385 309.653 209.168 308.367C209.168 308.183 209.105 307.994 209.081 307.804C209.058 307.615 209.018 307.295 208.994 307.045V306.749C208.994 306.37 208.994 305.988 209.058 305.609C209.16 304.304 209.342 303.005 209.604 301.721C209.684 301.333 209.778 300.961 209.858 300.551C210.062 299.759 210.147 298.944 210.112 298.127C210.11 298.106 210.103 298.087 210.092 298.069C210.08 298.052 210.065 298.037 210.045 298.027C210.025 298.017 210.004 298.012 209.983 298.012C209.961 298.013 209.939 298.019 209.921 298.028C207.709 299.18 205.566 300.448 203.5 301.826L203.103 302.099C201.584 303.138 200.106 304.238 198.67 305.404C196.946 306.781 195.307 308.252 193.76 309.81C192.706 310.855 191.781 312.016 191.005 313.266L190.879 313.478C190.867 313.466 190.852 313.455 190.836 313.447C190.82 313.44 190.801 313.437 190.784 313.437C190.766 313.437 190.748 313.44 190.732 313.447C190.716 313.455 190.701 313.466 190.688 313.478C188.218 317.786 188.63 323.422 192.747 326.938C193.111 327.246 193.494 327.533 193.896 327.796C195.63 328.93 197.618 329.658 199.699 329.923C202.526 330.287 214.277 326.322 214.815 326.193C215.67 326.057 216.88 325.534 216.525 324.766Z" fill="#D8005D"/>
<path d="M309.223 346.352C307.557 347.383 305.676 348.053 303.713 348.315C301.748 348.576 299.749 348.426 297.853 347.872C294.203 346.793 291.36 343.861 287.338 344.013C285.39 344.09 283.474 344.658 281.509 344.597C280.523 344.595 279.562 344.311 278.746 343.783C277.929 343.255 277.295 342.504 276.924 341.628C276.206 339.719 276.237 337.623 277.012 335.735C277.661 333.835 278.895 332.035 279.189 330.031C279.325 329.232 279.211 328.412 278.864 327.675C278.389 326.74 277.533 326.46 276.702 325.882C276.34 325.598 276.051 325.238 275.856 324.829C275.661 324.421 275.566 323.976 275.577 323.527C275.589 323.078 275.707 322.637 275.922 322.239C276.138 321.839 276.445 321.494 276.819 321.227C276.946 321.143 276.819 320.937 276.693 321.02C276.155 321.395 275.745 321.915 275.518 322.515C275.29 323.115 275.256 323.767 275.419 324.386C275.57 325.047 275.96 325.637 276.52 326.05C276.852 326.293 277.241 326.452 277.588 326.672C278.137 327.004 278.553 327.504 278.768 328.092C279.561 330.258 278.048 332.482 277.241 334.436C276.35 336.265 276.01 338.295 276.259 340.299C276.376 341.104 276.678 341.874 277.146 342.552C277.613 343.231 278.233 343.799 278.959 344.218C280.646 345.099 282.608 344.849 284.422 344.591C285.519 344.399 286.627 344.282 287.74 344.241C288.924 344.263 290.089 344.522 291.161 345.002C293.037 345.761 294.693 346.961 296.577 347.72C298.644 348.532 300.885 348.853 303.108 348.655C305.333 348.457 307.474 347.746 309.349 346.581C309.484 346.475 309.358 346.27 309.223 346.352Z" fill="#1F2144"/>
<path d="M207.238 303.635C203.92 303.408 200.293 303.772 197.902 306.24C197.792 306.355 197.974 306.522 198.077 306.407C200.451 303.983 203.983 303.65 207.238 303.871C207.396 303.886 207.396 303.642 207.238 303.635Z" fill="#1F2144"/>
<path d="M355.679 241.381C355.621 241.391 355.568 241.42 355.529 241.464C355.492 241.508 355.47 241.563 355.47 241.62C355.47 241.677 355.492 241.732 355.529 241.775C355.568 241.819 355.622 241.848 355.679 241.859C355.739 241.848 355.791 241.819 355.829 241.775C355.866 241.731 355.888 241.677 355.888 241.62C355.888 241.563 355.866 241.507 355.829 241.464C355.791 241.42 355.739 241.391 355.679 241.381Z" fill="#C38F6C"/>
<path d="M312.461 277.065C306.998 280.066 300.585 281.09 294.344 280.734C288.232 280.384 280.717 279.154 277.162 273.799H277.44C279.363 276.625 282.562 278.304 285.88 279.222C289.166 280.09 292.553 280.549 295.959 280.59C299.403 280.682 302.841 280.277 306.157 279.39C308.245 278.819 310.253 278.017 312.144 276.998L312.461 277.065Z" fill="#1F2144"/>
<path d="M303.324 313.031C302.857 313.088 302.395 313.172 301.939 313.282C299.785 313.79 297.441 314.39 295.779 315.879C294.756 316.791 293.886 317.937 292.533 318.409C291.036 318.933 289.967 318.226 289.104 317.094C288.582 316.254 287.829 315.569 286.926 315.112C285.981 314.715 284.912 314.682 283.941 315.021C283.792 315.067 283.855 315.302 284.005 315.248C284.558 315.054 285.151 314.986 285.737 315.049C286.322 315.112 286.884 315.305 287.378 315.613C288.257 316.167 288.715 317.093 289.397 317.838C290.641 319.19 292.414 319.009 293.832 317.99C294.758 317.322 295.455 316.419 296.35 315.712C297.393 314.969 298.576 314.424 299.834 314.109C300.969 313.734 302.133 313.452 303.318 313.266C303.317 313.19 303.317 313.107 303.324 313.031Z" fill="#1F2144"/>
<path d="M323.634 283.423C321.863 283.526 320.152 284.078 318.676 285.02C317.198 285.963 316.008 287.264 315.226 288.793C315.154 288.931 315.376 289.051 315.439 288.915C316.201 287.423 317.36 286.151 318.8 285.228C320.239 284.305 321.906 283.763 323.634 283.658C323.792 283.65 323.792 283.415 323.634 283.423Z" fill="#1F2144"/>
<path d="M339.826 313.753C334.544 310.425 327.949 311.14 322.2 312.705C322.167 312.713 322.139 312.732 322.122 312.761C322.106 312.788 322.101 312.822 322.109 312.853C322.118 312.885 322.138 312.911 322.168 312.927C322.196 312.943 322.232 312.948 322.264 312.939C327.973 311.421 334.473 310.662 339.683 313.958C339.834 314.041 339.96 313.835 339.826 313.753Z" fill="#1F2144"/>
<path d="M262.887 288.17L235.173 287.601C238.935 291.246 241.627 296.244 245.966 299.222C248.999 301.31 252.649 301.881 256.117 303.02C258.103 303.563 259.921 304.561 261.415 305.929C262.626 307.327 263.687 308.838 264.582 310.442C264.772 310.731 264.962 311.018 265.168 311.292L266.672 292.044C266.706 291.549 266.633 291.05 266.457 290.582C266.282 290.113 266.009 289.685 265.654 289.322C265.299 288.958 264.871 288.668 264.394 288.471C263.918 288.273 263.405 288.17 262.887 288.17Z" fill="#606295"/>
<path d="M282.254 316.191C282.096 315.614 281.931 315.044 281.755 314.474C281.162 312.553 280.466 310.677 279.697 308.808C278.719 306.537 277.613 304.322 276.38 302.169C275.472 300.603 274.453 299.098 273.332 297.665C272.731 296.844 272.02 296.104 271.217 295.462C269.856 294.46 268.153 294.376 266.466 294.567C265.572 294.664 264.693 294.832 263.869 294.985C263.172 295.113 262.475 295.258 261.794 295.426C261.138 295.549 260.498 295.74 259.887 295.995C259.332 296.285 258.817 296.998 259.268 297.576C259.41 297.742 259.609 297.856 259.83 297.895C259.148 298.016 258.482 298.206 257.842 298.464C257.336 298.669 256.789 298.935 256.829 299.55C256.963 301.404 259.783 300.546 260.875 300.485C262.597 300.399 264.32 300.631 265.95 301.168C268.169 301.917 270.251 302.996 272.118 304.366L271.326 305.665C269.543 304.812 267.689 304.101 265.784 303.539L265.626 303.493C263.83 302.876 261.914 302.656 260.02 302.848C259.371 302.946 256.226 303.798 257.692 304.861C257.948 305.03 258.254 305.112 258.562 305.097C259.125 305.097 259.687 305.096 260.241 305.15C261.46 305.242 262.67 305.422 263.86 305.689C264.438 305.819 265.016 305.963 265.586 306.114C267.075 306.516 268.54 307.003 269.997 307.505C269.886 307.778 269.767 308.052 269.648 308.325C268.278 307.946 266.892 307.612 265.49 307.346C264.627 307.179 263.765 307.034 262.893 306.913C262.371 306.845 258.554 306.063 259.338 307.673C259.686 308.372 261.001 308.486 261.714 308.66C262.79 308.927 263.875 309.123 264.959 309.337L265.372 309.42C266.306 309.572 267.22 309.828 268.096 310.18C268.178 310.217 268.257 310.261 268.333 310.309C270.109 311.812 271.745 313.465 273.219 315.246L273.33 315.383C274.161 316.371 274.977 317.358 275.848 318.307C276.315 318.816 277.091 319.986 277.93 319.926C278.405 319.804 278.839 319.565 279.188 319.234L280.923 318.064C281.405 317.809 281.848 317.492 282.237 317.122C282.321 316.981 282.368 316.824 282.37 316.661C282.374 316.494 282.335 316.334 282.254 316.191Z" fill="#F5A983"/>
<path d="M272.499 301.926C271.661 301.126 270.87 300.284 270.124 299.404C269.467 298.567 268.627 297.877 267.662 297.384C266.626 297.061 265.526 296.97 264.447 297.118C263.125 297.186 261.811 297.322 260.488 297.513C260.329 297.513 260.401 297.771 260.551 297.748C261.797 297.559 263.053 297.43 264.313 297.361C265.492 297.3 266.799 297.179 267.868 297.763C269.689 298.766 270.767 300.749 272.279 302.093C272.435 302.192 272.618 302.063 272.499 301.926Z" fill="#D56B49"/>
<path d="M216.476 300.087C214.667 301.334 213.005 302.765 211.52 304.356C211.409 304.47 211.591 304.637 211.694 304.523C213.167 302.95 214.811 301.532 216.596 300.291C216.73 300.201 216.604 299.997 216.476 300.087Z" fill="#D56B49"/>
<path d="M322.865 263.439C322.865 263.073 322.865 262.678 322.865 262.337C322.937 259.663 323.039 256.884 324.093 254.369C325.145 251.855 326.539 249.713 327.093 247.054C327.592 244.099 327.837 241.109 327.82 238.114C327.923 234.898 327.283 231.699 325.945 228.749C323.097 222.652 318.285 217.592 312.214 214.318C297.819 206.502 279.094 206.935 267.872 219.635C266.583 221.099 265.452 222.688 264.499 224.374C261.665 229.3 259.449 234.529 257.896 239.952C256.2 245.954 254.807 253.116 258.219 258.805C259.405 260.835 261.004 262.615 262.923 264.038C263.201 269.24 267.967 274.55 272.053 277.475C275.22 279.753 279.1 279.199 282.64 276.032C285.871 275.378 291.12 276.662 292.38 273.943C293.509 275.295 294.863 276.459 296.386 277.391C299.331 279.085 302.799 275.523 306.142 275.584C308.81 275.636 314.352 277.756 314.352 277.756C315.579 277.2 316.753 276.541 317.86 275.788C321.773 272.668 322.652 268.026 322.865 263.439Z" fill="#522C26"/>
<path d="M307.883 275.804C307.883 275.804 302.34 278.622 293.63 278.174C284.92 277.726 282.663 276.033 282.663 276.033L281.815 270.869L281.451 268.711L280.873 265.254L306.623 251.369L307.883 275.804Z" fill="#F5A983"/>
<path d="M304.06 261.751C300.244 267.911 282.468 269.469 278.643 268.382C273.236 266.863 265.872 257.322 265.896 249.621C265.896 245.573 267.337 238.859 268.802 232.911C268.802 232.911 268.802 232.873 268.802 232.857C269.032 231.968 269.262 231.08 269.483 230.237C269.506 230.119 269.534 230.003 269.571 229.888C270.884 224.927 272.041 221.145 272.041 221.145L287.656 212.031C287.656 212.031 305.669 222.299 305.962 222.717C306.255 223.135 313.612 241.335 313.612 241.335C313.612 241.335 307.853 255.614 304.06 261.751Z" fill="#F5A983"/>
<path d="M313.563 241.404C313.563 241.404 316.509 241.031 317.942 244.442C319.224 247.48 315.985 252.638 311.607 254.916C307.799 256.898 303.246 256.488 303.292 256.222C303.34 255.956 303.871 247.426 304.085 246.742C304.298 246.059 313.563 241.404 313.563 241.404Z" fill="#FF924F"/>
<path d="M289.634 274.384C287.406 275.254 285.06 275.808 282.666 276.031L281.819 270.867L281.454 268.71C283.783 268.674 286.1 268.38 288.359 267.837C292.033 266.933 293.023 267.305 294.108 268.68C295.193 270.055 293.244 272.803 289.634 274.384Z" fill="#ED9368"/>
<path d="M278.358 251.969C278.238 251.919 278.138 251.837 278.066 251.733C277.555 251.015 277.168 250.222 276.918 249.387C276.648 248.278 278.43 245.11 279.506 243.31C279.606 243.149 279.766 243.032 279.955 242.983C280.143 242.935 280.344 242.959 280.513 243.051C280.597 243.097 280.671 243.159 280.732 243.233C280.791 243.306 280.833 243.39 280.858 243.48C280.883 243.57 280.891 243.664 280.876 243.756C280.864 243.847 280.83 243.937 280.781 244.016C279.578 246.013 278.32 248.521 278.358 249.074C278.567 249.728 278.876 250.347 279.276 250.913C279.387 251.067 279.428 251.256 279.392 251.44C279.357 251.625 279.246 251.787 279.086 251.893C278.984 251.968 278.861 252.014 278.732 252.028C278.605 252.041 278.475 252.021 278.358 251.969Z" fill="#D56B49"/>
<path d="M275.325 256.381L275.047 256.252C274.874 256.164 274.743 256.016 274.684 255.835C274.624 255.657 274.64 255.462 274.731 255.294C274.772 255.211 274.833 255.134 274.907 255.073C274.982 255.012 275.068 254.966 275.161 254.938C275.256 254.911 275.354 254.901 275.452 254.912C275.549 254.923 275.643 254.952 275.728 254.999C277.256 255.693 278.917 256.077 280.606 256.124C281.927 256.198 283.248 255.957 284.446 255.417C284.613 255.315 284.813 255.283 285.005 255.324C285.197 255.366 285.363 255.478 285.469 255.638C285.574 255.797 285.608 255.989 285.565 256.173C285.522 256.357 285.405 256.517 285.239 256.617C283.806 257.309 282.208 257.628 280.606 257.544C278.781 257.504 276.984 257.108 275.325 256.381Z" fill="#D56B49"/>
<path d="M270.961 238.616C272.141 238.358 272.648 239.285 272.711 240.197C272.814 241.715 271.611 243.235 270.447 241.974C269.71 241.175 270.011 238.829 270.961 238.616Z" fill="#361A09"/>
<path d="M294.559 241.297C295.739 241.039 296.237 241.966 296.308 242.869C296.411 244.388 295.208 245.908 294.044 244.654C293.307 243.819 293.617 241.464 294.559 241.297Z" fill="#361A09"/>
<path d="M299.989 237.105C299.197 235.584 296.996 235.297 295.468 235.054C294.407 234.887 291.619 234.697 291.849 236.39C291.968 237.256 293.195 237.294 293.876 237.332C295.756 237.49 297.623 237.743 299.475 238.092C299.563 238.103 299.651 238.093 299.735 238.065C299.818 238.037 299.894 237.991 299.956 237.928C300.017 237.867 300.063 237.793 300.089 237.713C300.116 237.632 300.122 237.546 300.109 237.462C300.086 237.337 300.045 237.218 299.989 237.105Z" fill="#522C26"/>
<path d="M273.464 234.53C273.138 235.456 271.793 235.289 271.033 235.175C270.273 235.061 268.951 235.016 268.048 234.963C268.04 234.943 268.04 234.921 268.048 234.902C268.27 234.013 268.508 233.132 268.721 232.282C269.109 232.282 269.592 232.351 269.75 232.351C270.977 232.373 274.065 232.706 273.464 234.53Z" fill="#522C26"/>
<path d="M314.258 237.8C313.95 236.358 312.447 228.681 311.98 227.275C310.072 221.494 303.84 217.265 298.337 214.985C292.303 212.478 287.188 209.555 280.972 213.276L280.751 213.428C279.246 213.55 277.84 214.193 276.791 215.236C275.972 215.308 275.17 215.505 274.416 215.82C272.909 216.652 271.619 217.803 270.648 219.186C268.185 222.474 267.401 226.675 266.957 230.579C266.928 230.766 266.966 230.957 267.063 231.12C267.161 231.285 267.315 231.413 267.496 231.484C267.679 231.555 267.881 231.565 268.071 231.512C268.26 231.46 268.426 231.347 268.54 231.193C269.871 229.326 271.369 227.574 273.021 225.96C274.487 224.661 276.189 223.537 277.519 222.162C278.432 221.208 279.144 220.094 279.618 218.88C285.232 218.88 291.361 217.894 296.325 220.978C301.995 224.51 304.297 238.544 305.611 244.286C305.638 244.453 305.718 244.609 305.841 244.731C305.964 244.853 306.123 244.935 306.296 244.967C306.47 244.999 306.65 244.978 306.81 244.908C306.971 244.837 307.106 244.721 307.194 244.575C307.381 244.609 307.576 244.577 307.741 244.484C309.72 243.397 313.656 242.145 314.401 239.881C314.554 239.189 314.505 238.469 314.258 237.8Z" fill="#522C26"/>
<path d="M324.148 222.042C321.84 216.135 317.367 211.239 311.565 208.271C305.447 205.198 298.482 204.021 291.635 204.906C286.134 205.656 281.001 207.992 276.915 211.605C275.459 211.666 274.026 211.817 272.782 211.94C269.22 212.289 265.102 213.116 262.227 215.296C258.918 217.811 256.772 222.635 256.93 227.055C256.82 227.404 256.693 227.746 256.598 228.125C255.49 232.63 257.731 236.906 257.39 241.464C257.05 245.694 257.082 250.805 259.765 254.376C259.854 254.48 259.974 254.553 260.11 254.586C260.244 254.619 260.387 254.608 260.515 254.556C260.643 254.506 260.751 254.416 260.823 254.301C260.895 254.187 260.926 254.053 260.913 253.919C260.707 249.582 259.685 245.617 260.018 241.204C260.088 240.191 260.05 239.173 259.907 238.166C260.008 238.076 260.094 237.971 260.161 237.854C260.653 236.635 260.972 235.357 261.111 234.056L261.159 234.094C261.303 234.199 261.469 234.271 261.646 234.305C261.824 234.338 262.006 234.332 262.18 234.288C262.355 234.243 262.517 234.16 262.653 234.047C262.789 233.932 262.896 233.79 262.966 233.631C263.139 233.175 263.313 232.689 263.489 232.188C263.527 232.177 263.565 232.162 263.599 232.142C265.373 231.072 266.102 228.921 266.853 227.144C267.203 226.315 267.535 225.488 267.852 224.653C268.643 223.56 269.522 222.481 270.41 221.433C272.373 219.791 274.543 218.265 275.999 216.32C276.112 216.17 276.184 215.995 276.205 215.811C276.268 215.622 276.268 215.416 276.205 215.227C276.997 214.93 277.742 214.649 278.525 214.398H278.573C278.654 214.362 278.719 214.301 278.76 214.225C278.802 214.149 278.82 214.063 278.807 213.98C278.795 213.895 278.755 213.816 278.693 213.755C278.631 213.694 278.55 213.652 278.463 213.638C278.328 213.638 278.185 213.638 278.05 213.638C278.098 213.63 278.144 213.615 278.185 213.592L278.565 213.38C279.095 213.38 279.641 213.342 280.148 213.38C279.581 213.968 279.159 214.672 278.913 215.438C278.88 215.525 278.875 215.622 278.897 215.712C278.917 215.802 278.966 215.886 279.034 215.951C279.104 216.018 279.19 216.064 279.283 216.084C279.379 216.105 279.478 216.099 279.569 216.068C281.358 215.551 282.601 214.26 284.32 213.523C286.242 212.783 288.219 212.182 290.234 211.724C292.46 211.106 294.727 210.64 297.021 210.326C297.129 210.535 297.315 210.698 297.543 210.782L297.742 210.858C297.82 211.057 297.975 211.223 298.173 211.321C298.372 211.417 298.602 211.439 298.818 211.381C298.896 211.373 298.976 211.373 299.055 211.381C300.251 211.829 301.43 212.27 302.65 212.681C306.308 214.032 309.903 215.544 312.849 218.043C316.016 220.725 317.933 224.88 321.685 226.785C321.773 226.831 321.853 226.892 321.939 226.93C322.072 227.001 322.222 227.038 322.375 227.038C322.527 227.038 322.678 227.001 322.811 226.93C323.745 231.761 323.096 236.592 323.341 241.551C323.341 242.082 324.134 242.052 324.316 241.665C327.458 235.851 326.429 227.86 324.148 222.042Z" fill="#522C26"/>
<path d="M327.332 344.667C327.332 344.667 320.997 344.933 317.545 345.146C314.646 345.19 311.797 345.878 309.224 347.159C305.756 348.678 301.028 351.398 291.938 346.127C291.938 346.127 289.563 344.205 283.854 345.489C278.145 346.772 275.8 342.846 276.402 339.701C277.005 336.557 285.113 331.285 285.113 331.285H324.956L327.332 344.667Z" fill="#D8005D"/>
<path d="M309.223 346.352C307.557 347.383 305.676 348.053 303.713 348.315C301.748 348.576 299.749 348.426 297.853 347.872C294.203 346.793 291.36 343.861 287.338 344.013C285.39 344.09 283.474 344.658 281.509 344.597C280.523 344.595 279.562 344.311 278.746 343.783C277.929 343.255 277.295 342.504 276.924 341.628C276.206 339.719 276.237 337.623 277.012 335.735C277.661 333.835 278.895 332.035 279.189 330.031C279.325 329.232 279.211 328.412 278.864 327.675C278.389 326.74 277.533 326.46 276.702 325.882C276.34 325.598 276.051 325.238 275.856 324.829C275.661 324.421 275.566 323.976 275.577 323.527C275.589 323.078 275.707 322.637 275.922 322.239C276.138 321.839 276.445 321.494 276.819 321.227C276.946 321.143 276.819 320.937 276.693 321.02C276.155 321.395 275.745 321.915 275.518 322.515C275.29 323.115 275.256 323.767 275.419 324.386C275.57 325.047 275.96 325.637 276.52 326.05C276.852 326.293 277.241 326.452 277.588 326.672C278.137 327.004 278.553 327.504 278.768 328.092C279.561 330.258 278.048 332.482 277.241 334.436C276.35 336.265 276.01 338.295 276.259 340.299C276.376 341.104 276.678 341.874 277.146 342.552C277.613 343.231 278.233 343.799 278.959 344.218C280.646 345.099 282.608 344.849 284.422 344.591C285.519 344.399 286.627 344.282 287.74 344.241C288.924 344.263 290.089 344.522 291.161 345.002C293.037 345.761 294.693 346.961 296.577 347.72C298.644 348.532 300.885 348.853 303.108 348.655C305.333 348.457 307.474 347.746 309.349 346.581C309.484 346.475 309.358 346.27 309.223 346.352Z" fill="#1F2144"/>
<path d="M334.677 229.429C334.677 229.429 327.168 231.034 322.12 228.61C317.074 226.185 314.232 223.459 311.352 222.381C308.471 221.303 297.544 222.077 295.184 221.041C292.826 220.006 294.676 216.967 294.676 216.967C294.676 216.967 290.519 216.456 287.465 215.361C284.41 214.268 285.059 210.962 285.059 210.962C285.059 210.962 282.722 207.746 285.494 206.126C288.267 204.508 301.008 203.045 299.85 202.288C298.692 201.533 286.746 205.114 286.812 201.209C286.867 198.01 293.547 196.194 297.887 194.89C301.983 193.66 310.236 193.897 315.574 194.843C320.912 195.79 332.604 213.895 332.604 213.895L334.677 229.429Z" fill="#F39E7E"/>
<path d="M311.113 210.074C311.317 209.24 310.777 208.408 309.909 208.213C309.707 208.169 304.922 207.11 300.101 207.231C295.365 207.35 286.285 208.907 285.901 208.975C285.04 209.134 284.439 209.933 284.596 210.775C284.755 211.616 285.595 212.176 286.473 212.025C286.565 212.009 295.698 210.439 300.187 210.328C304.581 210.218 309.129 211.22 309.176 211.232C309.431 211.289 309.686 211.284 309.923 211.229C310.496 211.095 310.971 210.664 311.113 210.074Z" fill="#E27E66"/>
<path d="M310.071 216.219C310.17 215.368 309.529 214.603 308.641 214.509C306.311 214.265 296.995 215.106 295.941 215.202C295.076 215.279 294.402 216.037 294.485 216.891C294.57 217.743 295.359 218.366 296.247 218.285C300.103 217.932 306.783 217.43 308.289 217.589C308.481 217.609 308.669 217.595 308.846 217.554C309.49 217.405 309.996 216.885 310.071 216.219Z" fill="#E27E66"/>
<path d="M310.033 202.557C310.248 201.727 309.723 200.885 308.856 200.679L307.735 200.408C306.474 200.105 302.641 200.437 301.053 200.593C300.149 200.689 299.519 201.441 299.609 202.294C299.7 203.145 300.493 203.764 301.382 203.676C303.598 203.457 306.37 203.301 306.951 203.414L308.072 203.684C308.337 203.746 308.599 203.744 308.845 203.686C309.412 203.553 309.881 203.134 310.033 202.557Z" fill="#E27E66"/>
<path d="M341.167 88.4751C355.905 88.4751 367.852 77.0142 367.852 62.8765C367.852 48.7388 355.905 37.2778 341.167 37.2778C326.429 37.2778 314.481 48.7388 314.481 62.8765C314.481 77.0142 326.429 88.4751 341.167 88.4751Z" fill="white"/>
<path d="M342.023 80.2806L323.271 65.9793L327.155 61.2939L339.793 70.932L352.218 46.2034L357.839 48.8024L342.023 80.2806Z" fill="#17DA17"/>
<path d="M397.166 316.698C404.721 316.698 410.844 310.824 410.844 303.577C410.844 296.331 404.721 290.456 397.166 290.456C389.612 290.456 383.488 296.331 383.488 303.577C383.488 310.824 389.612 316.698 397.166 316.698Z" fill="white"/>
<path d="M397.606 312.497L387.994 305.168L389.985 302.765L396.462 307.706L402.831 295.031L405.712 296.364L397.606 312.497Z" fill="#17DA17"/>
<path d="M75.7118 167.692C83.266 167.692 89.3899 161.818 89.3899 154.571C89.3899 147.324 83.266 141.45 75.7118 141.45C68.1576 141.45 62.0337 147.324 62.0337 154.571C62.0337 161.818 68.1576 167.692 75.7118 167.692Z" fill="white"/>
<path d="M76.1504 163.491L66.5391 156.16L68.5298 153.759L75.0074 158.7L81.3758 146.024L84.2568 147.357L76.1504 163.491Z" fill="#17DA17"/>
<path d="M89.3895 378.966C96.9437 378.966 103.068 373.091 103.068 365.845C103.068 358.598 96.9437 352.724 89.3895 352.724C81.8353 352.724 75.7114 358.598 75.7114 365.845C75.7114 373.091 81.8353 378.966 89.3895 378.966Z" fill="white"/>
<path d="M94.2935 373.436L82.1797 371.513L82.7018 368.485L90.8664 369.781L90.0073 355.735L93.2004 355.557L94.2935 373.436Z" fill="#17DA17"/>
<path d="M110.55 71.8621C122.237 71.8621 131.712 62.7735 131.712 51.5623C131.712 40.3511 122.237 31.2627 110.55 31.2627C98.863 31.2627 89.3887 40.3511 89.3887 51.5623C89.3887 62.7735 98.863 71.8621 110.55 71.8621Z" fill="white"/>
<path d="M111.23 65.3627L96.3594 54.0226L99.4401 50.3061L109.461 57.9495L119.314 38.3403L123.772 40.4017L111.23 65.3627Z" fill="#17DA17"/>
<path d="M410.845 136.781C418.399 136.781 424.523 130.906 424.523 123.66C424.523 116.413 418.399 110.539 410.845 110.539C403.291 110.539 397.167 116.413 397.167 123.66C397.167 130.906 403.291 136.781 410.845 136.781Z" fill="white"/>
<path d="M411.284 132.58L401.672 125.25L403.663 122.849L410.14 127.788L416.509 115.114L419.39 116.446L411.284 132.58Z" fill="#17DA17"/>
<defs>
<linearGradient id="paint0_linear" x1="249.214" y1="394.009" x2="249.214" y2="62.8765" gradientUnits="userSpaceOnUse">
<stop offset="0.0064" stop-color="#FFFF00"/>
<stop offset="0.1184" stop-color="#D1F800"/>
<stop offset="0.253" stop-color="#92EF00"/>
<stop offset="0.3861" stop-color="#5EE700"/>
<stop offset="0.5058" stop-color="#35E100"/>
<stop offset="0.6001" stop-color="#18DD00"/>
<stop offset="0.665" stop-color="#06DA00"/>
<stop offset="0.7442" stop-color="#00D900"/>
</linearGradient>
</defs>
</svg>
