<svg width="498" height="424" viewBox="0 0 498 424" fill="none" xmlns="http://www.w3.org/2000/svg">
<path opacity="0.6" d="M85.5588 260.516C69.2176 237.481 47.0205 197.343 69.8958 130.876C92.7711 64.4089 218.255 124.514 249.487 77.3877C280.717 30.2612 396.376 0.80901 434.02 76.3841C466.859 142.312 352.606 235.459 397.662 346.255C449.837 474.555 125.276 316.503 85.5588 260.516Z" fill="url(#paint0_linear)"/>
<path d="M398.766 119.616L110.808 157.536L111.255 160.661L399.213 122.74L398.766 119.616Z" fill="#17DA17"/>
<path d="M71.8983 208.864L70.8208 208.09L111.934 155.462L142.972 208.16L141.799 208.795L111.775 157.819L71.8983 208.864Z" fill="#17DA17"/>
<path d="M111.854 162.139C114.262 162.139 116.214 160.267 116.214 157.957C116.214 155.647 114.262 153.775 111.854 153.775C109.447 153.775 107.495 155.647 107.495 157.957C107.495 160.267 109.447 162.139 111.854 162.139Z" fill="#17DA17"/>
<path d="M359.862 172.109L358.783 171.336L399.896 118.707L430.934 171.405L429.762 172.04L399.739 121.065L359.862 172.109Z" fill="#17DA17"/>
<path d="M399.575 125.352C401.983 125.352 403.935 123.48 403.935 121.17C403.935 118.86 401.983 116.988 399.575 116.988C397.168 116.988 395.216 118.86 395.216 121.17C395.216 123.48 397.168 125.352 399.575 125.352Z" fill="#17DA17"/>
<path d="M394.834 205.789C414.447 205.789 430.346 190.537 430.346 171.723H359.321C359.322 190.537 375.221 205.789 394.834 205.789Z" fill="#17DA17"/>
<path d="M430.416 173.402H358.384C356.897 173.402 355.68 172.235 355.68 170.807C355.68 169.381 356.897 168.213 358.385 168.213H430.417C431.904 168.213 433.121 169.38 433.121 170.807C433.121 172.235 431.904 173.402 430.416 173.402Z" fill="#17DA17"/>
<path d="M106.872 242.543C126.485 242.543 142.385 227.291 142.385 208.477H71.3589C71.3589 227.291 87.2593 242.543 106.872 242.543Z" fill="#17DA17"/>
<path d="M142.454 210.157H70.4213C68.9342 210.157 67.7168 208.99 67.7168 207.562C67.7168 206.136 68.9332 204.968 70.4213 204.968H142.454C143.941 204.968 145.157 206.135 145.157 207.562C145.157 208.99 143.941 210.157 142.454 210.157Z" fill="#17DA17"/>
<path d="M321.685 398.041C321.706 394.529 321.741 391.018 321.744 387.506C321.76 369.737 310.231 326.214 310.231 326.214C270.493 313.674 225.892 317.354 185.414 325.025C185.414 325.025 177.167 357.093 171.754 398.041H321.685Z" fill="#015E7E"/>
<path d="M208.203 135.591C208.237 135.04 208.279 134.489 208.327 133.94C208.73 129.377 211.429 122.998 210.419 118.525C210.367 118.296 210.316 118.068 210.264 117.839C207.637 106.229 204.021 94.4076 202.91 82.5369C201.989 72.5822 204.554 63.1855 211.799 55.8083C214.182 53.3731 216.851 51.3467 219.732 49.6725C222.686 47.9436 225.858 46.6036 229.167 45.586C232.449 44.5623 235.883 43.869 239.342 43.4651C252.083 39.111 265.081 41.3363 276.049 47.5288C285.39 50.8622 293.883 55.7904 299.716 64.046C301.963 67.2253 303.68 70.7826 304.538 74.5438C305.505 78.7796 304.413 83.0064 305.131 87.2014C305.901 91.6997 309.914 94.5169 312.278 98.2274C314.374 101.517 314.724 105.32 314.072 109.068C313.356 113.197 310.863 118.122 309.238 123.009C309.637 124.768 310.148 126.501 310.824 128.192C313.642 135.229 319.681 139.001 324.625 144.465C329.864 150.272 329.616 158.476 335.543 163.746C335.713 163.902 335.896 164.066 336.068 164.232C338.417 166.428 340.75 169.292 341.842 172.103C340.516 172.599 339.264 173.226 338.093 174.014C334.085 176.736 332.081 179.729 327.153 181.389C323.14 182.738 318.965 183.723 314.883 184.868C306.286 187.253 299.702 190.962 291.932 195.058C291.055 193.677 290.251 192.244 289.52 190.791C289.283 190.334 289.061 189.886 288.837 189.424C287.861 187.432 286.964 185.407 286.059 183.396C283.489 177.721 280.906 172.049 278.348 166.371C278.075 165.775 277.815 165.189 277.544 164.593C276.922 163.224 276.289 161.845 275.665 160.467C275.042 159.086 274.408 157.708 273.765 156.345C269.97 157.801 265.966 158.755 262.165 159.268C257.289 159.923 251.279 160.644 246.374 159.17C246.365 159.184 246.368 159.196 246.371 159.207C246.303 159.431 246.091 159.643 245.849 159.69C239.846 160.715 233.105 161.48 227.56 159.524C224.787 162.427 220.62 163.83 216.634 161.221C209.217 156.36 207.728 143.446 208.203 135.591Z" fill="#6A433E"/>
<path d="M261.881 139.87L262.555 171.901L243.352 179.638L224.526 171.659L227.684 114.325L257.371 129.029L261.881 139.87Z" fill="#FFA587"/>
<path d="M279.494 136.346L282.895 136.464C283.685 136.492 284.349 135.899 284.378 135.142L285.138 115.025C285.166 114.267 284.548 113.63 283.759 113.603L280.357 113.485C279.567 113.457 278.903 114.05 278.874 114.807L278.114 134.924C278.085 135.681 278.703 136.318 279.494 136.346Z" fill="#8F0051"/>
<path d="M281.625 87.9962C281.625 87.9962 281.278 118.59 279.876 123.379C278.474 128.168 265.516 146.687 255.497 144.864C245.478 143.042 224.534 127.264 224.534 127.264L214.769 97.1471C214.769 97.1471 216.051 80.8895 217.912 78.5945C219.773 76.2996 243.071 55.7277 246.493 56.5772C249.915 57.4268 258.823 59.3865 264.068 63.9296C269.315 68.4717 281.625 87.9962 281.625 87.9962Z" fill="#FFA587"/>
<path d="M244.54 102.635C244.783 100.136 243.977 98.0216 242.74 97.9101C241.503 97.7997 240.303 99.7356 240.059 102.233C239.817 104.732 240.622 106.847 241.86 106.958C243.098 107.07 244.298 105.134 244.54 102.635Z" fill="#36303A"/>
<path d="M270.169 103.892C269.928 106.391 268.727 108.325 267.49 108.215C266.253 108.104 265.447 105.99 265.69 103.491C265.932 100.992 267.132 99.0572 268.369 99.1676C269.607 99.278 270.413 101.393 270.169 103.892Z" fill="#36303A"/>
<path d="M262.948 88.6497C266.929 87.7325 273.197 88.4069 275.547 92.0826C275.672 92.2786 275.701 92.5502 275.575 92.7541C274.532 94.4234 271.065 92.6626 269.587 92.4398C267.299 92.0946 265.152 92.214 262.872 92.1922C262.066 92.1842 261.231 92.2697 260.636 91.5992C259.205 89.9847 261.698 88.9372 262.948 88.6497Z" fill="#6A433E"/>
<path d="M248.276 92.3414C247.628 92.9641 246.804 92.8149 246.002 92.7612C243.729 92.609 241.603 92.3274 239.298 92.4966C237.808 92.606 234.212 94.0952 233.311 92.3534C233.202 92.1405 233.254 91.8719 233.394 91.6868C236.038 88.2081 242.331 88.0151 246.218 89.2307C247.441 89.6127 249.834 90.8452 248.276 92.3414Z" fill="#6A433E"/>
<path d="M214.051 105.018C212.713 97.571 211.802 89.9988 213.48 82.6653C213.107 81.8486 212.13 81.4408 211.634 80.6867C211.138 79.9327 211.887 78.536 212.642 79.0543C212.29 73.3095 211.945 67.481 213.209 61.8546C214.474 56.2291 217.574 50.735 222.704 47.7517C227.463 44.9852 233.47 44.6898 238.854 46.0357C240.845 42.9768 245.291 42.554 249.031 42.9151C255.962 43.5826 262.714 45.8327 268.604 49.394C269.975 50.2237 271.551 51.0942 272.636 52.2611C273.677 53.3832 275.23 54.1053 276.437 55.0832C279.103 57.2438 281.335 59.871 283.147 62.726C284.887 65.4656 286.253 68.4192 287.28 71.4691C289.863 79.1269 290.46 87.2502 291.037 95.279C291.492 101.574 291.944 107.869 292.398 114.165C292.531 116.012 292.658 117.908 292.095 119.68C291.532 121.452 290.115 123.096 288.215 123.425C288.777 124.081 288.056 125.267 287.184 125.121C284.096 118.155 283.668 110.422 282.457 102.941C281.247 95.4601 279.69 91.7138 273.913 86.5588C264.966 78.5758 249.997 78.923 241.902 70.1421C240.165 74.8802 235.288 77.7252 231.417 81.1084C228.078 84.0281 224.599 83.5267 222.646 87.4352C221.103 86.3977 218.804 87.2263 217.757 88.7294C216.711 90.2325 216.613 92.1545 216.685 93.961C216.804 96.9095 217.287 99.8461 218.119 102.687C218.739 104.805 219.572 106.901 220.95 108.658C221.634 109.529 222.447 110.311 223.031 111.247C223.681 112.288 224.023 113.474 224.328 114.651C225.146 117.803 224.62 131.596 223.119 132.062C218.067 125.594 216.399 117.333 214.868 109.385C214.591 107.937 214.313 106.48 214.051 105.018Z" fill="#6A433E"/>
<path d="M253.699 145.432C255.691 145.314 256.612 144.884 256.752 144.812C257.193 144.587 257.36 144.063 257.126 143.639C256.894 143.218 256.352 143.059 255.915 143.273C255.863 143.298 254.157 144.046 250.052 143.56C246.957 143.195 235.204 131.747 228.523 124.618C228.188 124.261 227.614 124.234 227.247 124.552C226.875 124.872 226.846 125.421 227.177 125.777C228.993 127.714 245.05 144.717 249.832 145.281C251.418 145.47 252.695 145.491 253.699 145.432Z" fill="#ED835C"/>
<path d="M258.921 120.162C259.604 119.995 260.235 119.683 260.707 119.151C262.28 117.378 260.673 105.809 259.908 100.917C259.834 100.443 259.373 100.117 258.879 100.188C258.392 100.261 258.045 100.7 258.119 101.175C259.253 108.433 260.032 116.947 259.316 118.045C258.45 119.017 255.707 118.461 254.815 118.186C254.341 118.04 253.83 118.289 253.676 118.746C253.524 119.201 253.783 119.69 254.258 119.837C254.606 119.944 256.977 120.639 258.921 120.162Z" fill="#FFA587"/>
<path d="M221.835 109.252C222.429 111.489 224.091 113.013 225.546 112.656C227 112.301 227.697 110.199 227.103 107.963C226.509 105.727 224.848 104.204 223.393 104.559C221.938 104.915 221.24 107.017 221.835 109.252Z" fill="white"/>
<path d="M222.989 134.711L226.391 134.792C227.182 134.811 227.838 134.211 227.858 133.453L228.376 113.329C228.396 112.571 227.771 111.941 226.98 111.922L223.578 111.842C222.788 111.823 222.131 112.423 222.112 113.181L221.592 133.305C221.574 134.063 222.199 134.693 222.989 134.711Z" fill="#8F0051"/>
<path d="M243.801 68.018C244.114 67.9424 244.31 67.6419 244.241 67.3365C244.204 67.1744 243.329 63.3117 241.504 61.347C240.793 60.582 240.108 60.2061 239.503 59.8728C238.569 59.3585 237.831 58.9526 237.208 57.1142C236.76 55.7971 236.4 54.4522 236.08 53.2645C235.598 51.4709 235.181 49.922 234.609 48.9064C233.596 47.1088 231.152 46.311 231.047 46.2782C230.73 46.1767 230.391 46.3408 230.285 46.6432C230.18 46.9456 230.35 47.273 230.666 47.3755C230.686 47.3824 232.764 48.0658 233.546 49.4565C234.048 50.3488 234.447 51.834 234.91 53.554C235.234 54.7566 235.6 56.1215 236.059 57.4734C236.827 59.7355 237.881 60.3154 238.902 60.8755C239.478 61.1928 240.023 61.4923 240.6 62.116C242.212 63.8519 243.052 67.5415 243.059 67.5783C243.129 67.8907 243.45 68.0896 243.776 68.023C243.786 68.022 243.794 68.02 243.801 68.018Z" fill="#36303A"/>
<path d="M326.032 184.346C326.035 184.345 326.038 184.345 326.041 184.343C326.361 184.259 326.551 183.939 326.463 183.632C326.369 183.301 324.086 175.432 319.496 169.631C318.051 167.805 316.617 166.124 315.098 164.343C311.842 160.526 308.476 156.578 304.785 150.898C301.998 146.603 301.794 143.225 301.578 139.65C301.388 136.515 301.193 133.274 299.103 129.48C296.96 125.593 294.917 123.439 293.275 121.709C291.553 119.895 290.311 118.586 289.662 116.143C289.174 114.309 289.219 111.735 289.27 108.754C289.357 103.741 289.462 97.5004 287.157 91.104C283.442 80.7951 272.155 77.5421 271.676 77.4088C271.354 77.3193 271.023 77.4954 270.929 77.8027C270.837 78.1081 271.019 78.4295 271.339 78.5191C271.451 78.5499 282.511 81.748 286.017 91.4809C288.253 97.6833 288.148 103.811 288.064 108.734C288.012 111.798 287.966 114.444 288.494 116.428C289.218 119.149 290.616 120.622 292.385 122.486C293.981 124.168 295.967 126.261 298.038 130.02C300.007 133.59 300.187 136.565 300.375 139.715C300.59 143.278 300.812 146.962 303.762 151.507C307.494 157.251 310.885 161.228 314.164 165.072C315.675 166.844 317.103 168.517 318.534 170.328C322.982 175.948 325.278 183.856 325.301 183.934C325.388 184.244 325.712 184.425 326.032 184.346Z" fill="#36303A"/>
<path d="M295.424 99.1894C295.685 99.1257 295.877 98.8999 295.877 98.6293C295.877 98.1588 295.771 86.9656 285.951 75.3845C276.093 63.7615 260.413 63.1109 260.256 63.105C259.919 63.092 259.645 63.3446 259.633 63.6629C259.622 63.9823 259.882 64.2499 260.214 64.2619C260.365 64.2668 275.512 64.9095 285.015 76.1156C294.552 87.3606 294.671 98.5189 294.671 98.6293C294.671 98.9486 294.94 99.2073 295.274 99.2073C295.326 99.2073 295.377 99.2013 295.424 99.1894Z" fill="#36303A"/>
<path d="M223.789 84.3114C223.901 84.2836 224.007 84.2249 224.089 84.1353C224.12 84.1025 227.166 80.8525 232.564 77.7439C238.201 74.4969 240.847 69.4862 240.957 69.2743C241.104 68.9888 240.984 68.6427 240.686 68.4985C240.389 68.3572 240.027 68.4706 239.878 68.7581C239.852 68.8068 237.266 73.6851 231.942 76.751C226.377 79.9572 223.316 83.2281 223.188 83.3653C222.967 83.6041 222.99 83.9691 223.239 84.181C223.394 84.3163 223.601 84.3572 223.789 84.3114Z" fill="#36303A"/>
<path d="M278.038 155.318C278.061 155.312 278.081 155.306 278.104 155.299C278.415 155.186 278.572 154.853 278.455 154.554C278.431 154.493 276.096 148.523 275.2 144.146C274.308 139.774 274.164 138.44 274.164 138.426C274.132 138.109 273.836 137.876 273.506 137.908C273.162 137.945 272.932 138.221 272.963 138.539C272.969 138.593 273.108 139.914 274.017 144.368C274.93 148.844 277.227 154.714 277.326 154.962C277.435 155.239 277.746 155.388 278.038 155.318Z" fill="#36303A"/>
<path d="M259.393 105.808C260.528 113.065 261.18 117.518 259.616 118.477C258.75 119.449 256.008 118.892 255.116 118.617" stroke="#ED835C" stroke-opacity="0.2" stroke-width="1.5775" stroke-miterlimit="10" stroke-linecap="round"/>
<path d="M280.297 167.885C280.297 167.885 272.488 165.805 268.185 161.201C263.882 156.595 260.545 153.03 260.545 153.03L229.038 149.465C229.038 149.465 222.069 154.071 216.649 157.043C211.228 160.013 207.822 160.459 207.822 160.459C207.822 160.459 217.241 173.978 220.817 175.165C224.392 176.352 233.683 180.364 242.51 180.364C251.337 180.364 255.053 181.85 263.571 177.69C272.089 173.53 280.297 167.885 280.297 167.885Z" fill="#FFA587"/>
<path d="M147.362 254.36C148.401 240.154 148.797 230.662 149.718 216.448C150.532 203.885 152.154 197.061 157.939 185.679C160.306 177.016 168.185 171.447 176.547 168.245C182.583 165.933 188.827 164.167 195.095 162.537C198.241 161.718 201.399 160.938 204.553 160.14C206.858 159.555 209.496 157.503 211.909 158.55C213.896 159.412 215.128 161.544 216.749 162.878C218.922 164.666 221.346 166.168 223.798 167.588C227.844 169.93 232.224 171.738 236.778 172.95C245.868 175.369 255.6 175.385 264.692 172.971C267.581 172.204 270.366 171.128 273.113 169.985C274.18 169.54 275.327 169.186 276.342 168.636C277.353 168.088 278.052 167.274 279.046 166.692C281.21 165.42 282.681 166.947 284.646 167.738C286.733 168.577 288.821 169.411 290.906 170.256C295.187 171.992 299.452 173.764 303.644 175.693C311.874 179.479 318.236 185.125 323.888 191.89C328.911 197.902 330.397 205.554 333.127 212.899C335.993 220.603 313.918 240.276 315.801 248.276C317.454 255.298 329.318 319.232 328.381 319.177C330.012 319.275 333.41 332.166 333.892 333.832C336.724 343.603 339.695 355.858 337.778 366.01C334.187 385.044 314.764 392.751 313.745 390.392C312.325 387.108 315.035 343.523 310.485 332.899C295.453 326.079 278.132 325.895 261.723 326.137C245.467 326.378 229.232 327.388 213.077 329.122C207.935 343.781 202.792 358.439 197.65 373.098L193.304 385.486C192.363 388.167 191.665 391.891 189.22 393.773C188.728 394.152 188.164 394.396 187.582 394.532C187.526 394.853 187.257 395.117 186.857 394.965C186.6 394.866 186.355 394.756 186.104 394.65C184.935 394.561 183.868 394.056 183.3 393.25C167.864 395.01 164.903 378.782 163.837 366.624C162.589 352.393 172.591 309.021 174.936 294.934C171.132 295.692 144.343 310.668 147.362 254.36Z" fill="#B40057"/>
<path d="M348.552 258.388C352.543 271.196 354.437 290.004 355.033 289.226C356.59 287.119 380.888 270.491 382.507 269.415C389.888 264.514 395.609 262.041 400.034 261.694C401.497 261.578 405.814 260.705 405.814 260.705C405.814 260.705 409.134 259.479 411.667 260.228C414.229 260.974 415.161 262.707 413.022 263.704C411.109 264.597 407.438 265.62 407.438 265.62C407.438 265.62 415.171 264.491 421.219 263.256C423.495 262.791 424.166 265.755 424.166 265.755C424.166 265.755 425.117 265.496 425.59 265.331C428.613 264.279 430.432 268.608 429.236 269.108C427.231 269.947 425.826 270.308 425.826 270.308C426.652 270.504 428.309 272.41 426.42 273.213C424.366 274.087 418.787 275.917 418.787 275.917C420.145 275.746 421.617 278.116 420.864 278.491C417.855 279.99 407.474 283.906 405.954 284.247C404.604 284.551 397.582 285.36 394.409 285.282C391.884 285.235 386.484 284.736 386.484 284.736C386.484 284.736 355.177 316.611 349.795 316.025C345.808 315.573 337.774 312.09 335.661 305.642C333.514 299.169 319.803 260.852 319.803 260.852C320.335 240.583 342.512 239.004 348.552 258.388Z" fill="#FFA587"/>
<path d="M382.507 275.08C382.507 275.08 383.21 281.517 385.802 284.158" stroke="#CB8B6A" stroke-width="0.5651" stroke-miterlimit="10" stroke-linecap="round" stroke-linejoin="round"/>
<path d="M402.308 266.965C402.308 266.965 399.604 272.937 388.734 273.562C397.105 273.959 403.369 281.298 403.369 281.298" stroke="#CB8B6A" stroke-width="0.5651" stroke-miterlimit="10" stroke-linecap="round" stroke-linejoin="round"/>
<path d="M418.038 275.979L406.519 279.076" stroke="#CB8B6A" stroke-width="0.5651" stroke-miterlimit="10" stroke-linecap="round" stroke-linejoin="round"/>
<path d="M424.037 270.35L406.632 274.544" stroke="#CB8B6A" stroke-width="0.5651" stroke-miterlimit="10" stroke-linecap="round" stroke-linejoin="round"/>
<path d="M422.701 265.947L406.86 269.415" stroke="#CB8B6A" stroke-width="0.5651" stroke-miterlimit="10" stroke-linecap="round" stroke-linejoin="round"/>
<path d="M315.754 174.264C349.803 197.731 358.058 270.549 358.058 270.549C358.058 270.549 332.587 291.866 315.031 287.015C315.031 287.015 292.272 214.142 295.755 190.343C297.881 175.808 309.422 169.9 315.754 174.264Z" fill="#B40057"/>
<path d="M264.993 158.811C265.095 158.013 265.262 157.266 265.472 156.56C265.033 153.607 264.81 150.614 264.604 147.659C264.551 146.906 265.768 146.666 265.82 147.43C265.975 149.669 266.148 151.956 266.423 154.232C271.526 144.775 287.909 145.736 297.088 149.069C306.492 152.484 314.386 159.126 319.148 167.514C325.981 172.784 332.487 178.946 333.828 187.597C334.546 192.235 333.077 198.038 329.475 200.994C324.886 200.294 320.663 198.544 315.952 198.295C310.963 198.032 306.478 199.053 301.737 200.42C299.829 200.969 297.513 201.711 295.237 202.006C294.44 201.57 293.704 201.005 293.058 200.279C290.016 196.872 290.211 191.884 288.297 187.969C286.011 183.297 281.312 180.395 277.248 177.268C273.078 174.06 269.759 170.444 267.805 165.605C266.981 163.563 266.397 161.457 265.96 159.32C265.575 159.563 264.922 159.375 264.993 158.811Z" fill="#6A433E"/>
<path d="M211.327 320.173C211.327 320.173 196.254 392.667 181.594 393.46C166.934 394.253 164.849 374.543 164.849 374.543C164.849 374.543 174.986 329.284 175.193 328.69C175.4 328.096 183.039 316.213 189.027 316.213C195.015 316.213 211.327 320.173 211.327 320.173Z" fill="#B40057"/>
<path d="M192.176 255.586C192.484 255.586 192.748 255.359 192.775 255.059C192.792 254.878 194.376 236.85 191.994 223.566C190.742 216.582 165.076 187.721 163.983 186.497C163.766 186.253 163.386 186.228 163.133 186.434C162.878 186.64 162.85 187.007 163.066 187.248C163.331 187.546 189.608 217.09 190.804 223.763C193.161 236.899 191.59 254.781 191.572 254.96C191.543 255.277 191.789 255.558 192.121 255.585C192.142 255.586 192.159 255.586 192.176 255.586Z" fill="black"/>
<path d="M306.304 233.353C306.344 233.353 306.384 233.349 306.423 233.341C306.75 233.279 306.961 232.975 306.897 232.662C306.772 232.068 304.737 217.366 303.962 211.752C303.916 211.435 303.614 211.214 303.285 211.255C302.954 211.297 302.722 211.588 302.766 211.904C302.879 212.73 305.558 232.135 305.715 232.887C305.771 233.162 306.024 233.353 306.304 233.353Z" fill="black"/>
<path d="M188.088 346.255C188.348 346.255 188.588 346.092 188.666 345.84C188.709 345.699 193.07 331.687 197.689 327.685C202.331 323.663 209.787 321.636 209.862 321.616C210.182 321.53 210.369 321.212 210.28 320.904C210.191 320.597 209.857 320.417 209.537 320.502C209.222 320.586 201.732 322.624 196.88 326.827C192.009 331.046 187.689 344.924 187.507 345.514C187.413 345.82 187.595 346.141 187.915 346.232C187.974 346.247 188.031 346.255 188.088 346.255Z" fill="black"/>
<path d="M310.489 336.152C310.766 336.152 311.015 335.968 311.078 335.7C311.151 335.389 310.947 335.078 310.622 335.01C310.399 334.961 288.141 330.225 262.778 328.311C240.647 326.644 212.733 330.062 212.454 330.097C212.124 330.137 211.891 330.428 211.933 330.744C211.977 331.061 212.273 331.282 212.609 331.244C212.887 331.209 240.676 327.806 262.683 329.465C287.962 331.371 310.137 336.089 310.359 336.137C310.404 336.147 310.447 336.152 310.489 336.152Z" fill="black"/>
<path d="M258.479 326.867C260.055 326.867 261.289 325.031 261.289 322.685C261.289 320.342 260.056 318.505 258.479 318.505C256.903 318.505 255.668 320.341 255.668 322.685C255.668 325.03 256.902 326.867 258.479 326.867ZM258.479 319.661C259.237 319.661 260.084 320.904 260.084 322.686C260.084 324.468 259.238 325.71 258.479 325.71C257.719 325.71 256.874 324.468 256.874 322.686C256.874 320.904 257.719 319.661 258.479 319.661Z" fill="black"/>
<path d="M254.275 398.041C254.594 398.041 254.86 397.843 254.876 397.589L259.082 329.577C259.099 329.315 258.843 329.092 258.51 329.079C258.128 329.067 257.894 329.267 257.878 329.53L253.673 397.541C253.657 397.804 253.913 398.028 254.246 398.04C254.256 398.041 254.264 398.041 254.275 398.041Z" fill="black"/>
<path d="M255.458 389.709C255.78 389.709 256.047 389.465 256.061 389.155C256.073 388.835 255.817 388.568 255.486 388.553C255.271 388.543 250.2 388.187 248.465 379.683C246.643 370.754 250.092 328.898 250.126 328.476C250.153 328.157 249.906 327.879 249.574 327.853C249.238 327.837 248.951 328.064 248.925 328.384C248.781 330.112 245.428 370.821 247.283 379.905C249.208 389.355 255.179 389.698 255.432 389.708C255.442 389.709 255.45 389.709 255.458 389.709Z" fill="black"/>
<path d="M313.534 361.752C313.632 361.752 313.73 361.731 313.822 361.684C314.115 361.53 314.222 361.179 314.064 360.899L298.167 332.915C298.005 332.634 297.641 332.532 297.349 332.684C297.056 332.836 296.948 333.187 297.107 333.468L313.004 361.452C313.113 361.643 313.32 361.752 313.534 361.752Z" fill="black"/>
<path d="M204.72 354.424C204.915 354.424 205.109 354.333 205.224 354.162L221.695 330.097C221.877 329.83 221.799 329.471 221.521 329.296C221.246 329.122 220.87 329.192 220.687 329.462L204.216 353.526C204.033 353.794 204.111 354.153 204.389 354.328C204.491 354.393 204.605 354.424 204.72 354.424Z" fill="black"/>
<path d="M262.345 126.96C262.378 126.893 257.007 127.209 254.484 127.354C254.286 127.365 254.087 127.375 253.889 127.387C253.161 127.836 252.363 127.974 251.46 128.023C249.945 128.104 248.035 127.667 246.701 126.843C246.751 126.922 246.801 127.001 246.85 127.081C246.854 127.109 246.868 127.134 246.895 127.152C247.671 128.379 248.558 129.59 249.962 130.418C251.408 131.272 253.223 131.66 255.026 131.691C256.105 131.71 257.749 131.48 258.806 131.285C260.941 130.891 261.924 127.818 262.345 126.96Z" fill="white"/>
<path d="M262.354 126.868C261.79 125.838 261.467 124.83 260.017 124.991C258.898 125.116 258.053 125.918 257.205 126.585C257.294 126.231 257.244 125.875 256.896 125.569C256.195 124.953 255.008 125.054 254.163 125.263C253.044 125.539 252.059 126.124 251.002 126.547C249.636 127.094 248.218 127.177 246.808 126.712C246.683 126.671 246.602 126.798 246.639 126.888C246.639 126.926 246.653 126.964 246.694 126.993C248.998 128.656 252.28 128.767 255.101 128.903C258.543 129.068 261.052 128.823 262.281 127.165C262.353 127.037 262.411 126.975 262.354 126.868Z" fill="#D56C4E"/>
<path d="M174.607 261.356C174.893 261.262 175.066 260.971 174.999 260.681C174.986 260.628 173.828 255.381 177.809 248.044C181.82 240.647 190.358 236.297 190.445 236.253C190.738 236.105 190.853 235.756 190.7 235.473C190.545 235.19 190.182 235.084 189.886 235.23C189.523 235.413 180.925 239.794 176.742 247.51C172.542 255.253 173.772 260.709 173.826 260.938C173.899 261.249 174.222 261.442 174.545 261.372C174.564 261.367 174.586 261.362 174.607 261.356Z" fill="black"/>
<path d="M192.805 233.353C192.805 233.353 171.345 231.217 160.733 255.586" stroke="black" stroke-miterlimit="10"/>
<path d="M179.842 235.688C179.842 235.688 164.285 231.464 156.009 240.285" stroke="black" stroke-miterlimit="10"/>
<path d="M126.155 96.5411C126.155 106.744 117.532 115.013 106.896 115.013C96.2574 115.013 87.6367 106.744 87.6367 96.5411C87.6367 86.3337 96.2574 78.0612 106.896 78.0612C117.531 78.0622 126.155 86.3337 126.155 96.5411Z" fill="white"/>
<path d="M114.502 97.0028H111.707V90.3746C111.707 87.83 109.547 85.7569 106.893 85.7569C104.24 85.7569 102.081 87.83 102.081 90.3746V97.0028H99.2861V90.3746C99.2861 86.3508 102.698 83.0769 106.893 83.0769C111.09 83.0769 114.501 86.3498 114.501 90.3746V97.0028H114.502Z" fill="#17DA17"/>
<path d="M97.2217 94.6989V105.023C97.2217 106.012 98.0544 106.809 99.0863 106.809H114.705C115.735 106.809 116.568 106.012 116.568 105.023V94.6989C116.568 93.711 115.735 92.9103 114.705 92.9103H99.0863C98.0544 92.9103 97.2217 93.711 97.2217 94.6989Z" fill="#17DA17"/>
<path d="M108.516 98.3687C108.516 97.5122 107.791 96.8158 106.895 96.8158C105.998 96.8158 105.273 97.5122 105.273 98.3687C105.273 98.9795 105.643 99.5037 106.175 99.7593V102.221C106.175 102.601 106.499 102.91 106.895 102.91C107.29 102.91 107.613 102.6 107.613 102.221V99.7593C108.146 99.5037 108.516 98.9795 108.516 98.3687Z" fill="white"/>
<path d="M131.202 360.007C133.249 366.71 129.242 373.736 122.254 375.698C115.265 377.662 107.942 373.82 105.895 367.117C103.846 360.411 107.851 353.385 114.841 351.421C121.828 349.458 129.154 353.301 131.202 360.007Z" fill="white"/>
<path d="M123.639 362.462L121.803 362.978L120.474 358.624C119.963 356.952 118.128 355.989 116.384 356.479C114.641 356.968 113.639 358.729 114.149 360.401L115.478 364.756L113.642 365.272L112.312 360.917C111.505 358.273 113.09 355.492 115.845 354.718C118.603 353.943 121.501 355.464 122.309 358.108L123.639 362.462Z" fill="#17DA17"/>
<path d="M111.822 364.138L113.893 370.921C114.091 371.572 114.799 371.942 115.476 371.751L125.738 368.867C126.416 368.677 126.803 367.999 126.604 367.349L124.533 360.566C124.335 359.916 123.627 359.544 122.95 359.734L112.689 362.618C112.011 362.809 111.624 363.489 111.822 364.138Z" fill="#17DA17"/>
<path d="M119.978 364.464C119.806 363.901 119.19 363.578 118.602 363.743C118.013 363.908 117.676 364.5 117.848 365.062C117.971 365.463 118.319 365.739 118.719 365.809L119.213 367.427C119.289 367.676 119.563 367.82 119.824 367.746C120.084 367.673 120.234 367.41 120.158 367.161L119.664 365.543C119.963 365.278 120.101 364.865 119.978 364.464Z" fill="white"/>
<path d="M147.338 269.105C145.27 281.567 143.536 293.822 142.876 293.166C141.146 291.381 111.091 286.123 109.222 285.055C100.457 280.049 94.415 278.355 90.55 278.361L85.0124 278.129C85.0124 278.129 81.7479 277.38 79.4737 278.383C77.1737 279.387 76.5276 281.121 78.6576 281.797C80.5647 282.403 84.132 282.922 84.132 282.922C84.132 282.922 76.7495 282.79 70.9298 282.358C68.7397 282.196 68.497 285.049 68.497 285.049C68.497 285.049 67.5731 284.921 67.1095 284.824C64.1447 284.202 63.0061 288.468 64.1893 288.794C66.1741 289.34 67.5358 289.508 67.5358 289.508C66.7891 289.79 65.4866 291.773 67.3573 292.297C69.393 292.868 74.8518 293.914 74.8518 293.914C73.5597 293.917 72.4905 296.309 73.2434 296.57C76.2538 297.612 86.4756 300.034 87.944 300.171C89.2465 300.293 95.9217 300.209 98.8813 299.756C101.238 299.41 106.204 299.202 106.204 299.202C106.204 299.202 148.633 318.83 153.707 319.434C158.303 319.981 165.946 318.411 168.396 311.75C170.62 305.704 179.841 268.886 179.841 268.886C176.708 249.989 150.467 250.245 147.338 269.105Z" fill="#FFA587"/>
<path d="M106.743 298.736C106.743 298.736 108.731 296.103 109.222 292.438" stroke="#CB8B6A" stroke-width="0.5651" stroke-miterlimit="10" stroke-linecap="round" stroke-linejoin="round"/>
<path d="M89.1084 283.567C89.1084 283.567 92.4143 288.831 102.666 288.115C94.8855 289.489 89.9805 297.105 89.9805 297.105" stroke="#CB8B6A" stroke-width="0.5651" stroke-miterlimit="10" stroke-linecap="round" stroke-linejoin="round"/>
<path d="M75.5625 293.884L86.7435 295.403" stroke="#CB8B6A" stroke-width="0.5651" stroke-miterlimit="10" stroke-linecap="round" stroke-linejoin="round"/>
<path d="M69.2178 289.336L86.0484 291.176" stroke="#CB8B6A" stroke-width="0.5651" stroke-miterlimit="10" stroke-linecap="round" stroke-linejoin="round"/>
<path d="M69.8955 285.056L85.1675 286.404" stroke="#CB8B6A" stroke-width="0.5651" stroke-miterlimit="10" stroke-linecap="round" stroke-linejoin="round"/>
<path d="M157.937 185.678C143.129 214.151 142.742 278.402 142.742 278.402C142.742 278.402 172.085 292.98 189.502 286.165C189.502 286.165 200.685 224.993 196.213 202.577C193.484 188.888 165.146 171.82 157.937 185.678Z" fill="#B40057"/>
<path d="M160.733 179.637C160.733 179.637 150.829 187.714 150.31 195.057C149.792 202.4 151.088 212.122 145.125 220.939C139.162 229.756 145.028 243.252 142.743 250.555C140.459 257.859 135.274 259.185 136.829 267.599C138.385 276.014 138.382 282.166 144.994 283.566C151.607 284.965 156.869 283.531 162.922 287.979C168.975 292.426 178.263 294.946 179.841 289.335C181.419 283.722 178.115 245.296 178.115 245.296L160.733 179.637Z" fill="#B40057"/>
<path d="M198.893 226.524C198.893 226.524 194.046 234.051 195.467 244.711C196.889 255.372 199.37 268.649 195.205 272.878C191.041 277.107 187.065 292.133 187.483 294.643" stroke="black" stroke-miterlimit="10"/>
<path d="M334.888 195.996C336.396 198.611 342.761 200.376 346.218 211.128C349.674 221.882 346.909 226.192 355.205 240.285C363.501 254.378 363.761 266.267 358.057 270.549C352.354 274.832 326.483 263.68 326.483 263.68L334.888 195.996Z" fill="#B40057"/>
<path d="M328.379 319.175L315.799 248.275" stroke="black" stroke-miterlimit="10"/>
<path d="M403.84 64.1703C411.682 64.1703 418.04 58.0717 418.04 50.5488C418.04 43.0259 411.682 36.9274 403.84 36.9274C395.998 36.9274 389.64 43.0259 389.64 50.5488C389.64 58.0717 395.998 64.1703 403.84 64.1703Z" fill="white" stroke="#D8005D" stroke-width="3" stroke-miterlimit="10"/>
<path d="M413.46 59.7773L393.824 40.9413" stroke="#D8005D" stroke-width="3" stroke-miterlimit="10"/>
<path d="M393.824 59.7773L413.46 40.9413" stroke="#D8005D" stroke-width="3" stroke-miterlimit="10"/>
<path d="M402.668 363.044C413.732 363.044 422.701 354.44 422.701 343.827C422.701 333.213 413.732 324.609 402.668 324.609C391.604 324.609 382.635 333.213 382.635 343.827C382.635 354.44 391.604 363.044 402.668 363.044Z" fill="white" stroke="#D8005D" stroke-width="3" stroke-miterlimit="10"/>
<path d="M416.239 356.846L388.537 330.272" stroke="#D8005D" stroke-width="3" stroke-miterlimit="10"/>
<path d="M388.537 356.846L416.239 330.272" stroke="#D8005D" stroke-width="3" stroke-miterlimit="10"/>
<defs>
<linearGradient id="paint0_linear" x1="101.248" y1="315.329" x2="562.581" y2="75.6147" gradientUnits="userSpaceOnUse">
<stop offset="0.0064" stop-color="#FFFF00"/>
<stop offset="0.1184" stop-color="#D1F800"/>
<stop offset="0.253" stop-color="#92EF00"/>
<stop offset="0.3861" stop-color="#5EE700"/>
<stop offset="0.5058" stop-color="#35E100"/>
<stop offset="0.6001" stop-color="#18DD00"/>
<stop offset="0.665" stop-color="#06DA00"/>
<stop offset="0.7442" stop-color="#00D900"/>
</linearGradient>
</defs>
</svg>
