<svg width="498" height="424" viewBox="0 0 498 424" fill="none" xmlns="http://www.w3.org/2000/svg">
<path opacity="0.6" d="M79.6513 316.841C65.8523 278.968 85.4224 120.332 146.677 71.83C202.653 27.5063 283.467 76.5474 340.282 52.1552C417.3 19.0906 461.052 107.605 419.282 172.694C377.512 237.784 328.913 276.993 316.025 316.144C292.346 388.07 119.913 427.339 79.6513 316.841Z" fill="url(#paint0_linear)"/>
<path d="M94.6827 100.328C94.6991 100.07 94.7182 99.8116 94.7403 99.5538C94.9294 97.4156 96.1945 94.4257 95.7213 92.3298C95.6973 92.2221 95.6724 92.1153 95.6484 92.0085C94.4178 86.5672 92.7226 81.0274 92.2023 75.4637C91.7713 70.7978 92.9721 66.3943 96.3684 62.9366C97.4848 61.7957 98.7364 60.8454 100.086 60.0609C101.47 59.2505 102.957 58.6224 104.509 58.1455C106.046 57.6657 107.656 57.3407 109.278 57.151C115.248 55.1104 121.34 56.1537 126.48 59.0553C130.858 60.6179 134.839 62.9274 137.572 66.7959C138.625 68.2858 139.43 69.9534 139.832 71.7159C140.286 73.7013 139.774 75.682 140.11 77.648C140.47 79.7558 142.351 81.0762 143.459 82.8157C144.441 84.3581 144.605 86.1399 144.3 87.8959C143.964 89.8315 142.795 92.1392 142.034 94.4303C142.221 95.2544 142.461 96.0666 142.777 96.8594C144.097 100.158 146.928 101.925 149.245 104.486C151.701 107.207 151.585 111.052 154.363 113.523C154.442 113.596 154.528 113.672 154.608 113.75C155.709 114.78 156.803 116.122 157.314 117.439C156.693 117.671 156.106 117.965 155.558 118.335C153.679 119.611 152.74 121.014 150.431 121.791C148.55 122.423 146.593 122.885 144.681 123.422C140.652 124.54 137.566 126.278 133.925 128.198C133.514 127.55 133.137 126.879 132.794 126.198C132.683 125.984 132.579 125.774 132.473 125.557C132.016 124.624 131.595 123.674 131.172 122.732C129.967 120.073 128.756 117.414 127.558 114.753C127.43 114.474 127.309 114.199 127.181 113.92C126.89 113.278 126.593 112.632 126.301 111.986C126.009 111.339 125.713 110.693 125.411 110.054C123.633 110.736 121.757 111.183 119.975 111.423C117.689 111.73 114.873 112.068 112.575 111.378C112.571 111.385 112.572 111.39 112.574 111.396C112.542 111.501 112.442 111.6 112.329 111.622C109.517 112.103 106.356 112.461 103.758 111.544C102.458 112.905 100.506 113.562 98.6377 112.34C95.1579 110.062 94.46 104.009 94.6827 100.328Z" fill="#6A433E"/>
<path d="M118.637 102.333L118.953 117.344L109.953 120.97L101.13 117.23L102.61 90.3599L116.523 97.2514L118.637 102.333Z" fill="#FFA587"/>
<path d="M129.21 99.2121L130.755 98.8336C131.114 98.7461 131.331 98.3953 131.24 98.0509L128.809 88.9088C128.717 88.5644 128.351 88.3563 127.993 88.4438L126.448 88.8223C126.089 88.9097 125.872 89.2606 125.963 89.605L128.394 98.747C128.486 99.0914 128.851 99.2995 129.21 99.2121Z" fill="#8F0051"/>
<path d="M129.251 78.0218C129.251 78.0218 129.088 92.3601 128.431 94.6042C127.774 96.8483 121.701 105.527 117.006 104.673C112.311 103.819 102.494 96.4248 102.494 96.4248L97.9175 82.3101C97.9175 82.3101 98.5183 74.6911 99.3909 73.6146C100.263 72.5391 111.182 62.8979 112.786 63.2957C114.39 63.6935 118.565 64.6125 121.023 66.7415C123.481 68.8714 129.251 78.0218 129.251 78.0218Z" fill="#FFA587"/>
<path d="M113.406 85.1767C113.521 84.0054 113.142 83.0145 112.563 82.9621C111.983 82.9105 111.42 83.8175 111.306 84.9879C111.192 86.1592 111.57 87.15 112.15 87.2025C112.73 87.255 113.293 86.348 113.406 85.1767Z" fill="#36303A"/>
<path d="M125.418 85.7655C125.305 86.9368 124.742 87.843 124.162 87.7915C123.582 87.739 123.205 86.7481 123.318 85.5777C123.433 84.4064 123.994 83.5003 124.574 83.5519C125.155 83.6025 125.532 84.5942 125.418 85.7655Z" fill="#36303A"/>
<path d="M123.86 80.0074C125.726 79.5773 128.664 79.8941 129.765 81.616C129.823 81.7081 129.838 81.8352 129.778 81.931C129.29 82.7137 127.664 81.8886 126.971 81.7836C125.899 81.6216 124.893 81.6778 123.824 81.6676C123.446 81.6639 123.055 81.7045 122.776 81.3895C122.106 80.6335 123.274 80.1427 123.86 80.0074Z" fill="#6A433E"/>
<path d="M114.469 81.3855C114.165 81.6774 113.779 81.6074 113.402 81.5826C112.337 81.5117 111.341 81.38 110.26 81.4592C109.563 81.5107 107.877 82.2078 107.455 81.3919C107.403 81.2925 107.428 81.1663 107.494 81.0798C108.733 79.4499 111.682 79.3587 113.504 79.9287C114.077 80.1065 115.198 80.6848 114.469 81.3855Z" fill="#6A433E"/>
<path d="M97.4235 85.999C96.7967 82.5091 96.3694 78.9602 97.1556 75.5236C96.9809 75.1414 96.523 74.9498 96.2907 74.5962C96.0584 74.2426 96.4089 73.588 96.7631 73.8311C96.598 71.1385 96.4367 68.4073 97.0289 65.77C97.6222 63.1336 99.0745 60.5581 101.479 59.1602C103.709 57.8637 106.525 57.7256 109.048 58.3554C109.981 56.9217 112.064 56.7237 113.818 56.8922C117.067 57.2053 120.231 58.2596 122.991 59.9282C123.633 60.3168 124.373 60.7247 124.88 61.2717C125.368 61.7975 126.096 62.1364 126.662 62.595C127.912 63.607 128.957 64.8391 129.807 66.177C130.622 67.4616 131.262 68.8456 131.744 70.2747C132.954 73.8632 133.234 77.671 133.504 81.4335C133.718 84.3839 133.93 87.3343 134.142 90.2847C134.204 91.1503 134.264 92.0388 134 92.8694C133.736 93.7 133.072 94.4707 132.182 94.6245C132.445 94.9321 132.107 95.4874 131.699 95.4192C130.251 92.1548 130.052 88.5295 129.483 85.0239C128.916 81.5183 128.186 79.7622 125.479 77.3459C121.286 73.6046 114.27 73.7676 110.477 69.6523C109.663 71.8734 107.377 73.2058 105.563 74.7915C103.998 76.1598 102.368 75.925 101.452 77.7566C100.73 77.2703 99.6514 77.659 99.1609 78.3634C98.6704 79.0679 98.6244 79.9684 98.6589 80.8156C98.7146 82.1978 98.9411 83.5736 99.3308 84.9051C99.6217 85.8978 100.011 86.8802 100.658 87.7035C100.978 88.1114 101.358 88.4788 101.633 88.9171C101.937 89.4052 102.098 89.9614 102.241 90.513C102.625 91.99 102.379 98.4543 101.674 98.6725C99.3069 95.6411 98.5246 91.77 97.8075 88.0452C97.6769 87.3674 97.5464 86.6841 97.4235 85.999Z" fill="#6A433E"/>
<path d="M118.915 105.15C119.822 104.928 120.206 104.653 120.264 104.608C120.446 104.467 120.476 104.212 120.329 104.036C120.184 103.862 119.919 103.834 119.738 103.969C119.716 103.985 119 104.473 117.065 104.595C115.606 104.688 109.148 100.408 105.421 97.6874C105.233 97.5511 104.967 97.587 104.826 97.7647C104.684 97.9434 104.721 98.1985 104.907 98.3347C105.92 99.0732 114.868 105.549 117.121 105.406C117.868 105.359 118.458 105.261 118.915 105.15Z" fill="#ED835C"/>
<path d="M119.174 93.0967C119.495 93.0184 119.79 92.872 120.012 92.6224C120.749 91.7909 119.995 86.369 119.637 84.0761C119.603 83.8542 119.387 83.7013 119.155 83.7345C118.927 83.7686 118.765 83.9748 118.799 84.1967C119.331 87.5983 119.696 91.5884 119.36 92.1031C118.954 92.5589 117.668 92.2974 117.251 92.1694C117.029 92.1013 116.789 92.2181 116.717 92.4318C116.646 92.6454 116.767 92.8738 116.99 92.9429C117.152 92.9945 118.263 93.3195 119.174 93.0967Z" fill="#FFA587"/>
<path d="M99.8693 87.9832C100.148 89.0311 100.926 89.7456 101.608 89.5789C102.289 89.4122 102.617 88.4279 102.337 87.38C102.059 86.3321 101.28 85.6184 100.599 85.7842C99.9173 85.9508 99.59 86.9362 99.8693 87.9832Z" fill="white"/>
<path d="M103.544 99.9591L105.09 99.5806C105.449 99.4931 105.665 99.1423 105.574 98.7979L103.144 89.6557C103.053 89.3113 102.687 89.1033 102.328 89.1917L100.782 89.5702C100.423 89.6577 100.206 90.0085 100.299 90.3529L102.729 99.495C102.819 99.8384 103.185 100.047 103.544 99.9591Z" fill="#8F0051"/>
<path d="M110.163 68.6588C110.31 68.6229 110.402 68.4821 110.37 68.3393C110.353 68.2629 109.943 66.4534 109.087 65.5316C108.754 65.1734 108.434 64.9966 108.15 64.841C107.712 64.5997 107.366 64.4101 107.073 63.5482C106.863 62.9312 106.694 62.3005 106.545 61.7443C106.319 60.9036 106.123 60.1779 105.855 59.7018C105.381 58.8593 104.235 58.4854 104.187 58.4698C104.038 58.4219 103.879 58.4993 103.83 58.6411C103.78 58.7829 103.86 58.9366 104.008 58.9836C104.018 58.9863 104.991 59.3067 105.358 59.9587C105.593 60.3768 105.78 61.073 105.998 61.8787C106.15 62.4423 106.322 63.0823 106.537 63.7158C106.897 64.7757 107.391 65.0473 107.869 65.3106C108.139 65.4598 108.394 65.5998 108.665 65.8917C109.42 66.7057 109.814 68.4341 109.818 68.4516C109.851 68.598 110.001 68.6911 110.154 68.6598C110.157 68.6607 110.161 68.6597 110.163 68.6588Z" fill="#36303A"/>
<path d="M148.702 123.177C148.703 123.176 148.705 123.176 148.707 123.176C148.857 123.136 148.946 122.987 148.905 122.843C148.86 122.687 147.791 119 145.64 116.281C144.962 115.425 144.29 114.637 143.579 113.803C142.053 112.013 140.475 110.163 138.746 107.501C137.439 105.488 137.343 103.905 137.242 102.23C137.153 100.761 137.062 99.2414 136.083 97.4632C135.079 95.6409 134.121 94.6317 133.352 93.8213C132.545 92.9714 131.963 92.3572 131.658 91.2126C131.43 90.3534 131.451 89.1462 131.474 87.7502C131.514 85.4002 131.564 82.4756 130.485 79.4783C128.743 74.6466 123.453 73.1227 123.229 73.0601C123.079 73.0186 122.923 73.1006 122.879 73.2443C122.836 73.3879 122.921 73.538 123.071 73.5804C123.124 73.5951 128.306 75.0942 129.95 79.6551C130.998 82.5622 130.948 85.4334 130.909 87.741C130.885 89.1766 130.864 90.417 131.11 91.347C131.449 92.6224 132.105 93.313 132.934 94.186C133.682 94.9742 134.613 95.9549 135.584 97.7165C136.506 99.3896 136.591 100.785 136.679 102.26C136.78 103.929 136.883 105.656 138.267 107.787C140.016 110.479 141.605 112.343 143.141 114.144C143.85 114.974 144.519 115.759 145.19 116.608C147.274 119.241 148.35 122.948 148.361 122.984C148.4 123.129 148.552 123.214 148.702 123.177Z" fill="#36303A"/>
<path d="M134.358 83.2679C134.479 83.2384 134.57 83.1326 134.57 83.0056C134.57 82.7855 134.52 77.5394 129.918 72.1119C125.298 66.6652 117.949 66.3595 117.876 66.3567C117.718 66.3502 117.588 66.4691 117.584 66.6183C117.578 66.7674 117.7 66.8935 117.855 66.8991C117.926 66.9009 125.025 67.2021 129.479 72.4546C133.949 77.7245 134.004 82.954 134.004 83.0056C134.004 83.1547 134.131 83.2762 134.287 83.2762C134.311 83.2762 134.335 83.2734 134.358 83.2679Z" fill="#36303A"/>
<path d="M100.785 76.2954C100.837 76.2825 100.886 76.2549 100.925 76.2134C100.939 76.1987 102.367 74.6747 104.896 73.2179C107.538 71.6957 108.778 69.3476 108.83 69.2481C108.899 69.1137 108.842 68.9516 108.703 68.8844C108.564 68.8181 108.394 68.8715 108.324 69.006C108.311 69.029 107.1 71.3145 104.605 72.752C101.997 74.2548 100.562 75.787 100.502 75.8515C100.399 75.9629 100.409 76.1342 100.526 76.2337C100.599 76.2972 100.696 76.3166 100.785 76.2954Z" fill="#36303A"/>
<path d="M126.21 109.572C126.22 109.57 126.23 109.567 126.24 109.563C126.386 109.511 126.46 109.354 126.404 109.214C126.393 109.186 125.299 106.388 124.879 104.337C124.461 102.288 124.393 101.663 124.393 101.656C124.378 101.508 124.24 101.398 124.085 101.413C123.925 101.43 123.816 101.56 123.831 101.708C123.834 101.734 123.899 102.353 124.325 104.441C124.753 106.538 125.829 109.29 125.876 109.405C125.926 109.536 126.072 109.606 126.21 109.572Z" fill="#36303A"/>
<path d="M119.395 86.3691C119.927 89.7707 120.232 91.8573 119.5 92.3067C119.094 92.7625 117.809 92.501 117.391 92.373" stroke="#ED835C" stroke-opacity="0.2" stroke-width="1.5775" stroke-miterlimit="10" stroke-linecap="round"/>
<path d="M133.216 380.986C133.216 380.986 130.894 380.291 129.515 378.063C128.135 375.834 127.411 373.746 127.411 373.746C127.411 373.746 127.7 373.398 126.394 374.442C125.087 375.486 123.346 378.412 123.418 380.569C123.49 382.727 121.822 384.467 125.305 384.885C128.789 385.303 132.998 383.702 133.216 383.493C133.434 383.284 133.216 380.986 133.216 380.986Z" fill="#FFA587"/>
<path d="M131.039 355.411L128.063 382.51H119.155L117.782 352.998L131.039 355.411Z" fill="#FFA587"/>
<path d="M88.3703 351.692L82.4772 380.676L73.5229 378.464L75.4505 347.957L88.3703 351.692Z" fill="#FFA587"/>
<path d="M127.268 115.462C127.268 115.462 123.608 114.487 121.591 112.329C119.575 110.171 118.011 108.499 118.011 108.499L103.244 106.829C103.244 106.829 99.9786 108.988 97.4386 110.38C94.8987 111.772 93.3013 111.98 93.3013 111.98C93.3013 111.98 97.716 118.316 99.3911 118.873C101.067 119.429 105.421 121.309 109.558 121.309C113.695 121.309 115.436 122.005 119.429 120.056C123.421 118.108 127.268 115.462 127.268 115.462Z" fill="#FFA587"/>
<path d="M62.2908 175.992C62.4088 169.269 64.4755 162.696 64.967 155.99C65.4537 149.332 65.639 144.884 66.071 138.222C66.453 132.335 67.2123 129.136 69.9231 123.802C71.0328 119.742 74.7257 117.132 78.6442 115.631C81.4731 114.548 84.399 113.721 87.3374 112.956C88.8118 112.572 90.292 112.208 91.7703 111.833C92.8511 111.559 94.0866 110.597 95.2174 111.087C96.1486 111.491 96.7264 112.49 97.4857 113.116C98.5042 113.954 99.6398 114.658 100.789 115.323C102.685 116.421 104.738 117.268 106.872 117.836C111.132 118.969 115.693 118.977 119.954 117.845C121.307 117.486 122.613 116.981 123.9 116.445C124.4 116.237 124.938 116.071 125.414 115.814C125.887 115.557 126.216 115.176 126.681 114.902C127.696 114.306 128.385 115.022 129.306 115.392C130.284 115.785 131.262 116.176 132.239 116.573C134.245 117.386 136.244 118.216 138.209 119.121C142.066 120.895 145.047 123.541 147.696 126.712C150.05 129.53 150.747 133.115 152.026 136.558C153.369 140.168 155.027 141.575 155.909 145.325C156.684 148.616 155.674 155.013 157.043 158.238C158.447 161.544 160.649 167.742 160.894 171.363C161.118 174.654 160.616 178.165 159.084 181.146C157.516 184.193 154.713 186.195 151.13 186.378C150.683 186.401 150.241 186.392 149.802 186.367C150.567 186.413 152.159 192.453 152.384 193.234C153.712 197.814 155.104 203.558 154.206 208.315C152.522 217.235 143.42 220.847 142.942 219.742C142.277 218.203 143.547 197.776 141.415 192.797C134.37 189.601 126.252 189.514 118.562 189.628C110.943 189.742 103.335 190.214 95.7636 191.027C93.3532 197.897 90.9438 204.767 88.5334 211.636L86.4964 217.442C86.0558 218.698 85.7284 220.444 84.5822 221.326C84.3519 221.504 84.087 221.618 83.8144 221.682C83.7885 221.832 83.6617 221.956 83.4745 221.884C83.3536 221.838 83.2393 221.787 83.1213 221.737C82.5731 221.696 82.073 221.459 81.8071 221.081C74.573 221.906 73.186 214.301 72.6859 208.603C72.1013 201.934 74.5337 191.751 75.6319 185.149C73.8493 185.505 72.0168 185.646 70.1766 185.536C67.9543 185.404 65.4383 184.961 63.9187 183.249C62.235 181.347 62.2485 178.343 62.2908 175.992Z" fill="#B40057"/>
<path d="M120.096 111.21C120.144 110.835 120.222 110.486 120.32 110.154C120.114 108.77 120.01 107.368 119.913 105.983C119.888 105.63 120.459 105.518 120.484 105.875C120.557 106.925 120.638 107.997 120.767 109.063C123.158 104.631 130.836 105.081 135.138 106.643C139.545 108.244 143.245 111.356 145.476 115.287C148.679 117.757 151.728 120.644 152.356 124.7C152.693 126.873 152.005 129.593 150.316 130.978C148.166 130.65 146.187 129.83 143.978 129.714C141.64 129.59 139.538 130.069 137.316 130.709C136.421 130.967 135.337 131.314 134.27 131.453C133.897 131.249 133.551 130.984 133.249 130.644C131.823 129.047 131.914 126.709 131.018 124.874C129.947 122.684 127.745 121.324 125.84 119.859C123.886 118.355 122.331 116.661 121.415 114.393C121.029 113.436 120.755 112.449 120.55 111.447C120.368 111.562 120.062 111.474 120.096 111.21Z" fill="#6A433E"/>
<path d="M90.891 356.804C83.9372 356.689 79.9142 356.168 73.1102 354.678C72.0821 354.453 71.054 354.222 70.0269 353.988C70.5078 334.283 70.672 316.145 72.3039 293.096C73.7015 273.354 73.3444 254.636 75.1068 234.92C77.2839 210.552 82.7997 189.109 82.7997 189.109C101.771 185.514 122.673 183.79 141.297 189.667C141.297 189.667 146.7 210.064 146.693 218.391C146.682 229.645 146.462 240.898 146.034 252.145C145.176 274.637 143.198 297.036 140.672 319.413C139.862 326.593 136.457 353.543 136.318 354.455C136.231 355.024 136.287 356.504 135.882 356.923C135.847 356.96 135.8 356.99 135.761 357.025C131.463 357.658 127.083 357.664 122.755 357.346C121.811 357.276 113.4 356.495 113.354 355.969C110.652 325.092 111.027 278.911 111.613 247.929C107.29 270.901 93.07 348.914 90.891 356.804Z" fill="#015E7E"/>
<path d="M94.944 186.834C94.944 186.834 87.8798 220.809 81.0096 221.181C74.1394 221.553 73.1621 212.315 73.1621 212.315C73.1621 212.315 77.9129 191.105 78.0098 190.826C78.1068 190.548 81.6873 184.979 84.4932 184.979C87.2991 184.979 94.944 186.834 94.944 186.834Z" fill="#B40057"/>
<path d="M118.661 388.989C118.758 389.792 118.95 390.337 119.293 390.387C120.772 390.61 151.764 390.71 152.693 390.337C153.045 390.197 153.222 389.652 153.271 388.989C153.36 387.886 153.099 386.444 152.693 385.976C152.046 385.224 137.275 381.384 135.142 380.18C133.952 379.506 131.929 377.98 131.062 377.98C130.195 377.98 128.696 378.666 126.935 379.618C122.931 381.779 119.107 380.534 119.107 380.534C119.107 380.534 118.331 386.265 118.661 388.989Z" fill="#69004A"/>
<path d="M118.662 388.989C118.759 389.791 118.95 390.336 119.294 390.387C120.773 390.61 151.765 390.71 152.694 390.336C153.045 390.197 153.224 389.651 153.272 388.989H118.662Z" fill="#FDEEF6"/>
<path d="M61.8214 396.45C61.8444 396.929 61.8857 397.291 61.926 397.374C62.1411 397.815 70.3744 398.377 73.2071 397.53C76.0408 396.689 75.4428 394.79 76.7665 394.049C78.0903 393.314 82.336 389.903 82.3072 389.145C82.29 388.805 82.2843 388.354 82.29 387.836C82.2958 385.14 82.4753 380.672 82.4753 380.672C82.4753 380.672 81.1746 379.965 80.6582 379.325C80.1475 378.69 78.9802 377.604 77.0814 377.454C75.1827 377.297 73.3012 377.877 72.7271 378.963C72.5419 379.319 71.9784 380.807 71.4783 381.915C71.0482 382.862 65.5948 389.057 64.393 390.361C63.1912 391.664 62.2562 393.041 61.9778 394.105C61.8098 394.745 61.7926 395.725 61.8214 396.45Z" fill="#69004A"/>
<path d="M61.8213 396.45C61.8443 396.929 61.8856 397.291 61.9259 397.375C62.141 397.815 67.2123 399.251 72.4987 397.97C76.1522 397.085 75.4437 394.79 76.7664 394.05C78.0902 393.314 82.3359 389.903 82.3071 389.146C82.2899 388.806 82.2842 388.355 82.2899 387.837C81.8493 388.573 78.358 391.588 77.2425 392.19C75.8142 392.952 75.2564 393.465 74.8677 394.256C74.4789 395.042 73.8291 396.061 72.2088 396.484C70.5884 396.896 67.3149 397.143 64.1577 396.865C63.1268 396.773 62.1169 396.511 61.8213 396.45Z" fill="#FDEEF6"/>
<path d="M95.618 150.851C95.618 150.851 71.0044 167.404 67.851 171.449C64.6976 175.494 62.6011 183.76 71.5765 185.456C80.5518 187.153 100.039 156.293 100.039 156.293L95.618 150.851Z" fill="#FFA587"/>
<path d="M150.192 142.407C150.171 141.452 150.355 140.45 151.307 139.956C151.723 139.741 152.157 139.686 152.588 139.732C152.832 139.12 153.215 138.584 153.873 138.269C154.484 137.977 155.121 137.958 155.751 138.07C156.668 136.881 157.97 136.241 159.516 137.393C160.775 138.331 161.858 139.5 162.722 140.782C163.371 141.744 164.68 143.582 164.103 144.758C161.961 149.126 160.011 153.603 157.989 158.029C158.419 158.145 158.236 158.788 157.804 158.671C157.767 158.662 157.733 158.65 157.697 158.641C157.538 158.951 157.105 158.762 157.079 158.464C155.101 157.869 153.313 157.023 152.482 155.028C151.474 152.613 152.182 149.972 152.439 147.476C150.996 146.001 149.025 144.135 150.192 142.407Z" fill="#FFA587"/>
<path d="M147.296 168.826C149.11 161.191 152.92 154.808 154.607 148.338C154.636 148.225 154.776 148.103 154.907 148.119C156.561 148.323 158.15 148.198 159.73 147.742C159.738 147.033 159.749 146.324 159.757 145.615C159.761 145.23 160.383 145.23 160.38 145.615C160.372 146.283 160.362 146.954 160.355 147.622C160.569 147.709 160.615 148.063 160.348 148.178C160.285 153.162 160.203 158.148 159.978 163.128C159.845 166.093 159.663 169.058 159.402 172.015C159.205 174.266 158.982 176.578 158.042 178.677C156.568 181.967 152.134 185.528 147.876 181.452C144.099 177.834 146.331 172.888 147.296 168.826Z" fill="#FFA587"/>
<path d="M159.731 140.919C159.869 140.919 160.005 140.854 160.086 140.735C160.214 140.548 160.16 140.295 159.964 140.173L156.528 138.014C156.331 137.891 156.069 137.944 155.942 138.131C155.813 138.319 155.868 138.571 156.065 138.694L159.5 140.852C159.571 140.897 159.651 140.919 159.731 140.919Z" fill="#ED835C"/>
<path d="M156.731 142.01C156.889 142.01 157.041 141.925 157.114 141.778C157.214 141.575 157.125 141.333 156.914 141.236L153.212 139.542C152.999 139.445 152.748 139.531 152.647 139.734C152.546 139.936 152.635 140.179 152.847 140.276L156.548 141.969C156.608 141.998 156.669 142.01 156.731 142.01Z" fill="#ED835C"/>
<path d="M154.628 144.052C154.8 144.052 154.963 143.95 155.026 143.786C155.107 143.576 154.993 143.342 154.774 143.264L151.024 141.942C150.805 141.864 150.561 141.972 150.48 142.183C150.4 142.394 150.512 142.627 150.732 142.705L154.483 144.029C154.529 144.044 154.579 144.052 154.628 144.052Z" fill="#ED835C"/>
<path d="M85.9696 156.565C86.1136 156.565 86.2384 156.459 86.2509 156.317C86.2585 156.232 87.0016 147.784 85.8852 141.558C85.2986 138.284 73.2697 124.759 72.7571 124.185C72.6553 124.071 72.4769 124.059 72.3588 124.156C72.2398 124.253 72.2262 124.424 72.328 124.537C72.4518 124.677 84.7668 138.523 85.3274 141.65C86.4323 147.806 85.696 156.186 85.6874 156.271C85.6739 156.42 85.7892 156.551 85.9447 156.564C85.9533 156.565 85.962 156.565 85.9696 156.565Z" fill="black"/>
<path d="M65.2485 172.169C65.3723 172.169 65.4866 172.091 65.5202 171.971C65.5355 171.915 67.1444 166.453 70.8248 162.696C74.4687 158.976 83.0044 159.25 83.0907 159.254C83.2731 159.269 83.3778 159.142 83.3845 158.994C83.3903 158.845 83.2684 158.719 83.1129 158.712C82.7491 158.699 74.2305 158.429 70.4129 162.325C66.6346 166.181 64.9922 171.77 64.9759 171.826C64.9337 171.971 65.0219 172.12 65.1726 172.159C65.1986 172.167 65.2245 172.169 65.2485 172.169Z" fill="black"/>
<path d="M63.2222 169.419C63.3643 169.419 63.4862 169.316 63.5025 169.177C63.5054 169.152 63.8232 166.656 66.7491 163.983C69.699 161.288 74.1731 160.603 74.2182 160.596C74.3718 160.573 74.4784 160.435 74.4544 160.288C74.4304 160.14 74.2864 160.039 74.1318 160.061C73.9418 160.09 69.4369 160.779 66.3593 163.591C63.2712 166.411 62.9525 169.01 62.9401 169.119C62.9237 169.269 63.036 169.401 63.1906 169.417C63.2021 169.418 63.2117 169.419 63.2222 169.419Z" fill="black"/>
<path d="M149.401 186.594C149.497 186.594 149.592 186.547 149.645 186.461C149.723 186.332 149.679 186.166 149.546 186.09C149.502 186.066 145.2 183.569 143.797 178.251C142.366 172.832 141.706 167.34 141.699 167.286C141.682 167.137 141.54 167.028 141.386 167.048C141.231 167.064 141.119 167.199 141.138 167.347C141.144 167.403 141.809 172.929 143.25 178.383C144.714 183.929 149.074 186.452 149.259 186.557C149.302 186.582 149.352 186.594 149.401 186.594Z" fill="black"/>
<path d="M139.456 146.145C139.475 146.145 139.493 146.143 139.512 146.139C139.665 146.111 139.764 145.968 139.733 145.822C139.675 145.543 138.721 138.653 138.358 136.022C138.336 135.873 138.195 135.77 138.04 135.789C137.885 135.808 137.776 135.945 137.796 136.093C137.849 136.48 139.106 145.575 139.179 145.927C139.206 146.055 139.326 146.145 139.456 146.145Z" fill="black"/>
<path d="M84.0538 199.057C84.1758 199.057 84.288 198.981 84.3245 198.863C84.3447 198.797 86.3884 192.23 88.5531 190.354C90.7292 188.469 94.2233 187.519 94.2589 187.51C94.4086 187.469 94.4969 187.321 94.4547 187.177C94.4124 187.033 94.2559 186.948 94.1062 186.988C93.9583 187.027 90.4479 187.982 88.1739 189.952C85.8911 191.93 83.8666 198.434 83.7812 198.709C83.737 198.853 83.8224 199.003 83.9722 199.046C84 199.054 84.027 199.057 84.0538 199.057Z" fill="black"/>
<path d="M141.418 194.323C141.548 194.323 141.665 194.236 141.694 194.111C141.727 193.965 141.631 193.82 141.479 193.788C141.375 193.765 130.943 191.545 119.056 190.648C108.684 189.867 95.6024 191.469 95.4718 191.486C95.3173 191.505 95.2078 191.641 95.228 191.789C95.2481 191.938 95.3873 192.042 95.5447 192.023C95.6753 192.007 108.699 190.412 119.012 191.19C130.86 192.083 141.252 194.294 141.356 194.316C141.378 194.32 141.398 194.323 141.418 194.323Z" fill="black"/>
<path d="M117.043 189.971C117.781 189.971 118.36 189.11 118.36 188.011C118.36 186.913 117.782 186.052 117.043 186.052C116.303 186.052 115.726 186.912 115.726 188.011C115.726 189.111 116.303 189.971 117.043 189.971ZM117.043 186.594C117.398 186.594 117.794 187.176 117.794 188.012C117.794 188.847 117.398 189.429 117.043 189.429C116.686 189.429 116.29 188.847 116.29 188.012C116.291 187.176 116.687 186.594 117.043 186.594Z" fill="black"/>
<path d="M115.072 230.329C115.221 230.329 115.346 230.216 115.354 230.072L117.325 191.292C117.332 191.143 117.212 191.015 117.056 191.009C116.877 191.002 116.767 191.116 116.76 191.266L114.789 230.046C114.782 230.195 114.902 230.323 115.058 230.329C115.063 230.329 115.068 230.329 115.072 230.329Z" fill="black"/>
<path d="M115.627 219.422C115.778 219.422 115.903 219.308 115.91 219.163C115.915 219.014 115.795 218.888 115.64 218.881C115.539 218.877 113.162 218.71 112.349 214.724C111.495 210.539 113.111 190.923 113.128 190.725C113.14 190.576 113.025 190.446 112.87 190.434C112.712 190.425 112.578 190.533 112.565 190.682C112.498 191.492 110.927 210.571 111.795 214.829C112.698 219.258 115.497 219.418 115.615 219.422C115.619 219.422 115.624 219.422 115.627 219.422Z" fill="black"/>
<path d="M142.845 206.321C142.891 206.321 142.937 206.311 142.98 206.289C143.117 206.217 143.167 206.052 143.093 205.92L135.642 192.806C135.566 192.674 135.395 192.626 135.258 192.698C135.121 192.77 135.071 192.934 135.145 193.065L142.596 206.18C142.648 206.27 142.745 206.321 142.845 206.321Z" fill="black"/>
<path d="M91.8478 202.886C91.939 202.886 92.0301 202.844 92.0839 202.763L99.8027 191.485C99.8882 191.36 99.8517 191.191 99.7212 191.109C99.5925 191.027 99.4158 191.06 99.3294 191.187L91.6106 202.466C91.5252 202.591 91.5617 202.76 91.6923 202.842C91.7403 202.871 91.794 202.886 91.8478 202.886Z" fill="black"/>
<path d="M120.78 96.2833C120.795 96.252 118.277 96.3994 117.096 96.4684C117.002 96.474 116.909 96.4786 116.816 96.4832C116.475 96.6931 116.101 96.7585 115.678 96.7815C114.967 96.8202 114.073 96.6148 113.447 96.229C113.47 96.2658 113.494 96.3026 113.517 96.3404C113.518 96.3533 113.525 96.3653 113.538 96.3736C113.902 96.9482 114.317 97.5163 114.975 97.904C115.653 98.3036 116.503 98.486 117.349 98.5008C117.855 98.51 118.626 98.4013 119.12 98.3101C120.121 98.125 120.583 96.6848 120.78 96.2833Z" fill="white"/>
<path d="M120.783 96.2394C120.519 95.756 120.368 95.2845 119.688 95.3601C119.164 95.419 118.768 95.7947 118.37 96.1069C118.411 95.9411 118.388 95.7744 118.225 95.6307C117.896 95.3425 117.34 95.3895 116.945 95.4871C116.421 95.6169 115.959 95.8905 115.463 96.0885C114.823 96.3454 114.158 96.384 113.498 96.1658C113.439 96.1465 113.402 96.2054 113.418 96.2477C113.418 96.2652 113.425 96.2836 113.444 96.2965C114.524 97.0755 116.062 97.1281 117.383 97.1916C118.997 97.269 120.173 97.1539 120.749 96.3767C120.783 96.3187 120.81 96.2891 120.783 96.2394Z" fill="#D56C4E"/>
<path d="M413.423 211.678C413.423 211.678 433.913 223.874 435.608 244.517C437.304 265.159 435.75 350.837 394.663 371.924C353.576 393.012 299.19 388.152 278.372 385.846C257.554 383.541 246.011 368.338 243.433 357.87C240.855 347.403 236.689 308.41 258.589 295.832C280.489 283.254 303.49 263.985 326.475 245.222C349.458 226.459 388.847 195.83 413.423 211.678Z" fill="url(#paint1_linear)"/>
<path d="M341.917 242.676C341.917 242.676 317.468 266.252 282.337 259.372L273.256 251.988L268.472 254.063L291.091 269.479C291.091 269.479 316.034 274.547 340.646 260.76C341.46 260.304 355.119 252.558 341.917 242.676Z" fill="#F5A983"/>
<path d="M268.679 302.183C268.679 302.183 275.056 302.506 275.837 315.091C275.837 315.091 261.052 327.806 241.078 330.833C239.579 331.06 243.175 321.014 243.715 319.653C246.287 313.177 254.388 309.008 268.679 302.183Z" fill="#FAF3F2"/>
<path d="M340.492 287.386H327.035C327.035 287.386 293.919 252.301 267.546 241.796C262.345 239.724 256.337 242.173 254.326 247.218C250.275 257.379 246.596 277.066 259.639 305.418C261.243 308.902 265.706 310.465 269.052 308.416C270.049 307.806 270.764 306.987 271.199 305.961L275.837 279.993C275.837 279.993 279.576 300.712 310.955 304.386C319.427 305.379 348.204 306.614 340.492 287.386Z" fill="#D8005D"/>
<path d="M210.401 379.251C216.039 374.512 225.024 369.193 237.994 367.668L242.38 370.242C242.38 370.242 239.583 374.2 234.473 378.38C229.777 380.997 222.525 384.54 216.514 385.308C210.669 386.054 209.806 382.667 210.401 379.251Z" fill="#FAF3F2"/>
<path d="M243.715 319.653C247.189 320.731 248.716 325.452 257.531 322.331C266.06 319.31 272.399 315.415 275.661 313.168C275.734 313.777 275.795 314.413 275.837 315.091C275.837 315.091 260.247 329.316 240.274 332.342C238.774 332.57 237.586 331.133 238.126 329.773C239.097 327.332 240.846 323.628 243.715 319.653Z" fill="#FAF3F2"/>
<path d="M339.999 296.726L276.985 297.381C276.985 297.381 241.001 325.941 234.473 369.491C234.473 369.491 233.389 372.693 239.894 373.241C239.894 373.241 261.651 359.61 275.836 335.511C293.23 305.961 327.691 319.263 327.691 319.263C339.013 311.432 355.014 309.837 367.066 307.228L339.999 296.726Z" fill="#D8005D"/>
<path d="M394.474 214.75C394.543 214.487 394.617 214.205 394.682 213.96C395.237 212.054 395.834 210.078 397.064 208.457C398.293 206.835 399.696 205.54 400.596 203.73C401.511 201.697 402.25 199.595 402.803 197.444C403.483 195.154 403.626 192.748 403.222 190.4C402.328 185.532 399.83 181.068 396.092 177.667C387.239 169.563 373.724 166.627 363.282 173.792C362.081 174.619 360.971 175.562 359.97 176.607C357.008 179.648 354.433 183.015 352.297 186.636C349.95 190.647 347.601 195.544 348.976 200.216C349.445 201.877 350.256 203.432 351.365 204.785C350.583 208.565 353.001 213.201 355.381 216.007C357.223 218.191 360.111 218.465 363.247 216.808C365.687 216.9 369.211 218.731 370.627 216.998C371.182 218.164 371.934 219.234 372.851 220.166C374.644 221.893 377.803 219.939 380.19 220.562C382.094 221.062 385.67 223.544 385.67 223.544C386.655 223.358 387.621 223.089 388.557 222.741C391.952 221.18 393.457 218.003 394.474 214.75Z" fill="#522C26"/>
<path d="M322.707 287.989C322.707 287.989 333.932 284.218 341.367 274.275C342.636 268.718 343.734 262.598 344.249 256.533C344.249 256.533 338.605 251.881 335.079 249.874C333.936 249.224 333.505 247.849 334.082 246.702C336.676 241.548 352.358 221.312 353.533 221.031C359.919 219.503 375.934 202.163 394.378 226.364C402.294 236.75 388.245 277.675 373.983 306.558L359.66 308.589L322.707 287.989Z" fill="#FAF3F2"/>
<path d="M364.6 260.94C364.6 260.94 343.169 285.284 315.768 288.842C315.768 288.842 308.686 282.649 303.42 284.86C298.154 287.071 290.934 296.831 290.934 296.831H326.117C326.117 296.831 359.383 295.707 376.006 276.355C374.669 269.584 370.663 265.539 364.6 260.94Z" fill="#F5A983"/>
<path d="M386.632 219.088C382.647 221.398 377.922 222.263 373.301 222.103C368.774 221.947 363.193 221.162 360.467 217.26L360.673 217.256C362.146 219.314 364.542 220.502 367.013 221.126C369.458 221.713 371.972 221.996 374.492 221.97C377.041 221.98 379.575 221.623 382.012 220.912C383.545 220.455 385.017 219.828 386.396 219.042L386.632 219.088Z" fill="#1F2144"/>
<path d="M381.881 218.263C381.881 218.263 378.108 220.433 372.093 220.237C366.077 220.041 364.489 218.824 364.489 218.824L363.81 215.018L363.52 213.428L363.059 210.881L380.57 200.211L381.881 218.263Z" fill="#F5A983"/>
<path d="M367.308 216.232C365.533 216.349 365.75 216.54 364.014 216.166L363.374 211.981L362.925 210.432C364.57 210.923 366.269 211.23 367.988 211.348C370.788 211.527 371.393 212.008 371.824 213.215C372.255 214.422 370.226 215.921 367.308 216.232Z" fill="#ED9368"/>
<path d="M381.303 210.279C377.405 214.036 364.36 212.071 361.821 210.628C358.228 208.601 354.743 200.481 356.212 194.959C356.975 192.056 359.273 187.489 361.446 183.477C361.446 183.477 361.452 183.449 361.455 183.438C361.787 182.84 362.12 182.243 362.437 181.676C362.476 181.595 362.518 181.517 362.566 181.441C364.444 178.111 365.985 175.598 365.985 175.598L378.904 171.768C378.904 171.768 389.89 182.258 390.022 182.608C390.153 182.958 392 197.289 392 197.289C392 197.289 385.18 206.534 381.303 210.279Z" fill="#F5A983"/>
<path d="M391.954 197.331C391.954 197.331 394.137 197.574 394.523 200.269C394.87 202.671 391.575 205.809 388.005 206.684C384.9 207.445 381.711 206.362 381.795 206.179C381.88 205.997 383.868 199.97 384.15 199.517C384.431 199.064 391.954 197.331 391.954 197.331Z" fill="#FF924F"/>
<path d="M364.709 198.805C364.633 198.748 364.576 198.672 364.544 198.585C364.314 197.981 364.185 197.345 364.163 196.703C364.178 195.86 366.053 193.897 367.165 192.792C367.267 192.694 367.404 192.638 367.548 192.635C367.692 192.633 367.831 192.686 367.936 192.781C367.987 192.829 368.029 192.886 368.058 192.948C368.087 193.011 368.102 193.079 368.104 193.148C368.105 193.216 368.092 193.285 368.064 193.349C368.038 193.413 367.998 193.471 367.947 193.519C366.707 194.744 365.332 196.324 365.255 196.727C365.282 197.232 365.388 197.73 365.567 198.206C365.617 198.335 365.612 198.478 365.551 198.603C365.492 198.729 365.381 198.827 365.247 198.875C365.159 198.911 365.063 198.923 364.968 198.911C364.872 198.899 364.783 198.862 364.709 198.805Z" fill="#D56B49"/>
<path d="M361.702 201.444L361.527 201.304C361.42 201.212 361.355 201.082 361.346 200.942C361.336 200.803 361.385 200.667 361.481 200.563C361.527 200.51 361.585 200.465 361.649 200.435C361.715 200.404 361.786 200.386 361.858 200.382C361.93 200.378 362.003 200.389 362.071 200.413C362.139 200.438 362.2 200.475 362.252 200.524C363.217 201.287 364.336 201.85 365.539 202.176C366.472 202.459 367.465 202.515 368.426 202.335C368.565 202.291 368.715 202.303 368.844 202.366C368.974 202.428 369.072 202.538 369.118 202.67C369.163 202.803 369.152 202.947 369.086 203.071C369.021 203.195 368.906 203.289 368.768 203.333C367.61 203.58 366.404 203.532 365.27 203.194C363.97 202.849 362.756 202.253 361.702 201.444Z" fill="#D56B49"/>
<path d="M361.165 187.743C362.059 187.762 362.249 188.514 362.122 189.179C361.91 190.287 360.76 191.167 360.163 190.061C359.784 189.362 360.443 187.731 361.165 187.743Z" fill="#361A09"/>
<path d="M377.586 193.758C378.481 193.777 378.664 194.529 378.545 195.189C378.333 196.297 377.183 197.177 376.584 196.076C376.212 195.35 376.879 193.714 377.586 193.758Z" fill="#361A09"/>
<path d="M383.027 191.893C382.746 190.666 381.22 190.077 380.17 189.638C379.44 189.334 377.477 188.715 377.323 189.97C377.244 190.611 378.118 190.852 378.6 190.997C379.918 191.437 381.21 191.942 382.473 192.513C382.533 192.536 382.599 192.544 382.665 192.539C382.73 192.533 382.792 192.513 382.849 192.479C382.905 192.446 382.951 192.401 382.985 192.347C383.02 192.294 383.04 192.233 383.047 192.17C383.053 192.077 383.047 191.983 383.027 191.893Z" fill="#522C26"/>
<path d="M364.485 185.446C364.077 186.055 363.143 185.701 362.62 185.488C362.096 185.274 361.156 185.013 360.519 184.817C360.517 184.802 360.52 184.786 360.53 184.773C360.856 184.174 361.193 183.583 361.506 183.01C361.785 183.077 362.118 183.211 362.231 183.237C363.108 183.467 365.261 184.243 364.485 185.446Z" fill="#522C26"/>
<path d="M393.181 190.361C393.232 189.272 393.551 188.011 393.481 186.921C393.201 182.444 389.528 178.329 386.01 175.74C382.154 172.895 379.036 169.911 373.876 171.503L373.689 171.573C372.586 171.4 371.456 171.617 370.508 172.183C369.906 172.093 369.294 172.096 368.693 172.191C367.455 172.526 366.314 173.128 365.356 173.951C362.969 175.883 361.616 178.761 360.562 181.484C360.505 181.614 360.497 181.756 360.536 181.891C360.575 182.026 360.661 182.144 360.778 182.226C360.896 182.31 361.039 182.351 361.185 182.346C361.33 182.341 361.47 182.29 361.581 182.198C362.887 181.089 364.293 180.093 365.782 179.221C367.078 178.544 368.511 178.033 369.724 177.277C370.559 176.75 371.28 176.074 371.848 175.287C375.875 176.26 380.457 176.615 383.437 179.688C386.838 183.205 385.894 189.166 385.755 193.513C385.744 193.637 385.771 193.763 385.836 193.872C385.901 193.981 386 194.067 386.118 194.12C386.236 194.172 386.37 194.189 386.498 194.167C386.628 194.144 386.745 194.084 386.837 193.993C386.965 194.051 387.111 194.062 387.246 194.023C388.87 193.587 391.929 193.371 392.89 191.876C393.131 191.408 393.232 190.883 393.181 190.361Z" fill="#522C26"/>
<path d="M403.196 185.278C402.654 180.64 400.368 176.352 396.766 173.217C392.956 169.952 388.182 167.9 383.104 167.348C379.016 166.932 374.894 167.717 371.282 169.6C370.226 169.391 369.169 169.252 368.255 169.124C365.633 168.757 362.524 168.636 360.051 169.702C357.204 170.932 354.755 174.019 354.035 177.217C353.89 177.449 353.735 177.672 353.596 177.928C351.951 180.968 352.753 184.423 351.65 187.634C350.609 190.609 349.668 194.282 350.921 197.308C350.965 197.398 351.038 197.471 351.129 197.518C351.219 197.565 351.323 197.582 351.425 197.567C351.527 197.553 351.621 197.508 351.694 197.438C351.767 197.368 351.815 197.278 351.83 197.18C352.5 194.034 352.514 191.013 353.585 187.905C353.826 187.189 353.991 186.453 354.077 185.706C354.167 185.659 354.248 185.598 354.318 185.526C354.901 184.737 355.371 183.876 355.716 182.966L355.743 183.002C355.825 183.103 355.932 183.184 356.052 183.238C356.173 183.292 356.305 183.32 356.439 183.318C356.573 183.316 356.704 183.285 356.823 183.227C356.942 183.169 357.046 183.085 357.125 182.982C357.335 182.685 357.552 182.367 357.772 182.038C357.802 182.037 357.832 182.033 357.86 182.024C359.334 181.564 360.261 180.148 361.136 179.004C361.542 178.47 361.936 177.934 362.321 177.39C363.095 176.742 363.928 176.121 364.762 175.523C366.48 174.686 368.325 173.968 369.735 172.825C369.844 172.738 369.929 172.624 369.979 172.495C370.06 172.37 370.099 172.223 370.089 172.076C370.713 172.001 371.301 171.928 371.909 171.884L371.944 171.892C372.008 171.88 372.066 171.848 372.111 171.801C372.155 171.754 372.184 171.695 372.19 171.633C372.197 171.57 372.184 171.507 372.15 171.452C372.117 171.398 372.068 171.354 372.007 171.329C371.91 171.305 371.808 171.281 371.711 171.257C371.747 171.26 371.782 171.257 371.817 171.248L372.129 171.161C372.51 171.253 372.908 171.32 373.265 171.436C372.747 171.76 372.311 172.191 371.991 172.698C371.95 172.755 371.928 172.822 371.927 172.891C371.925 172.959 371.945 173.029 371.981 173.087C372.018 173.147 372.071 173.195 372.136 173.226C372.2 173.258 372.272 173.272 372.344 173.264C373.724 173.203 374.859 172.493 376.232 172.262C377.75 172.065 379.281 171.976 380.813 171.997C382.526 171.94 384.24 171.999 385.945 172.171C385.984 172.34 386.086 172.489 386.233 172.588L386.362 172.678C386.38 172.834 386.46 172.98 386.585 173.085C386.709 173.19 386.87 173.244 387.036 173.24C387.093 173.249 387.151 173.262 387.207 173.282C387.98 173.81 388.742 174.331 389.54 174.837C391.909 176.441 394.204 178.149 395.846 180.452C397.612 182.925 398.205 186.238 400.537 188.256C400.591 188.303 400.637 188.361 400.692 188.404C400.774 188.477 400.874 188.53 400.983 188.557C401.093 188.583 401.207 188.582 401.317 188.555C401.077 192.182 399.701 195.535 398.942 199.135C398.842 199.517 399.416 199.633 399.619 199.387C402.968 195.757 403.736 189.846 403.196 185.278Z" fill="#522C26"/>
<path d="M393.104 193.871C393.104 193.871 396.914 185.185 391.195 177.063C384.901 168.118 374.935 166.619 372.868 167.544C372.445 167.732 372.078 168.018 371.801 168.377C371.524 168.738 371.345 169.157 371.282 169.6C371.282 169.6 381.254 170.892 386.811 178.111C391.891 184.711 388.88 193.231 388.88 193.231L393.104 193.871Z" fill="#73453E"/>
<path d="M384.094 194.504C380.678 198.585 379.317 203.495 381.796 207.09C384.742 211.4 389.436 210.409 392.303 207.544C395.17 204.679 397.255 197.887 395.416 195.183C392.811 191.401 387.815 190.089 384.094 194.504Z" fill="#361A09"/>
<path d="M396.331 196.876C395.782 195.909 389.833 191.718 385.712 198.209C381.591 204.699 386.576 208.164 388.037 208.882C390.753 210.222 393.759 208.527 396.025 204.984C398.917 200.485 396.882 197.861 396.331 196.876Z" fill="#28AA65"/>
<path d="M379.967 229.898C379.967 229.898 386.094 220.885 394.47 229.354" stroke="#1F2144" stroke-width="0.75" stroke-miterlimit="10"/>
<path d="M347.79 240.901C347.79 240.901 344.623 246.684 344.248 256.532" stroke="#1F2144" stroke-width="0.75" stroke-miterlimit="10"/>
<path d="M345.839 155.053C339.651 158.847 331.428 157.112 327.472 151.177C323.515 145.241 325.325 137.352 331.513 133.557C337.7 129.763 345.923 131.497 349.88 137.433C353.836 143.369 352.026 151.258 345.839 155.053Z" fill="white"/>
<path d="M338.101 139.797C338.559 139.543 338.849 139.466 339.05 139.427C339.316 139.376 339.531 139.378 339.793 139.433C340.055 139.488 340.251 139.574 340.47 139.727C340.635 139.843 340.864 140.029 341.169 140.443C341.499 140.892 341.596 141.027 342.375 142.196C343.154 143.366 343.242 143.507 343.528 143.982C343.792 144.421 343.872 144.699 343.912 144.892C343.966 145.147 343.964 145.353 343.906 145.604C343.849 145.856 343.76 146.044 343.6 146.254C343.479 146.412 343.285 146.632 342.853 146.924C342.386 147.24 342.245 147.333 341.025 148.08C339.806 148.828 339.659 148.912 339.164 149.186C338.706 149.44 338.416 149.517 338.216 149.556C337.95 149.607 337.735 149.605 337.473 149.55C337.211 149.495 337.015 149.41 336.796 149.256C336.63 149.14 336.401 148.954 336.096 148.54C335.767 148.092 335.67 147.956 334.89 146.787C334.111 145.617 334.024 145.476 333.738 145.001C333.474 144.562 333.394 144.285 333.354 144.091C333.3 143.836 333.302 143.63 333.359 143.379C333.417 143.127 333.505 142.939 333.666 142.73C333.787 142.571 333.98 142.351 334.412 142.059C334.88 141.742 335.021 141.65 336.24 140.903C337.459 140.155 337.606 140.07 338.101 139.797ZM333.85 141.294C333.379 141.613 333.095 141.891 332.877 142.177C332.652 142.473 332.497 142.779 332.406 143.178C332.314 143.577 332.321 143.916 332.397 144.276C332.469 144.625 332.604 144.99 332.893 145.47C333.182 145.951 333.276 146.103 334.068 147.292C334.861 148.481 334.965 148.627 335.298 149.081C335.631 149.533 335.921 149.804 336.219 150.013C336.528 150.23 336.847 150.378 337.262 150.465C337.679 150.553 338.033 150.547 338.408 150.475C338.77 150.405 339.152 150.276 339.652 149.999C340.153 149.721 340.311 149.631 341.551 148.871C342.791 148.11 342.942 148.01 343.416 147.69C343.887 147.371 344.169 147.093 344.388 146.807C344.614 146.511 344.768 146.205 344.859 145.806C344.952 145.407 344.945 145.067 344.869 144.707C344.796 144.359 344.662 143.994 344.373 143.515C344.084 143.034 343.99 142.882 343.197 141.693C342.405 140.504 342.3 140.357 341.966 139.904C341.634 139.452 341.344 139.181 341.046 138.972C340.737 138.755 340.419 138.607 340.002 138.519C339.586 138.432 339.232 138.438 338.858 138.51C338.495 138.58 338.114 138.71 337.614 138.986C337.113 139.263 336.954 139.354 335.714 140.114C334.475 140.873 334.322 140.973 333.85 141.294ZM336.289 145.929C337.116 147.172 338.837 147.534 340.132 146.741C341.426 145.947 341.804 144.297 340.976 143.055C340.149 141.812 338.429 141.449 337.134 142.243C335.84 143.037 335.461 144.687 336.289 145.929ZM337.111 145.425C336.574 144.619 336.82 143.547 337.66 143.032C338.5 142.518 339.617 142.752 340.154 143.559C340.691 144.365 340.446 145.437 339.606 145.951C338.765 146.467 337.648 146.231 337.111 145.425ZM334.288 143.124C334.591 142.939 334.992 143.023 335.186 143.313C335.379 143.603 335.291 143.989 334.988 144.174C334.686 144.36 334.284 144.275 334.091 143.985C333.897 143.694 333.985 143.309 334.288 143.124Z" fill="#17DA17"/>
<path d="M281.335 97.2938C288.346 97.2938 294.029 91.8419 294.029 85.1166C294.029 78.3914 288.346 72.9395 281.335 72.9395C274.324 72.9395 268.641 78.3914 268.641 85.1166C268.641 91.8419 274.324 97.2938 281.335 97.2938Z" fill="white"/>
<path d="M285.092 80.5539C284.456 80.8016 283.784 80.8274 283.168 80.669C282.463 80.4886 281.832 80.0658 281.415 79.4581C281.313 79.308 281.224 79.1468 281.149 78.9746L279.331 79.681L281.343 84.4436L282.444 87.0532C282.738 87.7503 282.515 88.5266 281.946 88.9897C281.781 89.1242 281.587 89.2328 281.368 89.3046C281.089 89.3967 280.799 89.417 280.523 89.3755C279.934 89.2881 279.404 88.9197 279.158 88.3589C278.772 87.4823 279.211 86.474 280.129 86.1176C280.311 86.0467 280.497 86.008 280.681 85.996L280.131 84.694L279.933 84.2262C279.751 84.2685 279.571 84.3238 279.394 84.3929C278.389 84.7833 277.617 85.5504 277.25 86.5339C276.973 87.277 276.962 88.0918 277.223 88.8405C277.567 89.8239 278.319 90.5938 279.312 90.9907C279.458 91.0487 279.607 91.0985 279.757 91.1381C280.555 91.3508 281.402 91.3047 282.185 91.0008C282.362 90.9318 282.532 90.8517 282.694 90.7605C283.382 90.3719 283.922 89.788 284.241 89.0753C284.633 88.1996 284.647 87.2345 284.28 86.3561L282.625 82.4637C283.035 82.5733 283.457 82.6322 283.886 82.6377C284.553 82.6469 285.208 82.5291 285.83 82.2869L285.296 81.0208L285.097 80.5511C285.098 80.5511 285.092 80.5539 285.092 80.5539Z" fill="#17DA17"/>
<path d="M213.751 134.048C214.477 135.127 225.975 149.783 225.594 151.014C223.985 156.239 215.358 160.939 208.845 162.579C207.485 162.921 190.833 148.855 184.068 133.398C177.398 118.159 180.602 101.527 180.602 101.527C180.602 101.527 184 102.044 186.61 103.5C190.564 105.705 209.11 127.16 213.751 134.048Z" fill="#21A19A"/>
<path d="M206.841 161.574C206.841 161.574 211.912 166.57 217.843 170.434C223.774 174.297 233.075 158.086 233.075 158.086L222.669 147.726L206.841 161.574Z" fill="#F19984"/>
<path d="M217.728 138.293C217.728 138.293 214.188 138.259 208.915 142.43C203.642 146.601 197.909 153.893 197.909 153.893L207.267 163.751C207.267 163.751 216.416 152.807 226.101 149.849L217.728 138.293Z" fill="#31C2A7"/>
<path d="M212.782 136.56C212.587 136.56 212.393 136.476 212.264 136.314L203.818 125.739C203.599 125.465 203.653 125.071 203.94 124.861C204.227 124.65 204.635 124.703 204.854 124.977L213.301 135.552C213.521 135.826 213.466 136.22 213.18 136.43C213.06 136.517 212.922 136.56 212.782 136.56Z" fill="#107F8C"/>
<path d="M227.539 157.006C233.495 157.832 239.033 159.714 244.719 161.528C248.979 162.901 256.315 165.745 262.662 168.286C265.537 169.439 268.221 170.525 270.323 171.386C273.023 172.492 274.78 173.223 274.78 173.223L263.661 179.138C262.76 178.995 261.596 178.812 260.214 178.604C260.202 178.605 260.202 178.606 260.202 178.606C258.068 178.305 255.442 177.944 252.555 177.542C243.116 176.249 230.993 174.558 224.861 173.095C222.475 172.524 219.676 172.175 217.845 170.435C214.781 167.512 214.675 162.285 217.764 159.312C220.43 156.744 223.959 156.5 227.539 157.006Z" fill="#F19984"/>
<path d="M268.574 171.768C268.574 171.768 280.512 172.85 282.27 175.101C284.028 177.352 286.129 181.125 286.49 183.321C286.874 185.649 287.562 189.186 285.961 189.979C284.007 190.947 282.947 184.543 282.287 184.186C281.629 183.831 283.947 190.096 283.796 191.771C283.646 193.446 281.462 193.134 281.462 193.134C281.462 193.134 279.95 194.228 278.666 193.073C277.381 191.918 276.126 190.112 276.126 190.112C276.126 190.112 275.037 191.7 273.948 190.853C272.86 190.007 270.628 184.749 269.394 183.67C268.158 182.593 266.101 181.927 263.668 180.167C261.233 178.406 260.241 174.536 260.241 174.536L268.574 171.768Z" fill="#F19984"/>
<path d="M310.55 177.723L296.349 162.775L267.869 187.674L282.071 202.622L310.55 177.723Z" fill="#151730"/>
<path d="M282.547 200.127L270.656 187.61L295.701 165.715L307.592 178.233L282.547 200.127Z" fill="url(#paint2_linear)"/>
<path d="M275.9 173.779C275.9 173.779 284.574 177.171 285.586 178.55C286.598 179.928 284.195 182.544 273.036 178.269" fill="#F19984"/>
<path d="M156.546 92.58C156.546 92.58 153.455 91.9989 151.332 92.4419L150.364 95.3048H155.978L156.546 92.58Z" fill="#8BA8AC"/>
<path d="M217.275 378.932C222.959 380.674 226.088 382.984 226.94 386.831C226.951 386.878 227.123 388.723 227.072 388.748C221.062 391.654 216.127 392.167 209.447 391.832C208.674 386.29 210.927 380.025 217.275 378.932Z" fill="#E7FFFF"/>
<path d="M196.438 357.874L196.775 371.76C196.775 371.76 193.757 374.472 188.301 374.294C182.637 374.109 181.675 371.66 181.727 370.219C181.782 368.66 181.047 358.635 181.392 355.551C181.683 352.931 195.84 356.449 196.438 357.874Z" fill="#F39E7E"/>
<path d="M181.607 369.754C181.67 369.527 183.358 370.606 186.503 370.743C188.146 370.814 189.307 370.43 190.631 370.534C191.361 370.591 193 373.171 193 373.171C193 373.171 192.897 370.473 193.289 370.152C194.552 369.123 196.291 368.996 197.026 369.18C197.962 369.292 197.527 372.37 201.727 374.49C203.914 375.595 209.006 376.948 209.15 376.976C211.612 377.443 214.494 378.08 217.274 378.932C210.926 380.026 208.673 386.29 209.446 391.833C202.069 391.463 194.683 389.762 188.173 388.143C187.987 388.096 181.411 386.34 181.301 385.644C180.528 380.732 180.198 374.87 181.607 369.754Z" fill="#005E7F"/>
<path d="M215.684 378.47C216.678 378.735 216.91 378.822 217.725 379.072C211.736 380.593 209.205 385.874 210.025 391.858C209.524 391.838 209.022 391.812 208.522 391.781C207.821 386.048 210.374 380.679 215.684 378.47Z" fill="#107F8C"/>
<path d="M180.632 379.089C182.454 377.952 185.11 378.088 187.149 379.252C190.756 381.311 193.452 385.724 194.165 389.603C194.264 390.143 193.774 390.404 193.331 390.338C193.296 390.331 193.263 390.323 193.229 390.316C192.975 390.247 192.751 390.067 192.693 389.751C192.162 386.864 190.465 384.209 188.393 382.085C186.476 380.118 182.522 378.482 180.724 380.946C180.707 380.313 180.657 379.726 180.632 379.089Z" fill="#107F8C"/>
<path d="M181.3 385.495C183.992 386.368 186.996 387.478 189.667 388.177C189.793 388.21 202.082 391.393 208.368 391.648C215.02 391.919 223.833 390.439 227.073 388.748C227.073 388.748 227.51 389.927 226.755 390.323C222.41 392.604 218.2 393.352 209.431 392.967C201.858 392.635 189.117 389.406 189.05 389.342C186.454 388.651 184.304 387.956 181.831 386.932C181.045 386.608 180.982 385.393 181.3 385.495Z" fill="#E7FFFF"/>
<path d="M203.18 380.15C204.558 379.053 205.935 377.956 207.314 376.858C207.976 376.33 208.736 377.388 208.078 377.911C206.7 379.009 205.323 380.107 203.944 381.204C203.281 381.731 202.521 380.674 203.18 380.15Z" fill="#E7FFFF"/>
<path d="M199.655 378.671C200.93 377.566 202.287 376.569 203.728 375.672C204.443 375.229 205.309 376.208 204.587 376.658C203.144 377.555 201.789 378.553 200.513 379.657C199.871 380.211 199.015 379.224 199.655 378.671Z" fill="#E7FFFF"/>
<path d="M197.047 376.122C198.189 375.585 199.288 374.978 200.347 374.302C201.063 373.844 201.804 374.914 201.086 375.372C200.027 376.049 198.929 376.655 197.787 377.192C197.024 377.551 196.274 376.486 197.047 376.122Z" fill="#E7FFFF"/>
<path d="M194.701 374.151C195.843 373.613 196.943 373.007 198.001 372.331C198.717 371.873 199.459 372.942 198.741 373.401C197.682 374.078 196.584 374.684 195.441 375.221C194.678 375.58 193.928 374.514 194.701 374.151Z" fill="#E7FFFF"/>
<path d="M133.353 378.932C139.037 380.674 142.166 382.984 143.018 386.831C143.029 386.878 143.202 388.723 143.15 388.748C137.14 391.654 132.205 392.167 125.526 391.832C124.752 386.29 127.005 380.025 133.353 378.932Z" fill="#E7FFFF"/>
<path d="M119.641 359.076L112.853 371.76C112.853 371.76 109.834 374.472 104.379 374.294C98.7142 374.108 97.7523 371.66 97.8042 370.219C97.8599 368.66 104.25 359.836 104.594 356.753C104.887 354.133 119.045 357.651 119.641 359.076Z" fill="#F39E7E"/>
<path d="M97.685 369.754C97.7474 369.527 99.4359 370.606 102.581 370.743C104.224 370.814 105.385 370.43 106.709 370.534C107.439 370.591 109.077 373.171 109.077 373.171C109.077 373.171 108.975 370.473 109.367 370.152C110.63 369.123 112.368 368.996 113.103 369.18C114.039 369.292 113.604 372.37 117.805 374.49C119.992 375.595 125.083 376.948 125.228 376.976C127.69 377.443 130.572 378.08 133.352 378.932C127.005 380.026 124.751 386.29 125.525 391.833C118.148 391.463 110.762 389.762 104.252 388.143C104.066 388.096 97.4901 386.34 97.3797 385.644C96.606 380.732 96.2748 374.87 97.685 369.754Z" fill="#005E7F"/>
<path d="M131.762 378.47C132.756 378.735 132.988 378.822 133.803 379.072C127.815 380.593 125.283 385.874 126.103 391.858C125.602 391.838 125.101 391.812 124.6 391.781C123.899 386.048 126.452 380.679 131.762 378.47Z" fill="#107F8C"/>
<path d="M96.7095 379.089C98.5314 377.952 101.188 378.088 103.227 379.252C106.834 381.311 109.528 385.724 110.243 389.603C110.341 390.143 109.852 390.404 109.408 390.338C109.374 390.331 109.34 390.323 109.307 390.316C109.052 390.247 108.829 390.067 108.771 389.751C108.24 386.864 106.543 384.209 104.47 382.085C102.553 380.118 98.5986 378.482 96.8006 380.946C96.7843 380.313 96.7344 379.726 96.7095 379.089Z" fill="#107F8C"/>
<path d="M97.3773 385.495C100.07 386.368 103.073 387.478 105.745 388.177C105.871 388.21 118.16 391.393 124.446 391.648C131.098 391.919 139.911 390.439 143.151 388.748C143.151 388.748 143.587 389.927 142.833 390.323C138.487 392.604 134.277 393.352 125.509 392.967C117.935 392.635 105.195 389.406 105.128 389.342C102.531 388.651 100.382 387.956 97.9082 386.932C97.1229 386.608 97.0596 385.393 97.3773 385.495Z" fill="#E7FFFF"/>
<path d="M119.257 380.15C120.635 379.053 122.013 377.956 123.391 376.858C124.053 376.33 124.813 377.388 124.155 377.911C122.777 379.009 121.4 380.107 120.021 381.204C119.359 381.731 118.599 380.674 119.257 380.15Z" fill="#E7FFFF"/>
<path d="M115.732 378.671C117.008 377.566 118.364 376.569 119.806 375.672C120.52 375.229 121.386 376.208 120.664 376.658C119.221 377.555 117.867 378.553 116.59 379.657C115.949 380.211 115.093 379.224 115.732 378.671Z" fill="#E7FFFF"/>
<path d="M113.125 376.122C114.268 375.585 115.366 374.978 116.426 374.302C117.142 373.844 117.883 374.914 117.165 375.372C116.106 376.049 115.008 376.655 113.866 377.192C113.102 377.551 112.353 376.486 113.125 376.122Z" fill="#E7FFFF"/>
<path d="M110.779 374.151C111.922 373.613 113.021 373.007 114.08 372.331C114.796 371.873 115.537 372.942 114.819 373.401C113.761 374.078 112.662 374.684 111.519 375.221C110.756 375.58 110.007 374.514 110.779 374.151Z" fill="#E7FFFF"/>
<path d="M130.223 195.948C130.223 195.948 123.474 234.066 123.474 271.183C123.474 310.378 101.893 351.123 101.893 359.224C101.893 363.245 117.238 365.082 119.405 362.302C131.05 347.368 157.932 293.393 168.398 255.025C178.864 216.656 188.299 191.585 188.299 191.585L130.223 195.948Z" fill="#C78F27"/>
<path d="M157.378 248.136C157.378 248.136 170.936 279.536 175.456 296.999C179.975 314.462 176.487 356.687 180.334 361.573C182.51 364.337 198.45 365.23 198.821 361.358C199.591 353.303 204.581 298.262 204.819 282.026C205.057 265.792 189.17 191.521 189.17 191.521L168.558 192.989L157.378 248.136Z" fill="#C78F27"/>
<path d="M176.204 226.916C171.645 243.67 166.154 260.167 159.749 276.358C159.423 277.182 160.802 277.538 161.125 276.721C167.53 260.531 173.02 244.033 177.58 227.28C177.813 226.426 176.437 226.062 176.204 226.916Z" fill="#77541B"/>
<path d="M179.895 233.795C178.355 236.441 176.629 238.972 174.696 241.37C174.14 242.058 175.144 243.034 175.705 242.338C177.713 239.846 179.526 237.237 181.128 234.487C181.576 233.717 180.343 233.025 179.895 233.795Z" fill="#77541B"/>
<path d="M143.285 209.904C142.31 218.094 136.584 224.209 130.463 229.523C129.781 230.116 130.794 231.082 131.473 230.492C137.922 224.893 143.689 218.493 144.713 209.904C144.816 209.03 143.388 209.038 143.285 209.904Z" fill="#77541B"/>
<path d="M134.976 227.95C134.566 248.927 134.162 270.07 129.817 290.708C125.551 310.973 112.184 341.642 103.648 360.524C103.287 361.324 104.515 362.022 104.881 361.214C113.466 342.226 126.904 311.452 131.194 291.071C135.563 270.312 135.991 249.051 136.403 227.95C136.42 227.069 134.993 227.069 134.976 227.95Z" fill="#77541B"/>
<path d="M191.759 196.299C170.547 202.936 148.871 204.161 126.894 200.456C125.995 200.304 125.609 201.623 126.514 201.775C148.747 205.525 170.674 204.335 192.139 197.619C193.008 197.348 192.635 196.025 191.759 196.299Z" fill="#77541B"/>
<path d="M180.574 296.247C180.365 295.893 179.951 295.855 179.598 296.001C178.637 296.398 177.778 296.985 177.06 297.714C176.429 298.354 177.437 299.325 178.069 298.682C178.712 298.029 179.458 297.538 180.318 297.183C180.676 297.037 180.749 296.54 180.574 296.247Z" fill="#77541B"/>
<path d="M183.351 297.785C181.077 298.374 178.893 299.185 176.793 300.206C175.973 300.605 176.695 301.786 177.514 301.388C179.507 300.419 181.573 299.664 183.731 299.105C184.616 298.876 184.241 297.555 183.351 297.785Z" fill="#77541B"/>
<path d="M156.579 82.332C156.579 82.332 156.443 94.1124 151.036 95.198C146.56 96.0959 142.508 98.7138 142.508 98.7138C142.508 98.7138 154.354 127.924 163.391 127.972C172.429 128.019 176.704 105.662 178.779 101.428L172.085 99.0923L173.772 91.2541L156.579 82.332Z" fill="#F39E7E"/>
<path d="M175.972 105.936C175.972 105.936 161.686 113.797 150.915 101.938C150.915 101.938 148.052 124.855 158.633 128.724C169.213 132.592 179.26 111.727 175.972 105.936Z" fill="#FDEEF6"/>
<path d="M146.861 102.524C150.215 107.031 156.053 109.106 161.493 110.315C167.923 111.744 175.34 111.279 179.46 105.669C179.915 105.049 180.947 105.692 180.49 106.316C176.617 111.591 169.804 112.919 163.463 111.897C157.124 110.876 149.834 108.539 145.947 103.315C145.492 102.703 146.401 101.906 146.861 102.524Z" fill="#B4AFAC"/>
<path d="M176.772 115.671L186.73 191.477C186.73 191.477 168.999 204.255 129.614 191.519C121.93 189.033 141.588 116.86 141.588 116.86L176.772 115.671Z" fill="#FDEEF6"/>
<path d="M170.766 103.312C171.042 101.937 171.549 100.622 171.549 100.622C171.549 100.622 171.824 100.55 172.219 100.066C172.445 99.7898 172.117 98.7134 172.117 98.7134L182.758 102.239C182.758 102.239 192.325 122.866 190.545 148.656C190.217 153.399 196.894 211.106 194.139 210.606C186.503 209.22 186.728 210.61 178.04 207.917C177.488 205.247 180.341 174.418 178.544 147.051C177.053 124.319 170.82 104.093 170.766 103.312Z" fill="#21A19A"/>
<path d="M127.709 169.752C124.227 137.061 113.869 111.279 124.831 104.781C132.03 100.513 150.917 94.9741 150.917 94.9741L160.09 98.7671C160.09 98.7671 160.09 101.701 160.275 102.95C160.393 104.671 159.212 208.188 157.378 211.983C157.877 215.472 122.074 214.434 119.994 211.681C117.906 208.919 128.46 176.806 127.709 169.752Z" fill="#21A19A"/>
<path d="M125.204 162.904C125.204 162.904 108.224 163.748 101.802 159.471C101.802 159.471 112.646 114.583 123.155 106.344C131.011 100.185 143.8 117.942 143.422 125.324C143.045 132.705 125.204 162.904 125.204 162.904Z" fill="#21A19A"/>
<path d="M160.088 98.7681L156.841 104.282C156.841 104.282 150.062 99.2203 149.795 95.246L151.333 92.4429C151.333 92.442 153.291 95.6898 160.088 98.7681Z" fill="#31C2A7"/>
<path d="M171.469 100.716L172.371 105.152C172.371 105.152 173.435 101.261 173.257 99.3133L172.373 97.6816C172.373 97.6816 171.882 99.8548 171.469 100.716Z" fill="#31C2A7"/>
<path d="M121.018 110.548C121.405 109.913 122.502 110.389 122.111 111.03C114.593 123.362 111.201 137.384 106.159 150.703C105.894 151.401 104.802 150.916 105.065 150.222C110.108 136.902 113.499 122.881 121.018 110.548Z" fill="#107F8C"/>
<path d="M138.772 128.956C134.719 139.311 130.771 149.705 126.929 160.135C126.671 160.835 125.579 160.349 125.836 159.654C129.677 149.224 133.626 138.83 137.678 128.474C137.95 127.778 139.043 128.263 138.772 128.956Z" fill="#107F8C"/>
<path d="M141.331 125.561C141.723 124.928 142.82 125.403 142.424 126.042C141.191 128.036 140.117 130.098 139.196 132.242C138.901 132.929 137.808 132.446 138.103 131.76C139.023 129.616 140.097 127.554 141.331 125.561Z" fill="#107F8C"/>
<path d="M156.128 123.598C156.338 123.288 156.73 123.146 157.103 123.242C157.422 123.324 157.689 123.546 157.809 123.841C157.867 123.982 157.89 124.127 157.889 124.271C157.901 124.29 157.917 124.305 157.928 124.327C158.261 124.899 157.837 125.549 157.198 125.663C156.429 125.8 155.928 125.135 155.913 124.462C155.906 124.175 155.964 123.841 156.128 123.598Z" fill="#31C2A7"/>
<path d="M156.696 106.83C156.907 106.52 157.298 106.379 157.672 106.474C157.99 106.556 158.256 106.777 158.377 107.072C158.435 107.214 158.458 107.359 158.457 107.503C158.47 107.522 158.485 107.537 158.496 107.558C158.829 108.131 158.405 108.78 157.767 108.893C156.997 109.032 156.497 108.366 156.481 107.693C156.476 107.406 156.532 107.073 156.696 106.83Z" fill="#31C2A7"/>
<path d="M155.226 137.448C155.436 137.138 155.829 136.996 156.201 137.092C156.519 137.174 156.786 137.396 156.907 137.69C156.965 137.832 156.988 137.976 156.987 138.122C157 138.14 157.015 138.156 157.026 138.177C157.359 138.75 156.934 139.398 156.296 139.512C155.527 139.65 155.026 138.984 155.011 138.31C155.005 138.024 155.062 137.691 155.226 137.448Z" fill="#31C2A7"/>
<path d="M154.884 152.58C155.094 152.27 155.486 152.128 155.86 152.224C156.179 152.306 156.445 152.528 156.566 152.822C156.623 152.963 156.646 153.108 156.645 153.253C156.659 153.272 156.673 153.287 156.685 153.309C157.018 153.881 156.593 154.53 155.955 154.644C155.185 154.782 154.685 154.116 154.67 153.443C154.663 153.157 154.72 152.823 154.884 152.58Z" fill="#31C2A7"/>
<path d="M186.155 64.3932C186.155 64.3932 186.998 70.3795 186.655 73.0094C186.312 75.6393 187.156 76.0436 187.522 79.1791C187.94 82.7713 184.517 95.1898 181.101 97.0434C176.221 99.6908 168.192 95.1326 166.36 94.534C164.529 93.9355 159.54 91.4069 157.123 86.3404C154.707 81.274 151.721 73.8502 152.571 66.2238C153.42 58.5974 161.125 52.0567 170.257 52.2482C179.389 52.4407 185.371 60.7872 186.155 64.3932Z" fill="#F39E7E"/>
<path d="M185.595 75.0182C185.5 74.5559 185.24 74.1453 184.812 73.951C184.329 73.7318 183.753 73.9068 183.456 74.3405C183.12 74.8313 183.111 75.4667 183.282 76.0431C183.257 76.521 183.359 76.9879 183.734 77.3148C184.132 77.6619 184.732 77.6997 185.143 77.3719C185.753 76.8848 185.743 75.7429 185.595 75.0182Z" fill="#6E3F30"/>
<path d="M173.664 75.8768C173.597 75.4099 173.361 74.9864 172.944 74.7681C172.475 74.5232 171.889 74.6668 171.567 75.084C171.202 75.5554 171.156 76.19 171.293 76.7747C171.241 77.2499 171.314 77.7221 171.671 78.0693C172.049 78.4376 172.646 78.5076 173.074 78.2028C173.711 77.7498 173.77 76.6089 173.664 75.8768Z" fill="#6E3F30"/>
<path d="M183.675 79.7359C183.056 78.4725 182.375 77.2331 181.726 75.9835C181.371 75.303 180.303 75.8885 180.656 76.5681C181.305 77.8159 182.005 79.0517 182.606 80.3206C183.56 82.3336 180.642 82.3115 179.285 82.3013C178.493 82.2949 178.478 83.4754 179.271 83.4818C180.751 83.4938 183.499 83.4708 184.068 81.8003C184.312 81.0821 183.993 80.3832 183.675 79.7359Z" fill="#CE6D46"/>
<path d="M148.31 58.553C149.742 54.4119 153.124 49.1918 161.492 47.1116C162.28 46.9164 163.14 46.8353 164 46.6815C165.055 45.5931 166.006 45.0083 167.457 44.4568C169.456 43.6971 173.322 43.0488 175.963 44.4282C177.157 45.0507 177.947 46.3463 177.958 46.3703C180.91 46.8288 183.989 47.1216 185.994 49.5471C187.24 51.0545 187.405 52.7553 187.33 53.8972C188.501 54.2526 189.633 54.7047 190.641 55.3935C192.339 56.5547 193.741 58.2169 194.227 60.1903C194.785 62.4555 194.438 64.8819 192.692 66.6057C191.258 68.0219 186.643 68.4023 186.643 68.4023C186.643 68.4023 186.185 64.8957 186.211 64.8174C183.85 64.7796 182.773 63.9574 179.474 64.4896C175.959 65.0569 171.847 61.5107 169.169 60.9904C166.49 60.471 164.85 63.2934 164.27 64.6737C163.821 65.7447 163.69 71.6676 163.409 74.3886C162.181 74.862 160.74 74.7837 159.646 74.2072C159.653 73.0138 159.64 72.024 159.585 71.4282C159.531 70.8379 159.262 70.2826 158.698 70.0441C157.638 69.5966 155.828 69.6749 155.168 70.8821C153.925 73.1575 153.85 75.745 154.886 77.3786C155.64 78.5683 157.061 78.6089 157.332 79.5536C157.785 81.1338 156.057 84.0105 156.057 84.0105C156.057 84.0105 151.969 77.8593 149.956 72.163C148.039 66.7374 146.862 62.7455 148.31 58.553Z" fill="#522C26"/>
<path d="M156.568 72.0091C157.105 71.4474 158.014 72.244 157.478 72.8048C156.501 73.8297 156.566 75.4558 157.63 76.3997C158.212 76.9163 157.382 77.7892 156.8 77.2726C155.248 75.895 155.139 73.5074 156.568 72.0091Z" fill="#CE6D46"/>
<path d="M165.854 57.0841C167.595 55.9653 169.013 54.4385 170.986 53.6715C172.913 52.9219 175.017 52.8907 176.998 53.4478C177.735 53.655 177.493 54.7866 176.748 54.5767C174.738 54.0122 172.636 54.1043 170.761 55.0463C169.198 55.8318 167.981 57.1071 166.521 58.0455C165.877 58.4589 165.21 57.4976 165.854 57.0841Z" fill="#73453E"/>
<path d="M163.301 56.8207C164.621 55.5821 165.871 54.2819 167.052 52.9209C167.549 52.3491 168.447 53.1171 167.952 53.6871C166.771 55.0481 165.52 56.3483 164.2 57.5868C163.649 58.1044 162.747 57.3409 163.301 56.8207Z" fill="#73453E"/>
<path d="M168.299 70.5737C169.529 69.6537 170.86 68.9133 172.381 68.5348C173.439 68.2714 175.454 67.9741 176.038 69.174C176.562 70.2504 175.359 70.8342 174.467 71.1068C172.861 71.5967 171.223 71.8444 169.708 72.5986C168.269 73.315 166.992 71.5507 168.299 70.5737Z" fill="#522C26"/>
<path d="M183.465 69.0085C185.044 68.6208 186.496 69.9515 187.262 71.1403C187.518 71.5399 187.464 72.0657 187.083 72.3742C186.738 72.6523 186.122 72.7251 185.785 72.3733C185.436 72.0086 185.059 71.713 184.605 71.4791C184.115 71.2277 183.512 71.0196 183.125 70.6246C182.66 70.1485 182.676 69.2019 183.465 69.0085Z" fill="#522C26"/>
<path d="M162.581 91.0926C163.819 92.9085 165.922 94.0365 167.888 95.0117C169.805 95.9629 171.816 96.6996 173.889 97.2687C174.633 97.4731 174.195 98.5486 173.454 98.3451C171.103 97.6996 168.846 96.8313 166.7 95.7051C164.802 94.7088 162.86 93.5982 161.651 91.8265C161.231 91.2096 162.158 90.4711 162.581 91.0926Z" fill="#CE6D46"/>
<path d="M183.502 85.2671C182.6 84.6722 180.862 84.4854 179.793 84.3445C178.248 84.141 176.673 84.0691 175.116 84.0415C173.804 83.9679 172.498 84.0185 171.271 84.5066C168.846 85.5904 168.162 88.2184 166.873 87.898C165.747 87.6181 166.56 84.9595 165.803 82.9125C165.273 81.4788 164.277 80.0119 163.83 78.5552C163.194 76.4842 163.437 74.8441 163.547 72.6875C162.342 73.2612 160.821 73.2824 159.617 73.8561C159.371 79.3802 159.16 83.7386 160.729 88.7793C162.031 92.959 165.71 96.1975 169.416 98.7271C170.96 99.7814 174.965 100.646 176.833 100.82C180.105 101.126 182.299 99.6571 183.995 96.6864C185.345 94.3199 186.27 87.9072 186.27 87.9072C186.251 88.038 185.3 86.4504 183.502 85.2671Z" fill="#522C26"/>
<path d="M176.196 87.3543C177.893 88.6251 180.066 88.8378 181.976 87.8571C182.661 87.5063 183.224 88.5257 182.542 88.8765C180.288 90.034 177.57 89.8415 175.548 88.3268C174.943 87.8737 175.584 86.8957 176.196 87.3543Z" fill="#73453E"/>
<path d="M124.112 163.878C123.182 165.437 121.554 168.961 121.554 168.961C121.554 168.961 106.146 181.963 102.112 170.681C101.695 169.513 103.48 159.449 104.603 157.388C110.428 156.35 118.424 165.398 124.112 163.878Z" fill="#F39E7E"/>
<path d="M128.391 157.312L103.868 150.222L100.903 162.212C100.903 162.212 105.236 165.293 112.089 166.952C118.942 168.612 125.162 167.564 125.162 167.564L128.391 157.312Z" fill="#31C2A7"/>
<path d="M188.516 147.313C188.161 147.313 187.87 147.04 187.863 146.697C187.696 137.432 185.428 124.679 185.405 124.552C185.343 124.211 185.582 123.887 185.937 123.828C186.292 123.768 186.632 123.999 186.692 124.338C186.716 124.467 189.002 137.312 189.169 146.674C189.176 147.02 188.888 147.305 188.527 147.312C188.524 147.313 188.521 147.313 188.516 147.313Z" fill="#107F8C"/>
<path d="M188.516 125.074C188.195 125.074 187.915 124.846 187.87 124.533C187.846 124.377 187.321 120.667 187.892 118.875C187.997 118.543 188.364 118.358 188.708 118.458C189.052 118.56 189.247 118.91 189.141 119.241C188.737 120.51 189.02 123.367 189.164 124.362C189.212 124.704 188.964 125.021 188.607 125.068C188.576 125.072 188.545 125.074 188.516 125.074Z" fill="#107F8C"/>
<path d="M111.527 162.725C114.864 160.753 117.668 160.476 117.668 160.476C117.668 160.476 159.468 171.821 163.833 174.406C167.076 176.326 161.517 181.058 161.517 181.058C161.517 181.058 116.199 180.111 105.072 174.788C103.921 174.236 100.268 169.734 111.527 162.725Z" fill="#F39E7E"/>
<path d="M161.645 174.306C161.645 174.306 172.881 174.593 174.674 176.591C176.467 178.589 178.68 181.991 179.165 184.023C179.677 186.176 180.554 189.442 179.11 190.281C177.347 191.305 175.932 185.379 175.291 185.086C174.651 184.794 177.234 190.512 177.204 192.089C177.173 193.665 175.11 193.505 175.11 193.505C175.11 193.505 173.769 194.62 172.49 193.618C171.213 192.616 169.92 191.003 169.92 191.003C169.92 191.003 169.006 192.554 167.933 191.829C166.858 191.103 164.424 186.321 163.197 185.388C161.971 184.455 160.003 183.959 157.611 182.46C155.219 180.961 154.035 177.401 154.035 177.401L161.645 174.306Z" fill="#F39E7E"/>
<path d="M168.632 183.155C168.668 183.269 168.73 183.377 168.821 183.47C168.838 183.486 170.455 185.138 171.526 187.01C172.621 188.922 174.235 193.154 174.252 193.196C174.406 193.603 174.876 193.812 175.301 193.665C175.725 193.517 175.935 193.061 175.788 192.659C175.721 192.481 174.115 188.274 172.961 186.257C171.787 184.203 170.084 182.466 170.012 182.392C169.702 182.078 169.184 182.063 168.856 182.362C168.622 182.572 168.547 182.88 168.632 183.155Z" fill="#E27E66"/>
<path d="M166.038 185.207C166.064 185.291 166.106 185.374 166.163 185.45C166.62 186.041 168.096 188.971 168.918 190.679C169.107 191.072 169.593 191.245 170.003 191.063C170.414 190.88 170.588 190.405 170.402 190.022C170.178 189.555 168.185 185.432 167.478 184.517C167.21 184.168 166.697 184.095 166.334 184.353C166.05 184.554 165.942 184.899 166.038 185.207Z" fill="#E27E66"/>
<path d="M172.346 181.682C172.383 181.8 172.448 181.911 172.544 182.006L172.953 182.407C173.153 182.622 173.788 183.824 174.255 184.811C174.442 185.206 174.926 185.38 175.338 185.201C175.749 185.021 175.932 184.566 175.745 184.161C175.411 183.455 174.584 181.763 174.124 181.31L173.715 180.91C173.4 180.599 172.882 180.593 172.559 180.895C172.333 181.108 172.262 181.412 172.346 181.682Z" fill="#E27E66"/>
<path d="M155.351 171.303C154.588 171.785 153.969 172.205 152.988 172.911C149.998 175.078 148.02 178.553 146.942 180.496C149.67 180.698 153.93 180.818 153.94 180.815C154.793 179.615 156.359 177.939 158.76 175.964C160.663 174.396 162.476 173.773 162.476 173.773C160.494 172.966 158.117 172.206 155.351 171.303Z" fill="#522C26"/>
<path d="M156.649 172.346C154.663 171.84 153.105 172.351 152.82 173.381C152.535 174.412 153.629 175.573 155.615 176.08C157.601 176.586 159.443 176.16 159.729 175.129C160.015 174.098 158.636 172.852 156.649 172.346Z" fill="#F4E6D7"/>
<path d="M95.3047 151.448C95.3047 151.448 100.356 145.269 102.726 143.992C105.029 142.752 107.68 142.248 110.295 142.113C112.786 141.984 115.543 142.022 117.99 142.539C118.702 142.69 120.541 142.956 119.979 144.079C119.505 145.026 117.852 144.817 117.016 144.837C116.13 144.858 115.241 144.943 114.355 144.973C114.122 144.98 111.801 145.154 111.775 145.079C111.799 145.149 116.25 145.24 118.44 145.582C119.336 145.723 122.357 145.99 122.413 147.311C122.458 148.374 120.856 148.707 118.761 148.699C120.293 149.166 120.948 149.736 120.584 150.824C120.272 151.759 115.68 151.79 114.046 151.726C113.977 151.723 113.905 151.722 113.837 151.72C114.068 151.837 117.329 152.145 117.507 152.316C117.965 152.755 118.129 153.139 117.563 153.534C116.416 154.335 111.769 153.748 110.45 153.985C107.766 154.466 105.275 156.182 102.779 157.188C101.625 157.654 100.53 158.176 99.2759 158.178C96.7052 158.18 95.3047 151.448 95.3047 151.448Z" fill="#FFA587"/>
<path d="M108.859 148.795C108.916 148.795 108.974 148.784 109.029 148.761C109.034 148.76 109.922 148.416 112.508 148.321C115.175 148.223 118.147 148.783 118.177 148.787C118.406 148.831 118.63 148.688 118.675 148.468C118.721 148.248 118.572 148.033 118.342 147.989C118.216 147.966 115.243 147.404 112.476 147.507C109.731 147.609 108.788 147.973 108.689 148.015C108.475 148.104 108.377 148.344 108.471 148.55C108.541 148.704 108.696 148.795 108.859 148.795Z" fill="#ED835C"/>
<path d="M108.547 152.387C108.581 152.387 108.615 152.382 108.65 152.375C108.654 152.374 109.087 152.273 110.424 152.042C111.502 151.857 112.807 151.983 113.299 152.029C113.432 152.041 113.522 152.048 113.559 152.048C113.793 152.048 113.983 151.866 113.983 151.642C113.983 151.418 113.796 151.238 113.564 151.235C113.532 151.234 113.471 151.227 113.383 151.218C112.86 151.168 111.47 151.035 110.274 151.241C108.898 151.478 108.464 151.581 108.445 151.586C108.219 151.64 108.081 151.861 108.137 152.078C108.184 152.263 108.358 152.387 108.547 152.387Z" fill="#ED835C"/>
<path d="M108.859 145.73C108.883 145.73 108.908 145.728 108.933 145.724C108.939 145.723 109.14 145.689 109.738 145.608C110.326 145.528 111.773 145.486 111.788 145.485C112.022 145.478 112.205 145.291 112.198 145.067C112.192 144.846 112.003 144.672 111.774 144.672C111.77 144.672 111.766 144.672 111.762 144.673C111.7 144.675 110.252 144.716 109.617 144.803C108.989 144.888 108.786 144.923 108.786 144.923C108.556 144.962 108.401 145.173 108.442 145.394C108.479 145.591 108.657 145.73 108.859 145.73Z" fill="#ED835C"/>
<path d="M384.986 78.4879C400.095 78.4879 412.344 66.7381 412.344 52.2439C412.344 37.7498 400.095 26 384.986 26C369.876 26 357.627 37.7498 357.627 52.2439C357.627 66.7381 369.876 78.4879 384.986 78.4879Z" fill="white"/>
<path d="M392.611 55.2949V55.2986L384.027 61.9129L375.442 55.2986V55.2949C373.954 54.1926 372.986 52.4403 372.986 50.4605C372.986 47.1233 375.721 44.417 379.096 44.417C381.123 44.417 382.914 45.3967 384.026 46.8986C385.137 45.3967 386.928 44.417 388.955 44.417C392.329 44.417 395.065 47.1224 395.065 50.4605C395.065 52.4412 394.097 54.1935 392.611 55.2949Z" fill="#17DA17"/>
<defs>
<linearGradient id="paint0_linear" x1="255.443" y1="44.9931" x2="255.443" y2="385.704" gradientUnits="userSpaceOnUse">
<stop offset="0.0064" stop-color="#FFFF00"/>
<stop offset="0.1184" stop-color="#D1F800"/>
<stop offset="0.253" stop-color="#92EF00"/>
<stop offset="0.3861" stop-color="#5EE700"/>
<stop offset="0.5058" stop-color="#35E100"/>
<stop offset="0.6001" stop-color="#18DD00"/>
<stop offset="0.665" stop-color="#06DA00"/>
<stop offset="0.7442" stop-color="#00D900"/>
</linearGradient>
<linearGradient id="paint1_linear" x1="417.087" y1="385.255" x2="228.1" y2="155.206" gradientUnits="userSpaceOnUse">
<stop offset="0.0064" stop-color="#FFFF00"/>
<stop offset="0.1184" stop-color="#D1F800"/>
<stop offset="0.253" stop-color="#92EF00"/>
<stop offset="0.3861" stop-color="#5EE700"/>
<stop offset="0.5058" stop-color="#35E100"/>
<stop offset="0.6001" stop-color="#18DD00"/>
<stop offset="0.665" stop-color="#06DA00"/>
<stop offset="0.7442" stop-color="#00D900"/>
</linearGradient>
<linearGradient id="paint2_linear" x1="278.751" y1="194.59" x2="304.929" y2="162.546" gradientUnits="userSpaceOnUse">
<stop offset="0.0064" stop-color="#FFFF00"/>
<stop offset="0.1184" stop-color="#D1F800"/>
<stop offset="0.253" stop-color="#92EF00"/>
<stop offset="0.3861" stop-color="#5EE700"/>
<stop offset="0.5058" stop-color="#35E100"/>
<stop offset="0.6001" stop-color="#18DD00"/>
<stop offset="0.665" stop-color="#06DA00"/>
<stop offset="0.7442" stop-color="#00D900"/>
</linearGradient>
</defs>
</svg>
