<svg width="498" height="424" viewBox="0 0 498 424" fill="none" xmlns="http://www.w3.org/2000/svg">
<path opacity="0.6" d="M367.239 34.9197C443.67 52.4422 474.646 218.815 374.587 329.003C324.691 383.949 286.913 419.105 188.98 383.809C111.091 355.736 3.12572 304.571 97.5852 168.909C135.757 114.085 202.565 -2.83431 367.239 34.9197Z" fill="url(#paint0_linear)"/>
<path d="M285.893 397.429C273.981 358.307 265.05 333.886 265.05 333.886L363.412 341.274C363.412 341.274 367.53 365.234 370.823 397.429H285.893Z" fill="#C78F27"/>
<path d="M250.821 397.429C257.277 363.917 263.576 333.778 263.576 333.778L298.486 336.264L310.746 397.634L250.821 397.429Z" fill="#C78F27"/>
<path d="M356.896 244.082C357.388 248.852 358.739 253.897 356.814 258.512C355.225 262.321 351.811 263.937 348.031 265.074C347.98 265.644 347.154 266.006 346.85 265.413C346.782 265.432 346.715 265.454 346.645 265.472C345.82 265.696 345.47 264.466 346.291 264.243C342.43 255.789 338.704 247.235 334.612 238.892C333.509 236.645 336.009 233.134 337.25 231.295C338.902 228.846 340.971 226.612 343.374 224.821C346.329 222.619 348.815 223.841 350.568 226.114C351.771 225.9 352.987 225.937 354.154 226.493C355.411 227.096 356.145 228.12 356.61 229.287C357.434 229.201 358.261 229.305 359.056 229.716C360.876 230.659 361.225 232.575 361.186 234.399C363.416 237.701 359.65 241.265 356.896 244.082Z" fill="#FFA587"/>
<path d="M365.61 308.987C357.476 316.772 349.005 309.971 346.187 303.685C344.391 299.678 343.966 295.26 343.588 290.959C343.093 285.31 342.743 279.647 342.489 273.983C342.061 264.468 341.904 254.944 341.784 245.421C341.273 245.203 341.361 244.526 341.77 244.361C341.756 243.083 341.738 241.803 341.723 240.526C341.715 239.791 342.905 239.791 342.913 240.526C342.929 241.88 342.948 243.236 342.965 244.59C345.984 245.462 349.019 245.702 352.179 245.31C352.429 245.28 352.696 245.512 352.753 245.729C355.975 258.089 363.254 270.284 366.72 284.869C368.563 292.63 372.827 302.078 365.61 308.987Z" fill="#FFA587"/>
<path d="M343.406 231.429L349.969 227.306C350.345 227.071 350.448 226.588 350.204 226.23C349.96 225.872 349.459 225.77 349.082 226.006L342.52 230.129C342.146 230.364 342.041 230.847 342.286 231.205C342.44 231.432 342.7 231.555 342.963 231.555C343.115 231.556 343.269 231.515 343.406 231.429Z" fill="#ED835C"/>
<path d="M349.042 233.564L356.114 230.329C356.517 230.144 356.688 229.681 356.495 229.293C356.303 228.907 355.823 228.741 355.416 228.928L348.344 232.164C347.941 232.348 347.77 232.812 347.963 233.198C348.103 233.479 348.393 233.641 348.695 233.641C348.812 233.64 348.931 233.616 349.042 233.564Z" fill="#ED835C"/>
<path d="M352.994 237.495L360.157 234.967C360.576 234.819 360.792 234.373 360.639 233.971C360.485 233.568 360.018 233.361 359.6 233.51L352.436 236.037C352.017 236.184 351.8 236.632 351.954 237.034C352.075 237.348 352.384 237.543 352.714 237.543C352.807 237.542 352.902 237.526 352.994 237.495Z" fill="#ED835C"/>
<path d="M382.223 241.123C382.362 240.449 384.762 223.075 384.863 222.337C384.902 222.053 384.695 221.793 384.399 221.755C384.104 221.718 383.835 221.916 383.793 222.2C383.099 227.225 381.276 240.389 381.165 240.921C381.107 241.2 381.296 241.473 381.589 241.529C381.624 241.536 381.659 241.539 381.695 241.539C381.946 241.539 382.172 241.367 382.223 241.123Z" fill="black"/>
<path d="M316.731 144.647H327.741L325.841 139.033C321.68 138.165 315.618 139.305 315.618 139.305L316.731 144.647Z" fill="#8BA8AC"/>
<path d="M258.55 344.105C294.904 355.479 332.04 357.495 369.696 351.144C371.228 350.885 370.576 348.652 369.054 348.908C331.83 355.185 295.12 353.11 259.193 341.869C257.708 341.404 257.078 343.644 258.55 344.105Z" fill="#77541B"/>
<path d="M281.839 136.704L285.146 152.073L272.022 156.654C276.09 164.956 284.473 208.794 302.193 208.699C319.914 208.605 343.143 151.33 343.143 151.33C343.143 151.33 335.199 146.197 326.421 144.436C315.819 142.308 315.553 119.208 315.553 119.208L281.839 136.704Z" fill="#F39E7E"/>
<path d="M311.526 210.175C332.273 202.591 326.66 157.652 326.66 157.652C305.539 180.907 277.527 165.493 277.527 165.493C271.08 176.847 290.779 217.76 311.526 210.175Z" fill="#FDEEF6"/>
<path d="M336.399 160.354C328.778 170.599 314.483 175.181 302.054 177.183C289.622 179.186 276.262 176.581 268.669 166.239C267.772 165.015 269.797 163.754 270.688 164.969C278.765 175.97 293.308 176.883 305.916 174.08C316.586 171.709 328.031 167.641 334.607 158.802C335.51 157.59 337.292 159.154 336.399 160.354Z" fill="#B4AFAC"/>
<path d="M344.947 186.913C344.947 186.913 383.493 328.432 368.426 333.305C291.199 358.278 256.432 333.224 256.432 333.224L275.958 184.581L344.947 186.913Z" fill="#FDEEF6"/>
<path d="M272.481 246.111C268.958 299.774 274.554 360.224 273.469 365.458C256.434 370.741 256.874 368.015 241.903 370.733C236.501 371.714 249.593 258.56 248.95 249.26C245.458 198.69 264.219 158.245 264.219 158.245L285.084 151.332C285.084 151.332 284.44 153.442 284.882 153.984C285.658 154.934 286.199 155.075 286.199 155.075C286.199 155.075 287.193 157.653 287.734 160.348C287.628 161.879 275.408 201.539 272.481 246.111Z" fill="#21A19A"/>
<path d="M387.289 372.841C383.211 378.238 313.007 380.274 313.985 373.434C310.39 365.992 308.073 163.013 308.304 159.638C308.668 157.189 308.668 151.436 308.668 151.436L326.653 143.999C326.653 143.999 363.687 154.859 377.803 163.228C399.297 175.97 378.987 226.524 372.16 290.624C370.689 304.456 391.384 367.423 387.289 372.841Z" fill="#21A19A"/>
<path d="M256.666 160.717C261.784 157.862 268.445 156.847 268.445 156.847C268.445 156.847 274.729 189.461 261.65 219.341C248.383 249.651 215.732 277.231 213.067 276.56C200.296 273.344 183.379 264.128 180.223 253.883C179.48 251.468 202.023 222.732 203.448 220.616C212.547 207.11 248.914 165.039 256.666 160.717Z" fill="#21A19A"/>
<path d="M341.352 203.51C340.611 189.036 365.688 154.215 381.092 166.294C401.697 182.45 418.518 257.052 418.518 257.052C405.926 265.438 374.159 266.284 374.159 266.284C374.159 266.284 342.091 217.983 341.352 203.51Z" fill="#21A19A"/>
<path d="M325.842 139.033L328.857 144.53C328.332 152.325 315.04 162.249 315.04 162.249L308.673 151.437C322.001 145.402 325.841 139.032 325.842 139.033Z" fill="#31C2A7"/>
<path d="M284.584 149.306L282.85 152.506C282.502 156.324 284.587 163.956 284.587 163.956L286.356 155.256C285.545 153.568 284.584 149.307 284.584 149.306Z" fill="#31C2A7"/>
<path d="M416.561 252.329C417.078 253.69 414.937 254.642 414.418 253.273C404.53 227.157 397.879 199.665 383.137 175.481C382.37 174.223 384.522 173.291 385.281 174.536C400.024 198.72 406.674 226.212 416.561 252.329Z" fill="#107F8C"/>
<path d="M352.614 209.685C360.561 229.991 368.302 250.372 375.835 270.822C376.34 272.187 374.199 273.14 373.692 271.767C366.158 251.317 358.416 230.936 350.47 210.63C349.939 209.272 352.08 208.321 352.614 209.685Z" fill="#107F8C"/>
<path d="M351.781 216.129C352.36 217.474 350.217 218.421 349.638 217.074C347.833 212.871 345.727 208.827 343.308 204.918C342.533 203.665 344.685 202.734 345.452 203.973C347.87 207.881 349.977 211.926 351.781 216.129Z" fill="#107F8C"/>
<path d="M316.857 201.817C316.827 203.137 315.846 204.441 314.336 204.172C313.085 203.948 312.252 202.676 312.906 201.553C312.929 201.512 312.958 201.481 312.983 201.445C312.982 201.161 313.027 200.878 313.14 200.6C313.377 200.023 313.899 199.588 314.525 199.428C315.255 199.239 316.025 199.517 316.436 200.126C316.758 200.602 316.871 201.256 316.857 201.817Z" fill="#31C2A7"/>
<path d="M315.741 168.937C315.711 170.257 314.732 171.563 313.221 171.292C311.971 171.068 311.137 169.797 311.791 168.673C311.815 168.633 311.843 168.601 311.868 168.565C311.867 168.281 311.912 167.998 312.025 167.721C312.262 167.143 312.784 166.708 313.408 166.549C314.14 166.361 314.909 166.637 315.32 167.246C315.643 167.723 315.756 168.376 315.741 168.937Z" fill="#31C2A7"/>
<path d="M318.627 228.973C318.597 230.294 317.617 231.598 316.107 231.328C314.856 231.104 314.023 229.832 314.676 228.71C314.699 228.668 314.727 228.638 314.753 228.602C314.752 228.318 314.796 228.035 314.91 227.756C315.146 227.18 315.669 226.745 316.294 226.584C317.026 226.396 317.795 226.674 318.206 227.283C318.528 227.758 318.639 228.412 318.627 228.973Z" fill="#31C2A7"/>
<path d="M319.295 258.644C319.265 259.966 318.285 261.27 316.775 261C315.524 260.776 314.691 259.504 315.344 258.382C315.367 258.34 315.395 258.309 315.421 258.274C315.42 257.99 315.464 257.706 315.578 257.428C315.814 256.851 316.337 256.417 316.961 256.256C317.694 256.068 318.463 256.345 318.875 256.954C319.197 257.43 319.308 258.084 319.295 258.644Z" fill="#31C2A7"/>
<path d="M289.966 61.288C307.877 61.4118 322.591 74.6544 323.8 89.6482C325.009 104.642 318.717 119.03 313.68 128.827C308.641 138.625 298.711 143.307 295.087 144.381C291.462 145.454 275.453 153.948 266.046 148.491C259.459 144.67 253.489 120.143 254.524 113.125C255.427 107 257.105 106.255 256.59 101.08C256.074 95.9061 258.083 84.2194 258.083 84.2194C259.834 77.195 272.056 61.1632 289.966 61.288Z" fill="#F39E7E"/>
<path d="M259.292 109.713C260.077 110.378 261.255 110.337 262.056 109.679C262.812 109.058 263.039 108.147 263.018 107.21C263.389 106.091 263.41 104.844 262.78 103.864C262.223 102.999 261.104 102.623 260.145 103.028C259.294 103.385 258.759 104.176 258.546 105.076C258.214 106.488 258.127 108.726 259.292 109.713Z" fill="#6E3F30"/>
<path d="M282.897 112.002C283.719 112.623 284.892 112.518 285.655 111.818C286.375 111.156 286.547 110.235 286.473 109.301C286.776 108.163 286.724 106.917 286.037 105.972C285.431 105.138 284.29 104.823 283.357 105.278C282.529 105.682 282.04 106.5 281.88 107.411C281.63 108.842 281.676 111.08 282.897 112.002Z" fill="#6E3F30"/>
<path d="M261.137 118.453C262.152 121.759 267.537 121.954 270.438 122.013C271.993 122.044 272.036 119.729 270.484 119.697C267.822 119.643 262.102 119.528 264.091 115.633C265.346 113.179 266.789 110.797 268.137 108.386C268.869 107.074 266.809 105.867 266.075 107.181C264.727 109.594 263.319 111.985 262.029 114.428C261.37 115.679 260.701 117.031 261.137 118.453Z" fill="#CE6D46"/>
<path d="M328.569 101.432C324.285 112.488 315.905 124.319 315.905 124.319C315.905 124.319 312.69 118.586 313.672 115.514C314.258 113.675 317.048 113.674 318.596 111.383C320.722 108.238 320.73 103.163 318.429 98.6348C317.208 96.2319 313.664 95.9804 311.561 96.7995C310.44 97.2373 309.88 98.3109 309.74 99.4638C309.597 100.63 309.513 102.569 309.454 104.909C307.277 105.978 304.445 106.053 302.068 105.058C301.68 99.7086 301.776 88.0932 300.959 85.9696C299.905 83.2309 296.86 77.61 291.579 78.4816C286.297 79.3533 278.026 86.0786 271.172 84.7751C264.737 83.5509 262.578 85.104 257.947 85.0485C257.996 85.204 256.887 92.0521 256.887 92.0521C256.887 92.0521 247.865 91.0528 245.139 88.1992C241.819 84.7246 241.284 79.9496 242.513 75.54C243.583 71.6999 246.43 68.5184 249.827 66.3354C251.843 65.0398 254.088 64.2158 256.405 63.5839C256.326 61.3424 256.751 58.0184 259.281 55.1322C263.355 50.4869 269.407 50.0817 275.221 49.3448C275.244 49.2983 276.869 46.8032 279.246 45.6473C284.505 43.0899 292.045 44.5717 295.916 46.1693C298.728 47.3301 300.557 48.5266 302.561 50.7186C304.236 51.0672 305.917 51.2732 307.45 51.6991C323.729 56.2345 330.046 66.6504 332.605 74.8456C335.194 83.1438 332.65 90.9032 328.569 101.432Z" fill="#522C26"/>
<path d="M314.85 111.073C313.678 112.054 312.104 110.298 313.277 109.316C315.417 107.524 315.641 104.339 313.788 102.278C312.772 101.149 314.601 99.6381 315.619 100.768C318.332 103.783 317.976 108.457 314.85 111.073Z" fill="#CE6D46"/>
<path d="M296.941 72.8518C294.138 70.9333 291.828 68.3659 288.811 66.7415C285.192 64.7922 281.077 64.4981 277.105 65.4935C275.633 65.8629 275.224 63.6325 276.681 63.267C280.597 62.2844 284.721 62.4596 288.451 64.0345C292.274 65.647 294.962 68.7166 298.306 71.0056C299.545 71.8524 298.181 73.6997 296.941 72.8518Z" fill="#73453E"/>
<path d="M301.519 72.0821C299.008 69.5821 296.633 66.9653 294.398 64.2336C293.461 63.0876 295.268 61.6326 296.207 62.7805C298.442 65.5133 300.815 68.1292 303.328 70.6291C304.383 71.68 302.568 73.1261 301.519 72.0821Z" fill="#73453E"/>
<path d="M291.292 99.2025C287.959 98.9034 284.792 99.6105 281.497 99.8561C279.668 99.9918 277.034 99.78 277.159 97.4543C277.297 94.8622 281.187 93.9787 283.311 93.7093C286.366 93.322 289.353 93.7261 292.294 94.5274C295.42 95.3792 294.456 99.4878 291.292 99.2025Z" fill="#522C26"/>
<path d="M263.376 98.1911C262.34 98.5626 261.09 98.4229 260.001 98.4536C258.991 98.4833 258.061 98.6884 257.116 99.036C256.203 99.3718 255.187 98.728 254.836 97.9515C254.446 97.0898 254.83 96.1231 255.644 95.6348C258.067 94.1857 261.827 93.0645 264.249 95.0663C265.459 96.0677 264.627 97.7425 263.376 98.1911Z" fill="#522C26"/>
<path d="M304.477 139.328C302.004 142.735 298.13 144.806 294.35 146.654C290.077 148.744 285.6 150.323 280.955 151.459C279.49 151.816 278.696 149.685 280.167 149.325C284.265 148.324 288.251 146.989 292.064 145.231C295.976 143.427 300.164 141.332 302.698 137.841C303.566 136.647 305.337 138.145 304.477 139.328Z" fill="#CE6D46"/>
<path d="M256.457 130.3C256.457 130.3 257.888 142.921 260.393 147.634C263.54 153.551 267.753 156.549 274.184 156.129C277.856 155.889 285.756 154.416 288.847 152.433C296.261 147.678 303.663 141.533 306.464 133.412C309.841 123.618 309.686 115.064 309.533 104.223C307.207 103.032 304.227 102.908 301.9 101.717C301.986 105.95 302.365 109.178 300.996 113.202C300.033 116.033 297.994 118.853 296.87 121.634C295.264 125.606 296.699 130.86 294.475 131.347C291.929 131.905 290.746 126.715 286.056 124.459C283.682 123.434 281.127 123.264 278.549 123.336C275.496 123.306 272.405 123.361 269.365 123.675C267.262 123.892 263.845 124.164 262.04 125.28C258.445 127.499 256.488 130.558 256.457 130.3Z" fill="#522C26"/>
<path d="M415.778 258.616C417.979 262.658 423.171 290.156 422.353 292.444C414.442 314.567 384.23 289.072 384.23 289.072C384.23 289.072 376.409 263.943 374.585 260.888C385.74 263.87 404.353 256.583 415.778 258.616Z" fill="#F39E7E"/>
<path d="M373.57 271.546C373.57 271.546 387.827 260.889 402.13 266.284C417.272 270.621 421.139 261.053 421.139 261.053L415.325 237.543L367.238 251.445L373.57 271.546Z" fill="#31C2A7"/>
<path d="M185.961 247.436L171.817 263.358C171.817 263.358 186.876 297.453 198.507 289.878C210.139 282.302 216.997 274.588 216.997 274.588L185.961 247.436Z" fill="#F19984"/>
<path d="M179.233 251.599C198.222 257.399 216.162 278.858 216.162 278.858L234.51 259.529C234.51 259.529 223.269 245.23 212.929 237.052C202.591 228.873 195.649 228.94 195.649 228.94L179.233 251.599Z" fill="#31C2A7"/>
<path d="M252.907 246.625C252.2 246.613 251.635 246.053 251.649 245.376C251.979 227.018 256.46 201.831 256.507 201.578C256.625 200.91 257.29 200.459 257.985 200.577C258.682 200.692 259.15 201.326 259.03 201.995C258.985 202.245 254.537 227.25 254.209 245.418C254.196 246.09 253.626 246.626 252.93 246.626C252.922 246.627 252.915 246.627 252.907 246.625Z" fill="#107F8C"/>
<path d="M252.752 203.005C252.052 202.912 251.563 202.292 251.66 201.62C251.941 199.67 252.495 194.066 251.704 191.579C251.497 190.93 251.878 190.243 252.554 190.045C253.228 189.848 253.947 190.21 254.153 190.86C255.273 194.373 254.242 201.648 254.198 201.955C254.109 202.57 253.56 203.016 252.931 203.016C252.873 203.017 252.813 203.014 252.752 203.005Z" fill="#107F8C"/>
<path d="M204.569 225.287C204.008 224.875 203.9 224.103 204.332 223.565L220.893 202.829C221.323 202.291 222.124 202.188 222.688 202.601C223.25 203.013 223.357 203.785 222.926 204.324L206.365 225.059C206.113 225.376 205.733 225.541 205.348 225.541C205.075 225.541 204.803 225.458 204.569 225.287Z" fill="#107F8C"/>
<path d="M205.121 278.1C204.541 286.312 196.366 292.915 187.914 292.356C182.872 292.015 178.718 288.506 174.757 285.867C164.585 279.083 146.319 264.115 132.137 252.432C127.788 248.866 123.838 245.617 120.62 242.986C120.62 242.986 120.62 242.986 120.608 242.967C118.501 241.279 111.707 235.93 110.321 234.838L110.058 215.406C110.058 215.406 113.451 216.948 118.641 219.339C122.683 221.2 127.821 223.593 133.307 226.172C145.414 231.869 159.266 238.572 166.883 242.825C177.018 248.526 187.066 253.93 196.032 261.29C201.437 265.698 205.62 271.007 205.121 278.1Z" fill="#F19984"/>
<path d="M281.489 310.54L311.95 296.027L284.301 242.624L253.84 257.136L281.489 310.54Z" fill="#151730"/>
<path d="M281.837 305.398L307.342 293.246L283.026 246.283L257.521 258.436L281.837 305.398Z" fill="url(#paint1_linear)"/>
<path d="M417.512 300.641C393.45 304.41 308.006 280.925 308.006 280.925C308.006 280.925 300.459 268.966 307.698 267.177C317.438 264.768 402.591 266.82 402.591 266.82C402.591 266.82 407.674 268.902 412.729 274.453C429.568 293.857 420 300.251 417.512 300.641Z" fill="#F39E7E"/>
<path d="M324.232 278.246C324.232 278.246 319.858 284.253 314.469 285.727C309.08 287.2 305.095 287.032 302.234 288.097C299.371 289.161 291.916 296.76 289.465 297.52C287.015 298.28 286.244 294.866 286.244 294.866C286.244 294.866 282.844 297.167 279.844 298.332C276.844 299.496 275.007 296.66 275.007 296.66C275.007 296.66 271.047 295.81 271.943 292.84C272.841 289.873 281.141 280.603 279.766 280.794C278.391 280.986 272.152 291.294 269.47 288.393C267.272 286.017 270.892 280.389 273.157 276.642C275.294 273.106 281.499 267.97 286.067 265.227C290.635 262.485 311.853 268.21 311.853 268.21L324.232 278.246Z" fill="#F39E7E"/>
<path d="M293.453 279.244C293.02 278.502 292.042 278.241 291.27 278.656C291.092 278.754 286.85 281.058 283.406 284.249C280.022 287.383 274.467 294.367 274.234 294.662C273.715 295.333 273.833 296.304 274.537 296.819C275.242 297.332 276.249 297.202 276.785 296.527C276.841 296.457 282.427 289.431 285.635 286.461C288.774 283.553 292.803 281.36 292.845 281.338C293.071 281.215 293.254 281.048 293.389 280.856C293.716 280.387 293.761 279.766 293.453 279.244Z" fill="#E27E66"/>
<path d="M296.988 284.41C296.466 283.724 295.461 283.577 294.746 284.079C292.869 285.4 286.64 292.011 285.937 292.758C285.358 293.372 285.394 294.36 286.054 294.931C286.711 295.5 287.725 295.449 288.318 294.817C290.894 292.078 295.431 287.413 296.644 286.56C296.799 286.451 296.926 286.32 297.027 286.176C297.392 285.653 297.399 284.946 296.988 284.41Z" fill="#E27E66"/>
<path d="M287.407 274.437C286.984 273.691 286.011 273.413 285.231 273.819L284.223 274.342C283.087 274.932 280.515 277.641 279.462 278.778C278.867 279.429 278.932 280.385 279.595 280.952C280.256 281.515 281.27 281.458 281.858 280.823C283.327 279.237 285.247 277.339 285.751 277.047L286.76 276.523C286.997 276.399 287.186 276.228 287.326 276.027C287.649 275.566 287.699 274.957 287.407 274.437Z" fill="#E27E66"/>
<path d="M310.62 266.746C310.62 266.746 313.638 268.922 316.252 272.92C319.552 277.957 321.47 281.97 322.34 284.692C322.358 284.704 330.409 286.853 335.639 287.995C334.797 283.756 333.198 276.145 328.91 270.421C327.5 268.552 326.595 267.421 325.459 266.092C319.733 266.242 314.821 266.341 310.62 266.746Z" fill="#522C26"/>
<path d="M314.944 270.819C314.854 272.91 318.045 274.734 322.072 274.893C326.099 275.051 328.853 273.487 328.943 271.396C329.033 269.307 326.425 267.482 322.399 267.324C318.37 267.163 315.033 268.728 314.944 270.819Z" fill="#F4E6D7"/>
<path d="M279.384 131.049C278.555 131.049 265.612 132.783 265.612 132.783" stroke="#73453E" stroke-width="2" stroke-miterlimit="10" stroke-linecap="round" stroke-linejoin="round"/>
<path d="M102.016 163.079C102.016 163.079 110.77 172.031 110.856 189.364C110.895 197.35 109.661 209.074 110.411 215.569C113.093 222.793 100.445 207.441 102.252 174.755C102.321 173.495 102.016 163.079 102.016 163.079Z" fill="#E27E66"/>
<path d="M92.6009 209.013C93.556 204.019 93.843 201.867 93.461 198.156C93.0789 194.445 93.1264 192.612 93.461 189.36C93.7955 186.108 95.4032 185.191 97.7119 185.191C97.6644 183.176 97.9979 169.661 98.0464 166.683C98.0784 164.683 99.016 163.241 100.004 162.468C100.692 161.93 101.735 162.272 102.018 163.079C102.589 164.709 103.335 167.544 103.719 169.203C104.282 171.631 104.153 173.7 104.368 176.242C104.582 178.784 104.941 180.502 104.941 182.632C104.941 184.763 106.015 189.16 107.448 193.352C108.881 197.544 108.952 199.467 109.023 205.995C109.094 212.524 110.621 217.114 111.91 218.625C112.518 219.337 116.119 221.302 120.186 223.31L113.184 235.8C108.664 233.12 100.559 228.541 97.0614 226.267C92.2602 222.555 91.6458 214.007 92.6009 209.013Z" fill="#F19984"/>
<path d="M97.7186 185.193C97.7166 185.193 97.7135 185.192 97.7114 185.191C97.7135 185.191 97.7166 185.192 97.7186 185.193L97.8529 184.67C98.1193 184.718 98.5632 184.797 99.0558 185.201C99.3779 185.464 99.6753 185.84 99.9375 186.319C100.167 186.731 100.379 187.229 100.59 187.842C100.78 188.394 100.959 189.002 101.128 189.646C101.295 190.282 101.467 190.951 101.634 191.646C101.949 192.955 102.307 194.482 102.556 196.057C102.674 196.818 102.767 197.581 102.84 198.336C102.896 198.928 102.934 199.513 102.971 200.083L103.029 200.929C103.067 201.494 103.104 202.04 103.152 202.56C103.212 203.197 103.276 203.8 103.357 204.355C103.59 205.976 103.818 206.845 104.141 207.986L103.066 208.29C102.608 206.911 102.29 205.643 102.124 204.532C102.026 203.962 101.948 203.341 101.871 202.679C101.8 202.025 101.738 201.333 101.688 200.621L101.65 200.115C101.611 199.57 101.571 199.016 101.515 198.458C101.438 197.728 101.344 196.987 101.224 196.246C101.001 194.781 100.673 193.305 100.351 191.93L99.8787 189.936C99.731 189.316 99.572 188.736 99.4027 188.208C99.2148 187.628 99.0434 187.194 98.8668 186.843C98.6871 186.491 98.4889 186.215 98.2907 186.043C98.0243 185.812 97.8302 185.77 97.5854 185.715L97.7186 185.193Z" fill="#E27E66"/>
<path d="M156.049 135.979C171.731 135.979 184.444 123.784 184.444 108.741C184.444 93.6974 171.731 81.5024 156.049 81.5024C140.367 81.5024 127.655 93.6974 127.655 108.741C127.655 123.784 140.367 135.979 156.049 135.979Z" fill="white" stroke="#D8005D" stroke-width="6" stroke-miterlimit="10"/>
<path d="M175.287 127.195L136.021 89.5283" stroke="#D8005D" stroke-width="6" stroke-miterlimit="10"/>
<path d="M136.021 127.195L175.287 89.5283" stroke="#D8005D" stroke-width="6" stroke-miterlimit="10"/>
<path d="M405.736 131.379C417.261 131.379 426.603 122.417 426.603 111.361C426.603 100.306 417.261 91.3439 405.736 91.3439C394.211 91.3439 384.869 100.306 384.869 111.361C384.869 122.417 394.211 131.379 405.736 131.379Z" fill="white" stroke="#D8005D" stroke-width="6" stroke-miterlimit="10"/>
<path d="M419.875 124.924L391.018 97.2422" stroke="#D8005D" stroke-width="6" stroke-miterlimit="10"/>
<path d="M391.018 124.924L419.875 97.2422" stroke="#D8005D" stroke-width="6" stroke-miterlimit="10"/>
<path d="M150.95 376.632C165.867 376.632 177.96 365.032 177.96 350.722C177.96 336.412 165.867 324.812 150.95 324.812C136.033 324.812 123.94 336.412 123.94 350.722C123.94 365.032 136.033 376.632 150.95 376.632Z" fill="white" stroke="#D8005D" stroke-width="6" stroke-miterlimit="10"/>
<path d="M169.249 368.276L131.899 332.447" stroke="#D8005D" stroke-width="6" stroke-miterlimit="10"/>
<path d="M131.899 368.276L169.249 332.447" stroke="#D8005D" stroke-width="6" stroke-miterlimit="10"/>
<defs>
<linearGradient id="paint0_linear" x1="26.3333" y1="495.281" x2="446.155" y2="-48.707" gradientUnits="userSpaceOnUse">
<stop offset="0.0064" stop-color="#FFFF00"/>
<stop offset="0.1184" stop-color="#D1F800"/>
<stop offset="0.253" stop-color="#92EF00"/>
<stop offset="0.3861" stop-color="#5EE700"/>
<stop offset="0.5058" stop-color="#35E100"/>
<stop offset="0.6001" stop-color="#18DD00"/>
<stop offset="0.665" stop-color="#06DA00"/>
<stop offset="0.7442" stop-color="#00D900"/>
</linearGradient>
<linearGradient id="paint1_linear" x1="290.573" y1="299.673" x2="269.716" y2="237.15" gradientUnits="userSpaceOnUse">
<stop offset="0.0064" stop-color="#FFFF00"/>
<stop offset="0.1184" stop-color="#D1F800"/>
<stop offset="0.253" stop-color="#92EF00"/>
<stop offset="0.3861" stop-color="#5EE700"/>
<stop offset="0.5058" stop-color="#35E100"/>
<stop offset="0.6001" stop-color="#18DD00"/>
<stop offset="0.665" stop-color="#06DA00"/>
<stop offset="0.7442" stop-color="#00D900"/>
</linearGradient>
</defs>
</svg>
