<svg width="93" height="12" viewBox="0 0 93 12" fill="none" xmlns="http://www.w3.org/2000/svg">
<path fill-rule="evenodd" clip-rule="evenodd" d="M62.3156 9.20536C57.4628 6.82604 53.7685 3.06035 51.9976 0H92.0219C89.6361 4.13264 82.3735 9.8685 75.1082 11.2375C75.6126 10.284 75.8982 9.19701 75.8982 8.04329C75.8982 4.26538 72.8357 1.20279 69.0577 1.20279C65.2798 1.20279 62.2173 4.26538 62.2173 8.04329C62.2173 8.43941 62.251 8.82767 62.3156 9.20536Z" fill="white"/>
<path fill-rule="evenodd" clip-rule="evenodd" d="M10.3178 9.20518C5.46514 6.82586 1.77094 3.06028 0 0H40.0243C37.6385 4.13271 30.3758 9.86871 23.1104 11.2376C23.6148 10.2841 23.9004 9.19704 23.9004 8.04329C23.9004 4.26538 20.8379 1.20279 17.0599 1.20279C13.282 1.20279 10.2195 4.26538 10.2195 8.04329C10.2195 8.43935 10.2531 8.82755 10.3178 9.20518Z" fill="white"/>
</svg>
