<svg width="21" height="14" viewBox="0 0 21 14" fill="none" xmlns="http://www.w3.org/2000/svg">
<path d="M10.3327 4.0358C8.84821 4.0358 7.64185 5.24216 7.64185 6.72661C7.64185 8.21105 8.84821 9.41742 10.3327 9.41742C11.8171 9.41742 13.0235 8.21105 13.0235 6.72661C13.0235 5.24216 11.8171 4.0358 10.3327 4.0358Z" fill="white"/>
<path d="M10.3329 0C5.84818 0 2.01827 2.78945 0.466553 6.72703C2.01827 10.6646 5.84818 13.4541 10.3329 13.4541C14.822 13.4541 18.6475 10.6646 20.1992 6.72703C18.6475 2.78945 14.822 0 10.3329 0ZM10.3329 11.2117C7.85733 11.2117 5.84818 9.20253 5.84818 6.72699C5.84818 4.25144 7.85733 2.24233 10.3329 2.24233C12.8084 2.24233 14.8176 4.25148 14.8176 6.72703C14.8176 9.20258 12.8084 11.2117 10.3329 11.2117Z" fill="white"/>
</svg>
