<svg width="52" height="53" viewBox="0 0 52 53" fill="none" xmlns="http://www.w3.org/2000/svg">
<g clip-path="url(#clip0)">
<path d="M16.0784 2.05365C15.6863 2.21162 15.2941 2.3696 14.902 2.60656C14.4314 2.84352 13.9608 3.08048 13.4902 3.31744C11.6078 4.50224 9.41176 6.00298 7.92157 7.58271C2.82353 13.0328 0.627451 21.6423 3.60784 28.6721C4 29.541 4.39216 30.4098 4.94118 31.1997C6.03922 32.9374 7.60784 34.5961 9.4902 35.9389C10.5882 36.7288 11.8431 37.4396 13.2549 38.0715C13.3333 38.0715 13.3333 38.0715 13.4118 38.1505C14.902 38.7824 16.3922 39.3353 17.8824 39.7303C24.3137 41.5469 30.5882 41.31 35.5294 41.073C40.3922 40.8361 43.8431 40.5991 44.7059 42.3368C45.1765 43.3636 44.7059 44.7854 44 45.9702C43.8431 46.2861 43.9216 46.2861 44.0784 46.1282C47.7647 42.7317 50.5098 38.3085 51.7647 33.3323C51.7647 33.1744 51.8431 33.0164 51.8431 32.9374C51.2941 31.8316 49.8824 31.2787 48 31.0417C45.9608 30.7258 43.3725 30.8048 40.6274 30.8048C38.3529 30.8048 36 30.8838 33.8039 30.7258C13.1765 29.225 11.8431 15.9553 14.7451 9.95231C18.4314 2.52757 26.3529 0.868852 29.4118 0.47392C29.4902 0.47392 29.5686 0.394933 29.5686 0.315946C29.5686 0.23696 29.4902 0.157973 29.4118 0.157973C28.3922 0 27.3725 0 26.2745 0C22.6667 0 19.2157 0.710879 16.0784 2.05365Z" fill="white"/>
<path d="M16.0784 2.05365C15.6863 2.21162 15.2941 2.3696 14.902 2.60656C14.4314 2.84352 13.9608 3.08048 13.4902 3.31744C11.6078 4.50224 9.41176 6.00298 7.92157 7.58271C2.82353 13.0328 0.627451 21.6423 3.60784 28.6721C4 29.541 4.39216 30.4098 4.94118 31.1997C6.03922 32.9374 7.60784 34.5961 9.4902 35.9389C10.5882 36.7288 11.8431 37.4396 13.2549 38.0715C13.3333 38.0715 13.3333 38.0715 13.4118 38.1505C14.902 38.7824 16.3922 39.3353 17.8824 39.7303C24.3137 41.5469 30.5882 41.31 35.5294 41.073C40.3922 40.8361 43.8431 40.5991 44.7059 42.3368C45.1765 43.3636 44.7059 44.7854 44 45.9702C43.8431 46.2861 43.9216 46.2861 44.0784 46.1282C47.7647 42.7317 50.5098 38.3085 51.7647 33.3323C51.7647 33.1744 51.8431 33.0164 51.8431 32.9374C51.2941 31.8316 49.8824 31.2787 48 31.0417C45.9608 30.7258 43.3725 30.8048 40.6274 30.8048C38.3529 30.8048 36 30.8838 33.8039 30.7258C13.1765 29.225 11.8431 15.9553 14.7451 9.95231C18.4314 2.52757 26.3529 0.868852 29.4118 0.47392C29.4902 0.47392 29.5686 0.394933 29.5686 0.315946C29.5686 0.23696 29.4902 0.157973 29.4118 0.157973C28.3922 0 27.3725 0 26.2745 0C22.6667 0 19.2157 0.710879 16.0784 2.05365Z" fill="url(#paint0_radial)"/>
<path d="M16.0784 2.05365C15.6863 2.21162 15.2941 2.3696 14.902 2.60656C14.4314 2.84352 13.9608 3.08048 13.4902 3.31744C11.6078 4.50224 9.41176 6.00298 7.92157 7.58271C2.82353 13.0328 0.627451 21.6423 3.60784 28.6721C4 29.541 4.39216 30.4098 4.94118 31.1997C6.03922 32.9374 7.60784 34.5961 9.4902 35.9389C10.5882 36.7288 11.8431 37.4396 13.2549 38.0715C13.3333 38.0715 13.3333 38.0715 13.4118 38.1505C14.902 38.7824 16.3922 39.3353 17.8824 39.7303C24.3137 41.5469 30.5882 41.31 35.5294 41.073C40.3922 40.8361 43.8431 40.5991 44.7059 42.3368C45.1765 43.3636 44.7059 44.7854 44 45.9702C43.8431 46.2861 43.9216 46.2861 44.0784 46.1282C47.7647 42.7317 50.5098 38.3085 51.7647 33.3323C51.7647 33.1744 51.8431 33.0164 51.8431 32.9374C51.2941 31.8316 49.8824 31.2787 48 31.0417C45.9608 30.7258 43.3725 30.8048 40.6274 30.8048C38.3529 30.8048 36 30.8838 33.8039 30.7258C13.1765 29.225 11.8431 15.9553 14.7451 9.95231C18.4314 2.52757 26.3529 0.868852 29.4118 0.47392C29.4902 0.47392 29.5686 0.394933 29.5686 0.315946C29.5686 0.23696 29.4902 0.157973 29.4118 0.157973C28.3922 0 27.3725 0 26.2745 0C22.6667 0 19.2157 0.710879 16.0784 2.05365Z" fill="url(#paint1_radial)"/>
<path d="M16.0784 2.05365C15.6863 2.21162 15.2941 2.3696 14.902 2.60656C14.4314 2.84352 13.9608 3.08048 13.4902 3.31744C11.6078 4.50224 9.41176 6.00298 7.92157 7.58271C2.82353 13.0328 0.627451 21.6423 3.60784 28.6721C4 29.541 4.39216 30.4098 4.94118 31.1997C6.03922 32.9374 7.60784 34.5961 9.4902 35.9389C10.5882 36.7288 11.8431 37.4396 13.2549 38.0715C13.3333 38.0715 13.3333 38.0715 13.4118 38.1505C14.902 38.7824 16.3922 39.3353 17.8824 39.7303C24.3137 41.5469 30.5882 41.31 35.5294 41.073C40.3922 40.8361 43.8431 40.5991 44.7059 42.3368C45.1765 43.3636 44.7059 44.7854 44 45.9702C43.8431 46.2861 43.9216 46.2861 44.0784 46.1282C47.7647 42.7317 50.5098 38.3085 51.7647 33.3323C51.7647 33.1744 51.8431 33.0164 51.8431 32.9374C51.2941 31.8316 49.8824 31.2787 48 31.0417C45.9608 30.7258 43.3725 30.8048 40.6274 30.8048C38.3529 30.8048 36 30.8838 33.8039 30.7258C13.1765 29.225 11.8431 15.9553 14.7451 9.95231C18.4314 2.52757 26.3529 0.868852 29.4118 0.47392C29.4902 0.47392 29.5686 0.394933 29.5686 0.315946C29.5686 0.23696 29.4902 0.157973 29.4118 0.157973C28.3922 0 27.3725 0 26.2745 0C22.6667 0 19.2157 0.710879 16.0784 2.05365Z" fill="url(#paint2_radial)"/>
<path d="M16.0784 2.05365C15.6863 2.21162 15.2941 2.3696 14.902 2.60656C14.4314 2.84352 13.9608 3.08048 13.4902 3.31744C11.6078 4.50224 9.41176 6.00298 7.92157 7.58271C2.82353 13.0328 0.627451 21.6423 3.60784 28.6721C4 29.541 4.39216 30.4098 4.94118 31.1997C6.03922 32.9374 7.60784 34.5961 9.4902 35.9389C10.5882 36.7288 11.8431 37.4396 13.2549 38.0715C13.3333 38.0715 13.3333 38.0715 13.4118 38.1505C14.902 38.7824 16.3922 39.3353 17.8824 39.7303C24.3137 41.5469 30.5882 41.31 35.5294 41.073C40.3922 40.8361 43.8431 40.5991 44.7059 42.3368C45.1765 43.3636 44.7059 44.7854 44 45.9702C43.8431 46.2861 43.9216 46.2861 44.0784 46.1282C47.7647 42.7317 50.5098 38.3085 51.7647 33.3323C51.7647 33.1744 51.8431 33.0164 51.8431 32.9374C51.2941 31.8316 49.8824 31.2787 48 31.0417C45.9608 30.7258 43.3725 30.8048 40.6274 30.8048C38.3529 30.8048 36 30.8838 33.8039 30.7258C13.1765 29.225 11.8431 15.9553 14.7451 9.95231C18.4314 2.52757 26.3529 0.868852 29.4118 0.47392C29.4902 0.47392 29.5686 0.394933 29.5686 0.315946C29.5686 0.23696 29.4902 0.157973 29.4118 0.157973C28.3922 0 27.3725 0 26.2745 0C22.6667 0 19.2157 0.710879 16.0784 2.05365Z" fill="url(#paint3_radial)"/>
<path d="M16.0784 2.05365C15.6863 2.21162 15.2941 2.3696 14.902 2.60656C14.4314 2.84352 13.9608 3.08048 13.4902 3.31744C11.6078 4.50224 9.41176 6.00298 7.92157 7.58271C2.82353 13.0328 0.627451 21.6423 3.60784 28.6721C4 29.541 4.39216 30.4098 4.94118 31.1997C6.03922 32.9374 7.60784 34.5961 9.4902 35.9389C10.5882 36.7288 11.8431 37.4396 13.2549 38.0715C13.3333 38.0715 13.3333 38.0715 13.4118 38.1505C14.902 38.7824 16.3922 39.3353 17.8824 39.7303C24.3137 41.5469 30.5882 41.31 35.5294 41.073C40.3922 40.8361 43.8431 40.5991 44.7059 42.3368C45.1765 43.3636 44.7059 44.7854 44 45.9702C43.8431 46.2861 43.9216 46.2861 44.0784 46.1282C47.7647 42.7317 50.5098 38.3085 51.7647 33.3323C51.7647 33.1744 51.8431 33.0164 51.8431 32.9374C51.2941 31.8316 49.8824 31.2787 48 31.0417C45.9608 30.7258 43.3725 30.8048 40.6274 30.8048C38.3529 30.8048 36 30.8838 33.8039 30.7258C13.1765 29.225 11.8431 15.9553 14.7451 9.95231C18.4314 2.52757 26.3529 0.868852 29.4118 0.47392C29.4902 0.47392 29.5686 0.394933 29.5686 0.315946C29.5686 0.23696 29.4902 0.157973 29.4118 0.157973C28.3922 0 27.3725 0 26.2745 0C22.6667 0 19.2157 0.710879 16.0784 2.05365Z" fill="url(#paint4_radial)"/>
<path d="M0 26.9344C0 28.0402 0.0784314 29.146 0.235294 30.2519C0.784314 33.9642 2.11765 37.5976 4.15686 40.7571C5.17647 42.4158 6.35294 43.9165 7.76471 45.2593C9.41176 46.918 11.3725 48.4188 13.4118 49.6036C14.3529 50.1565 15.3725 50.6304 16.3922 51.1043L16.7059 51.2623C16.8627 51.3413 17.0196 51.3413 17.1765 51.4203C17.3333 51.4993 17.4902 51.4993 17.5686 51.5782C17.5686 51.5782 17.5686 51.5782 17.6471 51.5782C17.7255 51.5782 17.8039 51.6572 17.8824 51.6572C17.9608 51.6572 18.1176 51.7362 18.1961 51.7362L18.5882 51.8942C18.7451 51.9732 18.9804 51.9732 19.1373 52.0522C21.3333 52.6841 23.6863 53 26.1176 53.079C26.1961 53.079 26.2745 53.079 26.4314 53.079H26.5098C26.8235 53.079 27.1373 53.079 27.5294 53.079C28.7059 53.079 29.8039 52.921 30.9804 52.763C33.1765 52.3681 35.2941 51.7362 37.4118 50.7884C37.4118 50.3934 37.2549 49.9195 36.9412 49.6826C36.7059 49.4456 36.3922 49.2876 36.1569 49.1297C35.6078 48.8927 34.8235 48.7347 33.9608 48.5768C31.451 48.1818 28 48.1028 24.4706 47.6289C22.9804 47.4709 21.5686 47.234 20.0784 46.839C19.7647 46.7601 19.5294 46.6811 19.2157 46.6021C14.5098 45.2593 10.6667 42.9687 7.76471 40.1252C5.88235 38.3085 4.39216 36.3338 3.21569 34.2012C1.88235 31.8316 1.01961 29.304 0.54902 26.9344C0.54902 26.8554 0.54902 26.6185 0.392157 26.6185C0 26.6185 0 26.8554 0 26.9344Z" fill="white"/>
<path d="M0 26.9344C0 28.0402 0.0784314 29.146 0.235294 30.2519C0.784314 33.9642 2.11765 37.5976 4.15686 40.7571C5.17647 42.4158 6.35294 43.9165 7.76471 45.2593C9.41176 46.918 11.3725 48.4188 13.4118 49.6036C14.3529 50.1565 15.3725 50.6304 16.3922 51.1043L16.7059 51.2623C16.8627 51.3413 17.0196 51.3413 17.1765 51.4203C17.3333 51.4993 17.4902 51.4993 17.5686 51.5782C17.5686 51.5782 17.5686 51.5782 17.6471 51.5782C17.7255 51.5782 17.8039 51.6572 17.8824 51.6572C17.9608 51.6572 18.1176 51.7362 18.1961 51.7362L18.5882 51.8942C18.7451 51.9732 18.9804 51.9732 19.1373 52.0522C21.3333 52.6841 23.6863 53 26.1176 53.079C26.1961 53.079 26.2745 53.079 26.4314 53.079H26.5098C26.8235 53.079 27.1373 53.079 27.5294 53.079C28.7059 53.079 29.8039 52.921 30.9804 52.763C33.1765 52.3681 35.2941 51.7362 37.4118 50.7884C37.4118 50.3934 37.2549 49.9195 36.9412 49.6826C36.7059 49.4456 36.3922 49.2876 36.1569 49.1297C35.6078 48.8927 34.8235 48.7347 33.9608 48.5768C31.451 48.1818 28 48.1028 24.4706 47.6289C22.9804 47.4709 21.5686 47.234 20.0784 46.839C19.7647 46.7601 19.5294 46.6811 19.2157 46.6021C14.5098 45.2593 10.6667 42.9687 7.76471 40.1252C5.88235 38.3085 4.39216 36.3338 3.21569 34.2012C1.88235 31.8316 1.01961 29.304 0.54902 26.9344C0.54902 26.8554 0.54902 26.6185 0.392157 26.6185C0 26.6185 0 26.8554 0 26.9344Z" fill="url(#paint5_radial)"/>
<path d="M0 26.9344C0 28.0402 0.0784314 29.146 0.235294 30.2519C0.784314 33.9642 2.11765 37.5976 4.15686 40.7571C5.17647 42.4158 6.35294 43.9165 7.76471 45.2593C9.41176 46.918 11.3725 48.4188 13.4118 49.6036C14.3529 50.1565 15.3725 50.6304 16.3922 51.1043L16.7059 51.2623C16.8627 51.3413 17.0196 51.3413 17.1765 51.4203C17.3333 51.4993 17.4902 51.4993 17.5686 51.5782C17.5686 51.5782 17.5686 51.5782 17.6471 51.5782C17.7255 51.5782 17.8039 51.6572 17.8824 51.6572C17.9608 51.6572 18.1176 51.7362 18.1961 51.7362L18.5882 51.8942C18.7451 51.9732 18.9804 51.9732 19.1373 52.0522C21.3333 52.6841 23.6863 53 26.1176 53.079C26.1961 53.079 26.2745 53.079 26.4314 53.079H26.5098C26.8235 53.079 27.1373 53.079 27.5294 53.079C28.7059 53.079 29.8039 52.921 30.9804 52.763C33.1765 52.3681 35.2941 51.7362 37.4118 50.7884C37.4118 50.3934 37.2549 49.9195 36.9412 49.6826C36.7059 49.4456 36.3922 49.2876 36.1569 49.1297C35.6078 48.8927 34.8235 48.7347 33.9608 48.5768C31.451 48.1818 28 48.1028 24.4706 47.6289C22.9804 47.4709 21.5686 47.234 20.0784 46.839C19.7647 46.7601 19.5294 46.6811 19.2157 46.6021C14.5098 45.2593 10.6667 42.9687 7.76471 40.1252C5.88235 38.3085 4.39216 36.3338 3.21569 34.2012C1.88235 31.8316 1.01961 29.304 0.54902 26.9344C0.54902 26.8554 0.54902 26.6185 0.392157 26.6185C0 26.6185 0 26.8554 0 26.9344Z" fill="url(#paint6_radial)"/>
<path d="M0 26.9344C0 28.0402 0.0784314 29.146 0.235294 30.2519C0.784314 33.9642 2.11765 37.5976 4.15686 40.7571C5.17647 42.4158 6.35294 43.9165 7.76471 45.2593C9.41176 46.918 11.3725 48.4188 13.4118 49.6036C14.3529 50.1565 15.3725 50.6304 16.3922 51.1043L16.7059 51.2623C16.8627 51.3413 17.0196 51.3413 17.1765 51.4203C17.3333 51.4993 17.4902 51.4993 17.5686 51.5782C17.5686 51.5782 17.5686 51.5782 17.6471 51.5782C17.7255 51.5782 17.8039 51.6572 17.8824 51.6572C17.9608 51.6572 18.1176 51.7362 18.1961 51.7362L18.5882 51.8942C18.7451 51.9732 18.9804 51.9732 19.1373 52.0522C21.3333 52.6841 23.6863 53 26.1176 53.079C26.1961 53.079 26.2745 53.079 26.4314 53.079H26.5098C26.8235 53.079 27.1373 53.079 27.5294 53.079C28.7059 53.079 29.8039 52.921 30.9804 52.763C33.1765 52.3681 35.2941 51.7362 37.4118 50.7884C37.4118 50.3934 37.2549 49.9195 36.9412 49.6826C36.7059 49.4456 36.3922 49.2876 36.1569 49.1297C35.6078 48.8927 34.8235 48.7347 33.9608 48.5768C31.451 48.1818 28 48.1028 24.4706 47.6289C22.9804 47.4709 21.5686 47.234 20.0784 46.839C19.7647 46.7601 19.5294 46.6811 19.2157 46.6021C14.5098 45.2593 10.6667 42.9687 7.76471 40.1252C5.88235 38.3085 4.39216 36.3338 3.21569 34.2012C1.88235 31.8316 1.01961 29.304 0.54902 26.9344C0.54902 26.8554 0.54902 26.6185 0.392157 26.6185C0 26.6185 0 26.8554 0 26.9344Z" fill="url(#paint7_radial)"/>
<path d="M0 26.9344C0 28.0402 0.0784314 29.146 0.235294 30.2519C0.784314 33.9642 2.11765 37.5976 4.15686 40.7571C5.17647 42.4158 6.35294 43.9165 7.76471 45.2593C9.41176 46.918 11.3725 48.4188 13.4118 49.6036C14.3529 50.1565 15.3725 50.6304 16.3922 51.1043L16.7059 51.2623C16.8627 51.3413 17.0196 51.3413 17.1765 51.4203C17.3333 51.4993 17.4902 51.4993 17.5686 51.5782C17.5686 51.5782 17.5686 51.5782 17.6471 51.5782C17.7255 51.5782 17.8039 51.6572 17.8824 51.6572C17.9608 51.6572 18.1176 51.7362 18.1961 51.7362L18.5882 51.8942C18.7451 51.9732 18.9804 51.9732 19.1373 52.0522C21.3333 52.6841 23.6863 53 26.1176 53.079C26.1961 53.079 26.2745 53.079 26.4314 53.079H26.5098C26.8235 53.079 27.1373 53.079 27.5294 53.079C28.7059 53.079 29.8039 52.921 30.9804 52.763C33.1765 52.3681 35.2941 51.7362 37.4118 50.7884C37.4118 50.3934 37.2549 49.9195 36.9412 49.6826C36.7059 49.4456 36.3922 49.2876 36.1569 49.1297C35.6078 48.8927 34.8235 48.7347 33.9608 48.5768C31.451 48.1818 28 48.1028 24.4706 47.6289C22.9804 47.4709 21.5686 47.234 20.0784 46.839C19.7647 46.7601 19.5294 46.6811 19.2157 46.6021C14.5098 45.2593 10.6667 42.9687 7.76471 40.1252C5.88235 38.3085 4.39216 36.3338 3.21569 34.2012C1.88235 31.8316 1.01961 29.304 0.54902 26.9344C0.54902 26.8554 0.54902 26.6185 0.392157 26.6185C0 26.6185 0 26.8554 0 26.9344Z" fill="url(#paint8_radial)"/>
<path d="M0 26.9344C0 28.0402 0.0784314 29.146 0.235294 30.2519C0.784314 33.9642 2.11765 37.5976 4.15686 40.7571C5.17647 42.4158 6.35294 43.9165 7.76471 45.2593C9.41176 46.918 11.3725 48.4188 13.4118 49.6036C14.3529 50.1565 15.3725 50.6304 16.3922 51.1043L16.7059 51.2623C16.8627 51.3413 17.0196 51.3413 17.1765 51.4203C17.3333 51.4993 17.4902 51.4993 17.5686 51.5782C17.5686 51.5782 17.5686 51.5782 17.6471 51.5782C17.7255 51.5782 17.8039 51.6572 17.8824 51.6572C17.9608 51.6572 18.1176 51.7362 18.1961 51.7362L18.5882 51.8942C18.7451 51.9732 18.9804 51.9732 19.1373 52.0522C21.3333 52.6841 23.6863 53 26.1176 53.079C26.1961 53.079 26.2745 53.079 26.4314 53.079H26.5098C26.8235 53.079 27.1373 53.079 27.5294 53.079C28.7059 53.079 29.8039 52.921 30.9804 52.763C33.1765 52.3681 35.2941 51.7362 37.4118 50.7884C37.4118 50.3934 37.2549 49.9195 36.9412 49.6826C36.7059 49.4456 36.3922 49.2876 36.1569 49.1297C35.6078 48.8927 34.8235 48.7347 33.9608 48.5768C31.451 48.1818 28 48.1028 24.4706 47.6289C22.9804 47.4709 21.5686 47.234 20.0784 46.839C19.7647 46.7601 19.5294 46.6811 19.2157 46.6021C14.5098 45.2593 10.6667 42.9687 7.76471 40.1252C5.88235 38.3085 4.39216 36.3338 3.21569 34.2012C1.88235 31.8316 1.01961 29.304 0.54902 26.9344C0.54902 26.8554 0.54902 26.6185 0.392157 26.6185C0 26.6185 0 26.8554 0 26.9344Z" fill="url(#paint9_radial)"/>
<path d="M28.7843 2.9225C27.1373 3.5544 25.7255 4.42325 24.6274 5.52906C22.902 7.18778 21.7255 9.24143 21.3333 11.4531C20.8627 14.1386 21.5686 16.9821 23.6078 19.5887C24.1569 20.2996 24.7843 21.0104 25.4902 21.6423C30.902 26.3815 40.1569 27.9613 46.3529 25.5127C48.9412 24.4858 50.902 22.8271 51.9216 20.8525C51.2941 18.0879 50.3529 15.5604 48.9412 13.1908C48.3137 14.0596 47.3725 14.8495 45.9608 15.3234C42.5882 16.5872 36.549 15.5604 34.5882 13.1908C32.7059 10.9001 33.8824 7.97764 37.2549 6.71386C38.4314 6.31893 41.6471 6.08197 43.2941 6.39791C43.2941 6.39791 43.3725 6.39791 43.2941 6.31893C41.2549 4.50224 38.9804 3.15946 36.6274 2.13264C36.0784 1.89568 35.451 1.7377 34.902 1.7377C34.7451 1.7377 34.5882 1.7377 34.3529 1.7377C32.6274 1.89568 30.5882 2.21162 28.7843 2.9225Z" fill="white"/>
<path d="M28.7843 2.9225C27.1373 3.5544 25.7255 4.42325 24.6274 5.52906C22.902 7.18778 21.7255 9.24143 21.3333 11.4531C20.8627 14.1386 21.5686 16.9821 23.6078 19.5887C24.1569 20.2996 24.7843 21.0104 25.4902 21.6423C30.902 26.3815 40.1569 27.9613 46.3529 25.5127C48.9412 24.4858 50.902 22.8271 51.9216 20.8525C51.2941 18.0879 50.3529 15.5604 48.9412 13.1908C48.3137 14.0596 47.3725 14.8495 45.9608 15.3234C42.5882 16.5872 36.549 15.5604 34.5882 13.1908C32.7059 10.9001 33.8824 7.97764 37.2549 6.71386C38.4314 6.31893 41.6471 6.08197 43.2941 6.39791C43.2941 6.39791 43.3725 6.39791 43.2941 6.31893C41.2549 4.50224 38.9804 3.15946 36.6274 2.13264C36.0784 1.89568 35.451 1.7377 34.902 1.7377C34.7451 1.7377 34.5882 1.7377 34.3529 1.7377C32.6274 1.89568 30.5882 2.21162 28.7843 2.9225Z" fill="url(#paint10_radial)"/>
<path d="M28.7843 2.9225C27.1373 3.5544 25.7255 4.42325 24.6274 5.52906C22.902 7.18778 21.7255 9.24143 21.3333 11.4531C20.8627 14.1386 21.5686 16.9821 23.6078 19.5887C24.1569 20.2996 24.7843 21.0104 25.4902 21.6423C30.902 26.3815 40.1569 27.9613 46.3529 25.5127C48.9412 24.4858 50.902 22.8271 51.9216 20.8525C51.2941 18.0879 50.3529 15.5604 48.9412 13.1908C48.3137 14.0596 47.3725 14.8495 45.9608 15.3234C42.5882 16.5872 36.549 15.5604 34.5882 13.1908C32.7059 10.9001 33.8824 7.97764 37.2549 6.71386C38.4314 6.31893 41.6471 6.08197 43.2941 6.39791C43.2941 6.39791 43.3725 6.39791 43.2941 6.31893C41.2549 4.50224 38.9804 3.15946 36.6274 2.13264C36.0784 1.89568 35.451 1.7377 34.902 1.7377C34.7451 1.7377 34.5882 1.7377 34.3529 1.7377C32.6274 1.89568 30.5882 2.21162 28.7843 2.9225Z" fill="url(#paint11_radial)"/>
<path d="M28.7843 2.9225C27.1373 3.5544 25.7255 4.42325 24.6274 5.52906C22.902 7.18778 21.7255 9.24143 21.3333 11.4531C20.8627 14.1386 21.5686 16.9821 23.6078 19.5887C24.1569 20.2996 24.7843 21.0104 25.4902 21.6423C30.902 26.3815 40.1569 27.9613 46.3529 25.5127C48.9412 24.4858 50.902 22.8271 51.9216 20.8525C51.2941 18.0879 50.3529 15.5604 48.9412 13.1908C48.3137 14.0596 47.3725 14.8495 45.9608 15.3234C42.5882 16.5872 36.549 15.5604 34.5882 13.1908C32.7059 10.9001 33.8824 7.97764 37.2549 6.71386C38.4314 6.31893 41.6471 6.08197 43.2941 6.39791C43.2941 6.39791 43.3725 6.39791 43.2941 6.31893C41.2549 4.50224 38.9804 3.15946 36.6274 2.13264C36.0784 1.89568 35.451 1.7377 34.902 1.7377C34.7451 1.7377 34.5882 1.7377 34.3529 1.7377C32.6274 1.89568 30.5882 2.21162 28.7843 2.9225Z" fill="url(#paint12_radial)"/>
<path d="M28.7843 2.9225C27.1373 3.5544 25.7255 4.42325 24.6274 5.52906C22.902 7.18778 21.7255 9.24143 21.3333 11.4531C20.8627 14.1386 21.5686 16.9821 23.6078 19.5887C24.1569 20.2996 24.7843 21.0104 25.4902 21.6423C30.902 26.3815 40.1569 27.9613 46.3529 25.5127C48.9412 24.4858 50.902 22.8271 51.9216 20.8525C51.2941 18.0879 50.3529 15.5604 48.9412 13.1908C48.3137 14.0596 47.3725 14.8495 45.9608 15.3234C42.5882 16.5872 36.549 15.5604 34.5882 13.1908C32.7059 10.9001 33.8824 7.97764 37.2549 6.71386C38.4314 6.31893 41.6471 6.08197 43.2941 6.39791C43.2941 6.39791 43.3725 6.39791 43.2941 6.31893C41.2549 4.50224 38.9804 3.15946 36.6274 2.13264C36.0784 1.89568 35.451 1.7377 34.902 1.7377C34.7451 1.7377 34.5882 1.7377 34.3529 1.7377C32.6274 1.89568 30.5882 2.21162 28.7843 2.9225Z" fill="url(#paint13_radial)"/>
<path d="M28.7843 2.9225C27.1373 3.5544 25.7255 4.42325 24.6274 5.52906C22.902 7.18778 21.7255 9.24143 21.3333 11.4531C20.8627 14.1386 21.5686 16.9821 23.6078 19.5887C24.1569 20.2996 24.7843 21.0104 25.4902 21.6423C30.902 26.3815 40.1569 27.9613 46.3529 25.5127C48.9412 24.4858 50.902 22.8271 51.9216 20.8525C51.2941 18.0879 50.3529 15.5604 48.9412 13.1908C48.3137 14.0596 47.3725 14.8495 45.9608 15.3234C42.5882 16.5872 36.549 15.5604 34.5882 13.1908C32.7059 10.9001 33.8824 7.97764 37.2549 6.71386C38.4314 6.31893 41.6471 6.08197 43.2941 6.39791C43.2941 6.39791 43.3725 6.39791 43.2941 6.31893C41.2549 4.50224 38.9804 3.15946 36.6274 2.13264C36.0784 1.89568 35.451 1.7377 34.902 1.7377C34.7451 1.7377 34.5882 1.7377 34.3529 1.7377C32.6274 1.89568 30.5882 2.21162 28.7843 2.9225Z" fill="url(#paint14_radial)"/>
</g>
<defs>
<radialGradient id="paint0_radial" cx="0" cy="0" r="1" gradientUnits="userSpaceOnUse" gradientTransform="translate(48.8117 53.079) rotate(-135.083) scale(68.9309 98.3584)">
<stop stop-color="#21A038"/>
<stop offset="0.746907" stop-color="#21A038" stop-opacity="0.8"/>
<stop offset="1" stop-color="#21A038" stop-opacity="0"/>
</radialGradient>
<radialGradient id="paint1_radial" cx="0" cy="0" r="1" gradientUnits="userSpaceOnUse" gradientTransform="translate(14.6931 41.0456) rotate(-62.8716) scale(41.1184 63.3475)">
<stop stop-color="#A0E720"/>
<stop offset="1" stop-color="#A0E720" stop-opacity="0"/>
</radialGradient>
<radialGradient id="paint2_radial" cx="0" cy="0" r="1" gradientUnits="userSpaceOnUse" gradientTransform="translate(48.5863 2.0879) rotate(149.774) scale(40.6451 26.2204)">
<stop stop-color="#0087CD"/>
<stop offset="1" stop-color="#0087CD" stop-opacity="0"/>
</radialGradient>
<radialGradient id="paint3_radial" cx="0" cy="0" r="1" gradientUnits="userSpaceOnUse" gradientTransform="translate(-7.88739 68.0796) rotate(-70.0957) scale(83.8003 71.3795)">
<stop stop-color="#FAED00"/>
<stop offset="1" stop-color="#FAED00" stop-opacity="0"/>
</radialGradient>
<radialGradient id="paint4_radial" cx="0" cy="0" r="1" gradientUnits="userSpaceOnUse" gradientTransform="translate(10.3212) rotate(-172.424) scale(22.5065 37.3136)">
<stop stop-color="#42E3B4"/>
<stop offset="1" stop-color="#42E3B4" stop-opacity="0"/>
</radialGradient>
<radialGradient id="paint5_radial" cx="0" cy="0" r="1" gradientUnits="userSpaceOnUse" gradientTransform="translate(48.8117 53.079) rotate(-135.083) scale(68.9309 98.3584)">
<stop stop-color="#21A038"/>
<stop offset="0.746907" stop-color="#21A038" stop-opacity="0.8"/>
<stop offset="1" stop-color="#21A038" stop-opacity="0"/>
</radialGradient>
<radialGradient id="paint6_radial" cx="0" cy="0" r="1" gradientUnits="userSpaceOnUse" gradientTransform="translate(14.6931 41.0456) rotate(-62.8716) scale(41.1184 63.3475)">
<stop stop-color="#A0E720"/>
<stop offset="1" stop-color="#A0E720" stop-opacity="0"/>
</radialGradient>
<radialGradient id="paint7_radial" cx="0" cy="0" r="1" gradientUnits="userSpaceOnUse" gradientTransform="translate(48.5863 2.0879) rotate(149.774) scale(40.6451 26.2204)">
<stop stop-color="#0087CD"/>
<stop offset="1" stop-color="#0087CD" stop-opacity="0"/>
</radialGradient>
<radialGradient id="paint8_radial" cx="0" cy="0" r="1" gradientUnits="userSpaceOnUse" gradientTransform="translate(-7.88739 68.0796) rotate(-70.0957) scale(83.8003 71.3795)">
<stop stop-color="#FAED00"/>
<stop offset="1" stop-color="#FAED00" stop-opacity="0"/>
</radialGradient>
<radialGradient id="paint9_radial" cx="0" cy="0" r="1" gradientUnits="userSpaceOnUse" gradientTransform="translate(10.3212) rotate(-172.424) scale(22.5065 37.3136)">
<stop stop-color="#42E3B4"/>
<stop offset="1" stop-color="#42E3B4" stop-opacity="0"/>
</radialGradient>
<radialGradient id="paint10_radial" cx="0" cy="0" r="1" gradientUnits="userSpaceOnUse" gradientTransform="translate(48.8117 53.079) rotate(-135.083) scale(68.9309 98.3584)">
<stop stop-color="#21A038"/>
<stop offset="0.746907" stop-color="#21A038" stop-opacity="0.8"/>
<stop offset="1" stop-color="#21A038" stop-opacity="0"/>
</radialGradient>
<radialGradient id="paint11_radial" cx="0" cy="0" r="1" gradientUnits="userSpaceOnUse" gradientTransform="translate(14.6931 41.0456) rotate(-62.8716) scale(41.1184 63.3475)">
<stop stop-color="#A0E720"/>
<stop offset="1" stop-color="#A0E720" stop-opacity="0"/>
</radialGradient>
<radialGradient id="paint12_radial" cx="0" cy="0" r="1" gradientUnits="userSpaceOnUse" gradientTransform="translate(48.5863 2.0879) rotate(149.774) scale(40.6451 26.2204)">
<stop stop-color="#0087CD"/>
<stop offset="1" stop-color="#0087CD" stop-opacity="0"/>
</radialGradient>
<radialGradient id="paint13_radial" cx="0" cy="0" r="1" gradientUnits="userSpaceOnUse" gradientTransform="translate(-7.88739 68.0796) rotate(-70.0957) scale(83.8003 71.3795)">
<stop stop-color="#FAED00"/>
<stop offset="1" stop-color="#FAED00" stop-opacity="0"/>
</radialGradient>
<radialGradient id="paint14_radial" cx="0" cy="0" r="1" gradientUnits="userSpaceOnUse" gradientTransform="translate(10.3212) rotate(-172.424) scale(22.5065 37.3136)">
<stop stop-color="#42E3B4"/>
<stop offset="1" stop-color="#42E3B4" stop-opacity="0"/>
</radialGradient>
<clipPath id="clip0">
<rect width="52" height="53" fill="white"/>
</clipPath>
</defs>
</svg>
