<svg width="152" height="40" viewBox="0 0 152 40" fill="none" xmlns="http://www.w3.org/2000/svg">
<path d="M140.887 8.04578H130.551V32.3522H135.969V25.4673H140.887C147.483 25.4673 151.58 22.1097 151.58 16.7445C151.58 11.3793 147.484 8.04578 140.887 8.04578ZM140.771 21.42H135.969V12.0931H140.771C144.242 12.0931 146.154 13.7491 146.154 16.7565C146.154 19.7639 144.243 21.42 140.771 21.42Z" fill="white"/>
<path d="M119.834 12.0931L125.506 8.04578H106.522V32.3522H125.506V28.3049H111.94V22.083H123.511V18.0357H111.94V12.0931H119.834Z" fill="white"/>
<path d="M92.1952 17.5211H85.6024V12.0931H96.1273L101.799 8.04578H80.1846V32.3522H91.4965C97.8408 32.3522 101.48 29.5694 101.48 24.7161C101.48 20.0767 98.1818 17.5211 92.1952 17.5211ZM91.2521 28.3049H85.6024V21.567H91.2521C94.6914 21.567 96.293 22.6938 96.293 24.9353C96.2916 27.2263 94.5962 28.3049 91.2521 28.3049Z" fill="white"/>
<path d="M70.8843 27.0899C69.4953 27.8318 67.8771 28.2247 66.2079 28.2247C61.323 28.2247 57.7788 24.8498 57.7788 20.1997C57.7788 15.5496 61.3244 12.1746 66.2079 12.1746C68.0552 12.1746 69.7121 12.6772 71.1355 13.6676L75.0208 10.8954L74.764 10.6776C72.4955 8.7475 69.4635 7.72766 65.998 7.72766C62.2384 7.72766 58.8254 8.95468 56.3899 11.1842C53.9392 13.4257 52.5902 16.5801 52.5902 20.066C52.5902 23.5679 53.935 26.7691 56.3761 29.0788C58.8254 31.3965 62.2302 32.673 65.9635 32.673C69.8695 32.673 73.2797 31.3551 75.591 28.9559C73.8072 27.6834 72.0855 26.455 72.0855 26.455L70.8843 27.0899Z" fill="white"/>
<path d="M20.6628 35.3805C20.3961 35.3805 20.1322 35.3739 19.8684 35.3607L19.6304 39.9746C19.9723 39.9905 20.3168 39.9997 20.6628 39.9997C26.3685 39.9997 31.5341 37.7616 35.2723 34.1417L31.8923 30.8699C29.0155 33.6546 25.0436 35.3805 20.6628 35.3805Z" fill="white"/>
<path d="M4.77186 20.001C4.77186 19.7429 4.7787 19.4875 4.79237 19.232L0.0259789 19.0017C0.00957139 19.3326 0 19.6661 0 20.001C0 25.5242 2.3121 30.5246 6.05165 34.1431L9.4316 30.8713C6.55344 28.0866 4.77186 24.2417 4.77186 20.001Z" fill="white"/>
<path d="M20.6601 35.3808C15.9949 35.3808 11.7932 33.4246 8.88357 30.3142L5.33955 33.4179C9.12012 37.4601 14.5838 40 20.6601 40V35.3808Z" fill="white"/>
<path d="M41.3234 20.0012C41.3234 18.7782 41.2099 17.5804 40.9925 16.4183L36.5447 19.5909C36.5488 19.7272 36.5502 19.8635 36.5502 20.0012C36.5502 24.5171 34.5293 28.5844 31.3162 31.4009L34.5225 34.8316C38.6995 31.1733 41.3234 25.8844 41.3234 20.0012Z" fill="white"/>
<path d="M20.6582 4.62052C20.9249 4.62052 21.1887 4.62979 21.4526 4.6417L21.6905 0.0251478C21.3487 0.00926519 21.0042 0 20.6582 0C14.9525 0 9.78687 2.23813 6.04869 5.85804L9.42864 9.12986C12.3054 6.34511 16.2788 4.62052 20.6582 4.62052Z" fill="white"/>
<path d="M37.0093 7.77344C37.9855 8.99375 38.8196 10.3266 39.4854 11.7494L20.6592 25.1794L12.7945 20.4067V14.6652L20.6592 19.4379L37.0093 7.77344Z" fill="white"/>
<path d="M10.0059 8.60032L6.79956 5.16968C2.62384 8.82929 0 14.1182 0 20.0001H4.77323C4.77186 15.4841 6.79272 11.4168 10.0059 8.60032Z" fill="white"/>
<path d="M29.619 7.30469L33.6375 4.43787C30.0907 1.66371 25.5773 0 20.6618 0V4.62052C23.983 4.62052 27.0676 5.61187 29.619 7.30469Z" fill="white"/>
</svg>
