<svg width="16" height="23" viewBox="0 0 16 23" fill="none" xmlns="http://www.w3.org/2000/svg">
<path d="M7.80493 0.749207C4.73708 0.749207 2.24219 3.2441 2.24219 6.31195C2.24219 9.3798 4.73708 11.8747 7.80493 11.8747C10.8728 11.8747 13.3677 9.3798 13.3677 6.31195C13.3677 3.2441 10.8728 0.749207 7.80493 0.749207ZM7.80493 9.09332C6.271 9.09332 5.02356 7.84587 5.02356 6.31195C5.02356 4.77802 6.271 3.53058 7.80493 3.53058C9.33886 3.53058 10.5863 4.77802 10.5863 6.31195C10.5863 7.84587 9.33886 9.09332 7.80493 9.09332Z" fill="white"/>
<path d="M15.1808 11.7198C14.637 11.176 13.7581 11.176 13.2144 11.7198C10.2327 14.7014 5.37924 14.7014 2.39622 11.7198C1.85246 11.176 0.973549 11.176 0.429791 11.7198C-0.113967 12.2635 -0.113967 13.1424 0.429791 13.6876C2.1598 15.4176 4.35291 16.4036 6.61417 16.6609L2.64932 20.6257C2.10557 21.1695 2.10557 22.0484 2.64932 22.5921C3.19308 23.1359 4.072 23.1359 4.61575 22.5921L7.8046 19.4033L10.9934 22.5921C11.2646 22.8633 11.6206 22.9996 11.9767 22.9996C12.3327 22.9996 12.6887 22.8633 12.9599 22.5921C13.5036 22.0484 13.5036 21.1695 12.9599 20.6257L8.99502 16.6609C11.2563 16.4036 13.4494 15.4176 15.1794 13.6876C15.7232 13.1438 15.7232 12.2635 15.1808 11.7198Z" fill="white"/>
</svg>
