<svg width="207" height="211" viewBox="0 0 207 211" fill="none" xmlns="http://www.w3.org/2000/svg">
<g clip-path="url(#clip0)">
<path d="M63.8532 8.17586C62.2958 8.80477 60.7384 9.43368 59.181 10.377C57.3121 11.3204 55.4433 12.2638 53.5744 13.2072C46.0989 17.924 37.3775 23.8987 31.4594 30.1878C11.2132 51.8852 2.49183 86.1609 14.328 114.148C15.8854 117.607 17.4428 121.066 19.6232 124.21C23.9839 131.128 30.2135 137.732 37.689 143.077C42.0497 146.222 47.0333 149.052 52.64 151.568C52.9514 151.568 52.9514 151.568 53.2629 151.882C59.181 154.398 65.0991 156.599 71.0172 158.171C96.5585 165.404 121.477 164.461 141.1 163.517C160.412 162.574 174.117 161.63 177.543 168.548C179.412 172.636 177.543 178.297 174.74 183.013C174.117 184.271 174.428 184.271 175.051 183.642C189.691 170.121 200.593 152.511 205.576 132.7C205.576 132.072 205.888 131.443 205.888 131.128C203.707 126.726 198.101 124.525 190.625 123.581C182.527 122.323 172.248 122.638 161.346 122.638C152.313 122.638 142.969 122.952 134.247 122.323C52.3285 116.349 47.0333 63.5201 58.5581 39.6215C73.1976 10.0626 104.657 3.45902 116.805 1.88674C117.116 1.88674 117.428 1.57228 117.428 1.25782C117.428 0.943368 117.116 0.628912 116.805 0.628912C112.755 0 108.706 0 104.345 0C90.0174 0 76.3124 2.8301 63.8532 8.17586Z" fill="white"/>
<path d="M63.8532 8.17586C62.2958 8.80477 60.7384 9.43368 59.181 10.377C57.3121 11.3204 55.4433 12.2638 53.5744 13.2072C46.0989 17.924 37.3775 23.8987 31.4594 30.1878C11.2132 51.8852 2.49183 86.1609 14.328 114.148C15.8854 117.607 17.4428 121.066 19.6232 124.21C23.9839 131.128 30.2135 137.732 37.689 143.077C42.0497 146.222 47.0333 149.052 52.64 151.568C52.9514 151.568 52.9514 151.568 53.2629 151.882C59.181 154.398 65.0991 156.599 71.0172 158.171C96.5585 165.404 121.477 164.461 141.1 163.517C160.412 162.574 174.117 161.63 177.543 168.548C179.412 172.636 177.543 178.297 174.74 183.013C174.117 184.271 174.428 184.271 175.051 183.642C189.691 170.121 200.593 152.511 205.576 132.7C205.576 132.072 205.888 131.443 205.888 131.128C203.707 126.726 198.101 124.525 190.625 123.581C182.527 122.323 172.248 122.638 161.346 122.638C152.313 122.638 142.969 122.952 134.247 122.323C52.3285 116.349 47.0333 63.5201 58.5581 39.6215C73.1976 10.0626 104.657 3.45902 116.805 1.88674C117.116 1.88674 117.428 1.57228 117.428 1.25782C117.428 0.943368 117.116 0.628912 116.805 0.628912C112.755 0 108.706 0 104.345 0C90.0174 0 76.3124 2.8301 63.8532 8.17586Z" fill="url(#paint0_radial)"/>
<path d="M63.8532 8.17586C62.2958 8.80477 60.7384 9.43368 59.181 10.377C57.3121 11.3204 55.4433 12.2638 53.5744 13.2072C46.0989 17.924 37.3775 23.8987 31.4594 30.1878C11.2132 51.8852 2.49183 86.1609 14.328 114.148C15.8854 117.607 17.4428 121.066 19.6232 124.21C23.9839 131.128 30.2135 137.732 37.689 143.077C42.0497 146.222 47.0333 149.052 52.64 151.568C52.9514 151.568 52.9514 151.568 53.2629 151.882C59.181 154.398 65.0991 156.599 71.0172 158.171C96.5585 165.404 121.477 164.461 141.1 163.517C160.412 162.574 174.117 161.63 177.543 168.548C179.412 172.636 177.543 178.297 174.74 183.013C174.117 184.271 174.428 184.271 175.051 183.642C189.691 170.121 200.593 152.511 205.576 132.7C205.576 132.072 205.888 131.443 205.888 131.128C203.707 126.726 198.101 124.525 190.625 123.581C182.527 122.323 172.248 122.638 161.346 122.638C152.313 122.638 142.969 122.952 134.247 122.323C52.3285 116.349 47.0333 63.5201 58.5581 39.6215C73.1976 10.0626 104.657 3.45902 116.805 1.88674C117.116 1.88674 117.428 1.57228 117.428 1.25782C117.428 0.943368 117.116 0.628912 116.805 0.628912C112.755 0 108.706 0 104.345 0C90.0174 0 76.3124 2.8301 63.8532 8.17586Z" fill="url(#paint1_radial)"/>
<path d="M63.8532 8.17586C62.2958 8.80477 60.7384 9.43368 59.181 10.377C57.3121 11.3204 55.4433 12.2638 53.5744 13.2072C46.0989 17.924 37.3775 23.8987 31.4594 30.1878C11.2132 51.8852 2.49183 86.1609 14.328 114.148C15.8854 117.607 17.4428 121.066 19.6232 124.21C23.9839 131.128 30.2135 137.732 37.689 143.077C42.0497 146.222 47.0333 149.052 52.64 151.568C52.9514 151.568 52.9514 151.568 53.2629 151.882C59.181 154.398 65.0991 156.599 71.0172 158.171C96.5585 165.404 121.477 164.461 141.1 163.517C160.412 162.574 174.117 161.63 177.543 168.548C179.412 172.636 177.543 178.297 174.74 183.013C174.117 184.271 174.428 184.271 175.051 183.642C189.691 170.121 200.593 152.511 205.576 132.7C205.576 132.072 205.888 131.443 205.888 131.128C203.707 126.726 198.101 124.525 190.625 123.581C182.527 122.323 172.248 122.638 161.346 122.638C152.313 122.638 142.969 122.952 134.247 122.323C52.3285 116.349 47.0333 63.5201 58.5581 39.6215C73.1976 10.0626 104.657 3.45902 116.805 1.88674C117.116 1.88674 117.428 1.57228 117.428 1.25782C117.428 0.943368 117.116 0.628912 116.805 0.628912C112.755 0 108.706 0 104.345 0C90.0174 0 76.3124 2.8301 63.8532 8.17586Z" fill="url(#paint2_radial)"/>
<path d="M63.8532 8.17586C62.2958 8.80477 60.7384 9.43368 59.181 10.377C57.3121 11.3204 55.4433 12.2638 53.5744 13.2072C46.0989 17.924 37.3775 23.8987 31.4594 30.1878C11.2132 51.8852 2.49183 86.1609 14.328 114.148C15.8854 117.607 17.4428 121.066 19.6232 124.21C23.9839 131.128 30.2135 137.732 37.689 143.077C42.0497 146.222 47.0333 149.052 52.64 151.568C52.9514 151.568 52.9514 151.568 53.2629 151.882C59.181 154.398 65.0991 156.599 71.0172 158.171C96.5585 165.404 121.477 164.461 141.1 163.517C160.412 162.574 174.117 161.63 177.543 168.548C179.412 172.636 177.543 178.297 174.74 183.013C174.117 184.271 174.428 184.271 175.051 183.642C189.691 170.121 200.593 152.511 205.576 132.7C205.576 132.072 205.888 131.443 205.888 131.128C203.707 126.726 198.101 124.525 190.625 123.581C182.527 122.323 172.248 122.638 161.346 122.638C152.313 122.638 142.969 122.952 134.247 122.323C52.3285 116.349 47.0333 63.5201 58.5581 39.6215C73.1976 10.0626 104.657 3.45902 116.805 1.88674C117.116 1.88674 117.428 1.57228 117.428 1.25782C117.428 0.943368 117.116 0.628912 116.805 0.628912C112.755 0 108.706 0 104.345 0C90.0174 0 76.3124 2.8301 63.8532 8.17586Z" fill="url(#paint3_radial)"/>
<path d="M63.8532 8.17586C62.2958 8.80477 60.7384 9.43368 59.181 10.377C57.3121 11.3204 55.4433 12.2638 53.5744 13.2072C46.0989 17.924 37.3775 23.8987 31.4594 30.1878C11.2132 51.8852 2.49183 86.1609 14.328 114.148C15.8854 117.607 17.4428 121.066 19.6232 124.21C23.9839 131.128 30.2135 137.732 37.689 143.077C42.0497 146.222 47.0333 149.052 52.64 151.568C52.9514 151.568 52.9514 151.568 53.2629 151.882C59.181 154.398 65.0991 156.599 71.0172 158.171C96.5585 165.404 121.477 164.461 141.1 163.517C160.412 162.574 174.117 161.63 177.543 168.548C179.412 172.636 177.543 178.297 174.74 183.013C174.117 184.271 174.428 184.271 175.051 183.642C189.691 170.121 200.593 152.511 205.576 132.7C205.576 132.072 205.888 131.443 205.888 131.128C203.707 126.726 198.101 124.525 190.625 123.581C182.527 122.323 172.248 122.638 161.346 122.638C152.313 122.638 142.969 122.952 134.247 122.323C52.3285 116.349 47.0333 63.5201 58.5581 39.6215C73.1976 10.0626 104.657 3.45902 116.805 1.88674C117.116 1.88674 117.428 1.57228 117.428 1.25782C117.428 0.943368 117.116 0.628912 116.805 0.628912C112.755 0 108.706 0 104.345 0C90.0174 0 76.3124 2.8301 63.8532 8.17586Z" fill="url(#paint4_radial)"/>
<path d="M0 107.229C0 111.632 0.311479 116.034 0.934437 120.437C3.11479 135.216 8.40994 149.681 16.5084 162.259C20.5576 168.863 25.2298 174.838 30.8364 180.183C37.3775 186.787 45.1645 192.762 53.2629 197.478C57.0007 199.68 61.0499 201.566 65.0991 203.453L66.345 204.082C66.968 204.396 67.591 204.396 68.2139 204.711C68.8369 205.025 69.4598 205.025 69.7713 205.34C69.7713 205.34 69.7713 205.34 70.0828 205.34C70.3943 205.34 70.7057 205.654 71.0172 205.654C71.3287 205.654 71.9517 205.969 72.2631 205.969L73.8205 206.598C74.4435 206.912 75.3779 206.912 76.0009 207.227C84.7223 209.742 94.0667 211 103.723 211.314C104.034 211.314 104.345 211.314 104.968 211.314H105.28C106.526 211.314 107.772 211.314 109.329 211.314C114.001 211.314 118.362 210.686 123.034 210.057C131.756 208.484 140.166 205.969 148.576 202.195C148.576 200.623 147.953 198.736 146.707 197.793C145.772 196.849 144.526 196.221 143.592 195.592C141.411 194.648 138.297 194.019 134.87 193.39C124.903 191.818 111.198 191.504 97.1815 189.617C91.2634 188.988 85.6567 188.045 79.7386 186.472C78.4927 186.158 77.5583 185.844 76.3124 185.529C57.6236 180.183 42.3612 171.064 30.8364 159.744C23.3609 152.511 17.4428 144.65 12.7706 136.159C7.4755 126.726 4.04923 116.663 2.18035 107.229C2.18035 106.915 2.18035 105.972 1.5574 105.972C0 105.972 0 106.915 0 107.229Z" fill="white"/>
<path d="M0 107.229C0 111.632 0.311479 116.034 0.934437 120.437C3.11479 135.216 8.40994 149.681 16.5084 162.259C20.5576 168.863 25.2298 174.838 30.8364 180.183C37.3775 186.787 45.1645 192.762 53.2629 197.478C57.0007 199.68 61.0499 201.566 65.0991 203.453L66.345 204.082C66.968 204.396 67.591 204.396 68.2139 204.711C68.8369 205.025 69.4598 205.025 69.7713 205.34C69.7713 205.34 69.7713 205.34 70.0828 205.34C70.3943 205.34 70.7057 205.654 71.0172 205.654C71.3287 205.654 71.9517 205.969 72.2631 205.969L73.8205 206.598C74.4435 206.912 75.3779 206.912 76.0009 207.227C84.7223 209.742 94.0667 211 103.723 211.314C104.034 211.314 104.345 211.314 104.968 211.314H105.28C106.526 211.314 107.772 211.314 109.329 211.314C114.001 211.314 118.362 210.686 123.034 210.057C131.756 208.484 140.166 205.969 148.576 202.195C148.576 200.623 147.953 198.736 146.707 197.793C145.772 196.849 144.526 196.221 143.592 195.592C141.411 194.648 138.297 194.019 134.87 193.39C124.903 191.818 111.198 191.504 97.1815 189.617C91.2634 188.988 85.6567 188.045 79.7386 186.472C78.4927 186.158 77.5583 185.844 76.3124 185.529C57.6236 180.183 42.3612 171.064 30.8364 159.744C23.3609 152.511 17.4428 144.65 12.7706 136.159C7.4755 126.726 4.04923 116.663 2.18035 107.229C2.18035 106.915 2.18035 105.972 1.5574 105.972C0 105.972 0 106.915 0 107.229Z" fill="url(#paint5_radial)"/>
<path d="M0 107.229C0 111.632 0.311479 116.034 0.934437 120.437C3.11479 135.216 8.40994 149.681 16.5084 162.259C20.5576 168.863 25.2298 174.838 30.8364 180.183C37.3775 186.787 45.1645 192.762 53.2629 197.478C57.0007 199.68 61.0499 201.566 65.0991 203.453L66.345 204.082C66.968 204.396 67.591 204.396 68.2139 204.711C68.8369 205.025 69.4598 205.025 69.7713 205.34C69.7713 205.34 69.7713 205.34 70.0828 205.34C70.3943 205.34 70.7057 205.654 71.0172 205.654C71.3287 205.654 71.9517 205.969 72.2631 205.969L73.8205 206.598C74.4435 206.912 75.3779 206.912 76.0009 207.227C84.7223 209.742 94.0667 211 103.723 211.314C104.034 211.314 104.345 211.314 104.968 211.314H105.28C106.526 211.314 107.772 211.314 109.329 211.314C114.001 211.314 118.362 210.686 123.034 210.057C131.756 208.484 140.166 205.969 148.576 202.195C148.576 200.623 147.953 198.736 146.707 197.793C145.772 196.849 144.526 196.221 143.592 195.592C141.411 194.648 138.297 194.019 134.87 193.39C124.903 191.818 111.198 191.504 97.1815 189.617C91.2634 188.988 85.6567 188.045 79.7386 186.472C78.4927 186.158 77.5583 185.844 76.3124 185.529C57.6236 180.183 42.3612 171.064 30.8364 159.744C23.3609 152.511 17.4428 144.65 12.7706 136.159C7.4755 126.726 4.04923 116.663 2.18035 107.229C2.18035 106.915 2.18035 105.972 1.5574 105.972C0 105.972 0 106.915 0 107.229Z" fill="url(#paint6_radial)"/>
<path d="M0 107.229C0 111.632 0.311479 116.034 0.934437 120.437C3.11479 135.216 8.40994 149.681 16.5084 162.259C20.5576 168.863 25.2298 174.838 30.8364 180.183C37.3775 186.787 45.1645 192.762 53.2629 197.478C57.0007 199.68 61.0499 201.566 65.0991 203.453L66.345 204.082C66.968 204.396 67.591 204.396 68.2139 204.711C68.8369 205.025 69.4598 205.025 69.7713 205.34C69.7713 205.34 69.7713 205.34 70.0828 205.34C70.3943 205.34 70.7057 205.654 71.0172 205.654C71.3287 205.654 71.9517 205.969 72.2631 205.969L73.8205 206.598C74.4435 206.912 75.3779 206.912 76.0009 207.227C84.7223 209.742 94.0667 211 103.723 211.314C104.034 211.314 104.345 211.314 104.968 211.314H105.28C106.526 211.314 107.772 211.314 109.329 211.314C114.001 211.314 118.362 210.686 123.034 210.057C131.756 208.484 140.166 205.969 148.576 202.195C148.576 200.623 147.953 198.736 146.707 197.793C145.772 196.849 144.526 196.221 143.592 195.592C141.411 194.648 138.297 194.019 134.87 193.39C124.903 191.818 111.198 191.504 97.1815 189.617C91.2634 188.988 85.6567 188.045 79.7386 186.472C78.4927 186.158 77.5583 185.844 76.3124 185.529C57.6236 180.183 42.3612 171.064 30.8364 159.744C23.3609 152.511 17.4428 144.65 12.7706 136.159C7.4755 126.726 4.04923 116.663 2.18035 107.229C2.18035 106.915 2.18035 105.972 1.5574 105.972C0 105.972 0 106.915 0 107.229Z" fill="url(#paint7_radial)"/>
<path d="M0 107.229C0 111.632 0.311479 116.034 0.934437 120.437C3.11479 135.216 8.40994 149.681 16.5084 162.259C20.5576 168.863 25.2298 174.838 30.8364 180.183C37.3775 186.787 45.1645 192.762 53.2629 197.478C57.0007 199.68 61.0499 201.566 65.0991 203.453L66.345 204.082C66.968 204.396 67.591 204.396 68.2139 204.711C68.8369 205.025 69.4598 205.025 69.7713 205.34C69.7713 205.34 69.7713 205.34 70.0828 205.34C70.3943 205.34 70.7057 205.654 71.0172 205.654C71.3287 205.654 71.9517 205.969 72.2631 205.969L73.8205 206.598C74.4435 206.912 75.3779 206.912 76.0009 207.227C84.7223 209.742 94.0667 211 103.723 211.314C104.034 211.314 104.345 211.314 104.968 211.314H105.28C106.526 211.314 107.772 211.314 109.329 211.314C114.001 211.314 118.362 210.686 123.034 210.057C131.756 208.484 140.166 205.969 148.576 202.195C148.576 200.623 147.953 198.736 146.707 197.793C145.772 196.849 144.526 196.221 143.592 195.592C141.411 194.648 138.297 194.019 134.87 193.39C124.903 191.818 111.198 191.504 97.1815 189.617C91.2634 188.988 85.6567 188.045 79.7386 186.472C78.4927 186.158 77.5583 185.844 76.3124 185.529C57.6236 180.183 42.3612 171.064 30.8364 159.744C23.3609 152.511 17.4428 144.65 12.7706 136.159C7.4755 126.726 4.04923 116.663 2.18035 107.229C2.18035 106.915 2.18035 105.972 1.5574 105.972C0 105.972 0 106.915 0 107.229Z" fill="url(#paint8_radial)"/>
<path d="M0 107.229C0 111.632 0.311479 116.034 0.934437 120.437C3.11479 135.216 8.40994 149.681 16.5084 162.259C20.5576 168.863 25.2298 174.838 30.8364 180.183C37.3775 186.787 45.1645 192.762 53.2629 197.478C57.0007 199.68 61.0499 201.566 65.0991 203.453L66.345 204.082C66.968 204.396 67.591 204.396 68.2139 204.711C68.8369 205.025 69.4598 205.025 69.7713 205.34C69.7713 205.34 69.7713 205.34 70.0828 205.34C70.3943 205.34 70.7057 205.654 71.0172 205.654C71.3287 205.654 71.9517 205.969 72.2631 205.969L73.8205 206.598C74.4435 206.912 75.3779 206.912 76.0009 207.227C84.7223 209.742 94.0667 211 103.723 211.314C104.034 211.314 104.345 211.314 104.968 211.314H105.28C106.526 211.314 107.772 211.314 109.329 211.314C114.001 211.314 118.362 210.686 123.034 210.057C131.756 208.484 140.166 205.969 148.576 202.195C148.576 200.623 147.953 198.736 146.707 197.793C145.772 196.849 144.526 196.221 143.592 195.592C141.411 194.648 138.297 194.019 134.87 193.39C124.903 191.818 111.198 191.504 97.1815 189.617C91.2634 188.988 85.6567 188.045 79.7386 186.472C78.4927 186.158 77.5583 185.844 76.3124 185.529C57.6236 180.183 42.3612 171.064 30.8364 159.744C23.3609 152.511 17.4428 144.65 12.7706 136.159C7.4755 126.726 4.04923 116.663 2.18035 107.229C2.18035 106.915 2.18035 105.972 1.5574 105.972C0 105.972 0 106.915 0 107.229Z" fill="url(#paint9_radial)"/>
<path d="M114.313 11.6349C107.772 14.1505 102.165 17.6095 97.8044 22.0119C90.9519 28.6155 86.2797 36.7914 84.7223 45.5961C82.8534 56.2876 85.6567 67.608 93.7552 77.9851C95.9356 80.8152 98.4274 83.6453 101.231 86.1609C122.723 105.028 159.477 111.317 184.084 101.569C194.363 97.4814 202.15 90.8778 206.199 83.0164C203.707 72.0104 199.97 61.9478 194.363 52.5142C191.871 55.9732 188.133 59.1177 182.527 61.0045C169.133 66.0358 145.149 61.9478 137.362 52.5142C129.887 43.3949 134.559 31.7601 147.953 26.7288C152.625 25.1565 165.395 24.2131 171.936 25.4709C171.936 25.4709 172.248 25.4709 171.936 25.1565C163.838 17.924 154.805 12.5782 145.461 8.49031C143.28 7.54695 140.789 6.91803 138.608 6.91803C137.985 6.91803 137.362 6.91803 136.428 6.91803C129.575 7.54695 121.477 8.80477 114.313 11.6349Z" fill="white"/>
<path d="M114.313 11.6349C107.772 14.1505 102.165 17.6095 97.8044 22.0119C90.9519 28.6155 86.2797 36.7914 84.7223 45.5961C82.8534 56.2876 85.6567 67.608 93.7552 77.9851C95.9356 80.8152 98.4274 83.6453 101.231 86.1609C122.723 105.028 159.477 111.317 184.084 101.569C194.363 97.4814 202.15 90.8778 206.199 83.0164C203.707 72.0104 199.97 61.9478 194.363 52.5142C191.871 55.9732 188.133 59.1177 182.527 61.0045C169.133 66.0358 145.149 61.9478 137.362 52.5142C129.887 43.3949 134.559 31.7601 147.953 26.7288C152.625 25.1565 165.395 24.2131 171.936 25.4709C171.936 25.4709 172.248 25.4709 171.936 25.1565C163.838 17.924 154.805 12.5782 145.461 8.49031C143.28 7.54695 140.789 6.91803 138.608 6.91803C137.985 6.91803 137.362 6.91803 136.428 6.91803C129.575 7.54695 121.477 8.80477 114.313 11.6349Z" fill="url(#paint10_radial)"/>
<path d="M114.313 11.6349C107.772 14.1505 102.165 17.6095 97.8044 22.0119C90.9519 28.6155 86.2797 36.7914 84.7223 45.5961C82.8534 56.2876 85.6567 67.608 93.7552 77.9851C95.9356 80.8152 98.4274 83.6453 101.231 86.1609C122.723 105.028 159.477 111.317 184.084 101.569C194.363 97.4814 202.15 90.8778 206.199 83.0164C203.707 72.0104 199.97 61.9478 194.363 52.5142C191.871 55.9732 188.133 59.1177 182.527 61.0045C169.133 66.0358 145.149 61.9478 137.362 52.5142C129.887 43.3949 134.559 31.7601 147.953 26.7288C152.625 25.1565 165.395 24.2131 171.936 25.4709C171.936 25.4709 172.248 25.4709 171.936 25.1565C163.838 17.924 154.805 12.5782 145.461 8.49031C143.28 7.54695 140.789 6.91803 138.608 6.91803C137.985 6.91803 137.362 6.91803 136.428 6.91803C129.575 7.54695 121.477 8.80477 114.313 11.6349Z" fill="url(#paint11_radial)"/>
<path d="M114.313 11.6349C107.772 14.1505 102.165 17.6095 97.8044 22.0119C90.9519 28.6155 86.2797 36.7914 84.7223 45.5961C82.8534 56.2876 85.6567 67.608 93.7552 77.9851C95.9356 80.8152 98.4274 83.6453 101.231 86.1609C122.723 105.028 159.477 111.317 184.084 101.569C194.363 97.4814 202.15 90.8778 206.199 83.0164C203.707 72.0104 199.97 61.9478 194.363 52.5142C191.871 55.9732 188.133 59.1177 182.527 61.0045C169.133 66.0358 145.149 61.9478 137.362 52.5142C129.887 43.3949 134.559 31.7601 147.953 26.7288C152.625 25.1565 165.395 24.2131 171.936 25.4709C171.936 25.4709 172.248 25.4709 171.936 25.1565C163.838 17.924 154.805 12.5782 145.461 8.49031C143.28 7.54695 140.789 6.91803 138.608 6.91803C137.985 6.91803 137.362 6.91803 136.428 6.91803C129.575 7.54695 121.477 8.80477 114.313 11.6349Z" fill="url(#paint12_radial)"/>
<path d="M114.313 11.6349C107.772 14.1505 102.165 17.6095 97.8044 22.0119C90.9519 28.6155 86.2797 36.7914 84.7223 45.5961C82.8534 56.2876 85.6567 67.608 93.7552 77.9851C95.9356 80.8152 98.4274 83.6453 101.231 86.1609C122.723 105.028 159.477 111.317 184.084 101.569C194.363 97.4814 202.15 90.8778 206.199 83.0164C203.707 72.0104 199.97 61.9478 194.363 52.5142C191.871 55.9732 188.133 59.1177 182.527 61.0045C169.133 66.0358 145.149 61.9478 137.362 52.5142C129.887 43.3949 134.559 31.7601 147.953 26.7288C152.625 25.1565 165.395 24.2131 171.936 25.4709C171.936 25.4709 172.248 25.4709 171.936 25.1565C163.838 17.924 154.805 12.5782 145.461 8.49031C143.28 7.54695 140.789 6.91803 138.608 6.91803C137.985 6.91803 137.362 6.91803 136.428 6.91803C129.575 7.54695 121.477 8.80477 114.313 11.6349Z" fill="url(#paint13_radial)"/>
<path d="M114.313 11.6349C107.772 14.1505 102.165 17.6095 97.8044 22.0119C90.9519 28.6155 86.2797 36.7914 84.7223 45.5961C82.8534 56.2876 85.6567 67.608 93.7552 77.9851C95.9356 80.8152 98.4274 83.6453 101.231 86.1609C122.723 105.028 159.477 111.317 184.084 101.569C194.363 97.4814 202.15 90.8778 206.199 83.0164C203.707 72.0104 199.97 61.9478 194.363 52.5142C191.871 55.9732 188.133 59.1177 182.527 61.0045C169.133 66.0358 145.149 61.9478 137.362 52.5142C129.887 43.3949 134.559 31.7601 147.953 26.7288C152.625 25.1565 165.395 24.2131 171.936 25.4709C171.936 25.4709 172.248 25.4709 171.936 25.1565C163.838 17.924 154.805 12.5782 145.461 8.49031C143.28 7.54695 140.789 6.91803 138.608 6.91803C137.985 6.91803 137.362 6.91803 136.428 6.91803C129.575 7.54695 121.477 8.80477 114.313 11.6349Z" fill="url(#paint14_radial)"/>
</g>
<defs>
<radialGradient id="paint0_radial" cx="0" cy="0" r="1" gradientUnits="userSpaceOnUse" gradientTransform="translate(193.849 211.314) rotate(-135.012) scale(274.085 391.098)">
<stop stop-color="#21A038"/>
<stop offset="0.746907" stop-color="#21A038" stop-opacity="0.8"/>
<stop offset="1" stop-color="#21A038" stop-opacity="0"/>
</radialGradient>
<radialGradient id="paint1_radial" cx="0" cy="0" r="1" gradientUnits="userSpaceOnUse" gradientTransform="translate(58.3515 163.408) rotate(-62.9287) scale(163.614 251.704)">
<stop stop-color="#A0E720"/>
<stop offset="1" stop-color="#A0E720" stop-opacity="0"/>
</radialGradient>
<radialGradient id="paint2_radial" cx="0" cy="0" r="1" gradientUnits="userSpaceOnUse" gradientTransform="translate(192.954 8.3122) rotate(149.712) scale(161.517 104.322)">
<stop stop-color="#0087CD"/>
<stop offset="1" stop-color="#0087CD" stop-opacity="0"/>
</radialGradient>
<radialGradient id="paint3_radial" cx="0" cy="0" r="1" gradientUnits="userSpaceOnUse" gradientTransform="translate(-31.3236 271.034) rotate(-70.1407) scale(333.525 283.554)">
<stop stop-color="#FAED00"/>
<stop offset="1" stop-color="#FAED00" stop-opacity="0"/>
</radialGradient>
<radialGradient id="paint4_radial" cx="0" cy="0" r="1" gradientUnits="userSpaceOnUse" gradientTransform="translate(40.9892) rotate(-172.406) scale(89.3852 148.544)">
<stop stop-color="#42E3B4"/>
<stop offset="1" stop-color="#42E3B4" stop-opacity="0"/>
</radialGradient>
<radialGradient id="paint5_radial" cx="0" cy="0" r="1" gradientUnits="userSpaceOnUse" gradientTransform="translate(193.849 211.314) rotate(-135.012) scale(274.085 391.098)">
<stop stop-color="#21A038"/>
<stop offset="0.746907" stop-color="#21A038" stop-opacity="0.8"/>
<stop offset="1" stop-color="#21A038" stop-opacity="0"/>
</radialGradient>
<radialGradient id="paint6_radial" cx="0" cy="0" r="1" gradientUnits="userSpaceOnUse" gradientTransform="translate(58.3515 163.408) rotate(-62.9287) scale(163.614 251.704)">
<stop stop-color="#A0E720"/>
<stop offset="1" stop-color="#A0E720" stop-opacity="0"/>
</radialGradient>
<radialGradient id="paint7_radial" cx="0" cy="0" r="1" gradientUnits="userSpaceOnUse" gradientTransform="translate(192.954 8.3122) rotate(149.712) scale(161.517 104.322)">
<stop stop-color="#0087CD"/>
<stop offset="1" stop-color="#0087CD" stop-opacity="0"/>
</radialGradient>
<radialGradient id="paint8_radial" cx="0" cy="0" r="1" gradientUnits="userSpaceOnUse" gradientTransform="translate(-31.3236 271.034) rotate(-70.1407) scale(333.525 283.554)">
<stop stop-color="#FAED00"/>
<stop offset="1" stop-color="#FAED00" stop-opacity="0"/>
</radialGradient>
<radialGradient id="paint9_radial" cx="0" cy="0" r="1" gradientUnits="userSpaceOnUse" gradientTransform="translate(40.9892) rotate(-172.406) scale(89.3852 148.544)">
<stop stop-color="#42E3B4"/>
<stop offset="1" stop-color="#42E3B4" stop-opacity="0"/>
</radialGradient>
<radialGradient id="paint10_radial" cx="0" cy="0" r="1" gradientUnits="userSpaceOnUse" gradientTransform="translate(193.849 211.314) rotate(-135.012) scale(274.085 391.098)">
<stop stop-color="#21A038"/>
<stop offset="0.746907" stop-color="#21A038" stop-opacity="0.8"/>
<stop offset="1" stop-color="#21A038" stop-opacity="0"/>
</radialGradient>
<radialGradient id="paint11_radial" cx="0" cy="0" r="1" gradientUnits="userSpaceOnUse" gradientTransform="translate(58.3515 163.408) rotate(-62.9287) scale(163.614 251.704)">
<stop stop-color="#A0E720"/>
<stop offset="1" stop-color="#A0E720" stop-opacity="0"/>
</radialGradient>
<radialGradient id="paint12_radial" cx="0" cy="0" r="1" gradientUnits="userSpaceOnUse" gradientTransform="translate(192.954 8.3122) rotate(149.712) scale(161.517 104.322)">
<stop stop-color="#0087CD"/>
<stop offset="1" stop-color="#0087CD" stop-opacity="0"/>
</radialGradient>
<radialGradient id="paint13_radial" cx="0" cy="0" r="1" gradientUnits="userSpaceOnUse" gradientTransform="translate(-31.3236 271.034) rotate(-70.1407) scale(333.525 283.554)">
<stop stop-color="#FAED00"/>
<stop offset="1" stop-color="#FAED00" stop-opacity="0"/>
</radialGradient>
<radialGradient id="paint14_radial" cx="0" cy="0" r="1" gradientUnits="userSpaceOnUse" gradientTransform="translate(40.9892) rotate(-172.406) scale(89.3852 148.544)">
<stop stop-color="#42E3B4"/>
<stop offset="1" stop-color="#42E3B4" stop-opacity="0"/>
</radialGradient>
<clipPath id="clip0">
<rect width="206.511" height="211" fill="white"/>
</clipPath>
</defs>
</svg>
