<svg width="15" height="18" viewBox="0 0 15 18" fill="none" xmlns="http://www.w3.org/2000/svg">
<mask id="path-1-outside-1" maskUnits="userSpaceOnUse" x="-0.490234" y="0" width="16" height="18" fill="black">
<rect fill="white" x="-0.490234" width="16" height="18"/>
<path fill-rule="evenodd" clip-rule="evenodd" d="M11.4951 6.18462C11.587 6.27654 11.7076 6.32238 11.828 6.32238C11.9483 6.32238 12.0689 6.27654 12.1608 6.18469L14.339 4.0067C14.4318 3.92073 14.49 3.79781 14.49 3.66138C14.49 3.52471 14.4316 3.40161 14.3385 3.31562L12.1608 1.13786C11.977 0.954048 11.6789 0.954048 11.4951 1.13786C11.3115 1.32167 11.3115 1.61972 11.4951 1.80353L12.8825 3.1908H3.0077C1.64422 3.1908 0.535156 4.29986 0.535156 5.66334V8.49959C0.535156 8.75937 0.74595 8.97017 1.00574 8.97017C1.26552 8.97017 1.47632 8.75941 1.47632 8.49959V5.66331C1.47632 4.81898 2.1633 4.13196 3.00767 4.13196H12.8824L11.4951 5.51894C11.3115 5.70275 11.3115 6.00081 11.4951 6.18462ZM0.671789 13.9835C0.572538 14.0698 0.509766 14.197 0.509766 14.3388C0.509766 14.4811 0.572998 14.6086 0.672879 14.695L2.84016 16.8622C2.93208 16.9542 3.05267 17 3.17302 17C3.29336 17 3.41395 16.9542 3.50584 16.8622C3.6894 16.6784 3.6894 16.3803 3.50584 16.1965L2.11852 14.8094H12.0161C13.3795 14.8094 14.4888 13.7003 14.4888 12.3368V9.44446C14.4888 9.18467 14.278 8.97388 14.0182 8.97388C13.7584 8.97388 13.5476 9.18467 13.5476 9.44446V12.3368C13.5476 13.1812 12.8607 13.8682 12.016 13.8682H2.11836L3.50584 12.4811C3.6894 12.2973 3.6894 11.9992 3.50584 11.8154C3.32203 11.6316 3.02397 11.6316 2.84016 11.8154L0.671789 13.9835Z"/>
</mask>
<path fill-rule="evenodd" clip-rule="evenodd" d="M11.4951 6.18462C11.587 6.27654 11.7076 6.32238 11.828 6.32238C11.9483 6.32238 12.0689 6.27654 12.1608 6.18469L14.339 4.0067C14.4318 3.92073 14.49 3.79781 14.49 3.66138C14.49 3.52471 14.4316 3.40161 14.3385 3.31562L12.1608 1.13786C11.977 0.954048 11.6789 0.954048 11.4951 1.13786C11.3115 1.32167 11.3115 1.61972 11.4951 1.80353L12.8825 3.1908H3.0077C1.64422 3.1908 0.535156 4.29986 0.535156 5.66334V8.49959C0.535156 8.75937 0.74595 8.97017 1.00574 8.97017C1.26552 8.97017 1.47632 8.75941 1.47632 8.49959V5.66331C1.47632 4.81898 2.1633 4.13196 3.00767 4.13196H12.8824L11.4951 5.51894C11.3115 5.70275 11.3115 6.00081 11.4951 6.18462ZM0.671789 13.9835C0.572538 14.0698 0.509766 14.197 0.509766 14.3388C0.509766 14.4811 0.572998 14.6086 0.672879 14.695L2.84016 16.8622C2.93208 16.9542 3.05267 17 3.17302 17C3.29336 17 3.41395 16.9542 3.50584 16.8622C3.6894 16.6784 3.6894 16.3803 3.50584 16.1965L2.11852 14.8094H12.0161C13.3795 14.8094 14.4888 13.7003 14.4888 12.3368V9.44446C14.4888 9.18467 14.278 8.97388 14.0182 8.97388C13.7584 8.97388 13.5476 9.18467 13.5476 9.44446V12.3368C13.5476 13.1812 12.8607 13.8682 12.016 13.8682H2.11836L3.50584 12.4811C3.6894 12.2973 3.6894 11.9992 3.50584 11.8154C3.32203 11.6316 3.02397 11.6316 2.84016 11.8154L0.671789 13.9835Z" fill="url(#paint0_linear)"/>
<path d="M11.4951 6.18462L11.4243 6.25528L11.4244 6.25533L11.4951 6.18462ZM12.1608 6.18469L12.2315 6.25541L12.2315 6.2554L12.1608 6.18469ZM14.339 4.0067L14.271 3.93327L14.2683 3.93598L14.339 4.0067ZM14.3385 3.31562L14.2678 3.38638L14.2707 3.38908L14.3385 3.31562ZM12.1608 1.13786L12.2315 1.06715L12.2315 1.06715L12.1608 1.13786ZM11.4951 1.13786L11.4244 1.06715L11.4243 1.06719L11.4951 1.13786ZM11.4951 1.80353L11.4243 1.8742L11.4244 1.87425L11.4951 1.80353ZM12.8825 3.1908V3.2908H13.124L12.9532 3.12008L12.8825 3.1908ZM12.8824 4.13196L12.9531 4.20268L13.1239 4.03196H12.8824V4.13196ZM11.4951 5.51894L11.4244 5.44822L11.4243 5.44828L11.4951 5.51894ZM0.671789 13.9835L0.737561 14.0592L0.742496 14.0543L0.671789 13.9835ZM0.672879 14.695L0.743777 14.6241L0.738261 14.6193L0.672879 14.695ZM2.84016 16.8622L2.91087 16.7915L2.91087 16.7915L2.84016 16.8622ZM3.50584 16.8622L3.43508 16.7915L3.43507 16.7915L3.50584 16.8622ZM3.50584 16.1965L3.57659 16.1258L3.57654 16.1258L3.50584 16.1965ZM2.11852 14.8094V14.7094H1.87707L2.04781 14.8801L2.11852 14.8094ZM14.4888 12.3368H14.3888V12.3368L14.4888 12.3368ZM2.11836 13.8682L2.04766 13.7975L1.87689 13.9682H2.11836V13.8682ZM3.50584 12.4811L3.57654 12.5518L3.57659 12.5517L3.50584 12.4811ZM3.50584 11.8154L3.57659 11.7447L3.57655 11.7447L3.50584 11.8154ZM2.84016 11.8154L2.91087 11.8861L2.91087 11.8861L2.84016 11.8154ZM11.828 6.22238C11.733 6.22238 11.6382 6.18627 11.5658 6.11391L11.4244 6.25533C11.5359 6.36681 11.6822 6.42238 11.828 6.42238V6.22238ZM12.0901 6.11396C12.0177 6.18626 11.9229 6.22238 11.828 6.22238V6.42238C11.9736 6.42238 12.12 6.36682 12.2315 6.25541L12.0901 6.11396ZM14.2683 3.93598L12.0901 6.11397L12.2315 6.2554L14.4097 4.07741L14.2683 3.93598ZM14.39 3.66138C14.39 3.76878 14.3443 3.86547 14.2711 3.93333L14.4069 4.08007C14.5193 3.97599 14.59 3.82683 14.59 3.66138H14.39ZM14.2707 3.38908C14.3442 3.45696 14.39 3.55379 14.39 3.66138H14.59C14.59 3.49564 14.5191 3.34626 14.4064 3.24215L14.2707 3.38908ZM12.0901 1.20857L14.2678 3.38633L14.4092 3.24491L12.2315 1.06715L12.0901 1.20857ZM11.5658 1.20857C11.7106 1.06381 11.9453 1.06381 12.0901 1.20857L12.2315 1.06715C12.0086 0.844285 11.6472 0.844284 11.4244 1.06715L11.5658 1.20857ZM11.5659 1.73287C11.4213 1.5881 11.4213 1.35329 11.5659 1.20852L11.4243 1.06719C11.2018 1.29005 11.2018 1.65134 11.4243 1.8742L11.5659 1.73287ZM12.9532 3.12008L11.5658 1.73282L11.4244 1.87425L12.8118 3.26151L12.9532 3.12008ZM3.0077 3.2908H12.8825V3.0908H3.0077V3.2908ZM0.635156 5.66334C0.635156 4.35509 1.69945 3.2908 3.0077 3.2908V3.0908C1.58899 3.0908 0.435156 4.24463 0.435156 5.66334H0.635156ZM0.635156 8.49959V5.66334H0.435156V8.49959H0.635156ZM1.00574 8.87017C0.801179 8.87017 0.635156 8.70414 0.635156 8.49959H0.435156C0.435156 8.8146 0.690722 9.07017 1.00574 9.07017V8.87017ZM1.37632 8.49959C1.37632 8.70417 1.2103 8.87017 1.00574 8.87017V9.07017C1.32075 9.07017 1.57632 8.81464 1.57632 8.49959H1.37632ZM1.37632 5.66331V8.49959H1.57632V5.66331H1.37632ZM3.00767 4.03196C2.10807 4.03196 1.37632 4.76375 1.37632 5.66331H1.57632C1.57632 4.8742 2.21853 4.23196 3.00767 4.23196V4.03196ZM12.8824 4.03196H3.00767V4.23196H12.8824V4.03196ZM11.5658 5.58966L12.9531 4.20268L12.8117 4.06124L11.4244 5.44822L11.5658 5.58966ZM11.5659 6.11395C11.4213 5.96919 11.4213 5.73437 11.5659 5.58961L11.4243 5.44828C11.2018 5.67113 11.2018 6.03243 11.4243 6.25528L11.5659 6.11395ZM0.606176 13.9081C0.48603 14.0125 0.409766 14.1668 0.409766 14.3388H0.609766C0.609766 14.2272 0.659046 14.1271 0.737402 14.059L0.606176 13.9081ZM0.409766 14.3388C0.409766 14.5114 0.486589 14.6661 0.607496 14.7706L0.738261 14.6193C0.659407 14.5512 0.609766 14.4508 0.609766 14.3388H0.409766ZM2.91087 16.7915L0.74359 14.6242L0.602168 14.7657L2.76945 16.933L2.91087 16.7915ZM3.17302 16.9C3.07803 16.9 2.98323 16.8639 2.91087 16.7915L2.76945 16.933C2.88093 17.0444 3.02731 17.1 3.17302 17.1V16.9ZM3.43507 16.7915C3.36278 16.8639 3.26802 16.9 3.17302 16.9V17.1C3.3187 17.1 3.46512 17.0445 3.5766 16.9328L3.43507 16.7915ZM3.43508 16.2672C3.57965 16.4119 3.57965 16.6467 3.43508 16.7915L3.57659 16.9328C3.79915 16.71 3.79915 16.3487 3.57659 16.1258L3.43508 16.2672ZM2.04781 14.8801L3.43513 16.2672L3.57654 16.1258L2.18922 14.7386L2.04781 14.8801ZM2.11852 14.9094H12.0161V14.7094H2.11852V14.9094ZM12.0161 14.9094C13.4347 14.9094 14.5888 13.7555 14.5888 12.3368L14.3888 12.3368C14.3888 13.6451 13.3243 14.7094 12.0161 14.7094V14.9094ZM14.5888 12.3368V9.44446H14.3888V12.3368H14.5888ZM14.5888 9.44446C14.5888 9.12944 14.3332 8.87388 14.0182 8.87388V9.07388C14.2228 9.07388 14.3888 9.2399 14.3888 9.44446H14.5888ZM14.0182 8.87388C13.7032 8.87388 13.4476 9.12944 13.4476 9.44446H13.6476C13.6476 9.2399 13.8137 9.07388 14.0182 9.07388V8.87388ZM13.4476 9.44446V12.3368H13.6476V9.44446H13.4476ZM13.4476 12.3368C13.4476 13.1259 12.8054 13.7682 12.016 13.7682V13.9682C12.9159 13.9682 13.6476 13.2364 13.6476 12.3368H13.4476ZM12.016 13.7682H2.11836V13.9682H12.016V13.7682ZM3.43513 12.4104L2.04766 13.7975L2.18906 13.9389L3.57654 12.5518L3.43513 12.4104ZM3.43508 11.8861C3.57965 12.0308 3.57965 12.2657 3.43508 12.4104L3.57659 12.5517C3.79915 12.3289 3.79915 11.9676 3.57659 11.7447L3.43508 11.8861ZM2.91087 11.8861C3.05563 11.7414 3.29037 11.7414 3.43512 11.8861L3.57655 11.7447C3.35368 11.5218 2.99231 11.5218 2.76945 11.7447L2.91087 11.8861ZM0.742496 14.0543L2.91087 11.8861L2.76945 11.7447L0.601082 13.9128L0.742496 14.0543Z" fill="url(#paint1_linear)" mask="url(#path-1-outside-1)"/>
<defs>
<linearGradient id="paint0_linear" x1="14.49" y1="9" x2="0.509766" y2="9" gradientUnits="userSpaceOnUse">
<stop stop-color="#24E029"/>
<stop offset="1" stop-color="#00B9AC"/>
</linearGradient>
<linearGradient id="paint1_linear" x1="14.49" y1="9" x2="0.509766" y2="9" gradientUnits="userSpaceOnUse">
<stop stop-color="#24E029"/>
<stop offset="1" stop-color="#00B9AC"/>
</linearGradient>
</defs>
</svg>
