<svg width="22" height="13" viewBox="0 0 22 13" fill="none" xmlns="http://www.w3.org/2000/svg">
<path fill-rule="evenodd" clip-rule="evenodd" d="M3.232 0H0.825205C0.137541 0 0 0.322127 0 0.677232C0 1.31156 0.815965 4.45749 3.79926 8.61825C5.78812 11.4597 8.59023 13 11.1401 13C12.67 13 12.8593 12.6579 12.8593 12.0687V9.92105C12.8593 9.23684 13.0042 9.10027 13.4886 9.10027C13.8456 9.10027 14.4576 9.27789 15.8855 10.6479C17.5174 12.2716 17.7864 13 18.7043 13H21.1111C21.7988 13 22.1426 12.6579 21.9443 11.9828C21.7272 11.3099 20.9481 10.3336 19.9142 9.17643C19.3532 8.51678 18.5118 7.80643 18.2568 7.45119C17.8999 6.99455 18.0018 6.79154 18.2568 6.38567C18.2568 6.38567 21.1891 2.27562 21.4951 0.880305C21.6481 0.372826 21.4951 0 20.7673 0H18.3605C17.7485 0 17.4664 0.322127 17.3134 0.677232C17.3134 0.677232 16.0895 3.64561 14.3556 5.57378C13.7946 6.13189 13.5396 6.30952 13.2336 6.30952C13.0806 6.30952 12.8592 6.1319 12.8592 5.62455V0.880305C12.8592 0.271358 12.6816 0 12.1716 0H8.38941C8.00703 0 7.77699 0.282579 7.77699 0.550447C7.77699 1.12765 8.64392 1.26079 8.7333 2.88449V6.41105C8.7333 7.18421 8.59291 7.32441 8.28697 7.32441C7.47105 7.32441 5.48631 4.34275 4.30918 0.931006C4.07852 0.267869 3.84711 0 3.232 0Z" fill="white"/>
</svg>
